<svg width="122" height="123" viewBox="0 0 122 123" fill="none" xmlns="http://www.w3.org/2000/svg">
<path d="M121.721 61.4258C121.721 94.9143 94.5736 122.062 61.0851 122.062C27.5966 122.062 0.44873 94.9143 0.44873 61.4258C0.44873 27.9373 27.5966 0.789429 61.0851 0.789429C94.5736 0.789429 121.721 27.9373 121.721 61.4258Z" fill="#FFEE58"/>
<path d="M117.796 62.0265H118.767V68.811H117.796V65.9664H109.721V64.871H117.796V62.0265Z" fill="black" fill-opacity="0.87"/>
<path d="M112.307 74.1156L108.31 73.2898L108.521 72.269L117.38 74.0994L117.169 75.1202L113.916 74.4481L113.898 74.5346C114.209 74.7612 114.433 75.0511 114.571 75.4043C114.711 75.7609 114.726 76.2002 114.619 76.7222C114.525 77.1749 114.352 77.5527 114.1 77.8554C113.851 78.1587 113.521 78.3657 113.111 78.4763C112.702 78.5903 112.212 78.5884 111.641 78.4704L107.42 77.5981L107.631 76.5773L111.783 77.4353C112.311 77.5443 112.747 77.4916 113.092 77.2773C113.439 77.0664 113.663 76.7201 113.762 76.2386C113.831 75.904 113.823 75.5895 113.736 75.295C113.649 75.0034 113.486 74.7532 113.246 74.5443C113.006 74.3384 112.693 74.1955 112.307 74.1156Z" fill="black" fill-opacity="0.87"/>
<path d="M104.973 82.2706C105.133 81.8716 105.354 81.5396 105.634 81.2747C105.918 81.0108 106.242 80.8408 106.605 80.7646C106.972 80.6895 107.36 80.7341 107.77 80.8986C108.131 81.0433 108.394 81.2316 108.562 81.4636C108.731 81.6967 108.833 81.9579 108.866 82.2472C108.899 82.5365 108.889 82.8372 108.837 83.1494C108.787 83.4654 108.722 83.7773 108.643 84.0851C108.538 84.4874 108.451 84.8124 108.38 85.0601C108.311 85.3115 108.286 85.5045 108.305 85.6391C108.323 85.7763 108.41 85.8762 108.566 85.9387L108.598 85.9519C109.003 86.1141 109.362 86.1295 109.674 85.998C109.986 85.8692 110.231 85.5821 110.41 85.1366C110.595 84.6748 110.64 84.2721 110.543 83.9286C110.446 83.5851 110.304 83.314 110.117 83.1154L110.813 82.3286C111.13 82.6461 111.34 82.9842 111.444 83.343C111.549 83.7056 111.579 84.0665 111.533 84.4258C111.489 84.7888 111.403 85.1288 111.276 85.4459C111.195 85.6481 111.077 85.8705 110.923 86.1132C110.77 86.3596 110.57 86.5763 110.324 86.763C110.077 86.9525 109.771 87.0695 109.408 87.114C109.044 87.1585 108.612 87.0805 108.112 86.8799L103.963 85.2158L104.351 84.2484L105.204 84.5904L105.224 84.5412C105.113 84.4208 105.011 84.2528 104.917 84.0373C104.822 83.8217 104.771 83.565 104.764 83.2669C104.757 82.9689 104.826 82.6368 104.973 82.2706ZM105.783 82.7668C105.63 83.1494 105.575 83.502 105.621 83.8247C105.665 84.1501 105.779 84.4274 105.963 84.6567C106.146 84.8887 106.368 85.0574 106.631 85.1626L107.516 85.5178C107.483 85.457 107.474 85.3488 107.489 85.1929C107.506 85.0409 107.535 84.8687 107.578 84.6763C107.621 84.4877 107.667 84.3043 107.713 84.126C107.76 83.9517 107.798 83.8098 107.826 83.7005C107.894 83.4359 107.935 83.1795 107.949 82.9312C107.965 82.6868 107.927 82.4686 107.836 82.2766C107.746 82.0884 107.579 81.945 107.333 81.8463C106.996 81.7115 106.692 81.7339 106.42 81.9135C106.15 82.097 105.938 82.3814 105.783 82.7668Z" fill="black" fill-opacity="0.87"/>
<path d="M101.709 88.1998L107.446 91.8208L106.909 92.6725L106.012 92.1067L105.965 92.1814C106.196 92.4942 106.312 92.8373 106.313 93.2106C106.317 93.5855 106.201 93.9597 105.965 94.3332C105.726 94.7118 105.442 94.9725 105.111 95.1156C104.781 95.2627 104.419 95.3106 104.023 95.2593L103.985 95.319C104.189 95.653 104.285 96.0219 104.274 96.4257C104.265 96.8311 104.131 97.2393 103.872 97.6502C103.548 98.1632 103.123 98.4814 102.596 98.6049C102.071 98.7299 101.471 98.5795 100.796 98.1536L96.9565 95.7301L97.5128 94.8486L101.353 97.272C101.776 97.5392 102.152 97.6144 102.48 97.4975C102.808 97.3807 103.071 97.1653 103.269 96.8516C103.523 96.4482 103.598 96.0586 103.494 95.683C103.393 95.3089 103.156 95.0048 102.785 94.7706L99.0499 92.4132L99.6157 91.5167L103.545 93.9968C103.871 94.2026 104.201 94.2626 104.534 94.1767C104.869 94.0923 105.142 93.8833 105.353 93.5496C105.497 93.3205 105.571 93.0678 105.575 92.7916C105.577 92.5179 105.508 92.2516 105.369 91.9929C105.23 91.7382 105.02 91.5221 104.739 91.3445L101.153 89.0813L101.709 88.1998Z" fill="black" fill-opacity="0.87"/>
<path d="M86.857 99.6643C87.2497 99.3492 87.6278 99.1287 87.9914 99.0031C88.3531 98.8751 88.6935 98.8171 89.0127 98.829C89.3278 98.8405 89.6141 98.8938 89.8718 98.9891L89.5891 99.9636C89.4382 99.9261 89.2567 99.8905 89.0447 99.8568C88.8308 99.8208 88.5894 99.8352 88.3204 99.9C88.0474 99.9644 87.7512 100.125 87.432 100.381C87.0049 100.724 86.7353 101.11 86.6233 101.54C86.5113 101.969 86.6322 102.405 86.9861 102.846L87.8487 103.92L87.9176 103.865C87.8999 103.721 87.889 103.533 87.885 103.302C87.8805 103.075 87.9362 102.825 88.0521 102.551C88.1676 102.281 88.3976 102.007 88.742 101.731C89.1692 101.388 89.6338 101.181 90.1359 101.111C90.6356 101.042 91.1391 101.121 91.6463 101.348C92.1511 101.577 92.6247 101.968 93.067 102.519C93.502 103.061 93.7855 103.609 93.9174 104.164C94.0512 104.721 94.0366 105.246 93.8737 105.74C93.7126 106.235 93.4092 106.662 92.9637 107.019C92.6192 107.296 92.2999 107.458 92.0056 107.505C91.7109 107.557 91.4516 107.553 91.2275 107.495C91.003 107.441 90.824 107.392 90.6906 107.348L90.6079 107.415L91.2825 108.255L90.4971 108.886L86.1289 103.443C85.764 102.988 85.5706 102.536 85.5487 102.085C85.5227 101.634 85.6297 101.202 85.8695 100.791C86.1053 100.379 86.4344 100.003 86.857 99.6643ZM89.2179 102.55C88.8918 102.811 88.6761 103.107 88.5709 103.437C88.4656 103.767 88.4669 104.119 88.5746 104.493C88.6823 104.867 88.8929 105.25 89.2062 105.64C89.5121 106.021 89.8396 106.312 90.1885 106.511C90.5374 106.711 90.8907 106.803 91.2485 106.787C91.6062 106.772 91.9505 106.632 92.2812 106.366C92.6256 106.09 92.8427 105.772 92.9322 105.413C93.0195 105.056 93.0026 104.685 92.8815 104.299C92.7581 103.914 92.5527 103.543 92.2651 103.185C91.9702 102.818 91.652 102.539 91.3105 102.348C90.9685 102.162 90.6193 102.08 90.263 102.102C89.9061 102.127 89.5578 102.277 89.2179 102.55Z" fill="black" fill-opacity="0.87"/>
<path d="M83.2963 104.721L86.5294 110.686L85.6129 111.182L82.3799 105.218L83.2963 104.721ZM86.6022 111.932C86.7808 111.836 86.9679 111.813 87.1633 111.864C87.3561 111.917 87.4988 112.029 87.5914 112.2C87.684 112.371 87.6998 112.552 87.6389 112.742C87.5755 112.934 87.4544 113.078 87.2758 113.175C87.0971 113.272 86.9114 113.294 86.7186 113.241C86.5232 113.189 86.3792 113.078 86.2866 112.907C86.194 112.736 86.1794 112.555 86.2429 112.363C86.3038 112.173 86.4236 112.029 86.6022 111.932Z" fill="black" fill-opacity="0.87"/>
<path d="M76.8512 107.384C77.2484 107.219 77.6399 107.145 78.0256 107.16C78.4125 107.179 78.7603 107.291 79.069 107.498C79.3789 107.707 79.6183 108.016 79.7874 108.424C79.9361 108.783 79.9859 109.104 79.9369 109.385C79.8889 109.67 79.7731 109.925 79.5894 110.151C79.4056 110.377 79.1839 110.58 78.9242 110.761C78.6628 110.946 78.3945 111.117 78.1192 111.276C77.7586 111.483 77.465 111.647 77.2385 111.77C77.0103 111.896 76.8548 112.013 76.7719 112.121C76.6863 112.23 76.6756 112.362 76.7398 112.517L76.7533 112.549C76.9201 112.952 77.1599 113.219 77.4726 113.351C77.7827 113.484 78.1594 113.459 78.6028 113.275C79.0626 113.085 79.3814 112.835 79.5592 112.525C79.737 112.216 79.8316 111.925 79.843 111.652L80.8924 111.6C80.8869 112.048 80.7921 112.435 80.6079 112.76C80.4221 113.089 80.1848 113.362 79.896 113.581C79.6056 113.803 79.3026 113.98 78.9871 114.11C78.7857 114.194 78.5443 114.265 78.2629 114.324C77.9798 114.387 77.6855 114.396 77.3798 114.35C77.0714 114.306 76.7741 114.169 76.4881 113.941C76.202 113.712 75.9559 113.348 75.7497 112.85L74.0392 108.721L75.0023 108.322L75.3538 109.17L75.4028 109.15C75.4118 108.987 75.4603 108.797 75.5484 108.578C75.6365 108.36 75.7846 108.144 75.9925 107.931C76.2004 107.717 76.4867 107.535 76.8512 107.384ZM77.0627 108.31C76.6818 108.467 76.3917 108.675 76.1925 108.933C75.9906 109.192 75.872 109.467 75.8368 109.759C75.7988 110.052 75.8339 110.329 75.942 110.591L76.3071 111.472C76.3276 111.406 76.3988 111.324 76.5207 111.226C76.6409 111.131 76.7846 111.032 76.9518 110.928C77.1173 110.827 77.28 110.731 77.4396 110.64C77.5977 110.552 77.7256 110.48 77.8233 110.423C78.0601 110.287 78.2721 110.137 78.4593 109.973C78.6449 109.814 78.7746 109.634 78.8481 109.435C78.9201 109.239 78.9054 109.019 78.804 108.774C78.6654 108.44 78.4368 108.238 78.1183 108.169C77.7981 108.104 77.4463 108.151 77.0627 108.31Z" fill="black" fill-opacity="0.87"/>
<path d="M65.4252 109.885L66.182 116.628L65.1812 116.74L65.063 115.686L64.9752 115.696C64.8751 116.072 64.6797 116.377 64.3889 116.611C64.0985 116.848 63.7338 116.991 63.2948 117.041C62.85 117.09 62.4685 117.031 62.1503 116.862C61.8295 116.697 61.5655 116.444 61.3583 116.102L61.2881 116.11C61.1545 116.478 60.9266 116.783 60.6043 117.027C60.2823 117.274 59.8799 117.424 59.397 117.478C58.7942 117.546 58.28 117.412 57.8542 117.078C57.4288 116.746 57.1716 116.184 57.0826 115.391L56.5761 110.879L57.612 110.762L58.1185 115.275C58.1744 115.772 58.3504 116.113 58.6465 116.296C58.9426 116.479 59.275 116.55 59.6437 116.508C60.1178 116.455 60.4689 116.27 60.6972 115.954C60.9258 115.641 61.0156 115.267 60.9666 114.831L60.4739 110.441L61.5274 110.323L62.0457 114.941C62.0887 115.324 62.2478 115.619 62.5228 115.825C62.7981 116.034 63.1318 116.117 63.524 116.073C63.7932 116.042 64.0368 115.942 64.2548 115.773C64.4699 115.603 64.6348 115.383 64.7496 115.113C64.8619 114.845 64.8994 114.546 64.8623 114.216L64.3893 110.002L65.4252 109.885Z" fill="black" fill-opacity="0.87"/>
<path d="M54.0402 109.567L53.2057 116.3L52.1712 116.172L53.0057 109.439L54.0402 109.567ZM52.5406 117.357C52.7422 117.382 52.9076 117.472 53.0367 117.628C53.1629 117.783 53.214 117.957 53.1901 118.15C53.1662 118.343 53.0741 118.499 52.9139 118.619C52.7508 118.738 52.5684 118.785 52.3667 118.76C52.1651 118.735 52.0012 118.645 51.875 118.49C51.7459 118.334 51.6933 118.16 51.7172 117.967C51.7412 117.774 51.8347 117.618 51.9978 117.499C52.158 117.38 52.339 117.332 52.5406 117.357Z" fill="black" fill-opacity="0.87"/>
<path d="M46.4167 107.825C47.0537 107.972 47.5708 108.239 47.9679 108.627C48.3615 109.017 48.6246 109.494 48.7571 110.06C48.8861 110.627 48.8725 111.25 48.7164 111.927C48.5602 112.604 48.2992 113.172 47.9334 113.632C47.564 114.094 47.1235 114.418 46.6119 114.606C46.0968 114.795 45.5408 114.821 44.944 114.683C44.5997 114.604 44.2729 114.468 43.9636 114.276C43.6544 114.084 43.3918 113.827 43.1759 113.505C42.9593 113.186 42.8179 112.797 42.7516 112.337C42.6853 111.878 42.7233 111.34 42.8655 110.723L42.9648 110.292L48.0608 111.467L47.8583 112.345L43.7953 111.409C43.7093 111.782 43.7071 112.132 43.7889 112.459C43.8677 112.785 44.0239 113.064 44.2575 113.297C44.4881 113.528 44.7871 113.686 45.1544 113.771C45.559 113.864 45.9322 113.844 46.2741 113.712C46.6124 113.581 46.8972 113.375 47.1284 113.093C47.3597 112.811 47.5173 112.487 47.6014 112.123L47.7363 111.538C47.8515 111.038 47.863 110.595 47.7709 110.208C47.6752 109.824 47.4933 109.505 47.2251 109.253C46.9563 109.004 46.6167 108.832 46.2063 108.737C45.9395 108.676 45.6899 108.657 45.4575 108.682C45.2215 108.71 45.0071 108.781 44.8142 108.897C44.6207 109.015 44.4544 109.179 44.3154 109.389L43.3976 108.887C43.5776 108.578 43.8187 108.326 44.1208 108.129C44.4223 107.936 44.7686 107.81 45.1597 107.752C45.5501 107.697 45.9691 107.721 46.4167 107.825ZM44.1511 116.549L42.6769 114.686L43.7443 114.932L44.6873 116.111L46.0512 115.464L47.1186 115.711L44.9775 116.74L44.1511 116.549ZM43.1475 117.914L42.6972 117.665C42.7508 117.432 42.8948 117.24 43.1292 117.089C43.3629 116.94 43.6175 116.898 43.8929 116.961C44.0393 116.995 44.158 117.044 44.2492 117.107C44.3397 117.173 44.4188 117.243 44.4866 117.316C44.5515 117.388 44.6223 117.454 44.6992 117.514C44.7724 117.577 44.8679 117.621 44.9856 117.648C45.1061 117.676 45.23 117.656 45.3573 117.589C45.4847 117.522 45.5603 117.436 45.5841 117.333L46.0211 117.561C45.9675 117.793 45.8261 117.987 45.5968 118.143C45.3668 118.301 45.1141 118.349 44.8387 118.285C44.7182 118.258 44.6138 118.212 44.5255 118.15C44.4372 118.087 44.3545 118.02 44.2775 117.947C44.2004 117.875 44.1206 117.809 44.0381 117.747C43.9526 117.685 43.854 117.641 43.7421 117.615C43.6216 117.588 43.4983 117.605 43.3723 117.666C43.2463 117.728 43.1713 117.81 43.1475 117.914Z" fill="black" fill-opacity="0.87"/>
<path d="M38.3702 109.057L39.9881 105.31L40.9451 105.723L38.2556 111.952L37.331 111.552L37.7512 110.579L37.6701 110.544C37.3876 110.797 37.0562 110.956 36.6759 111.019C36.2945 111.086 35.8686 111.017 35.3982 110.814C34.9765 110.632 34.6448 110.386 34.4032 110.077C34.1605 109.77 34.0265 109.404 34.0014 108.979C33.9751 108.557 34.0763 108.081 34.3051 107.552L36.0141 103.594L36.9711 104.007L35.2901 107.9C35.0789 108.389 35.0413 108.825 35.1775 109.208C35.3126 109.594 35.6018 109.882 36.0452 110.073C36.3506 110.205 36.6523 110.257 36.9501 110.228C37.2452 110.199 37.5165 110.087 37.7641 109.892C38.0117 109.697 38.2137 109.419 38.3702 109.057Z" fill="black" fill-opacity="0.87"/>
<path d="M31.0394 96.3968L25.1213 103.608L24.3428 102.969L25.0265 102.136L24.9309 102.057C24.797 102.1 24.6198 102.149 24.3993 102.204C24.1746 102.26 23.9175 102.262 23.6279 102.211C23.3342 102.16 23.0166 101.995 22.6752 101.715C22.2336 101.352 21.935 100.922 21.7793 100.425C21.6236 99.9279 21.6176 99.3992 21.7612 98.839C21.9047 98.2787 22.2026 97.7232 22.6547 97.1724C23.1105 96.617 23.6 96.2131 24.1234 95.9607C24.6448 95.7105 25.1644 95.6113 25.682 95.6628C26.1979 95.7166 26.6743 95.9229 27.1113 96.2815C27.4482 96.558 27.6722 96.8351 27.7832 97.1129C27.8924 97.393 27.9428 97.6496 27.9343 97.8827C27.924 98.118 27.9093 98.3078 27.89 98.4519L27.9583 98.508L30.2336 95.7355L31.0394 96.3968ZM26.4812 100.336C26.8062 99.9396 27.0349 99.5425 27.1673 99.1445C27.2978 98.7488 27.3216 98.374 27.2386 98.0202C27.1538 97.6687 26.9497 97.3603 26.6265 97.095C26.2896 96.8186 25.9357 96.6766 25.5646 96.6692C25.1894 96.6622 24.8207 96.7634 24.4584 96.9728C24.092 97.1825 23.7556 97.474 23.4492 97.8473C23.1466 98.2161 22.9308 98.5951 22.8017 98.9844C22.6685 99.3741 22.6448 99.7489 22.7304 100.109C22.8119 100.469 23.0234 100.789 23.3648 101.069C23.6926 101.338 24.0362 101.481 24.3957 101.498C24.7532 101.517 25.1104 101.426 25.467 101.223C25.8218 101.023 26.1599 100.727 26.4812 100.336Z" fill="black" fill-opacity="0.87"/>
<path d="M19.5622 93.9785L22.6694 91.3323L23.3453 92.1259L16.4583 97.991L15.7824 97.1974L18.3113 95.0438L18.254 94.9765C17.8841 95.0827 17.5176 95.0815 17.1545 94.973C16.7872 94.8642 16.4308 94.6069 16.0852 94.2011C15.7855 93.8492 15.5936 93.4808 15.5095 93.096C15.4232 92.713 15.4626 92.3256 15.6277 91.9336C15.7887 91.5412 16.0911 91.1561 16.535 90.778L19.8171 87.983L20.4929 88.7766L17.2647 91.5258C16.8544 91.8752 16.6279 92.2519 16.5851 92.6558C16.5381 93.0593 16.674 93.4483 16.9929 93.8227C17.2143 94.0827 17.4678 94.2691 17.7533 94.3818C18.0369 94.4923 18.3347 94.5172 18.6466 94.4565C18.9566 94.3937 19.2618 94.2343 19.5622 93.9785Z" fill="black" fill-opacity="0.87"/>
<path d="M18.4716 84.9146L12.6049 88.3223L12.0814 87.4209L17.948 84.0132L18.4716 84.9146ZM11.7839 88.7379L9.47035 88.8353L8.85804 87.7812L11.3224 87.9434L11.7839 88.7379Z" fill="black" fill-opacity="0.87"/>
<path d="M10.8289 72.8536C11.0697 73.7291 10.5514 74.6586 9.6639 74.9027C8.77643 75.1468 7.85563 74.6132 7.61482 73.7377C7.374 72.8622 7.89234 71.9327 8.77981 71.6886C9.66727 71.4445 10.5881 71.9781 10.8289 72.8536Z" fill="black" fill-opacity="0.87"/>
<path d="M4.39682 59.7076L3.42526 59.6889L3.55619 52.9057L4.52775 52.9244L4.47285 55.7684L12.5456 55.9243L12.5245 57.0195L4.45171 56.8636L4.39682 59.7076Z" fill="black" fill-opacity="0.87"/>
<path d="M10.1082 47.7863L14.0886 48.6882L13.8583 49.7049L5.03591 47.7059L5.26626 46.6892L8.50572 47.4232L8.52524 47.3371C8.21863 47.1046 7.99994 46.8105 7.86919 46.4547C7.73622 46.0955 7.72862 45.656 7.8464 45.1362C7.94856 44.6853 8.12849 44.3109 8.3862 44.013C8.64104 43.7145 8.97485 43.5139 9.38761 43.4111C9.79816 43.3049 10.2877 43.3162 10.8564 43.445L15.0608 44.3977L14.8304 45.4143L10.6949 44.4773C10.1694 44.3582 9.73212 44.4025 9.38311 44.6103C9.03189 44.8145 8.80194 45.1564 8.69327 45.636C8.61779 45.9692 8.62048 46.2838 8.70133 46.5799C8.78284 46.8731 8.94133 47.1264 9.1768 47.3398C9.41291 47.5503 9.72339 47.6991 10.1082 47.7863Z" fill="black" fill-opacity="0.87"/>
<path d="M17.6345 39.6998C17.4655 40.0951 17.2377 40.4221 16.9511 40.6806C16.6617 40.938 16.3344 41.1008 15.9691 41.1688C15.6011 41.2357 15.214 41.1823 14.8078 41.0087C14.4504 40.856 14.1907 40.6618 14.0289 40.4261C13.8643 40.1892 13.7687 39.9258 13.7422 39.6359C13.7156 39.3459 13.7319 39.0455 13.7911 38.7345C13.8488 38.4197 13.9206 38.1094 14.0065 37.8034C14.1198 37.4035 14.2146 37.0806 14.2909 36.8346C14.3656 36.5847 14.395 36.3923 14.379 36.2574C14.3642 36.1198 14.2796 36.018 14.1253 35.952L14.0928 35.9381C13.692 35.7669 13.3338 35.7435 13.018 35.8679C12.7034 35.9896 12.4518 36.2712 12.2632 36.7125C12.0676 37.1701 12.0144 37.5717 12.1037 37.9173C12.193 38.2629 12.3288 38.5371 12.5111 38.7399L11.7974 39.5108C11.4877 39.1863 11.2851 38.8436 11.1897 38.4825C11.0926 38.1176 11.071 37.7561 11.1248 37.3981C11.177 37.0361 11.2702 36.6981 11.4044 36.384C11.4901 36.1836 11.6128 35.9639 11.7726 35.7247C11.9309 35.4818 12.1353 35.2697 12.3856 35.0885C12.6371 34.9045 12.9452 34.7944 13.3098 34.7581C13.6743 34.7218 14.1044 34.8095 14.5999 35.0213L18.7103 36.7779L18.3006 37.7365L17.4558 37.3754L17.435 37.4241C17.5426 37.547 17.6412 37.7172 17.7307 37.9348C17.8202 38.1524 17.8653 38.4102 17.866 38.7084C17.8667 39.0065 17.7895 39.3369 17.6345 39.6998ZM16.8359 39.1856C16.9979 38.8065 17.06 38.4551 17.0222 38.1316C16.9855 37.8053 16.8777 37.5254 16.6988 37.2921C16.5211 37.056 16.3023 36.8824 16.0424 36.7713L15.165 36.3964C15.1964 36.4578 15.2029 36.5663 15.1845 36.7217C15.1646 36.8733 15.1313 37.0448 15.0847 37.2363C15.0366 37.4239 14.9874 37.6062 14.9374 37.7834C14.8857 37.9566 14.8447 38.0976 14.8142 38.2063C14.7403 38.4693 14.6936 38.7247 14.6741 38.9726C14.6531 39.2166 14.686 39.4356 14.7728 39.6296C14.858 39.8197 15.0225 39.9669 15.2662 40.071C15.5993 40.2134 15.9037 40.1978 16.1796 40.0243C16.454 39.8469 16.6727 39.5674 16.8359 39.1856Z" fill="black" fill-opacity="0.87"/>
<path d="M20.865 34.0556L15.1949 30.33L15.748 29.4883L16.6339 30.0705L16.6824 29.9966C16.4573 29.6796 16.3476 29.3345 16.3533 28.9612C16.3565 28.5863 16.4794 28.2143 16.722 27.8451C16.9678 27.4711 17.2572 27.2156 17.5903 27.0786C17.9226 26.9375 18.2862 26.8963 18.6811 26.9549L18.7199 26.8959C18.5224 26.5582 18.433 26.1876 18.4515 25.784C18.4676 25.3788 18.609 24.9732 18.8758 24.5672C19.2089 24.0602 19.6401 23.7498 20.1694 23.636C20.6963 23.5206 21.2931 23.682 21.96 24.1203L25.7548 26.6137L25.1824 27.4849L21.3876 24.9914C20.9693 24.7165 20.5951 24.6345 20.265 24.7453C19.935 24.8562 19.6681 25.0666 19.4644 25.3767C19.2024 25.7754 19.1201 26.1634 19.2173 26.5409C19.3121 26.9168 19.5429 27.2252 19.9095 27.4662L23.601 29.8917L23.0188 30.7776L19.1355 28.226C18.8131 28.0141 18.4847 27.9481 18.1504 28.0279C17.8136 28.1062 17.5369 28.3101 17.3202 28.6399C17.1714 28.8663 17.0927 29.1176 17.0839 29.3937C17.0767 29.6673 17.1406 29.9348 17.2755 30.1961C17.4095 30.4532 17.6155 30.6732 17.8936 30.8559L21.4374 33.1844L20.865 34.0556Z" fill="black" fill-opacity="0.87"/>
<path d="M35.7982 22.8895C35.3998 23.1975 35.0177 23.411 34.6519 23.53C34.2879 23.6513 33.9465 23.7031 33.6276 23.6854C33.3128 23.6682 33.0275 23.6096 32.7716 23.5097L33.0719 22.5405C33.2221 22.5807 33.4029 22.6196 33.6143 22.6572C33.8276 22.6971 34.0692 22.6871 34.3393 22.6272C34.6134 22.5678 34.9125 22.413 35.2363 22.1626C35.6696 21.8277 35.9462 21.4464 36.066 21.0188C36.1858 20.5912 36.0728 20.1537 35.727 19.7064L34.8842 18.6161L34.8143 18.6702C34.8294 18.8148 34.8368 19.0026 34.8366 19.2335C34.837 19.4603 34.7767 19.7097 34.6558 19.9818C34.5355 20.2498 34.3006 20.5189 33.9511 20.789C33.5178 21.124 33.0495 21.3222 32.5462 21.3838C32.0452 21.4435 31.5433 21.3551 31.0404 21.1186C30.5398 20.8803 30.0734 20.4816 29.6412 19.9224C29.2161 19.3726 28.9427 18.8191 28.8209 18.2619C28.6973 17.7024 28.7215 17.1776 28.8934 16.6874C29.0635 16.1949 29.3745 15.7739 29.8265 15.4245C30.1759 15.1544 30.4982 14.9983 30.7932 14.9563C31.0888 14.9102 31.3481 14.9182 31.5711 14.9803C31.7945 15.0383 31.9726 15.0905 32.1052 15.1368L32.1891 15.072L31.5299 14.2193L32.3267 13.6034L36.595 19.1248C36.9516 19.5861 37.1367 20.0422 37.1503 20.4932C37.1681 20.9447 37.0533 21.374 36.806 21.781C36.5628 22.1886 36.2269 22.5581 35.7982 22.8895ZM33.4902 19.9617C33.821 19.706 34.0421 19.4141 34.1533 19.0862C34.2646 18.7583 34.2697 18.4063 34.1688 18.0302C34.0679 17.6541 33.8644 17.2681 33.5582 16.872C33.2593 16.4853 32.9372 16.189 32.592 15.9832C32.2468 15.7774 31.8952 15.6788 31.5372 15.6876C31.1792 15.6963 30.8325 15.8304 30.497 16.0897C30.1476 16.3599 29.9248 16.6735 29.8287 17.0307C29.7349 17.386 29.7451 17.7578 29.8591 18.1461C29.9755 18.5325 30.1741 18.9075 30.4551 19.2709C30.7432 19.6437 31.0563 19.9283 31.3943 20.1248C31.7328 20.3172 32.0805 20.4058 32.4372 20.3905C32.7944 20.3712 33.1454 20.2282 33.4902 19.9617Z" fill="black" fill-opacity="0.87"/>
<path d="M39.4412 17.8484L36.319 11.825L37.2445 11.3453L40.3667 17.3687L39.4412 17.8484ZM36.2692 10.5772C36.0888 10.6707 35.9014 10.6899 35.707 10.6348C35.5152 10.5783 35.3746 10.4638 35.2852 10.2913C35.1957 10.1187 35.1832 9.9378 35.2476 9.74853C35.3146 9.5579 35.4383 9.41584 35.6187 9.32233C35.7991 9.22883 35.9852 9.21031 36.177 9.26678C36.3714 9.3219 36.5133 9.43573 36.6028 9.60827C36.6922 9.78082 36.7034 9.96241 36.6364 10.153C36.572 10.3423 36.4496 10.4837 36.2692 10.5772Z" fill="black" fill-opacity="0.87"/>
<path d="M46.03 15.2396C45.6298 15.3967 45.237 15.4638 44.8516 15.4411C44.4652 15.4156 44.1195 15.2966 43.8147 15.0841C43.5088 14.8688 43.2752 14.5556 43.1138 14.1444C42.9718 13.7826 42.928 13.4613 42.9823 13.1806C43.0356 12.8972 43.1562 12.6442 43.3441 12.4218C43.532 12.1994 43.7575 12.0002 44.0206 11.8242C44.2853 11.6444 44.5568 11.4777 44.8351 11.3242C45.1995 11.1243 45.4961 10.9652 45.7249 10.847C45.9553 10.7249 46.113 10.6108 46.1979 10.5047C46.2856 10.3976 46.2987 10.2659 46.2374 10.1096L46.2245 10.0767C46.0653 9.67105 45.8306 9.39939 45.5203 9.26175C45.2128 9.12303 44.8357 9.14134 44.3889 9.31668C43.9256 9.49848 43.6022 9.74243 43.4187 10.0485C43.2351 10.3547 43.1351 10.6438 43.1185 10.916L42.0684 10.9485C42.0823 10.5002 42.1843 10.1154 42.3746 9.794C42.5664 9.4688 42.8088 9.19971 43.1016 8.98673C43.3962 8.76993 43.7024 8.59914 44.0204 8.47436C44.2232 8.39475 44.4659 8.32799 44.7484 8.27406C45.0326 8.21632 45.3271 8.21305 45.6319 8.26426C45.9394 8.31439 46.234 8.45658 46.5157 8.69082C46.7975 8.92506 47.0367 9.293 47.2336 9.79462L48.8665 13.9557L47.8962 14.3365L47.5605 13.4812L47.5112 13.5006C47.4992 13.6635 47.4471 13.8532 47.3549 14.0696C47.2627 14.2861 47.1107 14.4992 46.8988 14.7089C46.6869 14.9186 46.3973 15.0955 46.03 15.2396ZM45.8359 14.3099C46.2197 14.1593 46.5135 13.957 46.7175 13.7029C46.9243 13.4478 47.048 13.1747 47.0887 12.8835C47.1322 12.5912 47.1023 12.3135 46.999 12.0504L46.6505 11.1622C46.6287 11.2277 46.556 11.3084 46.4324 11.4044C46.3104 11.4966 46.1648 11.5932 45.9957 11.6944C45.8283 11.7917 45.6639 11.8847 45.5026 11.9733C45.3429 12.0581 45.2137 12.1278 45.1149 12.1824C44.8756 12.3143 44.6609 12.4602 44.4706 12.6203C44.282 12.7765 44.1491 12.9537 44.0718 13.1516C43.9961 13.3458 44.0067 13.5663 44.1036 13.813C44.2359 14.1501 44.4606 14.3561 44.7778 14.4309C45.0967 14.5019 45.4494 14.4615 45.8359 14.3099Z" fill="black" fill-opacity="0.87"/>
<path d="M57.6525 12.8989L57.0515 6.14107L58.0546 6.05186L58.1485 7.10777L58.2365 7.09995C58.3452 6.72666 58.5476 6.42633 58.8437 6.19897C59.1395 5.96868 59.5074 5.83397 59.9474 5.79484C60.3932 5.75519 60.7733 5.82339 61.0875 5.99942C61.4044 6.17226 61.6625 6.43164 61.8618 6.77754L61.9322 6.77128C62.0742 6.40685 62.3091 6.10659 62.637 5.87049C62.9645 5.63146 63.3703 5.49043 63.8543 5.44739C64.4585 5.39366 64.9695 5.53889 65.3874 5.88308C65.805 6.22435 66.0492 6.79241 66.1199 7.58727L66.5221 12.1101L65.4838 12.2024L65.0816 7.67961C65.0372 7.18099 64.8692 6.83675 64.5773 6.64689C64.2855 6.45704 63.9548 6.37854 63.5853 6.41141C63.1101 6.45367 62.7548 6.63013 62.5193 6.94078C62.2836 7.24851 62.1851 7.62088 62.224 8.05791L62.6153 12.4575L61.5593 12.5514L61.1477 7.92304C61.1136 7.5388 60.9614 7.24045 60.6912 7.02798C60.4208 6.81257 60.089 6.72234 59.696 6.7573C59.4261 6.78129 59.1803 6.87559 58.9584 7.04018C58.7395 7.2045 58.5695 7.42065 58.4485 7.68861C58.3301 7.95337 58.2857 8.25148 58.3152 8.58291L58.6908 12.8065L57.6525 12.8989Z" fill="black" fill-opacity="0.87"/>
<path d="M68.9448 13.4111L69.9085 6.69542L70.9403 6.84348L69.9767 13.5592L68.9448 13.4111ZM70.5937 5.65142C70.3926 5.62256 70.229 5.52918 70.1029 5.37127C69.9798 5.21378 69.932 5.03885 69.9596 4.84647C69.9872 4.6541 70.0822 4.49966 70.2447 4.38315C70.4101 4.26707 70.5934 4.22346 70.7945 4.25232C70.9956 4.28118 71.1577 4.37435 71.2809 4.53184C71.407 4.68975 71.4562 4.86489 71.4286 5.05727C71.401 5.24964 71.3045 5.40387 71.1391 5.51996C70.9766 5.63646 70.7948 5.68028 70.5937 5.65142Z" fill="black" fill-opacity="0.87"/>
<path d="M76.5498 15.2921C75.9157 15.1331 75.4038 14.856 75.0141 14.4608C74.628 14.0634 74.3741 13.5808 74.2524 13.013C74.1342 12.443 74.1596 11.8209 74.3286 11.1469C74.4976 10.4728 74.7694 9.90948 75.1439 9.45694C75.522 9.00226 75.9686 8.68618 76.4837 8.50869C77.0023 8.32907 77.5586 8.31373 78.1527 8.46268C78.4955 8.54861 78.8196 8.6906 79.1252 8.88863C79.4307 9.08667 79.6884 9.34859 79.8981 9.6744C80.1086 9.99735 80.2426 10.3892 80.3001 10.8499C80.3577 11.3105 80.3094 11.8479 80.1555 12.462L80.0481 12.8905L74.9754 11.6187L75.1945 10.7446L79.2389 11.7587C79.332 11.3873 79.3408 11.0374 79.2654 10.7088C79.1927 10.381 79.0419 10.0988 78.8128 9.86221C78.5865 9.62638 78.2906 9.46263 77.925 9.37097C77.5223 9.27 77.1488 9.2826 76.8044 9.40878C76.4637 9.53282 76.175 9.73367 75.9384 10.0113C75.7019 10.289 75.5381 10.6092 75.4472 10.9719L75.3011 11.5546C75.1765 12.0516 75.1565 12.4944 75.2413 12.8829C75.3296 13.2694 75.5054 13.5912 75.7687 13.8485C76.0328 14.1029 76.3691 14.2814 76.7775 14.3838C77.0432 14.4504 77.2924 14.4734 77.5252 14.4528C77.7616 14.4301 77.9774 14.3628 78.1724 14.2508C78.3682 14.1359 78.5375 13.975 78.6805 13.768L79.5886 14.2871C79.4027 14.5926 79.1569 14.8407 78.8511 15.0311C78.546 15.2188 78.1974 15.3378 77.8053 15.3882C77.4139 15.4358 76.9954 15.4038 76.5498 15.2921ZM78.981 6.61207L80.4195 8.50277L79.357 8.23638L78.4365 7.04021L77.0606 7.66063L75.9981 7.39424L78.1584 6.40583L78.981 6.61207ZM80.0103 5.26724L80.4558 5.52465C80.3978 5.756 80.2502 5.94516 80.013 6.09213C79.7765 6.23623 79.5212 6.27391 79.247 6.20517C79.1013 6.16864 78.9835 6.11786 78.8935 6.05281C78.8043 5.9849 78.7265 5.91378 78.6602 5.83946C78.5966 5.76586 78.5271 5.69832 78.4514 5.63685C78.3793 5.57324 78.2847 5.52676 78.1676 5.4974C78.0476 5.46732 77.9234 5.48473 77.7948 5.54964C77.6662 5.61454 77.589 5.69841 77.5632 5.80123L77.1306 5.56526C77.1886 5.3339 77.3337 5.1426 77.5659 4.99135C77.7988 4.83724 78.0524 4.79456 78.3266 4.86331C78.4465 4.89338 78.5501 4.94059 78.6371 5.00492C78.7242 5.06926 78.8056 5.13823 78.8813 5.21185C78.9569 5.28546 79.0354 5.35372 79.1168 5.41662C79.201 5.48024 79.2988 5.52601 79.4102 5.55394C79.5302 5.58402 79.6538 5.56946 79.7809 5.51027C79.9081 5.45107 79.9846 5.37007 80.0103 5.26724Z" fill="black" fill-opacity="0.87"/>
<path d="M84.609 14.193L82.9215 17.9091L81.9724 17.4781L84.7775 11.3007L85.6945 11.717L85.2562 12.6823L85.3366 12.7188C85.6238 12.4708 85.9581 12.3186 86.3395 12.2622C86.7221 12.2031 87.1467 12.2794 87.6132 12.4913C88.0314 12.6812 88.3585 12.9332 88.5942 13.2472C88.8312 13.5586 88.9583 13.9268 88.9756 14.3518C88.994 14.7741 88.8839 15.248 88.6453 15.7736L86.8629 19.6988L85.9137 19.2678L87.6669 15.4069C87.8873 14.9216 87.9329 14.4863 87.8039 14.1011C87.676 13.7132 87.3922 13.4194 86.9525 13.2197C86.6496 13.0821 86.3489 13.0249 86.0507 13.0479C85.7551 13.0721 85.4817 13.1792 85.2305 13.3692C84.9793 13.5591 84.7721 13.8337 84.609 14.193Z" fill="black" fill-opacity="0.87"/>
<path d="M91.7894 27.0358L97.8635 19.9557L98.6279 20.6114L97.9261 21.4294L98.02 21.5099C98.1548 21.4704 98.333 21.4254 98.5547 21.375C98.7806 21.3244 99.0377 21.3277 99.3261 21.385C99.6186 21.4419 99.9325 21.6142 100.268 21.9018C100.701 22.2738 100.99 22.7101 101.135 23.2106C101.28 23.7112 101.275 24.2399 101.119 24.7969C100.963 25.3538 100.653 25.9027 100.189 26.4436C99.7212 26.9889 99.223 27.382 98.6943 27.6229C98.1675 27.8616 97.6459 27.9495 97.1294 27.8867C96.6149 27.8216 96.1431 27.605 95.714 27.2369C95.3832 26.9531 95.1654 26.6711 95.0604 26.391C94.9574 26.1086 94.9126 25.851 94.9261 25.6182C94.9416 25.3831 94.9605 25.1937 94.9829 25.05L94.9159 24.9925L92.5806 27.7146L91.7894 27.0358ZM96.4325 23.1975C96.0989 23.5864 95.8616 23.9783 95.7205 24.3734C95.5814 24.7662 95.5495 25.1403 95.6247 25.4958C95.7019 25.8491 95.8991 26.1619 96.2165 26.4341C96.5472 26.7179 96.898 26.8675 97.2688 26.883C97.6438 26.8982 98.0146 26.8051 98.3814 26.6037C98.7523 26.402 99.095 26.1179 99.4094 25.7514C99.72 25.3894 99.9441 25.0151 100.082 24.6287C100.223 24.242 100.255 23.8679 100.177 23.5063C100.104 23.1444 99.8994 22.8196 99.5641 22.532C99.2423 22.2559 98.9019 22.1055 98.5429 22.0807C98.1858 22.0537 97.8268 22.1376 97.4658 22.3323C97.1067 22.5247 96.7623 22.8131 96.4325 23.1975Z" fill="black" fill-opacity="0.87"/>
<path d="M103.228 29.6866L100.064 32.2643L99.4055 31.4561L106.419 25.7428L107.077 26.551L104.502 28.6488L104.558 28.7173C104.93 28.6193 105.296 28.6285 105.657 28.7448C106.022 28.8616 106.373 29.1267 106.709 29.5399C107.001 29.8983 107.185 30.2708 107.261 30.6574C107.339 31.0421 107.291 31.4286 107.117 31.8169C106.948 32.2056 106.637 32.5841 106.185 32.9524L102.842 35.6751L102.184 34.8669L105.472 32.1888C105.889 31.8485 106.124 31.4769 106.176 31.074C106.232 30.6715 106.104 30.2797 105.794 29.8984C105.578 29.6336 105.328 29.4417 105.045 29.3228C104.764 29.2062 104.467 29.1748 104.154 29.2286C103.843 29.2847 103.534 29.4374 103.228 29.6866Z" fill="black" fill-opacity="0.87"/>
<path d="M104.165 38.8042L110.105 35.5272L110.609 36.44L104.668 39.717L104.165 38.8042ZM110.936 35.1299L113.251 35.0836L113.84 36.1511L111.379 35.9343L110.936 35.1299Z" fill="black" fill-opacity="0.87"/>
<path d="M111.522 50.8501C111.298 49.9702 111.834 49.0508 112.726 48.8235C113.618 48.5963 114.528 49.1473 114.753 50.0272C114.977 50.9071 114.441 51.8266 113.549 52.0538C112.657 52.281 111.747 51.73 111.522 50.8501Z" fill="black" fill-opacity="0.87"/>
<path d="M31.6912 62.4194L26.1165 63.9131L25.4082 61.27L39.6814 57.4455L40.3896 60.0887L34.8149 61.5824L38.6136 75.7594L35.4899 76.5964L31.6912 62.4194ZM54.173 57.8376L57.6112 70.669L54.7518 71.4352L54.314 69.8012C53.9879 70.5067 53.5074 71.1162 52.8724 71.6297C52.233 72.1273 51.4969 72.4876 50.6639 72.7108C48.9498 73.1701 47.4696 73.0602 46.2232 72.3812C44.9884 71.6819 44.12 70.3951 43.6178 68.5209L41.654 61.1921L44.6576 60.3873L46.5119 67.3076C46.821 68.461 47.3091 69.2573 47.9762 69.6967C48.6551 70.1157 49.4751 70.1964 50.4362 69.9389C51.5095 69.6513 52.2705 69.0954 52.7193 68.2712C53.1798 67.4267 53.2426 66.3797 52.9078 65.1302L51.1694 58.6424L54.173 57.8376ZM52.2267 58.3592L52.7313 58.2239C53.1959 58.0995 53.5198 57.8667 53.7032 57.5257C53.8982 57.1644 53.9335 56.7515 53.809 56.2869C53.6588 55.7262 53.3656 55.2726 52.9293 54.9259L54.5992 53.7573C55.2429 54.2373 55.6849 54.9258 55.9253 55.8229C56.2215 56.9282 56.135 57.8871 55.6659 58.6996C55.1969 59.512 54.4017 60.0685 53.2803 60.3689L52.7997 60.4977L52.2267 58.3592ZM52.6467 77.2273C52.2302 77.3389 51.8515 77.303 51.5104 77.1197C51.1694 76.9364 50.941 76.6284 50.8251 76.1959C50.7135 75.7794 50.7552 75.3905 50.9503 75.0292C51.1497 74.6839 51.4576 74.4555 51.8741 74.3439C52.2906 74.2323 52.6715 74.2761 53.0168 74.4755C53.3664 74.6909 53.597 75.0068 53.7086 75.4233C53.8245 75.8558 53.7806 76.2367 53.5769 76.566C53.3733 76.8953 53.0632 77.1157 52.6467 77.2273ZM74.7541 46.9661L79.5315 64.7955L76.648 65.5681L76.2038 63.9101C75.8703 64.6519 75.3759 65.2737 74.7205 65.7755C74.0812 66.2731 73.3211 66.6399 72.44 66.8759C71.2065 67.2064 70.0202 67.2324 68.8811 66.9539C67.758 66.6711 66.783 66.1082 65.9562 65.2652C65.1251 64.4063 64.5358 63.328 64.1881 62.0304C63.8404 60.7329 63.8138 59.5124 64.1084 58.369C64.4029 57.2255 64.9658 56.2506 65.797 55.4441C66.6443 54.6333 67.6847 54.0627 68.9181 53.7322C69.7672 53.5047 70.5827 53.4407 71.3648 53.5402C72.1469 53.6396 72.8635 53.9112 73.5147 54.3548L71.7505 47.7709L74.7541 46.9661ZM72.1115 64.2083C72.8324 64.0151 73.4382 63.6811 73.9291 63.2062C74.4156 62.7153 74.7456 62.1204 74.9188 61.4215C75.0921 60.7226 75.0715 59.9727 74.8569 59.1717C74.6422 58.3708 74.2852 57.711 73.7857 57.1924C73.2862 56.6738 72.7051 56.3316 72.0426 56.1657C71.3758 55.9839 70.6819 55.9895 69.9611 56.1827C69.2402 56.3758 68.6365 56.7178 68.1499 57.2088C67.6591 57.6837 67.327 58.2706 67.1537 58.9694C66.9804 59.6683 67.0011 60.4182 67.2157 61.2192C67.4303 62.0201 67.7874 62.6799 68.2869 63.1985C68.7864 63.7171 69.3696 64.0673 70.0364 64.2492C70.6989 64.4151 71.3906 64.4014 72.1115 64.2083ZM88.5218 62.5668C87.2243 62.9145 85.9798 62.9475 84.7883 62.6658C83.5968 62.3842 82.5717 61.8261 81.7128 60.9918C80.8657 60.1371 80.2726 59.077 79.9335 57.8115C79.5944 56.5459 79.5802 55.3393 79.8907 54.1916C80.2173 53.0396 80.8261 52.0438 81.7171 51.2041C82.6081 50.3644 83.7024 49.7707 85 49.4231C86.3136 49.0711 87.5661 49.0359 88.7576 49.3176C89.949 49.5993 90.9662 50.1594 91.809 50.9981C92.6678 51.8325 93.2668 52.8824 93.6059 54.148C93.945 55.4135 93.9534 56.6302 93.6311 57.7983C93.3205 58.946 92.7197 59.9397 91.8287 60.7793C90.9377 61.619 89.8354 62.2148 88.5218 62.5668ZM87.8329 59.9957C88.9383 59.6996 89.7526 59.0865 90.276 58.1564C90.7995 57.2264 90.9002 56.1606 90.5783 54.9592C90.2564 53.7578 89.6362 52.8852 88.7179 52.3414C87.7996 51.7977 86.7878 51.6739 85.6825 51.9701C84.5771 52.2663 83.7628 52.8794 83.2394 53.8094C82.732 54.7352 82.6392 55.7988 82.9611 57.0002C83.2831 58.2016 83.8952 59.0764 84.7975 59.6244C85.7158 60.1681 86.7276 60.2919 87.8329 59.9957Z" fill="black" fill-opacity="0.87"/>
</svg>
