<svg width="123" height="123" viewBox="0 0 123 123" fill="none" xmlns="http://www.w3.org/2000/svg">
<path d="M122.252 61.4591C122.252 95.1973 94.9013 122.548 61.1631 122.548C27.4249 122.548 0.074707 95.1973 0.074707 61.4591C0.074707 27.7209 27.4249 0.370728 61.1631 0.370728C94.9013 0.370728 122.252 27.7209 122.252 61.4591Z" fill="#FFEE58"/>
<path d="M110.252 62.5627H119.365V68.0628H118.386V63.6663H115.538V65.9803C115.538 66.6329 115.432 67.1832 115.218 67.6312C115.004 68.0821 114.703 68.4233 114.315 68.6547C113.926 68.889 113.468 69.0062 112.94 69.0062C112.412 69.0062 111.946 68.889 111.542 68.6547C111.139 68.4233 110.823 68.0821 110.595 67.6312C110.366 67.1832 110.252 66.6329 110.252 65.9803V62.5627ZM111.213 63.6663V65.9803C111.213 66.3956 111.296 66.7471 111.462 67.0349C111.631 67.3256 111.848 67.5452 112.112 67.6935C112.379 67.8448 112.661 67.9204 112.958 67.9204C113.394 67.9204 113.769 67.7528 114.083 67.4176C114.401 67.0824 114.559 66.6033 114.559 65.9803V63.6663H111.213Z" fill="black" fill-opacity="0.87"/>
<path d="M108.98 72.6646C109.078 72.0134 109.307 71.4734 109.666 71.0447C110.027 70.6193 110.487 70.3183 111.045 70.1417C111.605 69.9685 112.231 69.9342 112.923 70.039C113.616 70.1437 114.207 70.3622 114.696 70.6943C115.189 71.0299 115.549 71.4474 115.776 71.9468C116.006 72.4497 116.075 73.0062 115.982 73.6163C115.929 73.9683 115.818 74.307 115.649 74.6324C115.479 74.9578 115.241 75.2414 114.935 75.483C114.631 75.7251 114.251 75.8971 113.795 75.9991C113.338 76.101 112.795 76.1043 112.164 76.0088L111.724 75.9423L112.512 70.7329L113.41 70.8687L112.781 75.0221C113.163 75.0798 113.514 75.055 113.837 74.9478C114.159 74.8435 114.427 74.6651 114.642 74.4126C114.857 74.1631 114.993 73.8506 115.05 73.4751C115.112 73.0616 115.064 72.6882 114.904 72.355C114.747 72.0252 114.518 71.755 114.217 71.5444C113.916 71.3338 113.579 71.2003 113.206 71.1439L112.608 71.0534C112.097 70.9761 111.651 70.9986 111.27 71.1209C110.891 71.2466 110.585 71.4538 110.352 71.7427C110.122 72.0319 109.976 72.3863 109.912 72.8057C109.871 73.0785 109.872 73.3307 109.915 73.5622C109.96 73.7971 110.049 74.007 110.18 74.1919C110.314 74.3772 110.491 74.5316 110.713 74.6551L110.279 75.6156C109.955 75.4585 109.683 75.2358 109.462 74.9474C109.245 74.6595 109.092 74.3213 109.004 73.9329C108.918 73.5449 108.91 73.1222 108.98 72.6646Z" fill="black" fill-opacity="0.87"/>
<path d="M107.173 78.6297C107.349 78.0138 107.647 77.5253 108.066 77.164C108.485 76.8028 108.983 76.5758 109.563 76.4829C110.142 76.39 110.759 76.4378 111.415 76.6263C112.082 76.818 112.636 77.1098 113.076 77.5016C113.518 77.8971 113.819 78.3572 113.98 78.8819C114.143 79.4103 114.14 79.971 113.969 80.5641C113.836 81.026 113.631 81.4177 113.354 81.7392C113.076 82.0607 112.749 82.2955 112.373 82.4437C111.997 82.5919 111.596 82.6355 111.169 82.5745L111.459 81.5652C111.781 81.5742 112.095 81.4793 112.402 81.2805C112.711 81.0854 112.93 80.7654 113.057 80.3206C113.171 79.9272 113.167 79.5527 113.047 79.1972C112.929 78.8453 112.708 78.5334 112.385 78.2616C112.064 77.9934 111.655 77.788 111.159 77.6454C110.652 77.4996 110.187 77.4525 109.765 77.504C109.342 77.5584 108.984 77.7025 108.691 77.9364C108.398 78.1731 108.194 78.491 108.079 78.8902C108.004 79.1525 107.981 79.4037 108.011 79.6438C108.041 79.8838 108.12 80.1026 108.248 80.3C108.377 80.4974 108.552 80.6619 108.773 80.7934L108.483 81.8028C108.112 81.6343 107.803 81.3928 107.557 81.0783C107.313 80.7674 107.153 80.4018 107.076 79.9816C107.001 79.565 107.033 79.1144 107.173 78.6297Z" fill="black" fill-opacity="0.87"/>
<path d="M105.846 81.848L112.121 84.5575L109.99 89.4926L103.715 86.783L104.131 85.8189L109.507 88.1404L110.806 85.1336L105.429 82.8121L105.846 81.848Z" fill="black" fill-opacity="0.87"/>
<path d="M103.159 86.898L104 87.3991L103.872 87.6131C103.767 87.789 103.714 87.956 103.713 88.1143C103.715 88.274 103.782 88.442 103.916 88.6181C104.05 88.7983 104.264 89.0016 104.557 89.2281C104.851 89.4587 105.239 89.7294 105.721 90.0403L108.256 91.6959L105.924 95.6107L100.052 92.1126L100.59 91.2103L105.621 94.2074L106.905 92.0513L104.865 90.7115C104.395 90.4041 103.997 90.108 103.669 89.8231C103.343 89.5423 103.095 89.262 102.927 88.9822C102.757 88.7049 102.674 88.4208 102.679 88.1298C102.683 87.8387 102.782 87.5301 102.976 87.2039L103.159 86.898Z" fill="black" fill-opacity="0.87"/>
<path d="M97.8035 94.0279C98.0709 93.6872 98.3777 93.4283 98.724 93.2513C99.0727 93.0761 99.4336 93.003 99.8068 93.032C100.182 93.0627 100.545 93.2155 100.895 93.4902C101.203 93.732 101.405 93.9886 101.502 94.2601C101.6 94.5335 101.624 94.8147 101.575 95.1039C101.525 95.393 101.431 95.6811 101.292 95.9683C101.154 96.2596 101.004 96.543 100.84 96.8183C100.626 97.178 100.45 97.4676 100.311 97.6872C100.173 97.9108 100.095 98.0904 100.075 98.2259C100.054 98.3637 100.109 98.4848 100.243 98.5892L100.271 98.6112C100.616 98.8822 100.958 98.9983 101.298 98.9595C101.636 98.923 101.954 98.7145 102.253 98.3341C102.562 97.9397 102.719 97.5627 102.722 97.2031C102.725 96.8435 102.664 96.5413 102.54 96.2965L103.435 95.7321C103.652 96.1285 103.76 96.5148 103.759 96.8911C103.758 97.2715 103.685 97.6289 103.539 97.9634C103.394 98.3021 103.215 98.6068 103.003 98.8775C102.867 99.0502 102.691 99.2321 102.473 99.4232C102.256 99.6184 102.001 99.7716 101.711 99.8827C101.418 99.9962 101.089 100.023 100.725 99.9635C100.361 99.9039 99.9653 99.7066 99.5382 99.3714L95.9955 96.5913L96.6438 95.7651L97.372 96.3365L97.4049 96.2945C97.3322 96.1469 97.2806 95.9556 97.2501 95.7205C97.2197 95.4854 97.2429 95.2227 97.3199 94.9324C97.3969 94.6421 97.5581 94.3406 97.8035 94.0279ZM98.4467 94.7363C98.1903 95.063 98.0384 95.3888 97.9909 95.7136C97.9416 96.0407 97.9736 96.3411 98.0869 96.6148C98.1984 96.8908 98.3662 97.1167 98.5902 97.2925L99.3463 97.8859C99.3318 97.818 99.3537 97.7107 99.4121 97.5642C99.471 97.4219 99.5481 97.2636 99.6433 97.0895C99.739 96.9195 99.8343 96.7548 99.9292 96.5954C100.025 96.4402 100.101 96.3137 100.159 96.2159C100.3 95.9792 100.412 95.7428 100.495 95.5066C100.579 95.2747 100.604 95.0529 100.57 94.8415C100.537 94.6343 100.415 94.4482 100.205 94.2834C99.9179 94.0581 99.6175 93.994 99.3039 94.091C98.9907 94.1921 98.705 94.4073 98.4467 94.7363Z" fill="black" fill-opacity="0.87"/>
<path d="M99.2606 101.056L99.9478 101.754L95.9925 105.652L95.3053 104.955L96.9026 103.38L92.7919 99.2096L93.5399 98.4724L97.6506 102.643L99.2606 101.056Z" fill="black" fill-opacity="0.87"/>
<path d="M88.7393 107.064L88.1462 106.285L91.1484 103.999L91.7415 104.778L88.7393 107.064ZM93.3225 107.266L89.1817 101.828L90.0172 101.192L94.158 106.63L93.3225 107.266ZM89.8813 109.886L85.7405 104.448L86.576 103.812L90.7168 109.25L89.8813 109.886Z" fill="black" fill-opacity="0.87"/>
<path d="M82.2175 105.828C82.7522 105.52 83.2946 105.377 83.8448 105.399C84.3924 105.423 84.9111 105.598 85.4009 105.926C85.8881 106.254 86.3078 106.725 86.6602 107.337C87.0156 107.954 87.2139 108.557 87.2553 109.145C87.2941 109.736 87.1863 110.274 86.9318 110.759C86.6748 111.246 86.2789 111.644 85.7442 111.952C85.2095 112.26 84.6683 112.402 84.1207 112.378C83.5705 112.356 83.0511 112.18 82.5624 111.848C82.0712 111.518 81.6479 111.045 81.2925 110.428C80.9402 109.816 80.7453 109.216 80.708 108.628C80.6681 108.042 80.7767 107.505 81.0337 107.018C81.2882 106.533 81.6827 106.136 82.2175 105.828ZM82.6883 106.646C82.2821 106.88 82.0079 107.176 81.8656 107.536C81.7233 107.895 81.6869 108.28 81.7564 108.692C81.8258 109.104 81.9746 109.508 82.2026 109.904C82.4306 110.3 82.706 110.632 83.0289 110.902C83.3518 111.171 83.705 111.336 84.0887 111.395C84.4723 111.455 84.8672 111.368 85.2734 111.134C85.6795 110.9 85.953 110.602 86.0938 110.241C86.2346 109.879 86.2696 109.491 86.1986 109.076C86.1277 108.662 85.9782 108.257 85.7502 107.861C85.5222 107.465 85.2475 107.133 84.9261 106.867C84.6047 106.6 84.2529 106.438 83.8708 106.381C83.4886 106.323 83.0945 106.412 82.6883 106.646Z" fill="black" fill-opacity="0.87"/>
<path d="M76.2989 108.186C76.9074 107.934 77.4879 107.851 78.0404 107.937C78.5913 108.026 79.0864 108.264 79.5258 108.651C79.9636 109.041 80.3164 109.559 80.5843 110.206C80.8523 110.853 80.9705 111.472 80.9391 112.063C80.9062 112.658 80.7346 113.182 80.4244 113.634C80.1126 114.091 79.6717 114.438 79.1016 114.674C78.7727 114.81 78.4252 114.89 78.0591 114.913C77.6931 114.936 77.3274 114.879 76.9621 114.741C76.5979 114.606 76.2543 114.369 75.9312 114.031C75.6081 113.693 75.3245 113.229 75.0805 112.64L74.9102 112.229L79.7779 110.213L80.1252 111.052L76.2442 112.659C76.3918 113.015 76.5948 113.304 76.8531 113.524C77.1086 113.746 77.4001 113.884 77.7275 113.938C78.0521 113.993 78.3898 113.947 78.7406 113.802C79.1271 113.642 79.4217 113.408 79.6246 113.099C79.8258 112.794 79.9388 112.458 79.9635 112.091C79.9883 111.725 79.9285 111.367 79.7844 111.019L79.5528 110.46C79.3553 109.983 79.1056 109.613 78.8038 109.35C78.5004 109.09 78.1649 108.935 77.7974 108.885C77.431 108.838 77.0518 108.895 76.6599 109.057C76.405 109.163 76.1895 109.294 76.0135 109.45C75.8358 109.611 75.7017 109.795 75.6111 110.002C75.5217 110.213 75.4813 110.445 75.4899 110.698L74.4435 110.823C74.4105 110.464 74.4605 110.116 74.5936 109.778C74.7278 109.443 74.9384 109.138 75.2254 108.862C75.5135 108.588 75.8713 108.363 76.2989 108.186Z" fill="black" fill-opacity="0.87"/>
<path d="M69.3651 107.297C69.5391 107.259 69.6974 107.24 69.84 107.24C69.9819 107.237 70.0818 107.243 70.1396 107.258L70.0727 108.219C69.8096 108.209 69.5842 108.233 69.3964 108.291C69.2087 108.35 69.0574 108.472 68.9425 108.657C68.824 108.84 68.7388 109.115 68.6869 109.481L68.6075 110.044L72.5204 116.232L71.4066 116.471L68.419 111.541L68.3494 111.556L67.6474 117.277L66.5336 117.516L67.7271 109.25C67.7807 108.878 67.8775 108.558 68.0175 108.291C68.1568 108.022 68.3394 107.805 68.5652 107.641C68.7881 107.478 69.0547 107.363 69.3651 107.297Z" fill="black" fill-opacity="0.87"/>
<path d="M59.6341 117.718L59.0549 110.907L60.1013 110.818L60.6805 117.629L59.6341 117.718ZM59.766 114.438L59.683 113.462C59.9119 113.353 60.1403 113.255 60.368 113.167C60.596 113.082 60.837 113.01 61.0908 112.949C61.345 112.892 61.6258 112.85 61.9332 112.824C62.7047 112.759 63.3417 112.914 63.8442 113.291C64.3437 113.669 64.6289 114.274 64.6998 115.108L64.8854 117.289L63.839 117.378L63.6534 115.197C63.6238 114.848 63.5329 114.567 63.3807 114.353C63.2286 114.14 63.0341 113.988 62.7972 113.898C62.5603 113.808 62.2999 113.775 62.0162 113.8C61.5728 113.837 61.1756 113.911 60.8248 114.022C60.4712 114.135 60.1182 114.274 59.766 114.438Z" fill="black" fill-opacity="0.87"/>
<path d="M55.8069 110.193C56.2396 110.213 56.6285 110.312 56.9736 110.492C57.3185 110.674 57.5875 110.926 57.7805 111.246C57.9734 111.57 58.0596 111.954 58.039 112.399C58.0208 112.79 57.9291 113.103 57.7637 113.339C57.5982 113.578 57.3834 113.761 57.1191 113.889C56.8548 114.016 56.5655 114.106 56.2512 114.16C55.9338 114.217 55.6156 114.258 55.2965 114.285C54.8792 114.319 54.541 114.344 54.2819 114.358C54.0198 114.376 53.8279 114.416 53.7062 114.479C53.5815 114.541 53.5153 114.657 53.5074 114.826L53.5058 114.862C53.4855 115.3 53.5897 115.646 53.8185 115.901C54.0443 116.155 54.3987 116.293 54.8817 116.315C55.3826 116.338 55.7803 116.247 56.0749 116.041C56.3696 115.835 56.5805 115.61 56.7076 115.366L57.6868 115.768C57.4898 116.175 57.2377 116.487 56.9307 116.704C56.6205 116.924 56.287 117.072 55.9301 117.148C55.5701 117.226 55.2182 117.257 54.8745 117.241C54.6552 117.231 54.4045 117.193 54.1225 117.126C53.8374 117.063 53.5652 116.945 53.3059 116.772C53.0436 116.6 52.8311 116.348 52.6682 116.017C52.5054 115.685 52.4365 115.249 52.4617 114.706L52.6701 110.208L53.7192 110.256L53.6763 111.181L53.7297 111.183C53.8077 111.039 53.9336 110.885 54.1073 110.724C54.2811 110.563 54.5086 110.43 54.7896 110.324C55.0707 110.218 55.4098 110.174 55.8069 110.193ZM55.6032 111.128C55.1884 111.108 54.8349 111.174 54.5429 111.324C54.2479 111.473 54.0218 111.674 53.8646 111.925C53.7045 112.176 53.6178 112.443 53.6047 112.728L53.5602 113.688C53.6071 113.637 53.7071 113.592 53.8603 113.555C54.0104 113.52 54.184 113.491 54.3811 113.468C54.5751 113.447 54.7645 113.429 54.9494 113.414C55.1311 113.401 55.2786 113.39 55.3919 113.381C55.6662 113.358 55.9237 113.312 56.1645 113.243C56.4022 113.177 56.5973 113.068 56.7498 112.918C56.8991 112.771 56.98 112.564 56.9924 112.297C57.0093 111.932 56.8872 111.65 56.6262 111.451C56.3621 111.255 56.0211 111.147 55.6032 111.128Z" fill="black" fill-opacity="0.87"/>
<path d="M48.8472 109.004C49.4784 109.114 49.9959 109.359 50.3996 109.736C50.8034 110.114 51.0822 110.586 51.2362 111.152C51.3901 111.718 51.4083 112.337 51.2908 113.009C51.1712 113.693 50.94 114.275 50.5971 114.754C50.2509 115.235 49.8255 115.584 49.3209 115.8C48.8129 116.018 48.255 116.074 47.6472 115.968C47.1738 115.885 46.7624 115.723 46.4132 115.481C46.064 115.239 45.7957 114.939 45.6084 114.581C45.421 114.223 45.335 113.829 45.3501 113.398L46.3846 113.579C46.4098 113.899 46.5376 114.202 46.768 114.486C46.9949 114.773 47.3363 114.956 47.7922 115.036C48.1954 115.106 48.5674 115.063 48.9082 114.906C49.2454 114.751 49.5321 114.498 49.768 114.148C50.0005 113.8 50.1612 113.372 50.2502 112.863C50.3412 112.343 50.3386 111.876 50.2424 111.462C50.1433 111.047 49.9619 110.706 49.6982 110.44C49.4317 110.174 49.0938 110.005 48.6847 109.933C48.4158 109.886 48.1637 109.89 47.9281 109.946C47.6926 110.001 47.4835 110.103 47.3009 110.251C47.1183 110.4 46.9733 110.592 46.8661 110.826L45.8316 110.645C45.9596 110.258 46.1669 109.925 46.4535 109.647C46.7366 109.371 47.083 109.173 47.4927 109.052C47.8989 108.933 48.3505 108.917 48.8472 109.004Z" fill="black" fill-opacity="0.87"/>
<path d="M44.1242 113.717L43.8325 114.651L38.5312 112.997L38.8228 112.062L40.9638 112.73L42.7083 107.14L43.7108 107.453L41.9663 113.043L44.1242 113.717Z" fill="black" fill-opacity="0.87"/>
<path d="M38.0791 106.597L32.8823 110.029L31.782 109.525L34.6312 103.312L35.5858 103.75L33.3822 108.555L38.5628 105.115L39.6792 105.627L36.8301 111.84L35.8755 111.402L38.0791 106.597Z" fill="black" fill-opacity="0.87"/>
<path d="M31.8763 100.88C32.4346 101.23 32.839 101.654 33.0896 102.154C33.3361 102.655 33.4294 103.197 33.3695 103.779C33.3056 104.362 33.0879 104.95 32.7164 105.543C32.3449 106.137 31.9093 106.592 31.4098 106.909C30.9061 107.227 30.3799 107.391 29.8311 107.401C29.2783 107.412 28.7404 107.254 28.2173 106.927C27.9156 106.738 27.6491 106.501 27.4179 106.216C27.1866 105.931 27.0211 105.6 26.9214 105.223C26.8201 104.848 26.8135 104.431 26.9016 103.972C26.9896 103.512 27.2029 103.012 27.5413 102.472L27.7774 102.094L32.2433 104.89L31.7616 105.659L28.201 103.431C27.9964 103.757 27.8791 104.09 27.8493 104.428C27.817 104.765 27.8739 105.082 28.0199 105.38C28.1634 105.677 28.396 105.926 28.7179 106.127C29.0725 106.349 29.4343 106.453 29.8035 106.439C30.1686 106.426 30.5077 106.323 30.8207 106.131C31.1337 105.938 31.3902 105.682 31.5901 105.363L31.9112 104.85C32.1851 104.413 32.3419 103.994 32.3815 103.596C32.417 103.198 32.3485 102.835 32.1761 102.506C32.0021 102.181 31.7354 101.905 31.3758 101.68C31.1419 101.534 30.9102 101.434 30.6807 101.381C30.4471 101.33 30.2195 101.327 29.9977 101.374C29.7744 101.423 29.5621 101.525 29.3607 101.679L28.6519 100.899C28.925 100.664 29.2377 100.503 29.5899 100.415C29.9406 100.33 30.3117 100.324 30.7031 100.398C31.093 100.474 31.4841 100.635 31.8763 100.88Z" fill="black" fill-opacity="0.87"/>
<path d="M13.8338 83.0343C14.2518 83.848 13.9322 84.8714 13.1074 85.2951C12.2826 85.7188 11.2645 85.3824 10.8466 84.5687C10.4286 83.755 10.7481 82.7316 11.573 82.3079C12.3978 81.8842 13.4158 82.2206 13.8338 83.0343Z" fill="black" fill-opacity="0.87"/>
<path d="M12.1055 59.3853L2.99376 59.2094L3.09991 53.7103L4.07871 53.7292L3.99386 58.1249L6.84127 58.1799L6.88593 55.8664C6.89852 55.2138 7.01592 54.6657 7.23812 54.2219C7.46038 53.7752 7.76802 53.4399 8.16104 53.2161C8.55412 52.9893 9.01463 52.881 9.54259 52.8911C10.0705 52.9013 10.534 53.0275 10.9328 53.2696C11.3317 53.5087 11.641 53.8559 11.8607 54.3112C12.0805 54.7635 12.184 55.3159 12.1714 55.9684L12.1055 59.3853ZM11.1658 58.2634L11.2104 55.9498C11.2185 55.5346 11.1422 55.1815 10.9816 54.8906C10.8182 54.5967 10.6059 54.373 10.3448 54.2196C10.0808 54.0632 9.80045 53.9821 9.50384 53.9764C9.06783 53.968 8.68939 54.1283 8.36852 54.4574C8.04468 54.7864 7.87675 55.2624 7.86473 55.8853L7.82007 58.1988L11.1658 58.2634Z" fill="black" fill-opacity="0.87"/>
<path d="M13.5597 49.3949C13.4487 50.0441 13.2097 50.5796 12.8426 51.0014C12.4731 51.4197 12.0079 51.7119 11.4468 51.8778C10.8833 52.0403 10.2565 52.0625 9.56637 51.9445C8.87627 51.8265 8.28954 51.5968 7.80619 51.2553C7.32041 50.9104 6.9686 50.4861 6.75076 49.9823C6.53049 49.4752 6.47235 48.9175 6.57635 48.3092C6.63635 47.9583 6.75408 47.6218 6.92954 47.2997C7.10501 46.9776 7.34833 46.6986 7.6595 46.4629C7.96775 46.2267 8.35105 46.062 8.8094 45.9688C9.26776 45.8756 9.81128 45.8828 10.44 45.9903L10.8786 46.0653L9.99064 51.2586L9.09584 51.1056L9.80381 46.965C9.42367 46.9 9.07147 46.918 8.7472 47.0191C8.42344 47.1172 8.15154 47.2904 7.93152 47.5387C7.71199 47.7841 7.57023 48.0939 7.50624 48.4682C7.43574 48.8805 7.47709 49.2548 7.63028 49.591C7.78105 49.9237 8.00498 50.1983 8.30206 50.4146C8.59914 50.6309 8.93337 50.7709 9.30474 50.8344L9.90127 50.9363C10.4101 51.0233 10.8564 51.0094 11.2402 50.8944C11.6216 50.776 11.9314 50.5747 12.1696 50.2904C12.4049 50.0056 12.5583 49.6541 12.6298 49.2359C12.6763 48.964 12.6803 48.7119 12.6418 48.4795C12.6008 48.2438 12.5166 48.0323 12.3891 47.8449C12.2587 47.6571 12.0841 47.4993 11.8651 47.3716L12.3168 46.4195C12.638 46.5828 12.9061 46.8107 13.1209 47.1033C13.3328 47.3953 13.4791 47.7364 13.5599 48.1264C13.6378 48.5159 13.6377 48.9388 13.5597 49.3949Z" fill="black" fill-opacity="0.87"/>
<path d="M15.4611 43.5043C15.2725 44.1167 14.9655 44.5995 14.5401 44.9528C14.1147 45.306 13.6116 45.5236 13.0308 45.6055C12.4499 45.6874 11.8335 45.6279 11.1813 45.4271C10.5179 45.2228 9.96997 44.9206 9.53754 44.5205C9.10316 44.1167 8.81044 43.651 8.65941 43.1233C8.50641 42.592 8.52071 42.0314 8.7023 41.4417C8.84373 40.9824 9.05625 40.5947 9.33986 40.2785C9.62347 39.9623 9.95461 39.7336 10.3333 39.5926C10.712 39.4516 11.1142 39.4156 11.5399 39.4846L11.2308 40.4882C10.9096 40.4731 10.5935 40.562 10.2826 40.755C9.96984 40.9443 9.74534 41.26 9.60914 41.7023C9.48866 42.0936 9.48509 42.4681 9.59843 42.8258C9.70981 43.1798 9.92447 43.4958 10.2424 43.7737C10.5584 44.048 10.9631 44.261 11.4564 44.413C11.9611 44.5684 12.425 44.6243 12.8481 44.5808C13.2721 44.5344 13.6326 44.3971 13.9295 44.1688C14.2272 43.9376 14.4372 43.6236 14.5595 43.2267C14.6398 42.9658 14.6673 42.7151 14.6421 42.4745C14.6168 42.234 14.5418 42.0138 14.4171 41.8139C14.2924 41.6141 14.1206 41.4464 13.9016 41.3107L14.2107 40.307C14.5788 40.4824 14.8829 40.7297 15.123 41.0489C15.3611 41.3643 15.5146 41.7328 15.5834 42.1544C15.6503 42.5724 15.6095 43.0223 15.4611 43.5043Z" fill="black" fill-opacity="0.87"/>
<path d="M16.9087 40.1639L10.6958 37.3148L12.9366 32.4286L19.1495 35.2777L18.7117 36.2323L13.3887 33.7913L12.0234 36.7683L17.3465 39.2094L16.9087 40.1639Z" fill="black" fill-opacity="0.87"/>
<path d="M19.5527 35.4L18.721 34.8836L18.8524 34.6719C18.9604 34.498 19.0163 34.3319 19.0203 34.1737C19.0217 34.014 18.9574 33.8448 18.8273 33.6663C18.6962 33.4837 18.4862 33.2764 18.1971 33.0446C17.9071 32.8086 17.5244 32.5308 17.0489 32.2112L14.5439 30.5092L16.9476 26.638L22.7544 30.2434L22.2004 31.1356L17.2253 28.0466L15.9014 30.1787L17.9168 31.5558C18.3806 31.8717 18.7737 32.1751 19.0959 32.466C19.4172 32.7528 19.6594 33.0376 19.8225 33.3204C19.9871 33.6008 20.0647 33.8864 20.0552 34.1773C20.0457 34.4682 19.9408 34.7749 19.7404 35.0975L19.5527 35.4Z" fill="black" fill-opacity="0.87"/>
<path d="M25.0023 28.3768C24.7288 28.7126 24.4173 28.9658 24.0678 29.1365C23.716 29.3053 23.3538 29.3718 22.9812 29.3361C22.6062 29.2985 22.2462 29.1391 21.9012 28.8581C21.5976 28.6108 21.4002 28.3505 21.3091 28.0772C21.2156 27.8021 21.1963 27.5205 21.2512 27.2323C21.3061 26.9441 21.4055 26.6578 21.5493 26.3732C21.6927 26.0844 21.8486 25.8038 22.0168 25.5315C22.2378 25.1758 22.4194 24.8894 22.5617 24.6725C22.7035 24.4513 22.7855 24.2732 22.8076 24.1381C22.8315 24.0007 22.7779 23.8786 22.6468 23.7718L22.6192 23.7493C22.2788 23.472 21.9384 23.3497 21.598 23.3824C21.2595 23.4127 20.9376 23.6154 20.6322 23.9903C20.3155 24.379 20.1524 24.7531 20.1427 25.1125C20.133 25.472 20.1883 25.7752 20.3084 26.0223L19.4028 26.5703C19.1932 26.17 19.0924 25.7818 19.1004 25.4056C19.1079 25.0253 19.1875 24.6692 19.3392 24.3374C19.4904 24.0015 19.6747 23.7001 19.8921 23.4333C20.0307 23.2631 20.2107 23.0845 20.432 22.8974C20.6528 22.7061 20.9096 22.5576 21.2025 22.4518C21.4972 22.3436 21.8261 22.3227 22.1892 22.3889C22.5523 22.4551 22.9443 22.6597 23.3653 23.0026L26.8567 25.8468L26.1934 26.661L25.4758 26.0764L25.4421 26.1178C25.5121 26.2667 25.5602 26.4589 25.5864 26.6945C25.6126 26.9301 25.5846 27.1924 25.5023 27.4812C25.4201 27.7701 25.2534 28.0686 25.0023 28.3768ZM24.3721 27.6568C24.6344 27.3348 24.7923 27.0118 24.8456 26.688C24.9009 26.3618 24.8743 26.0609 24.766 25.7852C24.6596 25.5072 24.496 25.2782 24.2752 25.0984L23.53 24.4913C23.5433 24.5595 23.5194 24.6663 23.4584 24.8117C23.3969 24.953 23.317 25.1098 23.2186 25.2822C23.1198 25.4505 23.0215 25.6134 22.9238 25.771C22.8256 25.9244 22.7466 26.0495 22.6869 26.1462C22.5422 26.3803 22.4259 26.6147 22.3381 26.8493C22.2499 27.0797 22.2208 27.3009 22.2509 27.5129C22.2806 27.7207 22.3989 27.909 22.6059 28.0776C22.8888 28.308 23.188 28.3776 23.5034 28.2864C23.8183 28.1909 24.1079 27.9811 24.3721 27.6568Z" fill="black" fill-opacity="0.87"/>
<path d="M23.6205 21.3387L22.9461 20.6291L26.9716 16.8033L27.646 17.5129L26.0203 19.0579L30.0545 23.3028L29.2933 24.0262L25.2591 19.7814L23.6205 21.3387Z" fill="black" fill-opacity="0.87"/>
<path d="M34.1961 15.5237L34.7749 16.3133L31.7315 18.5442L31.1527 17.7546L34.1961 15.5237ZM29.6174 15.2386L33.6583 20.7512L32.8113 21.3721L28.7704 15.8594L29.6174 15.2386ZM33.1058 12.6814L37.1467 18.1941L36.2997 18.815L32.2588 13.3023L33.1058 12.6814Z" fill="black" fill-opacity="0.87"/>
<path d="M40.6848 16.8433C40.1445 17.1414 39.5995 17.2743 39.0498 17.2421C38.5028 17.2085 37.9874 17.0235 37.5037 16.6873C37.0227 16.3496 36.6116 15.8716 36.2706 15.2534C35.9267 14.6299 35.7395 14.0234 35.709 13.4338C35.6811 12.8427 35.7988 12.3068 36.0622 11.8261C36.3282 11.344 36.7313 10.9539 37.2716 10.6559C37.8119 10.3578 38.3556 10.2256 38.9027 10.2592C39.4524 10.2914 39.9684 10.4777 40.4509 10.818C40.936 11.1569 41.3505 11.638 41.6944 12.2614C42.0354 12.8797 42.2192 13.483 42.2457 14.0715C42.2747 14.6585 42.1563 15.1931 41.8903 15.6752C41.6269 16.1559 41.2251 16.5453 40.6848 16.8433ZM40.2291 16.0173C40.6396 15.7909 40.9192 15.4994 41.0681 15.1429C41.217 14.7863 41.2605 14.4015 41.1986 13.9884C41.1368 13.5753 40.9955 13.1687 40.7748 12.7687C40.5542 12.3686 40.2849 12.031 39.9671 11.7557C39.6492 11.4805 39.299 11.3094 38.9166 11.2426C38.5341 11.1757 38.1377 11.2555 37.7273 11.4819C37.3169 11.7083 37.0379 12.0011 36.8905 12.3602C36.743 12.7194 36.7009 13.1068 36.7642 13.5225C36.8275 13.9382 36.9695 14.3461 37.1902 14.7461C37.4108 15.1461 37.6794 15.4825 37.9958 15.7552C38.3122 16.0278 38.661 16.1963 39.042 16.2605C39.423 16.3248 39.8187 16.2437 40.2291 16.0173Z" fill="black" fill-opacity="0.87"/>
<path d="M46.7521 14.5168C46.139 14.7573 45.557 14.8296 45.0062 14.7334C44.4571 14.6334 43.9665 14.3862 43.5344 13.9916C43.104 13.5933 42.7609 13.0682 42.5052 12.4165C42.2494 11.7648 42.1427 11.1438 42.1852 10.5535C42.2293 9.95935 42.4106 9.43883 42.7292 8.99194C43.0495 8.54119 43.4968 8.20312 44.0712 7.9777C44.4026 7.84765 44.7515 7.77446 45.118 7.75813C45.4844 7.7418 45.849 7.80588 46.2116 7.95039C46.5732 8.09213 46.9123 8.33509 47.229 8.67927C47.5458 9.02345 47.8206 9.49241 48.0536 10.0861L48.2162 10.5004L43.3116 12.4251L42.98 11.58L46.8904 10.0455C46.7495 9.68648 46.552 9.39431 46.2978 9.16899C46.0465 8.94257 45.7576 8.79938 45.4313 8.7394C45.1078 8.67834 44.7693 8.71716 44.4158 8.85588C44.0264 9.00869 43.7275 9.23756 43.5189 9.54249C43.312 9.84358 43.1927 10.1772 43.1611 10.5433C43.1295 10.9095 43.1826 11.2679 43.3202 11.6186L43.5413 12.182C43.7298 12.6625 43.9725 13.0373 44.2694 13.3064C44.5679 13.5717 44.9004 13.7328 45.2669 13.7898C45.6324 13.844 46.0125 13.7936 46.4074 13.6386C46.6643 13.5378 46.8821 13.4109 47.0611 13.2578C47.2417 13.1009 47.3792 12.9194 47.4737 12.7134C47.5671 12.5047 47.6118 12.2736 47.608 12.0202L48.6565 11.9147C48.6827 12.274 48.6262 12.6213 48.4868 12.9564C48.3464 13.2888 48.1301 13.5904 47.838 13.8611C47.5449 14.1292 47.1829 14.3477 46.7521 14.5168Z" fill="black" fill-opacity="0.87"/>
<path d="M53.749 15.492C53.5743 15.526 53.4156 15.5418 53.2731 15.5393C53.1311 15.5398 53.0314 15.532 52.9739 15.516L53.0591 14.5564C53.322 14.5718 53.5478 14.552 53.7366 14.4971C53.9254 14.4422 54.079 14.3231 54.1975 14.1399C54.3194 13.959 54.4098 13.686 54.4687 13.3209L54.5588 12.7593L50.7648 6.49835L51.883 6.28064L54.7759 11.2664L54.8458 11.2527L55.6568 5.54586L56.775 5.32815L55.4239 13.5701C55.3633 13.9416 55.2604 14.2593 55.1153 14.5233C54.9709 14.7902 54.7842 15.0033 54.5553 15.1628C54.3293 15.3216 54.0606 15.4314 53.749 15.492Z" fill="black" fill-opacity="0.87"/>
<path d="M63.5059 5.25877L63.9539 12.0791L62.906 12.148L62.458 5.3276L63.5059 5.25877ZM63.3109 8.53594L63.3751 9.51281C63.1441 9.61717 62.9139 9.71108 62.6845 9.79452C62.4549 9.87501 62.2126 9.94295 61.9576 9.99835C61.7024 10.0508 61.4209 10.0871 61.113 10.1073C60.3404 10.1581 59.7065 9.99012 59.2114 9.60345C58.7192 9.21658 58.4457 8.60575 58.3909 7.77097L58.2474 5.58632L59.2953 5.51749L59.4388 7.70214C59.4617 8.05145 59.5472 8.33421 59.6952 8.55044C59.8432 8.76667 60.0347 8.92206 60.2699 9.01662C60.505 9.11118 60.7647 9.14912 61.0488 9.13046C61.4929 9.10129 61.8914 9.03499 62.2443 8.93153C62.6 8.82493 62.9555 8.69306 63.3109 8.53594Z" fill="black" fill-opacity="0.87"/>
<path d="M67.3091 12.8268C66.8769 12.7984 66.49 12.6912 66.1484 12.5053C65.807 12.3164 65.543 12.0597 65.3562 11.7353C65.1695 11.4079 65.0908 11.0222 65.12 10.5781C65.1457 10.1874 65.2434 9.87569 65.4133 9.64306C65.5834 9.40747 65.8017 9.22857 66.0684 9.10636C66.3351 8.98414 66.6261 8.8992 66.9414 8.85153C67.2598 8.80109 67.5788 8.76555 67.8983 8.74491C68.3162 8.71885 68.6548 8.70095 68.9141 8.69123C69.1765 8.67874 69.3692 8.64234 69.4921 8.58203C69.6179 8.52191 69.6864 8.40749 69.6975 8.23876L69.6998 8.20323C69.7286 7.76512 69.631 7.41682 69.4072 7.15833C69.1863 6.90004 68.8346 6.75505 68.3521 6.72335C67.8518 6.6905 67.4524 6.77426 67.1538 6.97465C66.8553 7.17505 66.6401 7.39578 66.5083 7.63686L65.537 7.2163C65.7418 6.81353 65.9999 6.50642 66.311 6.29497C66.6254 6.08075 66.9617 5.93932 67.32 5.87069C67.6815 5.7993 68.0339 5.77487 68.3773 5.79743C68.5963 5.81182 68.8462 5.85498 69.1269 5.92693C69.4107 5.99612 69.6806 6.11938 69.9365 6.29674C70.1954 6.47428 70.403 6.73022 70.5595 7.06455C70.7159 7.39888 70.7763 7.83691 70.7407 8.37863L70.4456 12.8723L69.3977 12.8034L69.4583 11.8798L69.405 11.8763C69.3243 12.0197 69.1955 12.1703 69.0186 12.3281C68.8417 12.486 68.6118 12.6151 68.3287 12.7154C68.0456 12.8157 67.7057 12.8528 67.3091 12.8268ZM67.5308 11.8959C67.9452 11.9232 68.2998 11.8647 68.5947 11.7206C68.8926 11.5766 69.1225 11.3806 69.2844 11.1326C69.4493 10.8848 69.5411 10.6188 69.5598 10.3346L69.6228 9.37549C69.5749 9.42585 69.474 9.46828 69.3201 9.50277C69.1694 9.53449 68.9953 9.56022 68.7977 9.57995C68.6034 9.59691 68.4137 9.61121 68.2286 9.62283C68.0466 9.6317 67.8989 9.63983 67.7855 9.64725C67.5108 9.66488 67.2524 9.70588 67.0104 9.77026C66.7715 9.83186 66.5743 9.93635 66.419 10.0837C66.2668 10.2283 66.1819 10.4338 66.1644 10.7002C66.1405 11.0644 66.2571 11.3485 66.5142 11.5527C66.7745 11.7541 67.1134 11.8685 67.5308 11.8959Z" fill="black" fill-opacity="0.87"/>
<path d="M74.0887 14.0987C73.4597 13.9763 72.947 13.7223 72.5506 13.3368C72.1542 12.9514 71.8844 12.4742 71.7413 11.9053C71.5982 11.3365 71.5918 10.7172 71.7222 10.0474C71.8549 9.36605 72.0972 8.78912 72.4491 8.31664C72.8045 7.84182 73.2365 7.50129 73.7451 7.29506C74.2572 7.08649 74.816 7.04117 75.4217 7.1591C75.8935 7.25094 76.3016 7.42108 76.6461 7.6695C76.9907 7.91792 77.2532 8.2229 77.4336 8.58444C77.6141 8.94599 77.6926 9.34209 77.6692 9.77275L76.6384 9.57205C76.6193 9.25099 76.4973 8.94616 76.2724 8.65757C76.051 8.36663 75.7132 8.17694 75.2589 8.08849C74.8571 8.01025 74.4843 8.04648 74.1406 8.19718C73.8005 8.34553 73.5091 8.59254 73.2665 8.9382C73.0274 9.28153 72.8585 9.70652 72.7598 10.2132C72.6589 10.7315 72.6526 11.1987 72.7408 11.6149C72.8319 12.0316 73.0068 12.3754 73.2653 12.6464C73.5268 12.9179 73.8613 13.0933 74.269 13.1727C74.5369 13.2249 74.7891 13.2256 75.0257 13.175C75.2622 13.1243 75.4732 13.0264 75.6586 12.8811C75.8441 12.7359 75.9926 12.5472 76.1043 12.3151L77.1351 12.5158C76.9998 12.9005 76.7862 13.2291 76.4943 13.5017C76.206 13.772 75.8558 13.9637 75.4439 14.077C75.0355 14.1878 74.5837 14.1951 74.0887 14.0987Z" fill="black" fill-opacity="0.87"/>
<path d="M78.9136 9.44155L79.2228 8.51269L84.492 10.2668L84.1828 11.1956L82.0548 10.4873L80.2051 16.0436L79.2087 15.7119L81.0584 10.1556L78.9136 9.44155Z" fill="black" fill-opacity="0.87"/>
<path d="M85.0176 16.7363L90.2897 13.4203L91.3784 13.9493L88.3914 20.0971L87.4468 19.6382L89.7571 14.8832L84.501 18.2069L83.3963 17.6702L86.3833 11.5223L87.3279 11.9813L85.0176 16.7363Z" fill="black" fill-opacity="0.87"/>
<path d="M91.1818 22.6086C90.6314 22.247 90.2365 21.8135 89.9969 21.3083C89.7615 20.8022 89.6801 20.2588 89.7528 19.6783C89.8296 19.0968 90.0602 18.5136 90.4446 17.9285C90.8291 17.3434 91.2745 16.8977 91.781 16.5915C92.2916 16.2845 92.8212 16.1321 93.3701 16.1342C93.923 16.1354 94.4573 16.3054 94.973 16.6443C95.2705 16.8398 95.5317 17.0824 95.7567 17.3722C95.9816 17.662 96.1397 17.9966 96.2311 18.3761C96.3241 18.7532 96.3216 19.1704 96.2234 19.6277C96.1253 20.085 95.9011 20.5802 95.5508 21.1132L95.3065 21.4851L90.9032 18.5919L91.4017 17.8332L94.9124 20.14C95.1242 19.8177 95.2487 19.4877 95.2859 19.1501C95.3257 18.8142 95.2758 18.4957 95.1364 18.1946C94.9995 17.8952 94.7723 17.6412 94.455 17.4327C94.1054 17.203 93.7459 17.091 93.3765 17.0968C93.0112 17.1017 92.67 17.197 92.3528 17.3826C92.0356 17.5682 91.7735 17.8184 91.5667 18.1333L91.2343 18.639C90.9509 19.0704 90.785 19.485 90.7366 19.8827C90.6923 20.2796 90.7528 20.6441 90.9179 20.9763C91.0847 21.3059 91.3453 21.5872 91.6999 21.8202C91.9304 21.9717 92.1599 22.0763 92.3882 22.134C92.6206 22.1909 92.8481 22.1984 93.0708 22.1566C93.2952 22.1124 93.5097 22.0155 93.7144 21.866L94.4059 22.6612C94.1277 22.8901 93.8115 23.0444 93.4574 23.1241C93.105 23.2014 92.7339 23.1989 92.3441 23.1168C91.956 23.0321 91.5686 22.8628 91.1818 22.6086Z" fill="black" fill-opacity="0.87"/>
<path d="M108.812 40.6146C108.409 39.7933 108.748 38.776 109.58 38.3676C110.413 37.9593 111.424 38.3145 111.827 39.1358C112.23 39.9571 111.892 40.9745 111.059 41.3828C110.226 41.7911 109.215 41.4359 108.812 40.6146Z" fill="black" fill-opacity="0.87"/>
<path d="M37.8911 60.5417L39.2727 65.698L47.455 63.5056L48.1685 66.1684L39.9862 68.3609L41.7246 74.8486L38.5776 75.6919L34.037 58.7463L46.4073 55.4317L47.1143 58.0704L37.8911 60.5417ZM52.6307 60.0949C53.139 58.5058 54.4905 57.4172 56.6854 56.829L57.4573 59.7098C57.1861 59.7306 56.9456 59.7691 56.7358 59.8253C55.5576 60.141 54.7307 60.7344 54.255 61.6057C53.7749 62.4608 53.7079 63.5339 54.0538 64.825L55.7338 71.0949L52.7078 71.9057L49.244 58.9786L52.1248 58.2067L52.6307 60.0949ZM72.3203 59.8008C72.3765 60.0106 72.4404 60.3135 72.5119 60.7094L62.3688 63.4273C62.8014 64.3319 63.4646 64.9672 64.3584 65.3331C65.2639 65.6786 66.2735 65.7021 67.387 65.4037C68.8072 65.0232 69.8519 64.2417 70.521 63.0591L72.6423 64.4885C72.2473 65.3382 71.6535 66.0594 70.861 66.6523C70.0686 67.2452 69.1155 67.6909 68.002 67.9892C66.5818 68.3698 65.2553 68.4225 64.0227 68.1474C62.7901 67.8722 61.7411 67.3144 60.8759 66.4738C60.0225 65.6127 59.4249 64.5447 59.0833 63.2698C58.746 62.011 58.7257 60.8056 59.0225 59.6536C59.331 58.4812 59.918 57.4764 60.7834 56.6391C61.6488 55.8018 62.7189 55.2124 63.9939 54.8707C65.2527 54.5334 66.45 54.5153 67.5858 54.8164C68.7335 55.097 69.7178 55.6721 70.539 56.5419C71.3719 57.3911 71.9657 58.4774 72.3203 59.8008ZM64.6425 57.2915C63.6742 57.551 62.929 58.062 62.4068 58.8246C61.8965 59.5668 61.6963 60.4334 61.8062 61.4245L69.1412 59.4591C68.7613 58.5577 68.1626 57.9051 67.3453 57.5014C66.5279 57.0977 65.627 57.0277 64.6425 57.2915ZM86.6229 55.9684C86.6791 56.1782 86.7429 56.4811 86.8144 56.8771L76.6713 59.5949C77.104 60.4995 77.7672 61.1348 78.6609 61.5007C79.5664 61.8462 80.576 61.8698 81.6896 61.5714C83.1098 61.1908 84.1544 60.4093 84.8235 59.2268L86.9449 60.6562C86.5498 61.5058 85.9561 62.2271 85.1636 62.82C84.3711 63.4129 83.4181 63.8585 82.3045 64.1569C80.8843 64.5374 79.5579 64.5901 78.3252 64.315C77.0926 64.0399 76.0437 63.482 75.1784 62.6414C74.325 61.7804 73.7275 60.7124 73.3859 59.4374C73.0486 58.1786 73.0283 56.9732 73.325 55.8213C73.6336 54.6489 74.2206 53.644 75.0859 52.8067C75.9513 51.9695 77.0215 51.38 78.2964 51.0384C79.5553 50.7011 80.7526 50.683 81.8884 50.984C83.036 51.2646 84.0204 51.8398 84.8415 52.7095C85.6745 53.5587 86.2683 54.645 86.6229 55.9684ZM78.9451 53.4592C77.9768 53.7186 77.2315 54.2297 76.7094 54.9923C76.1991 55.7344 75.9988 56.6011 76.1087 57.5922L83.4437 55.6267C83.0638 54.7253 82.4652 54.0727 81.6478 53.669C80.8305 53.2653 79.9295 53.1954 78.9451 53.4592Z" fill="black" fill-opacity="0.87"/>
</svg>
