<svg width="123" height="123" viewBox="0 0 123 123" fill="none" xmlns="http://www.w3.org/2000/svg">
<path d="M122.436 61.4748C122.436 95.1767 95.1149 122.497 61.4131 122.497C27.7112 122.497 0.390381 95.1767 0.390381 61.4748C0.390381 27.7729 27.7112 0.452087 61.4131 0.452087C95.1149 0.452087 122.436 27.7729 122.436 61.4748Z" fill="#FFEE58"/>
<path d="M110.436 62.5772H119.539V68.0358H118.561V63.6796H115.485V67.6268H114.508V63.6796H110.436V62.5772Z" fill="black" fill-opacity="0.87"/>
<path d="M109.496 71.1372L116.217 72.3394L116.039 73.337L115.024 73.1554L115.011 73.2254C115.322 73.4074 115.552 73.6774 115.702 74.0353C115.851 74.3933 115.89 74.7735 115.818 75.1761C115.805 75.2519 115.786 75.3465 115.763 75.4597C115.74 75.573 115.72 75.6582 115.704 75.7155L114.653 75.5277C114.669 75.4942 114.696 75.4164 114.736 75.2941C114.778 75.1752 114.812 75.0472 114.836 74.9101C114.895 74.5834 114.878 74.2794 114.787 73.9982C114.698 73.7204 114.548 73.4857 114.335 73.2942C114.125 73.106 113.868 72.9848 113.565 72.9306L109.311 72.1698L109.496 71.1372Z" fill="black" fill-opacity="0.87"/>
<path d="M106.871 79.8973C107.069 79.27 107.379 78.7727 107.799 78.4053C108.222 78.0417 108.722 77.8161 109.3 77.7284C109.88 77.6444 110.503 77.7079 111.17 77.9188C111.837 78.1296 112.386 78.437 112.818 78.8408C113.252 79.2483 113.542 79.7162 113.689 80.2444C113.838 80.7763 113.819 81.3361 113.633 81.9238C113.526 82.2629 113.364 82.5798 113.146 82.8747C112.929 83.1695 112.65 83.4124 112.31 83.6032C111.972 83.7949 111.571 83.9056 111.104 83.9354C110.638 83.9651 110.101 83.8839 109.494 83.6918L109.07 83.5578L110.657 78.5396L111.521 78.8131L110.256 82.814C110.624 82.9301 110.975 82.9603 111.309 82.9045C111.643 82.8516 111.936 82.7172 112.187 82.5015C112.438 82.2886 112.62 82.0014 112.735 81.6397C112.861 81.2413 112.871 80.8653 112.765 80.5117C112.661 80.1619 112.477 79.8597 112.213 79.6051C111.948 79.3505 111.637 79.1665 111.278 79.053L110.701 78.8707C110.21 78.7153 109.766 78.6683 109.371 78.7297C108.977 78.7948 108.643 78.9518 108.368 79.2007C108.097 79.4504 107.897 79.7773 107.769 80.1814C107.686 80.4442 107.648 80.6931 107.654 80.9283C107.663 81.1671 107.717 81.3879 107.818 81.5907C107.921 81.7944 108.073 81.9743 108.272 82.1305L107.695 83.0111C107.399 82.8057 107.165 82.5437 106.993 82.2249C106.823 81.907 106.724 81.5495 106.698 81.1526C106.674 80.7565 106.731 80.338 106.871 79.8973Z" fill="black" fill-opacity="0.87"/>
<path d="M102.862 87.6891C103.169 87.1073 103.562 86.6732 104.042 86.3868C104.523 86.1044 105.055 85.9716 105.639 85.9884C106.225 86.0092 106.827 86.1828 107.445 86.5093C108.064 86.8357 108.55 87.2361 108.902 87.7105C109.256 88.1888 109.459 88.701 109.509 89.2469C109.56 89.7968 109.442 90.3444 109.155 90.8895C108.989 91.204 108.772 91.4869 108.506 91.7382C108.239 91.9895 107.921 92.1787 107.553 92.3058C107.187 92.4343 106.771 92.4716 106.307 92.4176C105.843 92.3637 105.33 92.188 104.766 91.8907L104.373 91.6832L106.829 87.0286L107.631 87.4519L105.673 91.1629C106.014 91.3428 106.354 91.4351 106.693 91.4399C107.031 91.4473 107.343 91.3673 107.629 91.2C107.913 91.0352 108.144 90.7851 108.321 90.4496C108.516 90.0801 108.593 89.712 108.552 89.3452C108.512 88.9824 108.385 88.6522 108.17 88.3545C107.956 88.0568 107.682 87.8202 107.349 87.6445L106.814 87.3623C106.358 87.1217 105.93 86.9963 105.53 86.9861C105.131 86.98 104.774 87.0749 104.46 87.2708C104.148 87.4681 103.893 87.7542 103.695 88.1289C103.567 88.3727 103.485 88.6108 103.449 88.8433C103.415 89.0798 103.429 89.3068 103.492 89.5243C103.557 89.7431 103.674 89.9472 103.842 90.1365L103.118 90.9C102.863 90.6452 102.68 90.3456 102.567 90.0011C102.456 89.658 102.423 89.2887 102.468 88.8933C102.515 88.4993 102.646 88.0979 102.862 87.6891Z" fill="black" fill-opacity="0.87"/>
<path d="M94.1378 94.4735L100.896 100.99L100.192 101.72L99.4115 100.967L99.3251 101.056C99.3569 101.194 99.3917 101.376 99.4293 101.602C99.467 101.831 99.4486 102.09 99.3742 102.376C99.2998 102.666 99.1084 102.972 98.7998 103.292C98.4008 103.706 97.9455 103.971 97.4342 104.087C96.9228 104.203 96.3919 104.166 95.8415 103.977C95.2911 103.788 94.7577 103.445 94.2415 102.947C93.721 102.445 93.3552 101.921 93.1441 101.376C92.9351 100.833 92.8773 100.304 92.9706 99.7887C93.0661 99.2755 93.3113 98.8142 93.7063 98.4046C94.0107 98.0889 94.3067 97.8865 94.5943 97.7975C94.8841 97.7105 95.1455 97.6806 95.3786 97.7078C95.6139 97.7371 95.8031 97.7671 95.9461 97.7981L96.0078 97.7341L93.4096 95.2286L94.1378 94.4735ZM97.7225 99.3628C97.3513 99.0049 96.9714 98.7435 96.5828 98.5787C96.1963 98.416 95.8223 98.362 95.4607 98.4168C95.1012 98.4736 94.7755 98.6535 94.4834 98.9564C94.1789 99.2721 94.0081 99.6158 93.9708 99.9874C93.9336 100.363 94.0055 100.741 94.1863 101.122C94.3673 101.506 94.6326 101.867 94.9825 102.204C95.3281 102.537 95.6909 102.784 96.0711 102.945C96.4513 103.11 96.8254 103.164 97.1932 103.107C97.5611 103.054 97.8993 102.868 98.2079 102.548C98.5041 102.241 98.6751 101.908 98.721 101.548C98.769 101.191 98.7058 100.826 98.5313 100.452C98.359 100.08 98.0894 99.7166 97.7225 99.3628Z" fill="black" fill-opacity="0.87"/>
<path d="M87.4769 102.929C87.8277 102.676 88.1938 102.512 88.5751 102.438C88.9582 102.366 89.3249 102.395 89.6752 102.526C90.0273 102.66 90.3334 102.906 90.5935 103.267C90.8225 103.584 90.9456 103.886 90.9629 104.173C90.9819 104.463 90.9276 104.74 90.8001 105.004C90.6726 105.267 90.5026 105.518 90.2902 105.755C90.0772 105.997 89.8542 106.227 89.6214 106.447C89.3162 106.733 89.0669 106.962 88.8735 107.134C88.6794 107.311 88.5542 107.462 88.498 107.586C88.4394 107.713 88.4595 107.844 88.5584 107.981L88.5792 108.01C88.8359 108.366 89.1327 108.572 89.4695 108.629C89.804 108.687 90.167 108.575 90.5587 108.292C90.9648 107.999 91.2189 107.68 91.3213 107.336C91.4236 106.991 91.4488 106.684 91.3968 106.415L92.4122 106.121C92.5109 106.561 92.5077 106.962 92.4027 107.323C92.2971 107.688 92.1282 108.01 91.896 108.291C91.6632 108.576 91.4074 108.819 91.1287 109.021C90.9509 109.149 90.731 109.275 90.4691 109.398C90.2066 109.526 89.9203 109.602 89.6104 109.629C89.2981 109.657 88.9753 109.592 88.6421 109.434C88.3089 109.276 87.9836 108.977 87.6661 108.538L85.0332 104.89L85.8838 104.276L86.425 105.026L86.4682 104.995C86.4392 104.833 86.4425 104.635 86.4782 104.401C86.5139 104.167 86.6088 103.921 86.7628 103.664C86.9169 103.406 87.155 103.161 87.4769 102.929ZM87.8987 103.787C87.5624 104.03 87.3265 104.3 87.1912 104.599C87.0536 104.899 87.0013 105.197 87.0345 105.491C87.0652 105.786 87.1639 106.05 87.3304 106.28L87.8923 107.059C87.8972 106.989 87.9478 106.893 88.0444 106.768C88.1402 106.648 88.2579 106.517 88.3974 106.376C88.5362 106.239 88.6732 106.108 88.8083 105.981C88.9427 105.858 89.0513 105.758 89.1339 105.68C89.3341 105.492 89.507 105.296 89.6524 105.092C89.7971 104.893 89.8824 104.687 89.9082 104.474C89.9333 104.266 89.8678 104.054 89.7117 103.838C89.4984 103.542 89.2278 103.398 88.8998 103.404C88.5712 103.415 88.2375 103.542 87.8987 103.787Z" fill="black" fill-opacity="0.87"/>
<path d="M81.5391 106.204L84.4772 112.367L83.5623 112.803L83.1185 111.872L83.0543 111.903C83.0874 112.262 83.002 112.606 82.7983 112.936C82.5946 113.266 82.3082 113.519 81.939 113.695C81.8695 113.729 81.7819 113.769 81.6763 113.816C81.5707 113.863 81.4898 113.896 81.4338 113.917L80.9747 112.954C81.0107 112.946 81.09 112.923 81.2126 112.884C81.3339 112.85 81.4574 112.802 81.5831 112.742C81.8827 112.599 82.1203 112.409 82.2957 112.171C82.4698 111.937 82.5728 111.678 82.6046 111.394C82.6351 111.113 82.584 110.834 82.4514 110.556L80.5921 106.655L81.5391 106.204Z" fill="black" fill-opacity="0.87"/>
<path d="M74.9595 115.829L74.6818 114.985L78.0432 113.88L78.3208 114.724L74.9595 115.829ZM77.852 116.6L76.8554 116.928L74.8232 110.746C74.7306 110.464 74.6204 110.266 74.4925 110.153C74.3627 110.042 74.2252 109.985 74.08 109.979C73.9328 109.978 73.7861 110.001 73.6397 110.049C73.5299 110.085 73.4417 110.12 73.375 110.155C73.3092 110.192 73.2566 110.222 73.2172 110.244L72.7202 109.416C72.7794 109.368 72.8654 109.312 72.9781 109.247C73.0899 109.179 73.2387 109.114 73.4245 109.053C73.7061 108.96 74.0019 108.93 74.3119 108.963C74.6191 108.996 74.9022 109.107 75.161 109.296C75.4169 109.487 75.6069 109.771 75.7309 110.148L77.852 116.6Z" fill="black" fill-opacity="0.87"/>
<path d="M69.5351 109.843L70.8143 116.55L69.7839 116.746L68.5046 110.04L69.5351 109.843ZM70.5036 117.768C70.7044 117.729 70.8907 117.765 71.0623 117.874C71.2311 117.983 71.3337 118.134 71.3704 118.326C71.407 118.518 71.3671 118.696 71.2505 118.86C71.1311 119.025 70.9709 119.126 70.7701 119.165C70.5692 119.203 70.3844 119.167 70.2157 119.058C70.0441 118.949 69.9399 118.798 69.9033 118.606C69.8666 118.414 69.908 118.236 70.0275 118.071C70.144 117.907 70.3027 117.806 70.5036 117.768Z" fill="black" fill-opacity="0.87"/>
<path d="M61.7739 110.504C62.4117 110.45 62.9738 110.554 63.46 110.816C63.9462 111.078 64.3359 111.463 64.6288 111.97C64.9218 112.477 65.0972 113.071 65.155 113.75C65.2137 114.441 65.1386 115.061 64.9297 115.612C64.718 116.165 64.396 116.61 63.9637 116.947C63.5286 117.288 63.004 117.484 62.3899 117.536C61.9115 117.577 61.4729 117.525 61.074 117.38C60.675 117.236 60.3395 117.015 60.0673 116.717C59.7951 116.418 59.6114 116.059 59.5161 115.639L60.5614 115.55C60.6675 115.854 60.868 116.113 61.163 116.329C61.4552 116.548 61.8317 116.638 62.2923 116.599C62.6998 116.564 63.048 116.427 63.337 116.189C63.6233 115.953 63.8358 115.636 63.9744 115.238C64.1103 114.842 64.1564 114.388 64.1127 113.874C64.068 113.349 63.9464 112.898 63.7479 112.522C63.5464 112.147 63.2845 111.864 62.962 111.675C62.6366 111.485 62.2672 111.408 61.8538 111.443C61.5821 111.466 61.3396 111.534 61.1262 111.648C60.9128 111.761 60.7368 111.913 60.5983 112.103C60.4599 112.293 60.3687 112.515 60.3248 112.769L59.2796 112.858C59.3045 112.451 59.4199 112.077 59.6258 111.735C59.8289 111.397 60.113 111.117 60.4778 110.895C60.8399 110.677 61.272 110.547 61.7739 110.504Z" fill="black" fill-opacity="0.87"/>
<path d="M55.5455 110.163L54.8883 116.959L53.8442 116.858L54.5013 110.062L55.5455 110.163ZM54.2479 118.04C54.4514 118.06 54.6202 118.146 54.7543 118.299C54.8854 118.452 54.9416 118.625 54.9227 118.82C54.9039 119.015 54.8155 119.174 54.6576 119.299C54.4967 119.423 54.3145 119.476 54.111 119.456C53.9074 119.436 53.7401 119.35 53.609 119.198C53.4749 119.045 53.4173 118.871 53.4361 118.676C53.4549 118.481 53.5448 118.322 53.7057 118.198C53.8636 118.073 54.0443 118.02 54.2479 118.04Z" fill="black" fill-opacity="0.87"/>
<path d="M51.1114 106.806L49.2469 116.007L48.2536 115.806L48.469 114.743L48.347 114.718C48.2479 114.819 48.1134 114.946 47.9433 115.099C47.7697 115.254 47.5421 115.377 47.2606 115.468C46.9756 115.562 46.6153 115.564 46.1796 115.476C45.6162 115.362 45.148 115.12 44.7753 114.752C44.4025 114.383 44.148 113.915 44.0117 113.35C43.8754 112.784 43.8785 112.149 44.0209 111.447C44.1645 110.738 44.4095 110.148 44.7559 109.677C45.1017 109.209 45.517 108.876 46.0016 108.678C46.4856 108.482 47.0065 108.441 47.5641 108.554C47.994 108.641 48.3237 108.782 48.5534 108.977C48.7824 109.175 48.9481 109.379 49.0504 109.59C49.1522 109.804 49.2285 109.98 49.2793 110.117L49.3664 110.135L50.0832 106.598L51.1114 106.806ZM48.9141 112.456C49.0166 111.951 49.0328 111.49 48.963 111.074C48.8926 110.66 48.7371 110.316 48.4966 110.04C48.2555 109.768 47.9288 109.59 47.5164 109.506C47.0865 109.419 46.7049 109.46 46.3714 109.628C46.0345 109.799 45.7543 110.062 45.5308 110.419C45.3038 110.778 45.142 111.196 45.0455 111.672C44.9502 112.143 44.9368 112.582 45.0056 112.989C45.0708 113.398 45.2262 113.742 45.4719 114.022C45.7142 114.304 46.0531 114.489 46.4887 114.577C46.907 114.662 47.2799 114.627 47.6075 114.473C47.9345 114.321 48.2089 114.072 48.4306 113.723C48.6517 113.378 48.8129 112.956 48.9141 112.456Z" fill="black" fill-opacity="0.87"/>
<path d="M40.4554 105.733C40.857 105.894 41.1911 106.116 41.4577 106.398C41.7232 106.684 41.8944 107.009 41.971 107.375C42.0466 107.744 42.0017 108.135 41.8362 108.547C41.6906 108.91 41.501 109.176 41.2676 109.344C41.033 109.515 40.7701 109.617 40.479 109.65C40.1878 109.684 39.8852 109.674 39.571 109.621C39.253 109.57 38.9391 109.505 38.6294 109.426C38.2245 109.321 37.8974 109.233 37.6482 109.161C37.3951 109.092 37.2009 109.067 37.0655 109.086C36.9274 109.104 36.8268 109.191 36.764 109.348L36.7507 109.381C36.5875 109.788 36.572 110.149 36.7043 110.464C36.8339 110.778 37.1228 111.025 37.5711 111.204C38.036 111.391 38.4412 111.435 38.7869 111.338C39.1326 111.24 39.4054 111.097 39.6053 110.909L40.3971 111.61C40.0776 111.929 39.7373 112.14 39.3762 112.244C39.0113 112.35 38.648 112.38 38.2866 112.334C37.9212 112.29 37.579 112.204 37.2599 112.076C37.0564 111.994 36.8326 111.876 36.5884 111.72C36.3403 111.566 36.1223 111.366 35.9344 111.118C35.7437 110.869 35.6259 110.561 35.5811 110.195C35.5364 109.829 35.6149 109.395 35.8168 108.891L37.4914 104.716L38.4651 105.107L38.1209 105.965L38.1704 105.985C38.2916 105.874 38.4606 105.771 38.6775 105.676C38.8944 105.581 39.1528 105.53 39.4527 105.522C39.7527 105.515 40.0869 105.585 40.4554 105.733ZM39.9561 106.548C39.5711 106.393 39.2162 106.339 38.8914 106.384C38.564 106.428 38.2849 106.543 38.0541 106.728C37.8206 106.913 37.6509 107.137 37.545 107.401L37.1876 108.292C37.2487 108.259 37.3577 108.25 37.5145 108.265C37.6675 108.282 37.8408 108.311 38.0344 108.354C38.2242 108.398 38.4088 108.443 38.5882 108.49C38.7637 108.538 38.9064 108.576 39.0165 108.604C39.2827 108.672 39.5408 108.714 39.7906 108.728C40.0366 108.743 40.2562 108.705 40.4494 108.614C40.6388 108.523 40.7831 108.355 40.8824 108.107C41.0181 107.769 40.9956 107.463 40.8148 107.189C40.6301 106.917 40.3439 106.703 39.9561 106.548Z" fill="black" fill-opacity="0.87"/>
<path d="M28.3757 106.694L28.8474 105.94L31.8465 107.818L31.3748 108.571L28.3757 106.694ZM29.6327 109.411L28.7435 108.854L32.1966 103.338C32.3538 103.087 32.4353 102.875 32.4411 102.704C32.4428 102.534 32.3992 102.391 32.3104 102.276C32.2175 102.162 32.1057 102.064 31.9751 101.983C31.8772 101.921 31.7936 101.876 31.7246 101.847C31.6539 101.82 31.5974 101.799 31.555 101.782L31.8742 100.871C31.9486 100.886 32.0469 100.916 32.1691 100.961C32.2928 101.003 32.4375 101.076 32.6033 101.18C32.8545 101.337 33.0669 101.545 33.2404 101.804C33.4114 102.062 33.5068 102.351 33.5267 102.671C33.5441 102.989 33.4474 103.317 33.2367 103.653L29.6327 109.411Z" fill="black" fill-opacity="0.87"/>
<path d="M29.5032 98.7069L25.1717 103.985L24.3607 103.319L28.6923 98.0413L29.5032 98.7069ZM24.0374 104.526C24.1955 104.656 24.2876 104.821 24.3138 105.023C24.3377 105.223 24.2876 105.398 24.1635 105.549C24.0394 105.701 23.8771 105.784 23.6765 105.8C23.4736 105.813 23.2931 105.755 23.135 105.626C22.977 105.496 22.886 105.331 22.8621 105.131C22.8359 104.93 22.8849 104.753 23.009 104.602C23.133 104.451 23.2965 104.368 23.4994 104.355C23.7 104.339 23.8794 104.396 24.0374 104.526Z" fill="black" fill-opacity="0.87"/>
<path d="M24.0095 93.1781C24.4438 93.6155 24.7207 94.1027 24.8403 94.6396C24.9578 95.1743 24.9213 95.7201 24.7306 96.2768C24.5379 96.8314 24.1913 97.3571 23.6908 97.854C23.1861 98.3551 22.6547 98.701 22.0966 98.8918C21.5364 99.0804 20.9894 99.1141 20.4555 98.9927C19.9195 98.8692 19.4343 98.5887 19.0001 98.1513C18.5658 97.7139 18.2899 97.2278 18.1724 96.693C18.0528 96.1561 18.0904 95.6093 18.2852 95.0527C18.478 94.4939 18.8267 93.9639 19.3314 93.4629C19.8319 92.966 20.3612 92.6242 20.9193 92.4377C21.4753 92.249 22.0213 92.2164 22.5573 92.3399C23.0912 92.4613 23.5753 92.7407 24.0095 93.1781ZM23.3408 93.842C23.0109 93.5098 22.6543 93.3209 22.271 93.2755C21.8877 93.2301 21.5061 93.2937 21.1262 93.4662C20.7463 93.6388 20.3944 93.8858 20.0705 94.2073C19.7466 94.5289 19.496 94.88 19.3186 95.2607C19.1412 95.6415 19.0728 96.0247 19.1133 96.4104C19.1538 96.7961 19.339 97.1551 19.6688 97.4874C19.9987 97.8197 20.3564 98.0075 20.7418 98.0508C21.1272 98.0941 21.5109 98.0284 21.8929 97.8538C22.2749 97.6792 22.6278 97.4311 22.9517 97.1096C23.2756 96.788 23.5252 96.4379 23.7005 96.0593C23.8758 95.6807 23.9421 95.2995 23.8995 94.9159C23.8569 94.5323 23.6706 94.1743 23.3408 93.842Z" fill="black" fill-opacity="0.87"/>
<path d="M16.4302 89.8403L19.8124 87.51L20.4076 88.3739L14.7852 92.2477L14.2102 91.4131L15.0887 90.8078L15.0383 90.7346C14.662 90.7996 14.2947 90.7575 13.9365 90.6084C13.5759 90.4611 13.2493 90.1751 12.9567 89.7505C12.6944 89.3698 12.543 88.9829 12.5025 88.5898C12.4595 88.1983 12.5408 87.8149 12.7463 87.4393C12.9493 87.0655 13.29 86.7138 13.7683 86.3843L17.3409 83.9228L17.9361 84.7867L14.4221 87.2078C13.9804 87.5121 13.7153 87.8639 13.6269 88.2631C13.536 88.664 13.6285 89.0645 13.9042 89.4647C14.0942 89.7405 14.3238 89.9457 14.593 90.0805C14.8606 90.2129 15.1519 90.2623 15.467 90.2287C15.7822 90.1951 16.1032 90.0656 16.4302 89.8403Z" fill="black" fill-opacity="0.87"/>
<path d="M10.7629 72.9956C11.0053 73.8767 10.4836 74.8121 9.59049 75.0578C8.69737 75.3034 7.77071 74.7664 7.52836 73.8853C7.28601 73.0043 7.80765 72.0689 8.70077 71.8232C9.59389 71.5775 10.5206 72.1146 10.7629 72.9956Z" fill="black" fill-opacity="0.87"/>
<path d="M12.4209 59.4033L3.31897 59.2276L3.42432 53.77L4.40206 53.7888L4.31799 58.1443L7.39345 58.2036L7.46962 54.2571L8.44737 54.276L8.37119 58.2225L12.4422 58.3011L12.4209 59.4033Z" fill="black" fill-opacity="0.87"/>
<path d="M13.5137 50.9371L6.81688 49.6067L7.01436 48.6126L8.02587 48.8136L8.03972 48.7438C7.73262 48.5559 7.50765 48.2816 7.3648 47.9208C7.22195 47.5601 7.19037 47.1792 7.27006 46.7781C7.28507 46.7025 7.30529 46.6083 7.33072 46.4956C7.35615 46.3828 7.37754 46.2979 7.3949 46.2409L8.44128 46.4488C8.42563 46.4819 8.39667 46.5593 8.3544 46.6808C8.3098 46.7988 8.27393 46.9262 8.24679 47.0628C8.18212 47.3883 8.19268 47.6925 8.27847 47.9755C8.36194 48.2549 8.50812 48.4924 8.71701 48.688C8.92357 48.8801 9.178 49.0062 9.48029 49.0662L13.7181 49.9082L13.5137 50.9371Z" fill="black" fill-opacity="0.87"/>
<path d="M16.2878 42.2655C16.0776 42.8889 15.7588 43.3803 15.3312 43.7396C14.9017 44.0952 14.3973 44.3114 13.8179 44.3882C13.2366 44.4612 12.6146 44.386 11.9519 44.1626C11.2892 43.9392 10.7458 43.6216 10.3217 43.2097C9.89577 42.794 9.61436 42.3208 9.47746 41.7899C9.33869 41.2553 9.36776 40.6959 9.56465 40.1118C9.67824 39.7748 9.84658 39.461 10.0697 39.1703C10.2927 38.8796 10.5761 38.6421 10.9197 38.4577C11.2605 38.2723 11.6643 38.1692 12.131 38.1483C12.5978 38.1274 13.133 38.2187 13.7368 38.4222L14.158 38.5642L12.4769 43.5515L11.6176 43.2618L12.9579 39.2855C12.5929 39.1624 12.2425 39.1256 11.9069 39.1751C11.5722 39.2218 11.277 39.3505 11.0214 39.5615C10.7667 39.7696 10.5788 40.0534 10.4576 40.4128C10.3242 40.8088 10.307 41.1845 10.406 41.54C10.5033 41.8917 10.6817 42.1974 10.9413 42.4569C11.201 42.7164 11.5091 42.9063 11.8658 43.0265L12.4386 43.2196C12.9272 43.3843 13.3698 43.4397 13.7664 43.3858C14.1611 43.328 14.4981 43.1774 14.7772 42.9337C15.0536 42.6891 15.2594 42.3661 15.3948 41.9645C15.4828 41.7033 15.5258 41.4551 15.5238 41.2199C15.5199 40.9809 15.4696 40.7591 15.3728 40.5545C15.2733 40.3489 15.1253 40.1662 14.9291 40.0062L15.5224 39.1367C15.8141 39.3476 16.0432 39.614 16.2099 39.936C16.3737 40.2571 16.4653 40.6163 16.4846 41.0137C16.501 41.4102 16.4354 41.8274 16.2878 42.2655Z" fill="black" fill-opacity="0.87"/>
<path d="M20.3712 34.6528C20.0534 35.2289 19.6522 35.6557 19.1674 35.9332C18.6815 36.2066 18.1467 36.3295 17.5629 36.3019C16.9779 36.2703 16.3792 36.0856 15.7668 35.7478C15.1545 35.41 14.6763 35.0007 14.3323 34.5199C13.9872 34.035 13.7945 33.5193 13.7543 32.9725C13.7129 32.4217 13.8411 31.8764 14.1388 31.3367C14.3106 31.0253 14.5321 30.7465 14.8034 30.5002C15.0746 30.2538 15.3957 30.0705 15.7667 29.9502C16.135 29.8285 16.5507 29.7989 17.0138 29.8614C17.4768 29.9239 17.9872 30.1091 18.5451 30.4168L18.9343 30.6315L16.3922 35.2399L15.5982 34.8019L17.625 31.1276C17.2877 30.9416 16.9495 30.843 16.6104 30.8319C16.2727 30.8183 15.9593 30.8925 15.6703 31.0545C15.3826 31.214 15.1472 31.4598 14.964 31.7919C14.7622 32.1578 14.6784 32.5244 14.7126 32.8919C14.7456 33.2553 14.8668 33.5878 15.0761 33.8894C15.2854 34.191 15.5548 34.4327 15.8843 34.6145L16.4137 34.9065C16.8652 35.1556 17.2908 35.2889 17.6907 35.3064C18.0894 35.3198 18.4478 35.2316 18.7658 35.0415C19.0813 34.85 19.3414 34.5687 19.546 34.1977C19.6792 33.9564 19.7657 33.7198 19.8056 33.488C19.8443 33.2521 19.8342 33.0249 19.7754 32.8063C19.714 32.5863 19.601 32.3801 19.4364 32.1878L20.175 31.4378C20.4245 31.6972 20.6026 32.0002 20.7092 32.3467C20.8133 32.6918 20.8395 33.0616 20.7877 33.4561C20.7333 33.8491 20.5945 34.2481 20.3712 34.6528Z" fill="black" fill-opacity="0.87"/>
<path d="M29.1336 28.0463L22.4952 21.4079L23.2119 20.6912L23.9788 21.4582L24.0668 21.3702C24.0375 21.2319 24.006 21.0496 23.9725 20.8232C23.939 20.5927 23.962 20.335 24.0417 20.05C24.1213 19.7609 24.3183 19.4591 24.6326 19.1448C25.0391 18.7383 25.4991 18.4816 26.0124 18.3747C26.5258 18.2678 27.056 18.3139 27.6029 18.513C28.1498 18.7121 28.6768 19.0652 29.1839 19.5723C29.6952 20.0836 30.0514 20.6137 30.2526 21.1627C30.4517 21.7096 30.4998 22.2398 30.3972 22.7532C30.2924 23.2644 30.0389 23.7213 29.6365 24.1236C29.3264 24.4337 29.0267 24.6307 28.7376 24.7145C28.4463 24.7962 28.1844 24.8214 27.9518 24.7899C27.7171 24.7564 27.5285 24.7229 27.386 24.6894L27.3231 24.7522L29.8754 27.3045L29.1336 28.0463ZM25.6384 23.0926C26.003 23.4572 26.3781 23.7254 26.7637 23.8973C27.1471 24.067 27.5201 24.1278 27.8826 24.0796C28.243 24.0293 28.572 23.8554 28.8696 23.5578C29.1797 23.2477 29.3568 22.9072 29.4008 22.5363C29.4448 22.1612 29.3798 21.7819 29.2059 21.3984C29.032 21.0108 28.7732 20.6451 28.4295 20.3015C28.0901 19.962 27.7318 19.7085 27.3546 19.5408C26.9774 19.369 26.6044 19.3082 26.2356 19.3585C25.8668 19.4046 25.5252 19.5848 25.2109 19.8992C24.9092 20.2009 24.7321 20.5309 24.6797 20.8893C24.6252 21.2455 24.6818 21.6122 24.8495 21.9894C25.015 22.3645 25.278 22.7322 25.6384 23.0926Z" fill="black" fill-opacity="0.87"/>
<path d="M35.8755 19.7132C35.5201 19.96 35.1511 20.117 34.7685 20.1842C34.3842 20.2491 34.0181 20.2129 33.6702 20.0756C33.3207 19.9359 33.0191 19.6835 32.7656 19.3184C32.5425 18.9971 32.4249 18.6927 32.4129 18.4052C32.3991 18.1153 32.4584 17.8396 32.5908 17.5781C32.7231 17.3167 32.8976 17.0692 33.1143 16.8357C33.3318 16.5982 33.5589 16.3719 33.7957 16.157C34.106 15.8765 34.3595 15.6518 34.556 15.4829C34.7533 15.3098 34.8812 15.1614 34.9397 15.0378C35.0006 14.9125 34.9829 14.7805 34.8866 14.6418L34.8663 14.6126C34.6161 14.2523 34.3232 14.0409 33.9874 13.9782C33.6541 13.9138 33.289 14.0194 32.8923 14.2949C32.4809 14.5805 32.2209 14.8946 32.1123 15.2369C32.0037 15.5793 31.973 15.8857 32.02 16.1561L30.9993 16.4319C30.9087 15.9898 30.9192 15.5892 31.0308 15.2303C31.1431 14.8673 31.3179 14.5475 31.5552 14.2709C31.7932 13.9902 32.0533 13.7518 32.3357 13.5557C32.5158 13.4306 32.7379 13.3089 33.002 13.1904C33.2669 13.0679 33.5545 12.9962 33.8648 12.9755C34.1776 12.9532 34.4991 13.0239 34.8294 13.1878C35.1597 13.3517 35.4795 13.6564 35.7888 14.1019L38.3546 17.7968L37.4929 18.3952L36.9656 17.6357L36.9218 17.6662C36.9479 17.8284 36.9409 18.0263 36.901 18.2597C36.861 18.4931 36.7616 18.737 36.6029 18.9916C36.4441 19.2462 36.2016 19.4867 35.8755 19.7132ZM35.4694 18.8479C35.8102 18.6112 36.0509 18.3448 36.1916 18.0487C36.3348 17.7509 36.3925 17.4547 36.3647 17.1601C36.3393 16.8638 36.2455 16.5988 36.0833 16.3651L35.5356 15.5765C35.5295 15.6457 35.4771 15.7416 35.3783 15.8643C35.2803 15.9829 35.1602 16.1114 35.0182 16.2497C34.8769 16.3839 34.7375 16.5131 34.6001 16.6374C34.4635 16.7576 34.3531 16.8558 34.2691 16.9322C34.0654 17.1169 33.889 17.3098 33.7399 17.5107C33.5916 17.7075 33.5026 17.9118 33.4729 18.1237C33.4439 18.3314 33.5055 18.5448 33.6577 18.7638C33.8656 19.0632 34.1335 19.2127 34.4615 19.2122C34.7902 19.2076 35.1262 19.0862 35.4694 18.8479Z" fill="black" fill-opacity="0.87"/>
<path d="M41.9136 16.4725L39.0906 10.2557L40.0134 9.83666L40.4398 10.7757L40.5046 10.7462C40.4782 10.3872 40.57 10.0445 40.7798 9.71812C40.9896 9.39177 41.2807 9.14405 41.653 8.97497C41.7232 8.94311 41.8115 8.90464 41.918 8.85955C42.0244 8.81447 42.1059 8.78237 42.1623 8.76326L42.6034 9.73463C42.5673 9.74124 42.4876 9.76279 42.3642 9.79929C42.2423 9.83186 42.1179 9.87694 41.9911 9.93453C41.6889 10.0718 41.4479 10.2577 41.268 10.4923C41.0896 10.723 40.9819 10.9803 40.9447 11.264C40.9091 11.5438 40.9549 11.8241 41.0824 12.1047L42.8688 16.0387L41.9136 16.4725Z" fill="black" fill-opacity="0.87"/>
<path d="M48.8888 6.89183L49.1472 7.74247L45.7616 8.77097L45.5032 7.92033L48.8888 6.89183ZM46.0145 6.05539L47.0182 5.75046L48.9099 11.9771C48.996 12.2607 49.1017 12.4608 49.227 12.5776C49.3543 12.6907 49.4905 12.7516 49.6355 12.7602C49.7826 12.765 49.9298 12.7451 50.0773 12.7003C50.1879 12.6667 50.2769 12.6335 50.3443 12.6006C50.4109 12.5649 50.4642 12.5363 50.5041 12.5149L50.9822 13.3545C50.9219 13.4007 50.8346 13.4551 50.7205 13.5177C50.6072 13.583 50.4569 13.6442 50.2698 13.701C49.9862 13.7872 49.6899 13.8106 49.3806 13.7714C49.0742 13.7313 48.7938 13.6136 48.5393 13.4184C48.2877 13.2223 48.1042 12.9342 47.9888 12.5543L46.0145 6.05539Z" fill="black" fill-opacity="0.87"/>
<path d="M54.2074 12.9668L53.0824 6.23241L54.1171 6.05957L55.2421 12.794L54.2074 12.9668ZM53.4211 5.02212C53.2194 5.05581 53.034 5.01617 52.8649 4.90321C52.6987 4.78976 52.5995 4.63657 52.5673 4.44366C52.5351 4.25075 52.5791 4.07364 52.6994 3.91234C52.8226 3.75055 52.985 3.65281 53.1867 3.61912C53.3884 3.58543 53.5723 3.62531 53.7385 3.73877C53.9076 3.85173 54.0082 4.00467 54.0404 4.19758C54.0727 4.39049 54.0272 4.56784 53.904 4.72963C53.7837 4.89094 53.6227 4.98843 53.4211 5.02212Z" fill="black" fill-opacity="0.87"/>
<path d="M61.727 12.4658C61.0883 12.5078 60.5284 12.3931 60.0472 12.1218C59.5661 11.8505 59.184 11.4583 58.9008 10.9453C58.6177 10.4323 58.4538 9.83576 58.4091 9.15564C58.3637 8.46369 58.4507 7.84471 58.6702 7.29869C58.8925 6.74953 59.2231 6.31056 59.6618 5.9818C60.1033 5.64988 60.6316 5.46372 61.2466 5.42333C61.7257 5.39186 62.1632 5.45222 62.5593 5.60439C62.9554 5.75656 63.2866 5.98427 63.553 6.28751C63.8194 6.59075 63.9962 6.95334 64.0833 7.37527L63.0365 7.44402C62.9363 7.13878 62.7408 6.87542 62.45 6.65397C62.1621 6.42936 61.7874 6.3322 61.3261 6.3625C60.9181 6.3893 60.5672 6.51926 60.2737 6.75236C59.9829 6.98232 59.7644 7.29514 59.6181 7.69082C59.4746 8.08335 59.4198 8.53687 59.4536 9.0514C59.4881 9.57775 59.601 10.0307 59.7923 10.4101C59.9865 10.7894 60.2429 11.0769 60.5617 11.2728C60.8834 11.4685 61.2512 11.5527 61.6652 11.5255C61.9373 11.5076 62.1811 11.4441 62.3966 11.3349C62.6122 11.2257 62.7911 11.0774 62.9332 10.8898C63.0753 10.7023 63.1707 10.4822 63.2194 10.2296L64.2662 10.1608C64.2335 10.5668 64.1109 10.9387 63.8985 11.2764C63.6888 11.6109 63.3995 11.8853 63.0304 12.0996C62.6642 12.3107 62.2297 12.4328 61.727 12.4658Z" fill="black" fill-opacity="0.87"/>
<path d="M67.9535 12.8761L68.7413 6.09398L69.7833 6.21501L68.9956 12.9971L67.9535 12.8761ZM69.4024 5.02517C69.1993 5.00158 69.0322 4.91206 68.9011 4.75662C68.7729 4.60151 68.7201 4.42682 68.7427 4.23254C68.7652 4.03826 68.8567 3.88032 69.017 3.75873C69.1802 3.63747 69.3634 3.58864 69.5665 3.61223C69.7696 3.63582 69.9353 3.72517 70.0634 3.88027C70.1946 4.03572 70.2488 4.21058 70.2263 4.40486C70.2037 4.59914 70.1108 4.75691 69.9475 4.87816C69.7872 4.99976 69.6055 5.04876 69.4024 5.02517Z" fill="black" fill-opacity="0.87"/>
<path d="M72.3934 16.3058L74.4331 7.14192L75.4224 7.36212L75.1867 8.42082L75.3082 8.44786C75.4092 8.3489 75.5462 8.22455 75.7191 8.07482C75.8957 7.92285 76.1255 7.804 76.4087 7.71827C76.6955 7.6303 77.0558 7.6346 77.4897 7.73118C78.0508 7.85608 78.5143 8.10647 78.8799 8.48234C79.2456 8.85821 79.4911 9.33031 79.6166 9.89864C79.7421 10.467 79.727 11.1011 79.5711 11.8012C79.4141 12.507 79.1578 13.092 78.8025 13.5564C78.4478 14.0178 78.0263 14.343 77.538 14.5318C77.0503 14.7177 76.5288 14.7489 75.9734 14.6253C75.5453 14.53 75.2183 14.3828 74.9924 14.1838C74.7672 13.9819 74.6054 13.7743 74.5071 13.5612C74.4095 13.3451 74.3366 13.168 74.2884 13.0298L74.2016 13.0105L73.4174 16.5337L72.3934 16.3058ZM74.698 10.6983C74.586 11.2016 74.5609 11.662 74.6228 12.0796C74.6854 12.4943 74.8342 12.8416 75.0694 13.1217C75.3053 13.3988 75.6286 13.5831 76.0393 13.6745C76.4674 13.7698 76.8498 13.7365 77.1864 13.5746C77.5265 13.4105 77.8117 13.1522 78.0419 12.7996C78.2757 12.4449 78.4454 12.0303 78.551 11.5559C78.6553 11.0873 78.677 10.6489 78.6161 10.2406C78.5587 9.83014 78.4098 9.48279 78.1695 9.19856C77.9327 8.91209 77.5973 8.72057 77.1634 8.62399C76.7469 8.53128 76.3734 8.55895 76.0429 8.70702C75.7131 8.85219 75.434 9.09671 75.2057 9.44056C74.978 9.78151 74.8088 10.2008 74.698 10.6983Z" fill="black" fill-opacity="0.87"/>
<path d="M83.082 17.569C82.6836 17.4004 82.3537 17.1724 82.0924 16.8849C81.8322 16.5947 81.6672 16.2659 81.5974 15.8985C81.5287 15.5284 81.581 15.1387 81.7541 14.7293C81.9065 14.369 82.101 14.107 82.3376 13.9432C82.5753 13.7767 82.84 13.6795 83.1317 13.6517C83.4234 13.6238 83.7259 13.6391 84.039 13.6976C84.356 13.7544 84.6686 13.8255 84.9768 13.9108C85.3797 14.0233 85.7051 14.1175 85.9529 14.1934C86.2046 14.2677 86.3984 14.2965 86.5341 14.2799C86.6725 14.2645 86.7747 14.1789 86.8405 14.0234L86.8543 13.9906C87.0252 13.5867 87.0474 13.2261 86.921 12.9088C86.7973 12.5926 86.513 12.3404 86.0681 12.1523C85.6069 11.9572 85.2025 11.9052 84.8551 11.9963C84.5076 12.0875 84.2322 12.2252 84.0288 12.4094L83.2503 11.694C83.5757 11.3812 83.9198 11.176 84.2828 11.0786C84.6497 10.9796 85.0134 10.9564 85.374 11.0092C85.7384 11.0604 86.0789 11.153 86.3955 11.2869C86.5975 11.3723 86.8191 11.495 87.0604 11.6549C87.3055 11.8133 87.5197 12.0181 87.703 12.2694C87.889 12.5218 88.001 12.8314 88.0389 13.1982C88.0769 13.565 87.9902 13.9981 87.7789 14.4975L86.0265 18.6406L85.0604 18.232L85.4205 17.3804L85.3714 17.3597C85.2482 17.4684 85.0773 17.5683 84.8586 17.6592C84.64 17.7501 84.3806 17.7965 84.0806 17.7983C83.7806 17.8001 83.4478 17.7237 83.082 17.569ZM83.5965 16.7634C83.9786 16.925 84.3324 16.9862 84.6579 16.9469C84.9862 16.9087 85.2674 16.7992 85.5016 16.6184C85.7385 16.4386 85.9123 16.2178 86.0231 15.9557L86.3972 15.0714C86.3354 15.1032 86.2263 15.1102 86.0698 15.0923C85.9172 15.0727 85.7445 15.0399 85.5516 14.9937C85.3627 14.946 85.179 14.8973 85.0005 14.8475C84.826 14.7962 84.6839 14.7554 84.5744 14.7252C84.3095 14.6518 84.0523 14.6057 83.8027 14.587C83.5571 14.5668 83.3368 14.6007 83.1419 14.6888C82.9509 14.7753 82.8034 14.9414 82.6995 15.187C82.5575 15.5228 82.5744 15.8291 82.75 16.1061C82.9295 16.3815 83.2117 16.6006 83.5965 16.7634Z" fill="black" fill-opacity="0.87"/>
<path d="M95.3087 16.9104L94.8205 17.6534L91.8634 15.7104L92.3516 14.9674L95.3087 16.9104ZM94.1118 14.1666L94.9885 14.7427L91.4149 20.1813C91.2522 20.429 91.166 20.6383 91.1565 20.8094C91.151 20.9795 91.1914 21.1231 91.2777 21.2401C91.3681 21.3562 91.4776 21.4565 91.6064 21.5412C91.703 21.6046 91.7855 21.6517 91.8539 21.6825C91.924 21.7108 91.98 21.7335 92.0221 21.7504L91.6829 22.6552C91.6088 22.6384 91.5112 22.6062 91.3901 22.5585C91.2673 22.5133 91.1242 22.437 90.9607 22.3296C90.7131 22.1669 90.5053 21.9541 90.3376 21.6914C90.1723 21.4303 90.0832 21.1395 90.0704 20.8191C90.06 20.5002 90.1639 20.1749 90.3819 19.843L94.1118 14.1666Z" fill="black" fill-opacity="0.87"/>
<path d="M94.0299 24.8644L98.4757 19.6824L99.2718 20.3654L94.8261 25.5475L94.0299 24.8644ZM99.6214 19.166C99.4663 19.0329 99.3778 18.8652 99.356 18.663C99.3365 18.4628 99.3904 18.2884 99.5178 18.14C99.6451 17.9915 99.8092 17.9117 100.01 17.9006C100.213 17.8913 100.392 17.9533 100.548 18.0864C100.703 18.2196 100.79 18.3863 100.81 18.5865C100.831 18.7887 100.779 18.964 100.651 19.1125C100.524 19.2609 100.359 19.3398 100.156 19.349C99.9547 19.3602 99.7766 19.2992 99.6214 19.166Z" fill="black" fill-opacity="0.87"/>
<path d="M99.409 30.4994C98.9844 30.0526 98.7182 29.5595 98.6103 29.0202C98.5045 28.483 98.5529 27.9382 98.7556 27.3857C98.9604 26.8355 99.3184 26.3174 99.8296 25.8315C100.345 25.3416 100.884 25.0073 101.446 24.8288C102.01 24.6524 102.558 24.6307 103.089 24.7637C103.622 24.8988 104.101 25.1898 104.526 25.6366C104.95 26.0834 105.216 26.5754 105.321 27.1126C105.429 27.6519 105.38 28.1978 105.173 28.7501C104.968 29.3045 104.608 29.8267 104.092 30.3167C103.581 30.8026 103.044 31.1327 102.482 31.307C101.922 31.4835 101.376 31.5042 100.843 31.3691C100.312 31.2361 99.8337 30.9462 99.409 30.4994ZM100.092 29.8502C100.415 30.1896 100.767 30.3862 101.149 30.4399C101.531 30.4937 101.914 30.4384 102.298 30.2742C102.682 30.11 103.039 29.8707 103.37 29.5563C103.7 29.2419 103.959 28.8963 104.144 28.5195C104.33 28.1428 104.407 27.7611 104.375 27.3746C104.343 26.9881 104.165 26.6252 103.843 26.2858C103.52 25.9464 103.167 25.7508 102.782 25.6991C102.398 25.6474 102.013 25.7047 101.627 25.871C101.241 26.0372 100.883 26.2776 100.552 26.592C100.221 26.9063 99.9643 27.2509 99.7808 27.6256C99.5973 28.0004 99.5227 28.38 99.5569 28.7644C99.5912 29.1489 99.7696 29.5108 100.092 29.8502Z" fill="black" fill-opacity="0.87"/>
<path d="M106.945 34.0058L103.513 36.2612L102.936 35.3845L108.643 31.6352L109.199 32.4822L108.308 33.068L108.356 33.1423C108.734 33.0856 109.1 33.1357 109.455 33.2926C109.812 33.4479 110.133 33.741 110.416 34.1719C110.67 34.5583 110.813 34.9484 110.844 35.3423C110.879 35.7346 110.789 36.1162 110.575 36.4871C110.364 36.8564 110.016 37.2005 109.53 37.5195L105.905 39.9019L105.329 39.0251L108.895 36.6818C109.343 36.3872 109.616 36.0414 109.713 35.6442C109.813 35.2454 109.729 34.843 109.462 34.4368C109.278 34.1569 109.053 33.9467 108.787 33.806C108.523 33.6678 108.232 33.612 107.917 33.6387C107.601 33.6653 107.277 33.7877 106.945 34.0058Z" fill="black" fill-opacity="0.87"/>
<path d="M112.246 50.8129C112.02 49.9274 112.559 49.002 113.457 48.7734C114.355 48.5447 115.271 49.0992 115.496 49.9847C115.722 50.8702 115.183 51.7955 114.285 52.0242C113.388 52.2529 112.471 51.6984 112.246 50.8129Z" fill="black" fill-opacity="0.87"/>
<path d="M38.1772 60.5837L39.5573 65.7344L47.7308 63.5444L48.4436 66.2044L40.2701 68.3945L42.0066 74.8752L38.863 75.7175L34.3273 58.7902L46.6842 55.4792L47.3905 58.115L38.1772 60.5837ZM52.901 60.1374C53.4087 58.55 54.7588 57.4625 56.9513 56.875L57.7223 59.7527C57.4514 59.7734 57.2112 59.8119 57.0016 59.868C55.8248 60.1834 54.9987 60.7762 54.5235 61.6465C54.044 62.5007 53.977 63.5727 54.3226 64.8624L56.0007 71.1255L52.978 71.9354L49.5179 59.0223L52.3956 58.2512L52.901 60.1374ZM72.5694 59.8435C72.6256 60.0531 72.6894 60.3557 72.7608 60.7512L62.6286 63.4662C63.0608 64.3698 63.7232 65.0044 64.616 65.3699C65.5206 65.715 66.529 65.7385 67.6414 65.4405C69.0601 65.0604 70.1036 64.2797 70.772 63.0984L72.8911 64.5263C72.4965 65.375 71.9033 66.0955 71.1117 66.6877C70.3201 67.28 69.3681 67.7251 68.2557 68.0232C66.837 68.4033 65.512 68.456 64.2807 68.1812C63.0494 67.9063 62.0016 67.3491 61.1373 66.5094C60.2848 65.6493 59.6879 64.5824 59.3466 63.3088C59.0097 62.0514 58.9895 60.8473 59.2859 59.6966C59.5941 58.5254 60.1804 57.5217 61.0449 56.6853C61.9093 55.8489 62.9784 55.2601 64.2519 54.9188C65.5094 54.5819 66.7054 54.5638 67.84 54.8645C68.9864 55.1448 69.9697 55.7194 70.79 56.5881C71.6221 57.4365 72.2152 58.5216 72.5694 59.8435ZM64.8999 57.337C63.9326 57.5962 63.1882 58.1067 62.6666 58.8685C62.1568 59.6098 61.9568 60.4755 62.0666 61.4655L69.3937 59.5022C69.0142 58.6018 68.4162 57.9499 67.5997 57.5466C66.7832 57.1434 65.8833 57.0735 64.8999 57.337ZM86.8566 56.0153C86.9127 56.2249 86.9765 56.5275 87.0479 56.923L76.9157 59.6379C77.3479 60.5416 78.0104 61.1762 78.9032 61.5417C79.8077 61.8868 80.8162 61.9103 81.9286 61.6123C83.3472 61.2321 84.3908 60.4514 85.0591 59.2702L87.1782 60.698C86.7836 61.5468 86.1905 62.2673 85.3989 62.8595C84.6072 63.4518 83.6552 63.8969 82.5429 64.195C81.1242 64.5751 79.7992 64.6278 78.5679 64.3529C77.3366 64.0781 76.2888 63.5208 75.4244 62.6812C74.5719 61.821 73.9751 60.7542 73.6338 59.4806C73.2969 58.2231 73.2766 57.019 73.573 55.8683C73.8813 54.6972 74.4676 53.6934 75.3321 52.857C76.1965 52.0207 77.2655 51.4318 78.5391 51.0906C79.7966 50.7536 80.9926 50.7356 82.1272 51.0363C83.2736 51.3166 84.2569 51.8911 85.0771 52.7599C85.9092 53.6082 86.5023 54.6934 86.8566 56.0153ZM79.1871 53.5088C78.2198 53.768 77.4753 54.2784 76.9538 55.0402C76.444 55.7816 76.244 56.6473 76.3537 57.6373L83.6809 55.674C83.3013 54.7735 82.7033 54.1217 81.8869 53.7184C81.0704 53.3152 80.1704 53.2453 79.1871 53.5088Z" fill="black" fill-opacity="0.87"/>
</svg>
