<svg width="123" height="123" viewBox="0 0 123 123" fill="none" xmlns="http://www.w3.org/2000/svg">
<path d="M122.763 61.5655C122.763 95.3008 95.415 122.649 61.6797 122.649C27.9445 122.649 0.59668 95.3008 0.59668 61.5655C0.59668 27.8303 27.9445 0.482483 61.6797 0.482483C95.415 0.482483 122.763 27.8303 122.763 61.5655Z" fill="#FFEE58"/>
<path d="M110.763 62.669H119.876V68.1686H118.897V63.7725H116.049V66.0863C116.049 66.7389 115.942 67.2891 115.729 67.737C115.515 68.1879 115.214 68.5291 114.825 68.7604C114.437 68.9948 113.978 69.1119 113.45 69.1119C112.922 69.1119 112.457 68.9948 112.053 68.7604C111.65 68.5291 111.334 68.1879 111.106 67.737C110.877 67.2891 110.763 66.7389 110.763 66.0863V62.669ZM111.724 63.7725V66.0863C111.724 66.5016 111.807 66.8531 111.973 67.1408C112.142 67.4315 112.359 67.651 112.623 67.7993C112.89 67.9506 113.172 68.0263 113.468 68.0263C113.904 68.0263 114.28 67.8587 114.594 67.5235C114.911 67.1883 115.07 66.7092 115.07 66.0863V63.7725H111.724Z" fill="black" fill-opacity="0.87"/>
<path d="M109.491 72.7698C109.589 72.1187 109.818 71.5788 110.177 71.15C110.538 70.7247 110.998 70.4237 111.555 70.2471C112.116 70.0739 112.742 70.0397 113.434 70.1444C114.126 70.2491 114.717 70.4676 115.207 70.7997C115.699 71.1352 116.059 71.5527 116.286 72.0521C116.516 72.5549 116.585 73.1113 116.493 73.7214C116.44 74.0734 116.328 74.412 116.159 74.7374C115.99 75.0628 115.752 75.3464 115.445 75.588C115.142 75.83 114.762 76.002 114.305 76.104C113.849 76.2059 113.305 76.2092 112.675 76.1137L112.235 76.0472L113.023 70.8382L113.921 70.974L113.292 75.1271C113.673 75.1848 114.025 75.16 114.347 75.0528C114.669 74.9485 114.938 74.7701 115.153 74.5177C115.368 74.2682 115.503 73.9557 115.56 73.5803C115.623 73.1667 115.574 72.7934 115.415 72.4602C115.258 72.1304 115.028 71.8602 114.727 71.6497C114.426 71.4391 114.089 71.3056 113.717 71.2492L113.119 71.1587C112.608 71.0815 112.162 71.104 111.781 71.2263C111.402 71.3519 111.096 71.5591 110.863 71.8479C110.633 72.1372 110.487 72.4915 110.423 72.9109C110.382 73.1837 110.383 73.4358 110.426 73.6673C110.471 73.9022 110.56 74.1121 110.691 74.2969C110.825 74.4822 111.002 74.6366 111.224 74.7601L110.79 75.7206C110.466 75.5635 110.194 75.3408 109.973 75.0524C109.756 74.7645 109.603 74.4263 109.515 74.038C109.429 73.6501 109.421 73.2273 109.491 72.7698Z" fill="black" fill-opacity="0.87"/>
<path d="M110.382 76.1762L110.072 77.2539C109.769 77.1915 109.505 77.2608 109.281 77.4617C109.056 77.6655 108.886 77.9656 108.772 78.3619C108.656 78.7667 108.639 79.1369 108.722 79.4723C108.807 79.8086 109.036 80.0304 109.41 80.1377C109.629 80.2008 109.836 80.2015 110.03 80.1399C110.226 80.079 110.398 79.9634 110.546 79.7929C110.694 79.6224 110.806 79.4031 110.883 79.1351L111.208 78.0061L112.114 78.2666L111.79 79.3956C111.674 79.7976 111.68 80.1203 111.808 80.3638C111.935 80.6101 112.135 80.7726 112.409 80.8512C112.702 80.9356 112.967 80.8991 113.204 80.7418C113.443 80.5852 113.618 80.316 113.728 79.9339C113.838 79.5491 113.844 79.2033 113.743 78.8968C113.646 78.591 113.464 78.3921 113.197 78.3L113.502 77.2395C113.852 77.3525 114.133 77.5505 114.345 77.8336C114.56 78.1175 114.693 78.4583 114.746 78.8561C114.801 79.2547 114.763 79.6821 114.632 80.1382C114.499 80.6001 114.303 80.9773 114.043 81.2699C113.785 81.5661 113.491 81.7672 113.161 81.873C112.834 81.9825 112.496 81.9873 112.148 81.8874C111.777 81.7809 111.508 81.5908 111.34 81.3172C111.171 81.0435 111.084 80.7359 111.077 80.3945L111.008 80.3748C110.92 80.6179 110.778 80.8102 110.583 80.9517C110.391 81.0969 110.165 81.1881 109.908 81.2252C109.653 81.2631 109.389 81.2427 109.115 81.1641C108.716 81.0494 108.399 80.8425 108.164 80.5435C107.932 80.2453 107.788 79.8861 107.733 79.466C107.68 79.0466 107.723 78.5974 107.861 78.1185C107.994 77.6538 108.189 77.2592 108.446 76.9349C108.706 76.6113 109.002 76.3801 109.335 76.2413C109.67 76.1061 110.019 76.0844 110.382 76.1762Z" fill="black" fill-opacity="0.87"/>
<path d="M106.87 80.7898L113.213 83.334L112.823 84.3087L110.064 83.2022L109.805 83.8464L111.65 87.2325L111.146 88.4879L109.117 84.7018L104.79 85.9767L105.293 84.7213L108.804 83.7133L109.155 82.8378L106.479 81.7644L106.87 80.7898Z" fill="black" fill-opacity="0.87"/>
<path d="M102.533 88.7926C102.835 88.2546 103.228 87.8544 103.712 87.592C104.194 87.3322 104.73 87.2177 105.318 87.2485C105.905 87.2819 106.506 87.4714 107.121 87.817C107.742 88.1654 108.221 88.5821 108.558 89.0671C108.893 89.5546 109.075 90.072 109.105 90.6193C109.133 91.1691 108.996 91.7131 108.694 92.2511C108.392 92.7891 108 93.1881 107.517 93.4479C107.033 93.7102 106.497 93.824 105.907 93.7891C105.316 93.7569 104.711 93.5665 104.09 93.2181C103.474 92.8725 103 92.4567 102.667 91.9706C102.333 91.4871 102.152 90.9705 102.124 90.4206C102.094 89.8733 102.231 89.3307 102.533 88.7926ZM103.355 89.2543C103.126 89.663 103.042 90.0581 103.103 90.4396C103.165 90.821 103.33 91.171 103.601 91.4894C103.871 91.8078 104.205 92.0788 104.604 92.3024C105.002 92.526 105.409 92.6709 105.824 92.7373C106.239 92.8036 106.627 92.7644 106.987 92.6196C107.347 92.4748 107.642 92.1981 107.872 91.7894C108.101 91.3807 108.184 90.9849 108.12 90.602C108.056 90.2191 107.887 89.8677 107.614 89.5479C107.341 89.228 107.006 88.9563 106.607 88.7327C106.209 88.5091 105.804 88.3648 105.391 88.2999C104.978 88.235 104.593 88.2757 104.236 88.4219C103.878 88.5682 103.585 88.8456 103.355 89.2543Z" fill="black" fill-opacity="0.87"/>
<path d="M105.953 95.7414L105.326 96.5838L100.629 93.0876L99.0882 95.1578L103.785 98.654L103.158 99.4964L98.4612 96.0002L96.9203 98.0704L101.618 101.567L100.991 102.409L95.5081 98.3283L100.471 91.6607L105.953 95.7414Z" fill="black" fill-opacity="0.87"/>
<path d="M98.7433 102.124L99.4125 102.839L95.3596 106.635L94.6905 105.92L96.3272 104.387L92.3243 100.114L93.0907 99.3958L97.0936 103.669L98.7433 102.124Z" fill="black" fill-opacity="0.87"/>
<path d="M87.1663 103.533C87.6666 103.172 88.1915 102.974 88.741 102.939C89.2881 102.907 89.822 103.028 90.3427 103.303C90.861 103.58 91.3267 104.005 91.7399 104.578C92.1566 105.155 92.4157 105.734 92.5172 106.316C92.6164 106.899 92.5643 107.445 92.3609 107.954C92.1552 108.465 91.8022 108.901 91.3019 109.262C90.8016 109.623 90.278 109.82 89.7309 109.853C89.1814 109.887 88.6466 109.765 88.1266 109.485C87.6042 109.207 87.1346 108.78 86.7179 108.203C86.3047 107.63 86.0494 107.054 85.952 106.473C85.8522 105.894 85.9052 105.349 86.1109 104.838C86.3143 104.329 86.6661 103.894 87.1663 103.533ZM87.7184 104.298C87.3384 104.572 87.0961 104.895 86.9914 105.267C86.8867 105.639 86.89 106.026 87.0013 106.429C87.1126 106.831 87.302 107.218 87.5693 107.588C87.8367 107.959 88.1448 108.261 88.4936 108.496C88.8423 108.731 89.2106 108.858 89.5982 108.878C89.9859 108.899 90.3698 108.771 90.7498 108.497C91.1298 108.223 91.3713 107.898 91.4743 107.524C91.5773 107.15 91.5722 106.76 91.4591 106.355C91.3461 105.95 91.1559 105.563 90.8885 105.192C90.6211 104.822 90.3139 104.52 89.9669 104.288C89.6199 104.056 89.2534 103.931 88.8674 103.913C88.4815 103.895 88.0985 104.023 87.7184 104.298Z" fill="black" fill-opacity="0.87"/>
<path d="M84.0968 105.258L87.3536 111.266L84.897 112.598C84.2503 112.948 83.6574 113.081 83.1183 112.995C82.5792 112.909 82.1796 112.627 81.9195 112.147C81.7216 111.782 81.6765 111.44 81.7841 111.122C81.8931 110.806 82.0981 110.522 82.3989 110.267C82.1603 110.356 81.9027 110.395 81.6262 110.383C81.3472 110.372 81.0791 110.294 80.8222 110.15C80.5666 110.009 80.3533 109.78 80.1823 109.465C80.0155 109.157 79.9446 108.839 79.9696 108.512C79.9946 108.185 80.115 107.871 80.3308 107.572C80.5465 107.273 80.8578 107.013 81.2646 106.793L84.0968 105.258ZM83.6785 106.578L81.7226 107.638C81.4045 107.81 81.1964 108.021 81.0984 108.27C81.0005 108.518 81.0222 108.773 81.1635 109.034C81.3318 109.344 81.5539 109.539 81.83 109.619C82.1074 109.702 82.4053 109.657 82.7234 109.484L84.6793 108.424L83.6785 106.578ZM85.1119 109.222L83.5315 110.079C83.2838 110.213 83.0896 110.362 82.949 110.526C82.8098 110.692 82.728 110.865 82.7033 111.044C82.6775 111.226 82.7127 111.406 82.8088 111.584C82.9459 111.837 83.159 111.978 83.4479 112.007C83.7383 112.038 84.0687 111.954 84.439 111.753L86.0194 110.896L85.1119 109.222Z" fill="black" fill-opacity="0.87"/>
<path d="M75.4675 113.04L75.1167 112.127L78.6394 110.775L78.9901 111.688L75.4675 113.04ZM79.8098 114.519L77.3608 108.139L78.3412 107.762L80.7901 114.143L79.8098 114.519ZM75.772 116.069L73.3231 109.688L74.3034 109.312L76.7524 115.693L75.772 116.069Z" fill="black" fill-opacity="0.87"/>
<path d="M70.3098 109.828C70.7306 109.726 71.1318 109.713 71.5134 109.788C71.8956 109.866 72.2243 110.032 72.4995 110.286C72.7755 110.543 72.9659 110.887 73.0708 111.32C73.1631 111.7 73.163 112.027 73.0705 112.299C72.9786 112.575 72.8238 112.811 72.6058 113.007C72.3879 113.204 72.1357 113.372 71.8491 113.512C71.5603 113.655 71.2666 113.784 70.9679 113.899C70.5769 114.049 70.2592 114.168 70.0147 114.254C69.768 114.345 69.5951 114.437 69.4958 114.531C69.3937 114.626 69.3626 114.756 69.4025 114.92L69.4109 114.955C69.5144 115.381 69.7116 115.685 70.0025 115.864C70.2904 116.045 70.6694 116.078 71.1392 115.964C71.6264 115.846 71.9825 115.646 72.2075 115.366C72.4324 115.086 72.5718 114.811 72.6254 114.541L73.678 114.652C73.6029 115.098 73.4486 115.468 73.2148 115.763C72.9789 116.061 72.7003 116.296 72.379 116.469C72.0554 116.645 71.7265 116.774 71.3921 116.855C71.1787 116.907 70.9274 116.94 70.6381 116.956C70.3466 116.974 70.0522 116.937 69.755 116.845C69.4549 116.753 69.1802 116.571 68.931 116.298C68.6818 116.026 68.4932 115.626 68.3652 115.099L67.3034 110.723L68.3239 110.475L68.5421 111.375L68.594 111.362C68.6282 111.201 68.7061 111.019 68.8277 110.815C68.9492 110.612 69.1301 110.42 69.3702 110.24C69.6103 110.059 69.9235 109.922 70.3098 109.828ZM70.3765 110.783C69.973 110.881 69.652 111.043 69.4138 111.268C69.1726 111.495 69.0119 111.75 68.9315 112.036C68.8482 112.321 68.8401 112.603 68.9073 112.879L69.1339 113.813C69.1645 113.751 69.2481 113.68 69.3847 113.601C69.519 113.526 69.6774 113.449 69.86 113.372C70.0404 113.297 70.2171 113.227 70.3903 113.16C70.5612 113.098 70.6997 113.046 70.8058 113.005C71.0626 112.906 71.2969 112.789 71.5086 112.656C71.7181 112.525 71.875 112.367 71.9792 112.18C72.0812 111.996 72.1007 111.775 72.0377 111.515C71.9517 111.161 71.7555 110.924 71.4491 110.807C71.1405 110.692 70.783 110.684 70.3765 110.783Z" fill="black" fill-opacity="0.87"/>
<path d="M62.7554 108.103C62.933 108.093 63.0923 108.099 63.2332 108.12C63.374 108.139 63.4718 108.16 63.5266 108.183L63.3136 109.123C63.0552 109.072 62.8287 109.062 62.6343 109.091C62.4399 109.12 62.2717 109.217 62.1298 109.383C61.9847 109.546 61.8585 109.804 61.7513 110.158L61.5867 110.702L64.5072 117.415L63.37 117.481L61.1715 112.153L61.1005 112.157L59.5321 117.703L58.3949 117.769L60.8381 109.783C60.948 109.423 61.0925 109.122 61.2716 108.88C61.4506 108.635 61.6641 108.449 61.9123 108.321C62.1575 108.194 62.4385 108.122 62.7554 108.103Z" fill="black" fill-opacity="0.87"/>
<path d="M51.3111 116.899L51.7853 110.081L52.8328 110.154L52.3586 116.972L51.3111 116.899ZM51.9454 113.678L52.0134 112.702C52.2563 112.629 52.497 112.567 52.7355 112.516C52.9738 112.467 53.223 112.432 53.4831 112.411C53.7431 112.394 54.0269 112.396 54.3347 112.417C55.107 112.471 55.7124 112.723 56.151 113.172C56.5866 113.622 56.7753 114.264 56.7173 115.098L56.5654 117.282L55.5178 117.21L55.6697 115.026C55.694 114.676 55.6474 114.385 55.5299 114.151C55.4123 113.916 55.2435 113.737 55.0232 113.611C54.803 113.486 54.5508 113.413 54.2667 113.394C53.8229 113.363 53.4191 113.375 53.0555 113.43C52.6887 113.488 52.3187 113.57 51.9454 113.678Z" fill="black" fill-opacity="0.87"/>
<path d="M48.9173 108.909C49.3417 108.995 49.7108 109.153 50.0243 109.383C50.3373 109.616 50.5646 109.905 50.7062 110.252C50.8473 110.601 50.8737 110.994 50.7853 111.43C50.7075 111.814 50.5689 112.11 50.3694 112.317C50.1693 112.528 49.929 112.676 49.6484 112.761C49.3677 112.847 49.068 112.892 48.7492 112.897C48.4269 112.904 48.1061 112.897 47.7868 112.874C47.3691 112.844 47.0312 112.817 46.773 112.792C46.5112 112.769 46.3155 112.779 46.1856 112.822C46.0529 112.865 45.9697 112.969 45.9361 113.135L45.9291 113.17C45.8419 113.6 45.8919 113.958 46.079 114.244C46.2633 114.53 46.5924 114.721 47.0663 114.817C47.5576 114.916 47.9646 114.887 48.2873 114.728C48.61 114.57 48.8528 114.38 49.0156 114.159L49.9218 114.705C49.6649 115.077 49.3681 115.347 49.0314 115.515C48.6912 115.685 48.339 115.78 47.9748 115.8C47.6071 115.822 47.2546 115.799 46.9174 115.731C46.7022 115.687 46.4604 115.611 46.1919 115.502C45.9199 115.396 45.669 115.237 45.4392 115.027C45.2064 114.817 45.0349 114.535 44.9247 114.183C44.8145 113.831 44.8133 113.389 44.9211 112.857L45.8154 108.443L46.8446 108.652L46.6608 109.559L46.7131 109.57C46.8123 109.438 46.9601 109.307 47.1565 109.174C47.3529 109.041 47.5981 108.944 47.892 108.882C48.186 108.821 48.5277 108.83 48.9173 108.909ZM48.5729 109.801C48.1659 109.719 47.8067 109.729 47.4952 109.833C47.1808 109.935 46.9267 110.099 46.733 110.323C46.5364 110.546 46.4098 110.798 46.3532 111.077L46.1624 112.019C46.2166 111.975 46.3222 111.947 46.4793 111.933C46.6329 111.922 46.8089 111.92 47.0073 111.927C47.2022 111.936 47.3921 111.947 47.577 111.96C47.7585 111.976 47.9059 111.988 48.0194 111.995C48.2939 112.015 48.5554 112.009 48.8039 111.977C49.0489 111.948 49.2582 111.871 49.4319 111.746C49.6021 111.623 49.7137 111.431 49.7667 111.169C49.8392 110.812 49.7617 110.514 49.5342 110.278C49.3033 110.043 48.9829 109.884 48.5729 109.801Z" fill="black" fill-opacity="0.87"/>
<path d="M42.2514 106.665C42.8578 106.872 43.3311 107.193 43.6713 107.629C44.0115 108.065 44.2138 108.574 44.2781 109.157C44.3424 109.74 44.2644 110.355 44.044 111C43.8198 111.657 43.5012 112.196 43.0883 112.616C42.6716 113.038 42.1973 113.316 41.6654 113.451C41.1297 113.588 40.5699 113.557 39.986 113.358C39.5312 113.202 39.1501 112.978 38.8426 112.685C38.5351 112.392 38.3166 112.054 38.1871 111.672C38.0575 111.289 38.0337 110.886 38.1155 110.463L39.1093 110.802C39.0845 111.122 39.1638 111.441 39.3473 111.757C39.527 112.076 39.8359 112.31 40.2738 112.459C40.6612 112.591 41.0354 112.606 41.3964 112.504C41.7535 112.403 42.0758 112.198 42.3632 111.889C42.6468 111.581 42.872 111.183 43.0387 110.695C43.2092 110.195 43.2791 109.733 43.2484 109.309C43.2149 108.884 43.0885 108.519 42.8693 108.216C42.6472 107.911 42.3397 107.692 41.9467 107.558C41.6884 107.469 41.4387 107.434 41.1975 107.452C40.9562 107.47 40.7339 107.539 40.5304 107.657C40.327 107.776 40.1541 107.942 40.0119 108.157L39.0181 107.818C39.2045 107.455 39.4608 107.159 39.7871 106.929C40.1095 106.7 40.4825 106.558 40.9059 106.502C41.3256 106.448 41.7741 106.502 42.2514 106.665Z" fill="black" fill-opacity="0.87"/>
<path d="M36.8513 110.594L36.4202 111.473L31.4346 109.027L31.8656 108.149L33.8791 109.136L36.4576 103.879L37.4004 104.341L34.8219 109.598L36.8513 110.594Z" fill="black" fill-opacity="0.87"/>
<path d="M30.5435 105.054L28.9113 103.973C28.2435 103.53 27.845 103.023 27.7158 102.45C27.5865 101.877 27.6939 101.33 28.0379 100.811C28.2639 100.47 28.5486 100.212 28.892 100.037C29.2337 99.8651 29.6128 99.7977 30.0292 99.8351C30.444 99.875 30.874 100.042 31.3191 100.337L33.7081 101.92L29.9342 107.618L29.0587 107.038L32.2921 102.156L30.7786 101.153C30.4323 100.924 30.0873 100.827 29.7435 100.863C29.3998 100.898 29.1329 101.06 28.9428 101.346C28.743 101.648 28.6913 101.968 28.7878 102.306C28.8842 102.644 29.1056 102.927 29.4518 103.157L31.084 104.238L30.5435 105.054Z" fill="black" fill-opacity="0.87"/>
<path d="M14.9242 84.3438C15.363 85.1464 15.0701 86.1777 14.2566 86.6225C13.443 87.0674 12.4167 86.7575 11.9779 85.9549C11.539 85.1524 11.8319 84.1211 12.6455 83.6762C13.459 83.2314 14.4853 83.5413 14.9242 84.3438Z" fill="black" fill-opacity="0.87"/>
<path d="M12.6232 63.5446L3.52791 64.1068L3.18863 58.6176L4.16566 58.5573L4.43686 62.945L7.27914 62.7693L7.13639 60.46C7.09613 59.8086 7.16877 59.2528 7.35431 58.7926C7.53966 58.3294 7.81913 57.9703 8.19271 57.7154C8.5661 57.4576 9.0163 57.3123 9.5433 57.2798C10.0703 57.2472 10.5424 57.3354 10.9595 57.5444C11.3764 57.7505 11.7128 58.0714 11.9686 58.5074C12.2242 58.9404 12.3721 59.4825 12.4124 60.1339L12.6232 63.5446ZM11.5958 62.5025L11.4531 60.1932C11.4275 59.7787 11.3229 59.433 11.1393 59.156C10.9526 58.8763 10.723 58.6706 10.4503 58.5388C10.1745 58.4043 9.88859 58.3462 9.59252 58.3645C9.1573 58.3914 8.79311 58.5818 8.49995 58.9358C8.20384 59.2899 8.07499 59.7778 8.11342 60.3996L8.25617 62.7089L11.5958 62.5025Z" fill="black" fill-opacity="0.87"/>
<path d="M13.3032 53.1772C13.2423 53.8329 13.0451 54.3851 12.7115 54.8338C12.3752 55.2792 11.9338 55.6062 11.3871 55.8146C10.8378 56.0198 10.2146 56.0901 9.51755 56.0254C8.82048 55.9607 8.21791 55.7767 7.70983 55.4733C7.19907 55.1667 6.81578 54.7707 6.55995 54.2852C6.30144 53.7964 6.2007 53.2449 6.25772 52.6305C6.29062 52.2761 6.38218 51.9315 6.5324 51.5969C6.68262 51.2623 6.9038 50.9656 7.19595 50.7067C7.48514 50.4476 7.85465 50.2539 8.30446 50.1259C8.75427 49.9978 9.2967 49.9633 9.93173 50.0222L10.3748 50.0633L9.8879 55.309L8.98408 55.2251L9.37227 51.0428C8.9883 51.0071 8.63854 51.0521 8.32302 51.1777C8.00776 51.3004 7.74998 51.494 7.54967 51.7584C7.34964 52.0199 7.23207 52.3396 7.19698 52.7177C7.15833 53.1342 7.22826 53.5041 7.40678 53.8275C7.58262 54.1477 7.82693 54.4042 8.13971 54.5971C8.45248 54.79 8.79643 54.9038 9.17154 54.9387L9.77409 54.9946C10.288 55.0423 10.7319 54.9941 11.1058 54.8501C11.4769 54.7028 11.7703 54.4783 11.986 54.1766C12.1988 53.8746 12.3247 53.5124 12.3639 53.09C12.3894 52.8153 12.3741 52.5637 12.3178 52.335C12.2589 52.1031 12.1587 51.8987 12.0173 51.7217C11.8728 51.5445 11.6866 51.4006 11.4585 51.29L11.8358 50.3062C12.1686 50.4443 12.4533 50.651 12.6899 50.9262C12.9236 51.2011 13.0956 51.5298 13.2061 51.9125C13.3136 52.2949 13.346 52.7164 13.3032 53.1772Z" fill="black" fill-opacity="0.87"/>
<path d="M12.2233 49.7699L12.471 48.6763C12.7772 48.7213 13.0365 48.6372 13.2491 48.4238C13.4624 48.2075 13.6146 47.8982 13.7057 47.4961C13.7987 47.0853 13.7945 46.7148 13.6929 46.3846C13.5884 46.0537 13.3467 45.8453 12.9677 45.7595C12.7449 45.709 12.5387 45.72 12.3488 45.7926C12.1561 45.8645 11.9909 45.9898 11.8531 46.1685C11.7153 46.3471 11.6156 46.5724 11.5539 46.8443L11.2944 47.99L10.3744 47.7815L10.634 46.6359C10.7264 46.228 10.702 45.9061 10.5608 45.6703C10.4202 45.4317 10.211 45.2809 9.93329 45.2179C9.63531 45.1504 9.37271 45.2019 9.14549 45.3725C8.91538 45.5424 8.7564 45.8211 8.66857 46.2088C8.58007 46.5994 8.59457 46.9448 8.71204 47.2452C8.82663 47.5449 9.0197 47.7331 9.29126 47.8098L9.04741 48.886C8.6913 48.7932 8.39943 48.6115 8.17179 48.3409C7.94125 48.0697 7.78852 47.737 7.71358 47.3429C7.63574 46.9481 7.64927 46.5192 7.75415 46.0564C7.86034 45.5877 8.03489 45.1999 8.27779 44.893C8.51846 44.5825 8.80041 44.3651 9.12364 44.2406C9.44464 44.1126 9.78161 44.0886 10.1346 44.1686C10.5106 44.2538 10.7905 44.4282 10.9741 44.6918C11.1577 44.9555 11.2626 45.2575 11.2888 45.5981L11.3583 45.6138C11.4327 45.366 11.5632 45.166 11.7498 45.0136C11.9341 44.8577 12.1538 44.7538 12.4089 44.7021C12.661 44.6498 12.926 44.6551 13.2037 44.718C13.6087 44.8098 13.9371 44.9982 14.1888 45.2834C14.4376 45.5679 14.6015 45.9183 14.6806 46.3346C14.7567 46.7503 14.7397 47.2012 14.6296 47.6872C14.5227 48.1588 14.3504 48.5638 14.1125 48.9022C13.8717 49.24 13.589 49.4877 13.2643 49.6453C12.9374 49.7994 12.5904 49.8409 12.2233 49.7699Z" fill="black" fill-opacity="0.87"/>
<path d="M15.4486 45.0033L8.97218 42.8202L9.3076 41.8251L12.1242 42.7746L12.3459 42.1168L10.3139 38.8399L10.746 37.5581L12.9849 41.2241L17.2337 39.7075L16.8017 40.9893L13.3531 42.1934L13.0518 43.0872L15.784 44.0083L15.4486 45.0033Z" fill="black" fill-opacity="0.87"/>
<path d="M19.3496 36.7006C19.0779 37.2546 18.7077 37.676 18.239 37.9648C17.7715 38.251 17.2433 38.395 16.6543 38.3968C16.0666 38.396 15.4558 38.2402 14.822 37.9293C14.1828 37.6158 13.6816 37.2263 13.3186 36.7608C12.9568 36.2926 12.7459 35.7861 12.686 35.2413C12.6275 34.6939 12.734 34.1432 13.0057 33.5892C13.2774 33.0353 13.647 32.6152 14.1144 32.3291C14.5831 32.0402 15.1127 31.8969 15.703 31.899C16.2947 31.8984 16.9102 32.0549 17.5493 32.3684C18.1832 32.6793 18.6797 33.0682 19.0388 33.535C19.3992 33.9992 19.6087 34.5051 19.6673 35.0525C19.7272 35.5973 19.6213 36.1467 19.3496 36.7006ZM18.5027 36.2853C18.7091 35.8645 18.771 35.4653 18.6885 35.0879C18.606 34.7104 18.421 34.3702 18.1335 34.0673C17.8459 33.7644 17.4971 33.5124 17.0869 33.3112C16.6768 33.11 16.2626 32.9878 15.8444 32.9446C15.4262 32.9014 15.0412 32.9621 14.6896 33.1266C14.338 33.2911 14.059 33.5838 13.8526 34.0046C13.6462 34.4254 13.5856 34.8252 13.6708 35.204C13.7559 35.5827 13.9436 35.9242 14.2338 36.2284C14.524 36.5327 14.8742 36.7854 15.2844 36.9865C15.6945 37.1877 16.1074 37.3092 16.5229 37.3511C16.9385 37.393 17.3207 37.3311 17.6697 37.1652C18.0186 36.9994 18.2963 36.7061 18.5027 36.2853Z" fill="black" fill-opacity="0.87"/>
<path d="M15.3772 30.1921L15.9539 29.3145L20.8476 32.53L22.2648 30.3732L17.3711 27.1577L17.9477 26.2801L22.8414 29.4956L24.2586 27.3389L19.3649 24.1233L19.9415 23.2457L25.6533 26.9988L21.089 33.9452L15.3772 30.1921Z" fill="black" fill-opacity="0.87"/>
<path d="M22.1443 23.4154L21.4347 22.7411L25.2602 18.7159L25.9697 19.3903L24.4249 21.0158L28.6693 25.0497L27.9459 25.8109L23.7015 21.777L22.1443 23.4154Z" fill="black" fill-opacity="0.87"/>
<path d="M33.5625 21.3434C33.0842 21.7331 32.5717 21.9612 32.0252 22.0276C31.4809 22.0922 30.9409 22.0023 30.405 21.7578C29.8714 21.5114 29.3817 21.1145 28.9358 20.5671C28.4862 20.0152 28.1937 19.4519 28.0585 18.8772C27.9255 18.3007 27.9456 17.7524 28.1189 17.2325C28.2945 16.7107 28.6215 16.2549 29.0999 15.8652C29.5783 15.4755 30.0896 15.2484 30.6338 15.1838C31.1804 15.1174 31.7214 15.2085 32.2568 15.4571C32.7945 15.704 33.2882 16.1033 33.7379 16.6553C34.1838 17.2027 34.4723 17.7635 34.6034 18.3377C34.7367 18.9101 34.7156 19.4572 34.54 19.979C34.3667 20.4989 34.0409 20.9537 33.5625 21.3434ZM32.9668 20.6121C33.3302 20.3161 33.5533 19.9794 33.6361 19.602C33.7189 19.2246 33.693 18.8382 33.5584 18.4428C33.4238 18.0475 33.2122 17.6727 32.9237 17.3185C32.6352 16.9643 32.31 16.6802 31.9482 16.4661C31.5863 16.2521 31.2113 16.1463 30.823 16.1488C30.4348 16.1513 30.059 16.3005 29.6957 16.5966C29.3323 16.8926 29.1101 17.2304 29.0292 17.6101C28.9482 17.9898 28.976 18.3785 29.1125 18.7761C29.2489 19.1738 29.4614 19.5498 29.75 19.9039C30.0385 20.2581 30.3627 20.5411 30.7227 20.7529C31.0827 20.9646 31.4559 21.0681 31.8422 21.0633C32.2285 21.0585 32.6034 20.9081 32.9668 20.6121Z" fill="black" fill-opacity="0.87"/>
<path d="M36.4968 19.4169L32.8916 13.6106L35.2656 12.1366C35.8905 11.7486 36.4746 11.5814 37.0178 11.6352C37.561 11.689 37.9765 11.9478 38.2644 12.4115C38.4835 12.7643 38.5487 13.1027 38.46 13.4266C38.3698 13.748 38.182 14.0444 37.8966 14.3159C38.1296 14.2131 38.3844 14.1596 38.6611 14.1554C38.9404 14.1496 39.2125 14.2111 39.4775 14.3399C39.7409 14.4661 39.9673 14.6817 40.1566 14.9866C40.3413 15.284 40.4308 15.5968 40.4251 15.925C40.4194 16.2533 40.3177 16.5731 40.1199 16.8844C39.9222 17.1958 39.6267 17.4735 39.2336 17.7176L36.4968 19.4169ZM36.8365 18.0746L38.7266 16.9011C39.0341 16.7102 39.2294 16.4877 39.3125 16.2335C39.3956 15.9794 39.3589 15.7263 39.2025 15.4743C39.0163 15.1744 38.783 14.9928 38.5027 14.9294C38.2209 14.8635 37.9262 14.9259 37.6188 15.1168L35.7287 16.2904L36.8365 18.0746ZM35.2499 15.5192L36.7771 14.571C37.0165 14.4224 37.2015 14.2621 37.3322 14.0902C37.4613 13.9157 37.5329 13.7386 37.547 13.5588C37.562 13.3749 37.5163 13.1972 37.4099 13.0259C37.2581 12.7814 37.0371 12.6533 36.7469 12.6414C36.4552 12.627 36.1304 12.7309 35.7725 12.9531L34.2454 13.9013L35.2499 15.5192Z" fill="black" fill-opacity="0.87"/>
<path d="M44.7089 11.0677L45.1137 11.959L41.6781 13.5191L41.2734 12.6278L44.7089 11.0677ZM40.286 9.85081L43.1118 16.0738L42.1557 16.5079L39.3299 10.285L40.286 9.85081ZM44.224 8.06263L47.0498 14.2856L46.0936 14.7197L43.2679 8.4968L44.224 8.06263Z" fill="black" fill-opacity="0.87"/>
<path d="M50.2534 13.8893C49.839 14.0152 49.4392 14.0514 49.054 13.9979C48.668 13.9416 48.3304 13.7946 48.0411 13.5569C47.7511 13.3164 47.5414 12.9833 47.412 12.5575C47.2982 12.1829 47.2797 11.8568 47.3566 11.5792C47.4327 11.2988 47.5739 11.0544 47.7803 10.846C47.9867 10.6376 48.229 10.4554 48.5072 10.2996C48.7873 10.1401 49.0732 9.99435 49.3648 9.86236C49.7467 9.69055 50.0572 9.55437 50.2963 9.45381C50.5375 9.34955 50.7049 9.24753 50.7986 9.14776C50.8951 9.04713 50.9188 8.91593 50.8697 8.75414L50.8593 8.72009C50.7317 8.30002 50.5176 8.00854 50.217 7.84565C49.9193 7.68189 49.5391 7.67028 49.0764 7.81083C48.5967 7.95655 48.2526 8.17581 48.0439 8.46862C47.8352 8.76143 47.7118 9.04385 47.6735 9.31589L46.6164 9.26502C46.666 8.81593 46.799 8.43757 47.0156 8.12996C47.2342 7.81865 47.499 7.5677 47.81 7.37711C48.123 7.18282 48.4441 7.03566 48.7733 6.93564C48.9834 6.87183 49.2324 6.82408 49.5204 6.7924C49.8103 6.75701 50.1063 6.77715 50.4083 6.85281C50.7132 6.92761 50.9977 7.09383 51.262 7.35147C51.5263 7.6091 51.7373 7.99762 51.8951 8.51703L53.204 12.8255L52.1993 13.1308L51.9303 12.2452L51.8792 12.2607C51.8542 12.4233 51.7868 12.6097 51.677 12.8197C51.5672 13.0298 51.3975 13.2317 51.1681 13.4254C50.9386 13.6191 50.6337 13.7738 50.2534 13.8893ZM50.1324 12.9402C50.5298 12.8195 50.841 12.6397 51.0661 12.4008C51.2939 12.1611 51.4399 11.8966 51.504 11.6074C51.5709 11.3174 51.5629 11.0361 51.4802 10.7636L51.2008 9.84404C51.1737 9.90806 51.0943 9.98335 50.9625 10.0699C50.8326 10.1527 50.6788 10.2382 50.501 10.3264C50.3251 10.4108 50.1526 10.4911 49.9836 10.5673C49.8165 10.6397 49.6811 10.6994 49.5776 10.7464C49.3268 10.8598 49.0995 10.9893 48.8958 11.1349C48.694 11.2768 48.5464 11.4441 48.453 11.6368C48.3616 11.8257 48.3547 12.048 48.4323 12.3034C48.5384 12.6525 48.7477 12.8772 49.0603 12.9776C49.3749 13.0742 49.7323 13.0618 50.1324 12.9402Z" fill="black" fill-opacity="0.87"/>
<path d="M57.7747 15.1803C57.5979 15.2008 57.4385 15.2044 57.2966 15.191C57.1551 15.1806 57.0562 15.1652 57.0001 15.1448L57.1585 14.1947C57.4194 14.2301 57.6461 14.2276 57.8385 14.1874C58.0309 14.1471 58.1932 14.0402 58.3254 13.8665C58.4608 13.6955 58.5718 13.4303 58.6585 13.0708L58.7914 12.5179L55.4883 5.98526L56.6198 5.85384L59.1221 11.046L59.1928 11.0378L60.4385 5.4103L61.5699 5.27888L59.5917 13.3925C59.5028 13.7582 59.3759 14.067 59.2111 14.3191C59.0466 14.5741 58.8442 14.7723 58.6038 14.9138C58.3663 15.0548 58.09 15.1436 57.7747 15.1803Z" fill="black" fill-opacity="0.87"/>
<path d="M68.7306 5.74999L68.6251 12.5836L67.5751 12.5674L67.6807 5.73377L68.7306 5.74999ZM68.271 9.00033L68.2559 9.97911C68.0173 10.0644 67.7803 10.1394 67.5449 10.204C67.3096 10.2656 67.0626 10.3137 66.8039 10.3483C66.5454 10.3799 66.2618 10.3933 65.9534 10.3886C65.1792 10.3766 64.5611 10.1579 64.0989 9.73247C63.6397 9.30707 63.4166 8.67617 63.4295 7.83976L63.4633 5.65085L64.5133 5.66706L64.4795 7.85597C64.474 8.20596 64.5363 8.49469 64.6663 8.72216C64.7963 8.94964 64.9747 9.12001 65.2013 9.23328C65.428 9.34655 65.6837 9.40538 65.9685 9.40978C66.4134 9.41665 66.8159 9.38281 67.176 9.30827C67.5391 9.23081 67.9042 9.12817 68.271 9.00033Z" fill="black" fill-opacity="0.87"/>
<path d="M71.578 13.5539C71.1493 13.4923 70.7719 13.3558 70.4456 13.1441C70.1198 12.9296 69.8762 12.6534 69.7149 12.3156C69.5541 11.9748 69.5052 11.5843 69.5684 11.1438C69.624 10.7562 69.7455 10.453 69.9327 10.2341C70.1204 10.0123 70.3518 9.85075 70.6271 9.7494C70.9023 9.64805 71.199 9.58573 71.517 9.56243C71.8383 9.53662 72.159 9.5257 72.4791 9.52968C72.8978 9.53581 73.2367 9.54399 73.496 9.55421C73.7586 9.56193 73.9535 9.54044 74.0806 9.48976C74.2107 9.4395 74.2877 9.33069 74.3117 9.16332L74.3168 9.12808C74.3791 8.69352 74.3087 8.33878 74.1054 8.06388C73.905 7.7894 73.5655 7.61782 73.0869 7.54915C72.5907 7.47794 72.1861 7.53076 71.873 7.7076C71.5599 7.88444 71.3285 8.08796 71.1786 8.31818L70.2425 7.82426C70.4777 7.43846 70.7585 7.15212 71.085 6.96522C71.4148 6.77581 71.761 6.66065 72.1235 6.61977C72.4893 6.57636 72.8425 6.5791 73.1832 6.62797C73.4004 6.65915 73.6462 6.72139 73.9205 6.81469C74.1982 6.90547 74.4578 7.0491 74.6993 7.24558C74.9437 7.44248 75.1311 7.7136 75.2613 8.05893C75.3916 8.40426 75.4182 8.8456 75.3411 9.38294L74.7015 13.8402L73.6621 13.6911L73.7935 12.7749L73.7407 12.7674C73.6491 12.9041 73.5091 13.0443 73.3207 13.1881C73.1322 13.3318 72.8931 13.4429 72.6031 13.5211C72.3132 13.5994 71.9715 13.6103 71.578 13.5539ZM71.8706 12.6429C72.2817 12.7019 72.6397 12.6708 72.9448 12.5498C73.2528 12.4291 73.497 12.2514 73.6776 12.0166C73.861 11.7822 73.973 11.5241 74.0134 11.2422L74.1499 10.2909C74.0983 10.3374 73.9945 10.3719 73.8384 10.3945C73.6857 10.4145 73.5101 10.4268 73.3117 10.4313C73.1166 10.4333 72.9264 10.4329 72.741 10.4303C72.5589 10.4252 72.411 10.4219 72.2973 10.4206C72.0221 10.4171 71.7614 10.4381 71.5151 10.4837C71.2722 10.5267 71.0676 10.6157 70.9014 10.7507C70.7386 10.8832 70.6382 11.0815 70.6003 11.3458C70.5485 11.707 70.6429 11.9992 70.8835 12.2225C71.1276 12.4434 71.4566 12.5835 71.8706 12.6429Z" fill="black" fill-opacity="0.87"/>
<path d="M78.4551 15.4206C77.838 15.2483 77.3472 14.9543 76.9829 14.5384C76.6185 14.1226 76.3877 13.6254 76.2905 13.047C76.1932 12.4686 76.2363 11.8508 76.4198 11.1937C76.6064 10.5251 76.894 9.96941 77.2824 9.52657C77.6746 9.08168 78.1323 8.77676 78.6557 8.61182C79.1828 8.44481 79.7435 8.44426 80.3378 8.61015C80.8006 8.73936 81.1938 8.94151 81.5174 9.21662C81.841 9.49174 82.0783 9.81667 82.2293 10.1914C82.3803 10.5662 82.4269 10.9673 82.3692 11.3947L81.3578 11.1123C81.3644 10.7908 81.2671 10.4772 81.066 10.1716C80.8686 9.86396 80.547 9.64792 80.1013 9.5235C79.707 9.41343 79.3326 9.41978 78.978 9.54255C78.6271 9.66326 78.3169 9.88619 78.0475 10.2114C77.7818 10.5345 77.5795 10.9446 77.4408 11.4417C77.2988 11.9503 77.2552 12.4155 77.3099 12.8373C77.3675 13.2599 77.5143 13.6165 77.7504 13.9073C77.9893 14.1988 78.3087 14.4004 78.7087 14.512C78.9716 14.5854 79.2229 14.6063 79.4627 14.5747C79.7025 14.5431 79.9206 14.4623 80.1171 14.3323C80.3135 14.2024 80.4766 14.0262 80.6065 13.8037L81.6179 14.0861C81.4523 14.4587 81.2132 14.7692 80.9005 15.0176C80.5915 15.264 80.2272 15.4271 79.8076 15.5071C79.3916 15.585 78.9408 15.5562 78.4551 15.4206Z" fill="black" fill-opacity="0.87"/>
<path d="M83.5055 11.1289L83.8868 10.2273L89.0012 12.3905L88.6198 13.2921L86.5544 12.4185L84.2734 17.8115L83.3062 17.4024L85.5873 12.0094L83.5055 11.1289Z" fill="black" fill-opacity="0.87"/>
<path d="M90.2382 16.3453L91.9275 17.3349C92.6186 17.7397 93.0444 18.2246 93.205 18.7897C93.3656 19.3548 93.2885 19.906 92.9736 20.4435C92.7667 20.7968 92.4966 21.07 92.1634 21.2633C91.8317 21.454 91.4569 21.5421 91.039 21.5277C90.6227 21.5107 90.1842 21.3673 89.7235 21.0974L87.251 19.649L90.7054 13.7519L91.6115 14.2826L88.6518 19.3351L90.2182 20.2527C90.5766 20.4626 90.9264 20.5404 91.2677 20.4859C91.609 20.4314 91.8666 20.2558 92.0406 19.9588C92.2235 19.6466 92.2575 19.3244 92.1426 18.9924C92.0277 18.6604 91.791 18.3894 91.4327 18.1795L89.7434 17.19L90.2382 16.3453Z" fill="black" fill-opacity="0.87"/>
<path d="M108.311 38.543C107.869 37.7421 108.158 36.7097 108.97 36.2618C109.782 35.814 110.809 36.1201 111.251 36.921C111.693 37.7219 111.404 38.7543 110.592 39.2021C109.78 39.65 108.753 39.3439 108.311 38.543Z" fill="black" fill-opacity="0.87"/>
<path d="M38.4146 60.6497L39.7961 65.8055L47.9777 63.6133L48.6911 66.2759L40.5096 68.4681L42.2478 74.9553L39.101 75.7985L34.5609 58.8544L46.9301 55.5401L47.637 58.1785L38.4146 60.6497ZM53.153 60.2029C53.6612 58.6139 55.0126 57.5254 57.2073 56.9373L57.9791 59.8178C57.7079 59.8386 57.4674 59.8771 57.2577 59.9333C56.0796 60.2489 55.2528 60.8424 54.7771 61.7135C54.2971 62.5686 54.23 63.6416 54.5759 64.9326L56.2558 71.2019L53.2301 72.0126L49.7666 59.0867L52.6471 58.3149L53.153 60.2029ZM72.8408 59.9088C72.8971 60.1186 72.9609 60.4214 73.0324 60.8174L62.8902 63.535C63.3228 64.4395 63.9859 65.0747 64.8796 65.4406C65.785 65.7861 66.7945 65.8096 67.908 65.5113C69.3281 65.1307 70.3726 64.3493 71.0416 63.1669L73.1628 64.5961C72.7678 65.4457 72.1741 66.1669 71.3817 66.7597C70.5893 67.3526 69.6363 67.7982 68.5229 68.0965C67.1028 68.477 65.7765 68.5297 64.544 68.2546C63.3114 67.9795 62.2626 67.4217 61.3974 66.5812C60.5441 65.7202 59.9466 64.6523 59.605 63.3775C59.2677 62.1188 59.2475 60.9135 59.5442 59.7617C59.8527 58.5894 60.4396 57.5846 61.3049 56.7474C62.1702 55.9102 63.2403 55.3208 64.5152 54.9792C65.7739 54.6419 66.9711 54.6238 68.1068 54.9248C69.2543 55.2054 70.2386 55.7805 71.0597 56.6501C71.8926 57.4993 72.4863 58.5855 72.8408 59.9088ZM65.1637 57.3998C64.1955 57.6592 63.4503 58.1702 62.9282 58.9327C62.418 59.6748 62.2178 60.5414 62.3276 61.5324L69.662 59.5671C69.2821 58.6658 68.6835 58.0133 67.8662 57.6096C67.0489 57.2059 66.1481 57.136 65.1637 57.3998ZM87.1421 56.0768C87.1984 56.2865 87.2622 56.5894 87.3337 56.9853L77.1915 59.703C77.6241 60.6075 78.2872 61.2427 79.1809 61.6086C80.0863 61.954 81.0958 61.9776 82.2093 61.6792C83.6293 61.2987 84.6739 60.5173 85.3429 59.3348L87.4641 60.7641C87.0691 61.6137 86.4754 62.3349 85.683 62.9277C84.8906 63.5206 83.9376 63.9662 82.8242 64.2645C81.4041 64.645 80.0778 64.6977 78.8453 64.4226C77.6127 64.1475 76.5639 63.5897 75.6987 62.7492C74.8454 61.8882 74.2479 60.8203 73.9063 59.5455C73.569 58.2868 73.5488 57.0815 73.8455 55.9296C74.154 54.7573 74.7409 53.7526 75.6062 52.9154C76.4715 52.0781 77.5416 51.4887 78.8164 51.1472C80.0752 50.8099 81.2724 50.7918 82.4081 51.0928C83.5556 51.3734 84.5399 51.9485 85.361 52.8181C86.1938 53.6673 86.7876 54.7535 87.1421 56.0768ZM79.465 53.5677C78.4968 53.8272 77.7516 54.3382 77.2295 55.1007C76.7193 55.8428 76.519 56.7093 76.6289 57.7004L83.9633 55.7351C83.5834 54.8338 82.9848 54.1812 82.1675 53.7776C81.3502 53.3739 80.4494 53.304 79.465 53.5677Z" fill="black" fill-opacity="0.87"/>
</svg>
