<svg width="202" height="202" viewBox="0 0 202 202" fill="none" xmlns="http://www.w3.org/2000/svg">
<g clip-path="url(#clip0_4446_210078)">
<path d="M104.704 184.493C148.399 184.493 183.82 149.071 183.82 105.376C183.82 61.6815 148.399 26.2598 104.704 26.2598C61.0086 26.2598 25.5869 61.6815 25.5869 105.376C25.5869 149.071 61.0086 184.493 104.704 184.493Z" fill="#FFF3E0"/>
<path d="M57.008 136.014L90.2527 44.7256L160.359 118.852L78.9342 156.23C65.891 162.218 52.0969 149.499 57.008 136.014Z" fill="#FFB74D"/>
<path d="M134.377 73.555C144.057 83.8682 151.859 94.0927 156.65 102.281C159.047 106.378 160.681 109.948 161.425 112.756C161.797 114.16 161.942 115.356 161.858 116.323C161.775 117.287 161.468 118 160.957 118.48C160.446 118.96 159.715 119.221 158.747 119.243C157.777 119.265 156.593 119.044 155.215 118.584C152.46 117.664 149 115.807 145.064 113.156C137.195 107.856 127.485 99.4217 117.805 89.1085C108.126 78.7953 100.324 68.5708 95.5326 60.3824C93.1356 56.2858 91.5019 52.7151 90.7579 49.9072C90.3858 48.5031 90.241 47.3071 90.3243 46.3405C90.4074 45.3765 90.7145 44.6633 91.2256 44.1836C91.7367 43.7039 92.4679 43.4426 93.4352 43.4207C94.4052 43.3988 95.5895 43.619 96.9673 44.0793C99.7224 44.9997 103.182 46.8562 107.119 49.5078C114.988 54.8079 124.698 63.2418 134.377 73.555Z" fill="#F57C00" stroke="#F57C00" stroke-width="0.673333"/>
<mask id="mask0_4446_210078" style="mask-type:alpha" maskUnits="userSpaceOnUse" x="55" y="44" width="106" height="114">
<path d="M57.008 136.014L90.2527 44.7256L160.359 118.852L78.9342 156.23C65.891 162.218 52.0969 149.499 57.008 136.014Z" fill="#E1DCEB"/>
</mask>
<g mask="url(#mask0_4446_210078)">
<path fill-rule="evenodd" clip-rule="evenodd" d="M88.6939 105.427C74.648 87.0325 67.5412 65.1029 65.249 50.38L76.5594 48.6191C78.6227 61.8717 85.1351 81.9052 97.7915 98.4801C110.329 114.899 128.671 127.703 154.83 127.703V139.149C124.302 139.149 102.859 123.977 88.6939 105.427Z" fill="#F57C00"/>
<path fill-rule="evenodd" clip-rule="evenodd" d="M90.2017 101.909C76.1558 83.5149 69.049 61.5854 66.7568 46.8625L78.0672 45.1016C80.1305 58.3541 86.6429 78.3877 99.2993 94.9625C111.837 111.381 130.179 124.185 156.338 124.185V135.632C125.809 135.632 104.367 120.46 90.2017 101.909Z" fill="white"/>
<path fill-rule="evenodd" clip-rule="evenodd" d="M72.1099 128.544C58.064 110.15 50.9572 88.2201 48.665 73.4972L59.9755 71.7363C62.0387 84.9889 68.5511 105.022 81.2075 121.597C93.7448 138.016 112.087 150.82 138.247 150.82V162.266C107.718 162.266 86.2749 147.095 72.1099 128.544Z" fill="white"/>
</g>
<circle cx="121.2" cy="143.421" r="20.2" fill="#F57C00"/>
<path fill-rule="evenodd" clip-rule="evenodd" d="M129.374 137.291C130.156 138.087 130.145 139.366 129.349 140.148L119.759 149.575C118.973 150.347 117.713 150.347 116.927 149.575L113.05 145.764C112.255 144.982 112.244 143.703 113.026 142.907C113.808 142.112 115.087 142.101 115.882 142.883L118.343 145.302L126.517 137.267C127.313 136.485 128.591 136.496 129.374 137.291Z" fill="white"/>
<path d="M160.7 46.9787L160.7 46.9785C161.895 43.9429 162.372 40.9154 162.871 37.7422C162.956 37.2015 163.042 36.6566 163.132 36.1066L160.7 46.9787ZM160.7 46.9787C160.496 47.4968 159.909 47.7531 159.391 47.5485L159.389 47.5477C158.871 47.3464 158.615 46.7607 158.819 46.2432L158.819 46.2431M160.7 46.9787L158.819 46.2431M158.819 46.2431C159.959 43.345 160.409 40.4428 160.866 37.4958C160.955 36.9264 161.043 36.3554 161.137 35.7824C161.228 35.2318 161.748 34.8579 162.298 34.9485C162.849 35.0393 163.222 35.5573 163.132 36.1066L158.819 46.2431Z" fill="#F57C00" stroke="#F57C00" stroke-width="0.673333"/>
<path d="M167.648 55.0749L167.648 55.0752C167.191 55.3927 166.56 55.2785 166.241 54.8218C165.924 54.3672 166.036 53.7394 166.494 53.4211C173.274 48.728 179.916 42.408 184.855 35.7871L184.855 35.7869C185.187 35.3413 185.821 35.2487 186.27 35.5806C186.717 35.9109 186.81 36.5425 186.477 36.9888C181.415 43.7745 174.602 50.2581 167.648 55.0749Z" fill="#F57C00" stroke="#F57C00" stroke-width="0.673333"/>
<path d="M186.308 59.512L186.308 59.5126C186.461 60.0413 186.154 60.5999 185.616 60.7559C180.164 62.3134 174.159 63.1057 168.685 61.4346C168.151 61.2716 167.851 60.7057 168.014 60.1772L168.014 60.177C168.176 59.6482 168.741 59.3469 169.275 59.5101L169.275 59.5101C174.437 61.0851 180.047 60.2526 185.057 58.8193C185.595 58.6674 186.155 58.9777 186.308 59.512Z" fill="#F57C00" stroke="#F57C00" stroke-width="0.673333"/>
<circle cx="169.006" cy="71.374" r="4.04" fill="#FF9800"/>
<circle cx="135.339" cy="29.6269" r="4.04" fill="#FF9800"/>
<path d="M143.111 47.4441C142.763 46.0004 140.709 46.0004 140.361 47.4441L139.909 49.314C139.785 49.8299 139.382 50.2327 138.866 50.3572L136.996 50.8086C135.553 51.1571 135.553 53.2105 136.996 53.559L138.866 54.0104C139.382 54.135 139.785 54.5378 139.909 55.0537L140.361 56.9236C140.709 58.3673 142.763 58.3673 143.111 56.9236L143.563 55.0537C143.687 54.5378 144.09 54.135 144.606 54.0104L146.476 53.559C147.92 53.2105 147.92 51.1571 146.476 50.8086L144.606 50.3572C144.09 50.2327 143.687 49.8299 143.563 49.314L143.111 47.4441Z" fill="#FFCC80"/>
<path fill-rule="evenodd" clip-rule="evenodd" d="M125.889 16.3692C126.298 17.4075 125.787 18.5801 124.749 18.9883C121.785 20.1537 117.987 23.9073 115.452 28.5794C113.522 32.1358 112.584 35.7274 112.978 38.6668C114.164 36.9741 115.583 35.5856 117.23 34.6937C120.181 33.0949 123.549 33.2646 126.81 35.4864C129.658 37.4278 130.82 40.1902 130.512 42.9426C130.218 45.5742 128.613 47.9533 126.435 49.4478C124.225 50.9648 121.29 51.6643 118.262 50.7372C116.546 50.2116 114.9 49.1953 113.393 47.6522C111.957 53.2464 112.008 60.2538 114.383 66.4514C114.782 67.4931 114.262 68.6612 113.22 69.0605C112.178 69.4597 111.01 68.9388 110.611 67.8971C107.479 59.7236 107.885 50.3888 110.44 43.5902C110.367 43.4591 110.295 43.3262 110.224 43.1915C107.537 38.1183 109.146 31.7291 111.901 26.6523C114.678 21.5363 119.081 16.8761 123.27 15.2286C124.309 14.8203 125.481 15.331 125.889 16.3692ZM114.976 43.2429C116.501 45.4101 118.084 46.4575 119.445 46.8742C121.159 47.3989 122.829 47.0226 124.149 46.1168C125.502 45.1886 126.352 43.7979 126.497 42.4938C126.63 41.3104 126.216 39.9709 124.535 38.8249C122.403 37.3725 120.653 37.4342 119.154 38.246C117.66 39.0555 116.18 40.7495 114.976 43.2429Z" fill="#FFCC80"/>
<path fill-rule="evenodd" clip-rule="evenodd" d="M191.098 95.3725C169.924 87.5027 153.72 97.2885 148.481 102.823C147.202 104.174 145.071 104.232 143.721 102.954C142.371 101.675 142.312 99.5446 143.591 98.1944C150.245 91.1654 169.186 80.0451 193.443 89.061C195.186 89.7088 196.074 91.6468 195.426 93.3897C194.778 95.1325 192.84 96.0203 191.098 95.3725Z" fill="#FF9800"/>
<path fill-rule="evenodd" clip-rule="evenodd" d="M169.557 102.447C170.03 102.274 170.527 102.044 170.911 101.711C171.366 101.316 171.551 100.807 171.676 100.271C171.835 99.582 171.899 98.8484 172.093 98.1586C172.164 97.9024 172.302 97.8056 172.362 97.7626C172.511 97.6541 172.662 97.625 172.805 97.6359C172.973 97.6485 173.205 97.7141 173.357 98.0045C173.379 98.0461 173.407 98.1095 173.426 98.1962C173.44 98.2599 173.449 98.4588 173.464 98.5409C173.5 98.7429 173.531 98.9449 173.56 99.1481C173.656 99.8242 173.711 100.398 174.014 101.02C174.424 101.863 174.836 102.379 175.394 102.607C175.934 102.828 176.58 102.787 177.404 102.614C177.483 102.594 177.561 102.577 177.637 102.564C178.001 102.498 178.349 102.744 178.42 103.116C178.491 103.488 178.26 103.85 177.9 103.932C177.825 103.949 177.751 103.965 177.677 103.98C176.563 104.264 175.273 105.275 174.523 106.161C174.292 106.435 173.954 107.198 173.608 107.686C173.354 108.045 173.068 108.282 172.827 108.366C172.666 108.422 172.53 108.413 172.418 108.385C172.255 108.344 172.12 108.253 172.016 108.109C171.96 108.03 171.907 107.924 171.882 107.789C171.871 107.724 171.869 107.559 171.869 107.484C171.799 107.235 171.713 106.992 171.65 106.741C171.501 106.143 171.207 105.764 170.858 105.263C170.532 104.795 170.182 104.5 169.669 104.266C169.602 104.249 169.063 104.113 168.872 104.035C168.594 103.921 168.462 103.73 168.414 103.627C168.332 103.452 168.324 103.3 168.34 103.172C168.364 102.985 168.446 102.824 168.592 102.694C168.682 102.614 168.816 102.535 168.997 102.497C169.136 102.467 169.506 102.45 169.557 102.447ZM172.72 101.472C172.745 101.529 172.771 101.586 172.8 101.644C173.401 102.879 174.074 103.569 174.892 103.904L174.92 103.914C174.372 104.332 173.877 104.798 173.498 105.246C173.343 105.43 173.136 105.813 172.913 106.205C172.711 105.528 172.379 105.05 171.963 104.451C171.645 103.995 171.311 103.651 170.901 103.371C171.219 103.203 171.523 103.006 171.787 102.777C172.227 102.395 172.518 101.952 172.72 101.472Z" fill="#FFCC80"/>
<path d="M52.3748 104.294L52.3747 104.294C49.7456 106.659 48.2554 109.582 47.822 113.094L47.4879 113.053L47.8221 113.093C47.7494 113.703 47.1939 114.138 46.5837 114.061L46.5832 114.061C45.9775 113.984 45.5431 113.427 45.6198 112.817C46.1203 108.763 47.8529 105.37 50.8925 102.634L52.3748 104.294ZM52.3748 104.294C52.8296 103.884 52.8687 103.181 52.4594 102.723M52.3748 104.294L52.4594 102.723M52.4594 102.723C52.0522 102.263 51.3486 102.224 50.8926 102.634L52.4594 102.723Z" fill="#F57C00" stroke="#F57C00" stroke-width="0.673333"/>
<path d="M11.8477 120.079L11.8475 120.079C11.0291 119.814 10.6392 119.12 10.5815 118.318C10.5263 117.584 10.7783 116.712 10.9268 116.309L11.8477 120.079ZM11.8477 120.079C12.8052 120.388 13.553 120.237 14.1047 119.84L11.8477 120.079ZM15.1072 118.126L15.1072 118.126C14.9616 118.847 14.6308 119.461 14.1048 119.839L15.1072 118.126ZM15.1072 118.126C15.2458 117.438 15.2146 116.623 15.1029 115.863C15.0025 115.181 14.8337 114.522 14.6468 114.01C15.1356 113.324 15.6846 112.683 16.2846 112.091C21.0205 107.418 29.165 107.508 36.2659 112.336C37.4532 113.144 38.4862 114.552 39.3884 116.357C40.288 118.157 41.0421 120.32 41.688 122.6C43.4379 128.778 44.2845 135.759 44.6843 139.056C44.7443 139.55 44.7942 139.962 44.8356 140.275L44.8357 140.276M15.1072 118.126L44.8357 140.276M44.8357 140.276C44.8769 140.583 44.9268 140.828 44.9733 141.009C44.9965 141.1 45.0194 141.176 45.0408 141.237C45.0584 141.288 45.0834 141.353 45.1165 141.405C45.3969 141.855 45.7953 141.928 46.0401 141.936L46.0437 141.936M44.8357 140.276L46.0437 141.936M46.0437 141.936C46.3883 141.942 46.6567 141.832 46.8622 141.679L46.8638 141.678M46.0437 141.936L46.8638 141.678M46.8638 141.678C47.1438 141.467 47.3403 141.144 47.3836 140.719L47.3838 140.716M46.8638 141.678L47.3838 140.716M47.3838 140.716C47.4057 140.484 47.3708 140.198 47.3213 139.93L47.3207 139.926M47.3838 140.716L47.3207 139.926M47.3207 139.926C47.3102 139.873 47.2977 139.821 47.2864 139.774C47.2838 139.764 47.2813 139.754 47.2789 139.744C47.2702 139.708 47.2625 139.677 47.2555 139.646C47.2468 139.607 47.2413 139.577 47.2384 139.553C47.2355 139.528 47.2364 139.518 47.2363 139.519L46.9019 139.481L47.2362 139.52C47.3255 138.767 47.4539 138.023 47.5844 137.267C47.6035 137.156 47.6225 137.046 47.6415 136.935L47.6417 136.934M47.3207 139.926L47.6417 136.934M47.6417 136.934C48.1302 134.045 48.9197 131.279 49.8468 128.486L49.5375 128.383M47.6417 136.934L49.5375 128.383M49.5375 128.383L49.8468 128.486C50.0958 127.735 50.3431 126.982 50.5907 126.228C53.2887 118.014 56.0296 109.669 61.484 102.957L61.4841 102.957M49.5375 128.383L61.4841 102.957M61.4841 102.957C61.8691 102.483 61.8021 101.781 61.3266 101.391C60.8526 100.999 60.1535 101.072 59.7646 101.547L59.7638 101.548M61.4841 102.957L59.7638 101.548M59.7638 101.548C54.0695 108.553 51.2067 117.253 48.4366 125.672C48.2048 126.377 47.9736 127.08 47.7414 127.779L47.7414 127.779M59.7638 101.548L47.7414 127.779M47.7414 127.779C47.1413 129.588 46.5946 131.394 46.1449 133.232C45.5622 129.374 44.677 124.599 43.3413 120.386C42.6503 118.205 41.8274 116.168 40.864 114.462C39.9025 112.759 38.7894 111.364 37.5083 110.493L37.5082 110.493M47.7414 127.779L37.5082 110.493M37.5082 110.493C29.5544 105.084 20.2328 105.068 14.7284 110.501L14.7283 110.502C14.2463 110.978 13.7904 111.483 13.3672 112.014M37.5082 110.493L13.3672 112.014M13.3672 112.014C9.13201 106.923 1.97952 105.805 -3.59412 109.536C-4.10613 109.878 -4.23955 110.569 -3.90283 111.079L-3.90283 111.079L-3.9016 111.081C-3.56047 111.59 -2.87329 111.732 -2.36085 111.39L-2.36046 111.39C2.42189 108.188 8.59736 109.303 12.051 113.931C11.6104 114.687 11.2309 115.482 10.9268 116.309L13.3672 112.014ZM12.8168 118.023C12.8127 118.023 12.8065 118.023 12.7977 118.023C12.7963 118.023 12.7949 118.023 12.7934 118.023L12.8168 118.023ZM12.8168 118.023C12.8265 118.013 12.843 117.993 12.8625 117.945C12.8882 117.881 12.9085 117.798 12.932 117.682L12.9321 117.681C12.9664 117.513 12.9852 117.327 12.991 117.131C12.9146 117.348 12.8111 117.699 12.7935 118.017L12.8168 118.023Z" fill="#F57C00" stroke="#F57C00" stroke-width="0.673333"/>
</g>
<defs>
<clipPath id="clip0_4446_210078">
<rect width="202" height="202" fill="white"/>
</clipPath>
</defs>
</svg>
