<svg width="64" height="64" viewBox="0 0 64 64" fill="none" xmlns="http://www.w3.org/2000/svg">
<rect width="64" height="64" rx="32" fill="#E1F5FE"/>
<path opacity="0.5" d="M28.7901 20.267C28.4655 20.5437 28.3031 20.6821 28.1297 20.7983C27.7323 21.0647 27.2859 21.2496 26.8165 21.3423C26.6117 21.3827 26.399 21.3997 25.9738 21.4336L25.9738 21.4336C24.9052 21.5189 24.371 21.5615 23.9253 21.7189C22.8943 22.0831 22.0834 22.894 21.7193 23.9249C21.5619 24.3706 21.5192 24.9049 21.434 25.9734L21.434 25.9734C21.4 26.3987 21.3831 26.6113 21.3426 26.8161C21.2499 27.2855 21.065 27.7319 20.7986 28.1294C20.6824 28.3028 20.5441 28.4651 20.2674 28.7898L20.2674 28.7898C19.5721 29.6057 19.2245 30.0136 19.0206 30.4401C18.5491 31.4266 18.5491 32.5734 19.0206 33.5598C19.2245 33.9863 19.5721 34.3942 20.2674 35.2101L20.2674 35.2102C20.5441 35.5348 20.6824 35.6972 20.7986 35.8705C21.065 36.268 21.2499 36.7144 21.3426 37.1838C21.3831 37.3886 21.4 37.6012 21.434 38.0265L21.434 38.0265C21.5192 39.095 21.5619 39.6293 21.7193 40.075C22.0834 41.1059 22.8943 41.9169 23.9253 42.281C24.371 42.4384 24.9052 42.4811 25.9737 42.5663H25.9738C26.399 42.6003 26.6117 42.6172 26.8165 42.6577C27.2859 42.7503 27.7323 42.9352 28.1297 43.2016C28.3031 43.3179 28.4655 43.4562 28.7901 43.7329L28.7902 43.7329C29.606 44.4282 30.014 44.7758 30.4405 44.9797C31.4269 45.4512 32.5737 45.4512 33.5602 44.9797C33.9867 44.7758 34.3946 44.4282 35.2105 43.7329L35.2106 43.7328C35.5352 43.4562 35.6975 43.3178 35.8709 43.2016C36.2684 42.9352 36.7148 42.7503 37.1842 42.6577C37.389 42.6172 37.6016 42.6003 38.0269 42.5663H38.0269C39.0954 42.4811 39.6297 42.4384 40.0754 42.281C41.1063 41.9169 41.9172 41.1059 42.2814 40.075C42.4388 39.6293 42.4814 39.095 42.5667 38.0265V38.0265C42.6006 37.6012 42.6176 37.3886 42.658 37.1838C42.7507 36.7144 42.9356 36.268 43.202 35.8705C43.3182 35.6972 43.4566 35.5348 43.7333 35.2101L43.7333 35.2101C44.4286 34.3942 44.7762 33.9863 44.98 33.5598C45.4515 32.5734 45.4515 31.4266 44.98 30.4401C44.7762 30.0136 44.4286 29.6057 43.7333 28.7898L43.7332 28.7898C43.4566 28.4651 43.3182 28.3028 43.202 28.1294C42.9356 27.7319 42.7507 27.2855 42.658 26.8161C42.6176 26.6113 42.6006 26.3987 42.5667 25.9734V25.9734C42.4814 24.9049 42.4388 24.3706 42.2814 23.9249C41.9172 22.894 41.1063 22.0831 40.0754 21.7189C39.6297 21.5615 39.0954 21.5189 38.0269 21.4336L38.0269 21.4336C37.6016 21.3997 37.389 21.3827 37.1842 21.3423C36.7148 21.2496 36.2684 21.0647 35.8709 20.7983C35.6975 20.6821 35.5352 20.5437 35.2105 20.267C34.3946 19.5717 33.9867 19.2241 33.5602 19.0202C32.5737 18.5488 31.4269 18.5488 30.4405 19.0202C30.014 19.2241 29.606 19.5717 28.7902 20.267L28.7901 20.267Z" fill="#2962FF"/>
<path d="M37.8311 29.1507C38.2549 28.7269 38.2549 28.0398 37.8311 27.616C37.4073 27.1923 36.7202 27.1923 36.2965 27.616L29.8295 34.083L27.703 31.9566C27.2793 31.5329 26.5922 31.5329 26.1684 31.9566C25.7446 32.3804 25.7446 33.0675 26.1684 33.4913L29.0621 36.385C29.4859 36.8088 30.173 36.8088 30.5968 36.385L37.8311 29.1507Z" fill="#2962FF"/>
</svg>
