<svg width="64" height="64" viewBox="0 0 64 64" fill="none" xmlns="http://www.w3.org/2000/svg">
<rect width="64" height="64" rx="32" fill="#E1F5FE"/>
<path d="M20 31.9884C20 39.5059 25.6519 43.1539 29.1981 44.703C30.16 45.1232 30.641 45.3333 32 45.3333V26.6666L20 30.6666V31.9884Z" fill="#2962FF"/>
<path opacity="0.5" d="M34.8019 44.703C38.348 43.1539 44 39.5059 44 31.9884V30.6666L32 26.6666V45.3333C33.359 45.3333 33.84 45.1232 34.8019 44.703Z" fill="#2962FF"/>
<path opacity="0.5" d="M27.7836 19.7396L27.0199 20.001C23.0111 21.3732 21.0067 22.0593 20.5034 22.7765C20 23.4937 20 25.6254 20 29.8888V30.6666L32 26.6666V18.6666C30.9181 18.6666 29.8733 19.0243 27.7836 19.7396Z" fill="#2962FF"/>
<path d="M36.9801 20.001L36.2164 19.7396C34.1267 19.0243 33.0819 18.6666 32 18.6666V26.6666L44 30.6666V29.8888C44 25.6254 44 23.4937 43.4966 22.7765C42.9933 22.0593 40.9889 21.3732 36.9801 20.001Z" fill="#2962FF"/>
</svg>
