<svg width="64" height="64" viewBox="0 0 64 64" fill="none" xmlns="http://www.w3.org/2000/svg">
<rect width="64" height="64" rx="32" fill="#E1F5FE"/>
<path opacity="0.5" d="M18.667 26.6666V32C18.667 35.7712 18.667 37.6568 19.8386 38.8284C20.4737 39.4635 21.3187 39.7543 22.5602 39.8875C22.6589 39.7543 22.7523 39.6494 22.8189 39.5761C22.9738 39.4057 23.1702 39.2121 23.3606 39.0244L25.3511 37.0615L26.0863 36.3168C26.5694 33.4868 29.0331 31.3333 32.0004 31.3333C34.9677 31.3333 37.4314 33.4868 37.9145 36.3168L38.6497 37.0615L40.6403 39.0245C40.8307 39.2122 41.0271 39.4058 41.1819 39.5761C41.2486 39.6494 41.342 39.7543 41.4406 39.8875C42.682 39.7543 43.527 39.4635 44.1621 38.8284C45.3337 37.6568 45.3337 35.7712 45.3337 32V26.6666C45.3337 22.8954 45.3337 21.0098 44.1621 19.8382C42.9905 18.6666 41.1049 18.6666 37.3337 18.6666H26.667C22.8958 18.6666 21.0101 18.6666 19.8386 19.8382C18.667 21.0098 18.667 22.8954 18.667 26.6666Z" fill="#2962FF"/>
<path d="M25.333 27.6667C24.7807 27.6667 24.333 28.1144 24.333 28.6667C24.333 29.219 24.7807 29.6667 25.333 29.6667H38.6663C39.2186 29.6667 39.6663 29.219 39.6663 28.6667C39.6663 28.1144 39.2186 27.6667 38.6663 27.6667H25.333Z" fill="#2962FF"/>
<path d="M26.9997 24C26.9997 23.4477 27.4474 23 27.9997 23H35.9997C36.552 23 36.9997 23.4477 36.9997 24C36.9997 24.5523 36.552 25 35.9997 25H27.9997C27.4474 25 26.9997 24.5523 26.9997 24Z" fill="#2962FF"/>
<path d="M28.0015 37.2233C28.0005 37.2598 28 37.2966 28 37.3334C28 39.5425 29.7909 41.3334 32 41.3334C34.2091 41.3334 36 39.5425 36 37.3334C36 37.2966 35.9995 37.2598 35.9985 37.2233C35.9402 35.065 34.1723 33.3334 32 33.3334C29.9289 33.3334 28.2255 34.9074 28.0207 36.9244C28.0106 37.023 28.0042 37.1227 28.0015 37.2233Z" fill="#2962FF"/>
<path d="M26.2343 38.9992L24.7936 40.4198C24.3616 40.8459 24.1455 41.0589 24.0707 41.2393C23.9004 41.6505 24.0462 42.1065 24.4171 42.3228C24.5799 42.4177 24.8735 42.4473 25.4607 42.5064C25.7923 42.5398 25.958 42.5565 26.0969 42.6072C26.4077 42.7207 26.6495 42.9591 26.7646 43.2656C26.816 43.4025 26.8329 43.566 26.8668 43.893C26.9268 44.472 26.9568 44.7615 27.053 44.9221C27.2723 45.2878 27.7348 45.4316 28.1517 45.2636C28.3347 45.1899 28.5507 44.9769 28.9828 44.5508L30.4234 43.1241C28.4067 42.5763 26.8122 41.0032 26.2343 38.9992Z" fill="#2962FF"/>
<path d="M33.5766 43.1241L35.0172 44.5508C35.4493 44.9769 35.6653 45.1899 35.8483 45.2636C36.2652 45.4316 36.7277 45.2878 36.947 44.9221C37.0432 44.7615 37.0732 44.472 37.1332 43.893C37.1671 43.566 37.184 43.4025 37.2354 43.2656C37.3505 42.9591 37.5923 42.7207 37.9031 42.6072C38.042 42.5565 38.2077 42.5398 38.5393 42.5064C39.1265 42.4473 39.4201 42.4177 39.5829 42.3228C39.9538 42.1065 40.0996 41.6505 39.9293 41.2393C39.8545 41.0589 39.6384 40.8459 39.2064 40.4198L37.7657 38.9992C37.1878 41.0032 35.5933 42.5763 33.5766 43.1241Z" fill="#2962FF"/>
</svg>
