<svg width="121" height="134" viewBox="0 0 121 134" fill="none" xmlns="http://www.w3.org/2000/svg" opacity='0.1'>
<mask id="mask0_8218_4803" style="mask-type:luminance" maskUnits="userSpaceOnUse" x="0" y="0" width="121" height="134">
<path d="M120.358 0.286621H0.429688V133.962H120.358V0.286621Z" fill="white"/>
</mask>
<g mask="url(#mask0_8218_4803)">
<path d="M62.2913 -10.2386C64.7972 -7.80421 64.7256 -4.51065 63.0789 -1.86149C62.9357 -1.64669 62.7925 -1.43189 62.5777 -1.28869L61.0741 0.214885L70.024 8.94997C69.2364 9.52276 68.1624 10.382 67.16 11.1695L56.0622 0.286485C56.7782 -0.429506 59.2125 -2.93547 59.8569 -3.50826C61.1457 -4.86865 60.7877 -6.73022 59.7853 -7.66101C58.7829 -8.5918 56.8498 -9.02139 55.4894 -7.66101C54.9166 -7.01662 52.4106 -4.58225 51.6946 -3.86626C51.0502 -4.43905 48.2579 -7.15982 47.7567 -7.73261C46.6827 -8.73499 44.7495 -8.80659 43.6039 -7.58941C42.5299 -6.44383 42.3867 -4.58225 43.5323 -3.43667C44.3199 -2.72067 46.0383 -1.0023 47.4703 0.429683C46.6111 1.28887 44.6063 3.29365 43.7471 4.15283C42.3867 5.51322 42.6731 7.44639 43.7471 8.44878C44.7495 9.45116 46.6827 9.73756 48.0431 8.30558C48.6875 7.66119 50.6206 5.72801 51.8378 4.43923L54.4154 6.9452L51.3366 10.0956C50.6206 10.8115 49.8331 11.5991 48.9023 12.0287C45.8235 13.4607 42.8879 12.6731 41.1696 10.9547C39.0932 8.94997 38.4488 5.65641 40.1672 2.72085C40.382 2.36286 40.6684 2.00486 41.0264 1.71847L42.3151 0.429683C41.8856 8.9109e-05 41.5276 -0.357906 41.0264 -0.8591C40.8832 -1.0023 40.5968 -1.28869 40.4536 -1.50349C35.9428 -7.58941 43.1027 -14.9641 49.3319 -11.0262C49.6899 -10.8114 50.0478 -10.525 50.3342 -10.2386L51.623 -8.94979L52.9834 -10.3102C53.2698 -10.5966 53.5562 -10.8114 53.8426 -11.0262C56.5634 -12.6013 59.8569 -12.6013 62.2913 -10.2386Z" stroke="#FFFEFE" stroke-width="0.719212" stroke-miterlimit="10"/>
<path d="M62.2913 123.365C64.7972 125.8 64.7256 129.093 63.0789 131.743C62.9357 131.957 62.7925 132.172 62.5777 132.315L61.0741 133.819L70.024 142.554C69.2364 143.127 68.1624 143.986 67.16 144.774L56.0622 133.89C56.7782 133.175 59.2125 130.669 59.8569 130.096C61.1457 128.735 60.7877 126.874 59.7853 125.943C58.7829 125.012 56.8498 124.583 55.4894 125.943C54.9166 126.587 52.4106 129.022 51.6946 129.738C51.0502 129.165 48.2579 126.444 47.7567 125.871C46.6827 124.869 44.7495 124.797 43.6039 126.015C42.5299 127.16 42.3867 129.022 43.5323 130.167C44.3199 130.883 46.0383 132.602 47.4703 134.034C46.6111 134.893 44.6063 136.898 43.7471 137.757C42.3867 139.117 42.6731 141.05 43.7471 142.053C44.7495 143.055 46.6827 143.342 48.0431 141.91C48.6875 141.265 50.6206 139.332 51.8378 138.043L54.4154 140.549L51.3366 143.7C50.6206 144.416 49.8331 145.203 48.9023 145.633C45.8235 147.065 42.8879 146.277 41.1696 144.559C39.0932 142.554 38.4488 139.26 40.1672 136.325C40.382 135.967 40.6684 135.609 41.0264 135.322L42.3151 134.034C41.8856 133.604 41.5276 133.246 41.0264 132.745C40.8832 132.602 40.5968 132.315 40.4536 132.101C35.9428 126.015 43.1027 118.64 49.3319 122.578C49.6899 122.793 50.0478 123.079 50.3342 123.365L51.623 124.654L52.9834 123.294C53.2698 123.007 53.5562 122.793 53.8426 122.578C56.5634 121.003 59.8569 121.003 62.2913 123.365Z" stroke="#FFFEFE" stroke-width="0.719212" stroke-miterlimit="10"/>
</g>
<mask id="mask1_8218_4803" style="mask-type:luminance" maskUnits="userSpaceOnUse" x="0" y="0" width="121" height="134">
<path d="M120.358 0.286621H0.429688V133.962H120.358V0.286621Z" fill="white"/>
</mask>
<g mask="url(#mask1_8218_4803)">
<path d="M141.265 30.2147C141.05 30.2147 140.763 30.2147 140.191 30.3579C140.047 30.2863 139.833 30.1431 139.618 30.0715C138.329 27.5656 134.749 27.136 132.888 29.2839C132.172 26.9928 130.238 25.4176 127.876 25.2028V24.5584H129.021C129.379 24.5584 129.737 24.5584 130.095 24.4152C130.954 24.0572 131.312 23.2696 131.312 22.5536C131.312 21.4796 130.525 20.4773 129.164 20.5489C129.236 19.4033 128.305 18.4009 127.16 18.4009C126.014 18.4009 125.083 19.4033 125.155 20.5489C124.009 20.4773 123.007 21.4796 123.007 22.5536C123.007 23.6992 124.009 24.63 125.155 24.5584V25.346C123.293 25.9188 122.076 27.494 121.503 29.2839C118.854 26.5632 115.561 28.2815 114.916 30.0715C114.701 30.1431 114.487 30.2863 114.272 30.3579C113.699 30.2147 113.198 30.2147 113.198 30.2147C111.265 30.1431 109.689 32.0763 109.689 34.2959C109.689 34.9403 109.689 45.1073 109.689 45.1073H111.408C112.84 48.6873 123.866 49.1169 127.231 49.1169C130.668 49.1169 141.551 48.6873 143.055 45.1073H144.701V34.3675C144.773 31.9331 143.126 30.2147 141.265 30.2147ZM142.195 43.9617C142.195 45.6801 139.117 46.6825 137.541 47.0405C132.1 48.4009 123.15 48.4725 116.921 47.0405C115.489 46.6825 112.339 45.7517 112.267 43.9617V41.0262C112.267 40.883 112.267 34.5823 112.267 34.2959C112.267 33.6515 112.41 33.0071 112.697 32.4343C114.558 28.9975 118.783 29.7135 120.215 32.1479C120.859 30.5727 122.076 29.2123 123.58 28.3531C125.083 27.4224 127.804 27.2792 129.522 27.7804C131.599 28.4963 133.317 30.1431 134.105 32.1479C134.964 30.6443 136.754 29.7851 138.472 30.0715C139.546 30.2147 140.549 30.7875 141.193 31.6467C141.766 32.3627 142.052 33.2935 142.052 34.2243V43.9617H142.195Z" stroke="#FFFEFE" stroke-width="0.719212" stroke-miterlimit="10"/>
<path d="M66.1572 84.4867C65.9424 84.4867 65.656 84.4867 65.0832 84.6299C64.94 84.5583 64.7252 84.4151 64.5104 84.3435C63.2216 81.8375 59.6417 81.4079 57.7801 83.5559C57.0641 81.2647 55.131 79.6896 52.7682 79.4748V78.8304H53.9138C54.2718 78.8304 54.6298 78.8304 54.9878 78.6872C55.8469 78.3292 56.2049 77.5416 56.2049 76.8256C56.2049 75.7516 55.4174 74.7492 54.057 74.8208C54.1286 73.6752 53.1978 72.6729 52.0522 72.6729C50.9066 72.6729 49.9758 73.6752 50.0474 74.8208C48.9018 74.7492 47.8995 75.7516 47.8995 76.8256C47.8995 77.9712 48.9018 78.902 50.0474 78.8304V79.618C48.1858 80.1907 46.9687 81.7659 46.3959 83.5559C43.7467 80.8351 40.4532 82.5535 39.8088 84.3435C39.594 84.4151 39.3792 84.5583 39.1644 84.6299C38.5916 84.4867 38.0904 84.4867 38.0904 84.4867C36.1572 84.4151 34.582 86.3483 34.582 88.5678C34.582 89.2122 34.582 99.3793 34.582 99.3793H36.3004C37.7324 102.959 48.7586 103.389 52.1238 103.389C55.5606 103.389 66.4436 102.959 67.9472 99.3793H69.594V88.6394C69.594 86.2051 67.9472 84.4151 66.1572 84.4867ZM67.088 98.2337C67.088 99.9521 64.0092 100.954 62.4341 101.312C56.9925 102.673 48.0427 102.744 41.8135 101.312C40.3816 100.954 37.2312 100.024 37.1596 98.2337V95.2982C37.1596 95.155 37.1596 88.8542 37.1596 88.5678C37.1596 87.9234 37.3028 87.2791 37.5892 86.7063C39.4508 83.2695 43.6751 83.9855 45.1071 86.4199C45.7515 84.8447 46.9687 83.4843 48.4722 82.6251C49.9758 81.6943 52.6966 81.5511 54.415 82.0523C56.4913 82.7683 58.2097 84.4151 58.9973 86.4199C59.8565 84.9163 61.6465 84.0571 63.3648 84.3435C64.4388 84.4867 65.4412 85.0595 66.0856 85.9187C66.6584 86.6347 66.9448 87.5655 66.9448 88.4962V98.2337H67.088Z" stroke="#FFFEFE" stroke-width="0.719212" stroke-miterlimit="10"/>
<path d="M80.7635 124.726C80.9067 124.582 81.0499 124.296 81.2647 123.795C81.4795 123.723 81.6227 123.652 81.8375 123.508C84.6299 124.01 87.1358 121.432 86.4915 118.64C88.7826 119.427 91.217 118.926 92.7922 117.136L93.2934 117.494L92.5774 118.425C92.3626 118.711 92.1478 118.998 92.0762 119.356C91.8614 120.215 92.2194 121.002 92.7922 121.432C93.6514 122.076 94.9401 122.076 95.7277 120.931C96.5869 121.647 98.0189 121.504 98.6633 120.644C99.3793 119.785 99.0929 118.353 98.1621 117.78C98.8781 116.921 98.7349 115.489 97.8041 114.845C96.9449 114.129 95.5129 114.415 94.9401 115.346L94.2957 114.916C94.9401 113.126 94.4389 111.193 93.2934 109.618C97.0881 109.117 97.6609 105.465 96.5869 103.962C96.6585 103.747 96.7301 103.532 96.7301 103.246C97.2313 102.888 97.5177 102.53 97.5177 102.53C98.7349 101.026 98.1621 98.6635 96.3721 97.3031C95.8709 96.9451 87.637 90.7876 87.637 90.7876L86.6346 92.148C82.9115 91.074 75.8948 99.5943 73.89 102.243C71.8136 104.964 65.5845 113.842 67.5893 117.136L66.5869 118.496L75.2504 125.012C77.3268 126.444 79.6895 126.229 80.7635 124.726ZM69.1645 117.208C67.7325 116.205 68.8065 113.126 69.4509 111.695C71.5988 106.611 76.9688 99.3795 81.9091 95.3699C83.0547 94.4391 85.7039 92.506 87.1358 93.58L89.4986 95.3699C89.5702 95.4415 94.6537 99.2363 94.9401 99.4511C95.4413 99.8091 95.8709 100.31 96.1573 100.883C97.8041 104.463 94.6537 107.327 91.8614 107.041C92.7206 108.544 93.1502 110.263 92.8638 111.981C92.7206 113.771 91.217 115.919 89.7134 116.993C87.9234 118.21 85.5607 118.568 83.4843 117.995C84.1287 119.57 83.7707 121.575 82.4819 122.721C81.6943 123.437 80.6203 123.866 79.5463 123.866C78.6156 123.866 77.6848 123.58 76.9688 123.007L69.1645 117.208Z" stroke="#FFFEFE" stroke-width="0.719212" stroke-miterlimit="10"/>
<path d="M76.3958 67.8758C73.2455 66.6586 71.8135 63.6515 72.1715 60.5727C72.2431 60.2147 72.3147 59.8567 72.4579 59.4987L73.1023 57.7087L71.3839 57.0643C71.0259 56.9212 70.5963 56.7064 70.2383 56.4916C64.0808 52.482 67.7324 42.9593 75.1071 44.4629C75.3219 44.5345 75.6799 44.6061 75.8947 44.6777C76.539 44.8925 76.9686 45.1073 77.613 45.3221L78.2574 43.6037C78.4006 43.1741 78.6154 42.7445 78.8302 42.3865C80.7634 39.5942 84.0569 38.8066 86.7061 39.809C88.9973 40.6682 90.8589 42.9593 90.9304 46.3961C90.9304 47.3985 90.5725 48.4725 90.2145 49.4033L88.7109 53.556L85.3457 52.2672C85.9901 50.6204 86.9209 48.0429 87.2073 47.1837C87.9233 45.3221 86.8493 43.7469 85.4889 43.2457C84.0569 42.6729 82.1954 43.2457 81.551 45.0357C81.1214 46.1813 80.119 48.8305 79.6894 49.976C77.7562 49.2601 75.5367 48.4009 74.5343 48.0429C73.0307 47.4701 71.3839 48.3293 70.8111 49.8328C70.2383 51.408 71.0975 53.1264 72.4579 53.6992C73.1739 53.9856 76.8254 55.346 77.613 55.6324C77.255 56.5632 76.0379 59.8567 75.7515 60.6443C75.1071 62.4343 76.2526 64.0095 77.5414 64.5106C78.8302 65.0118 80.6918 64.5822 81.3362 62.7923C81.6226 62.0047 82.8398 58.7111 83.1978 57.7803L97.804 63.3651C97.5176 64.5822 97.1596 65.9426 96.9448 66.8734L85.2741 62.4343L84.5581 64.3675C84.4865 64.5823 84.3433 64.8686 84.2001 65.0834C82.625 67.661 79.6178 69.093 76.3958 67.8758Z" stroke="#FFFEFE" stroke-width="0.719212" stroke-miterlimit="10"/>
<path d="M100.453 3.58022C100.382 1.21745 102.172 -1.36012 104.821 -0.787323C104.606 -0.644125 103.962 -0.071333 103.532 0.644657C102.601 1.07425 101.885 2.50623 101.885 3.58022C101.885 3.65182 101.885 12.7449 101.885 12.8165C102.1 12.6017 102.386 12.3869 102.673 12.1721V14.4633C102.172 14.9645 101.885 15.5373 101.885 16.1817H100.525V3.58022H100.453Z" stroke="#FFFEFE" stroke-width="0.539427" stroke-miterlimit="10"/>
<path d="M114.272 131.67C113.985 132.028 113.699 132.386 113.413 132.744C112.482 131.098 110.119 130.525 108.544 131.742C107.899 131.67 107.327 131.814 106.754 131.957C107.47 130.167 111.265 128.305 114.272 131.67Z" stroke="#FFFEFE" stroke-width="0.539427" stroke-miterlimit="10"/>
<path d="M118.783 126.659V128.091C118.138 128.377 117.565 128.95 117.064 129.523C116.205 129.952 115.346 130.525 114.63 131.241C115.417 128.878 116.849 127.375 118.783 126.659Z" stroke="#FFFEFE" stroke-width="0.539427" stroke-miterlimit="10"/>
<path d="M116.563 122.864C116.563 121.79 117.279 121.074 118.21 120.859C118.353 120.859 118.425 120.787 118.568 120.787H119.212V120.215C119.212 120.071 119.212 119.928 119.284 119.857C119.785 117.637 123.007 117.637 123.365 120C123.365 120.071 123.365 120.215 123.365 120.286C123.365 120.501 123.365 120.644 123.365 120.859H123.938C124.081 120.859 124.224 120.859 124.367 120.931C125.441 121.217 126.014 122.076 126.014 122.935C126.014 123.723 125.584 124.511 124.582 124.869C124.296 124.94 123.938 125.012 123.58 125.012H122.219V123.866C122.792 123.866 123.651 123.866 123.938 123.866C124.582 123.866 124.94 123.365 124.94 122.935C124.94 122.434 124.582 122.005 123.938 122.005C123.58 122.005 122.649 122.005 122.291 122.005C122.291 121.36 122.291 120.644 122.291 120.286C122.291 119.785 121.861 119.355 121.36 119.355C120.859 119.355 120.429 119.785 120.429 120.286C120.429 120.501 120.429 121.718 120.429 122.005C120.143 122.005 118.997 122.005 118.711 122.005C118.138 122.005 117.78 122.506 117.78 122.935C117.78 123.365 118.138 123.866 118.711 123.866C118.997 123.866 120.071 123.866 120.429 123.866V128.735C120 128.807 119.642 128.807 119.284 128.878V124.94H118.639C118.568 124.94 118.496 124.94 118.425 124.94C117.351 124.654 116.563 123.938 116.563 122.864Z" stroke="#FFFEFE" stroke-width="0.539427" stroke-miterlimit="10"/>
<path d="M100.453 137.256C100.382 134.893 102.172 132.315 104.821 132.888C104.606 133.031 103.962 133.604 103.532 134.32C102.601 134.75 101.885 136.182 101.885 137.256C101.885 137.327 101.885 146.42 101.885 146.492C102.1 146.277 102.386 146.062 102.673 145.847V148.139C102.172 148.64 101.885 149.213 101.885 149.857H100.525V137.256H100.453Z" stroke="#FFFEFE" stroke-width="0.539427" stroke-miterlimit="10"/>
<path d="M24.7013 67.8042C24.7729 68.2338 24.8445 68.6634 24.9877 69.093C23.1261 68.735 21.193 70.3102 21.1214 72.2433C20.6918 72.6729 20.4054 73.2457 20.119 73.7469C19.2598 72.0285 20.1906 67.9474 24.7013 67.8042Z" stroke="#FFFEFE" stroke-width="0.539427" stroke-miterlimit="10"/>
<path d="M23.6273 61.0737L24.7729 62.0045C24.6297 62.6489 24.6297 63.5081 24.7729 64.2241C24.5581 65.1549 24.4865 66.2289 24.5581 67.1596C23.2693 65.0833 22.9829 63.0785 23.6273 61.0737Z" stroke="#FFFEFE" stroke-width="0.539427" stroke-miterlimit="10"/>
<path d="M19.2599 60.4292C18.4007 59.7848 18.3291 58.7108 18.7587 57.8516C18.8303 57.78 18.9019 57.6368 18.9735 57.5652L19.3315 57.064L18.9019 56.706C18.8303 56.6344 18.6871 56.5629 18.6155 56.4197C17.1835 54.6297 19.2599 52.1237 21.2647 53.2693C21.3363 53.2693 21.4079 53.4125 21.4795 53.4125C21.6226 53.5557 21.7658 53.6273 21.909 53.7705L22.267 53.3409C22.3386 53.1977 22.4818 53.1261 22.5534 53.0545C23.4126 52.4101 24.4866 52.4817 25.2026 53.0545C25.7754 53.5557 26.1334 54.4149 25.7754 55.4173C25.7038 55.7037 25.489 55.9901 25.2742 56.2049L24.415 57.2788L23.5558 56.5628C23.9138 56.1333 24.4866 55.4173 24.6298 55.2025C24.9878 54.7013 24.8446 54.1285 24.4866 53.8421C24.1286 53.5557 23.4842 53.5557 23.1262 53.9853C22.9114 54.4149 22.3386 55.1309 22.1238 55.4173C21.6226 54.9877 21.0499 54.5581 20.7635 54.3433C20.4055 54.0569 19.7611 54.1285 19.4747 54.4865C19.1167 54.9161 19.1883 55.4889 19.5463 55.7753C19.7611 55.9185 20.6919 56.706 20.9067 56.8492C20.6919 57.064 19.9759 57.9948 19.8327 58.138C19.4747 58.5676 19.6179 59.212 19.9759 59.4984C20.3339 59.7848 20.9067 59.7848 21.2647 59.3552C21.4079 59.1404 22.1238 58.2812 22.3386 58.0664L26.1334 61.1452C25.9186 61.5032 25.7038 61.8612 25.5606 62.076L22.4818 59.6416L22.1238 60.1428C22.0522 60.2144 21.9806 60.286 21.9806 60.286C21.1931 60.9304 20.1191 61.0736 19.2599 60.4292Z" stroke="#FFFEFE" stroke-width="0.539427" stroke-miterlimit="10"/>
<path d="M25.7039 58.353C27.637 56.4914 30.143 55.9186 32.8638 56.8494C31.7182 56.9926 30.6442 57.3506 29.6418 57.8518C28.5678 57.9234 27.5654 58.4246 26.7778 59.2122C26.6346 59.1406 25.7039 58.353 25.7039 58.353Z" stroke="#FFFEFE" stroke-width="0.539427" stroke-miterlimit="10"/>
<path d="M38.5916 50.9786C38.0188 51.4082 37.5176 51.8378 37.1596 52.4106C35.3696 52.9118 34.3672 54.9881 35.0116 56.7065C34.582 56.6349 34.0808 56.6349 33.6512 56.7065C32.8636 52.9118 36.0856 50.7638 38.5916 50.9786Z" stroke="#FFFEFE" stroke-width="0.539427" stroke-miterlimit="10"/>
<path d="M20.3338 82.0525C18.4722 80.6206 17.5414 77.6134 19.6894 75.895C19.6894 76.1814 19.6894 77.0406 19.9758 77.8282C19.6894 78.8306 20.4054 80.3342 21.193 80.9786C21.2646 80.9786 28.3529 86.7781 28.3529 86.7781C28.3529 86.4917 28.3529 86.1337 28.3529 85.7757L30.1429 87.2077C30.2861 87.9237 30.5009 88.4964 31.0021 88.8544L30.1429 89.9284L20.3338 82.0525Z" stroke="#FFFEFE" stroke-width="0.539427" stroke-miterlimit="10"/>
<path d="M46.6106 49.5464L56.3481 57.4223L55.4889 58.4963C55.0593 58.1383 54.2717 57.8519 53.6273 57.8519L51.9806 56.5631C52.267 56.4915 52.5534 56.4199 52.8398 56.3483C52.7682 56.3483 45.6799 50.5488 45.6799 50.5488C44.8923 49.9044 43.4603 49.5464 42.4579 49.976C41.8135 49.9044 40.9543 49.976 40.4531 50.1192C41.6703 47.828 44.7491 47.9712 46.6106 49.5464Z" stroke="#FFFEFE" stroke-width="0.539427" stroke-miterlimit="10"/>
<path d="M108.114 71.8855C108.114 71.4559 108.043 71.0263 107.971 70.5967C109.689 71.1695 111.694 69.9523 112.052 68.1623C112.482 67.8043 112.84 67.3031 113.198 66.8735C113.77 68.5919 112.41 72.3151 108.114 71.8855Z" stroke="#FFFEFE" stroke-width="0.51494" stroke-miterlimit="10"/>
<path d="M108.257 78.3296L107.326 77.3272C107.613 76.6828 107.613 75.9669 107.613 75.2509C107.899 74.3917 108.114 73.3893 108.186 72.4585C109.116 74.6065 109.116 76.6112 108.257 78.3296Z" stroke="#FFFEFE" stroke-width="0.51494" stroke-miterlimit="10"/>
<path d="M112.267 79.5468C112.983 80.2628 112.983 81.2652 112.41 82.0528C112.338 82.1244 112.267 82.196 112.195 82.3392L111.766 82.7688L112.124 83.1984C112.195 83.27 112.267 83.4132 112.338 83.4848C113.484 85.3464 111.193 87.4227 109.403 86.0624C109.331 85.9908 109.26 85.9192 109.188 85.9192C109.045 85.776 108.973 85.6328 108.83 85.4896L108.4 85.8476C108.329 85.9192 108.186 85.9908 108.114 86.0624C107.183 86.5636 106.252 86.3488 105.608 85.7044C105.107 85.2032 104.892 84.344 105.322 83.4132C105.465 83.1268 105.68 82.912 105.894 82.6972L106.897 81.7664L107.613 82.554C107.255 82.912 106.61 83.4848 106.396 83.6996C105.966 84.1292 106.038 84.702 106.324 84.9884C106.61 85.3464 107.183 85.418 107.613 84.9884C107.899 84.7736 108.472 84.1292 108.758 83.9144C109.188 84.344 109.689 84.8452 109.904 85.1316C110.262 85.4896 110.835 85.4896 111.121 85.1316C111.479 84.7736 111.479 84.2008 111.193 83.9144C111.05 83.7712 110.262 82.912 110.047 82.6972C110.262 82.4824 111.05 81.7664 111.193 81.6232C111.622 81.2652 111.479 80.6208 111.193 80.3344C110.906 80.048 110.334 79.9048 109.904 80.3344C109.689 80.4776 108.973 81.1936 108.758 81.4084L105.536 78.0433C105.751 77.7569 106.038 77.4705 106.252 77.1841L108.83 79.9048L109.26 79.4752C109.331 79.4037 109.403 79.4037 109.474 79.3321C110.548 78.8309 111.551 78.8309 112.267 79.5468Z" stroke="#FFFEFE" stroke-width="0.51494" stroke-miterlimit="10"/>
<path d="M105.966 80.6918C103.89 82.1954 101.456 82.4102 98.9497 81.193C100.024 81.193 101.098 80.9782 102.1 80.6202C103.174 80.6918 104.176 80.3338 104.964 79.6895C105.107 79.8327 105.966 80.6918 105.966 80.6918Z" stroke="#FFFEFE" stroke-width="0.51494" stroke-miterlimit="10"/>
<path d="M92.792 85.9189C93.3648 85.6325 93.866 85.2745 94.3672 84.7733C96.0855 84.4869 97.3743 82.6969 96.9447 80.9785C97.3743 81.0501 97.8039 81.1217 98.2335 81.1933C98.4483 84.8449 95.0832 86.4916 92.792 85.9189Z" stroke="#FFFEFE" stroke-width="0.51494" stroke-miterlimit="10"/>
<path d="M114.057 59.0692C115.632 60.6444 116.133 63.6516 113.914 64.9404C113.985 64.7256 114.057 63.8664 113.914 63.0788C114.272 62.148 113.842 60.716 113.126 60C113.126 60 107.112 53.6277 107.04 53.6277C107.04 53.9141 106.969 54.2005 106.897 54.5585L105.393 52.9833C105.393 52.3389 105.179 51.6945 104.821 51.3365L105.751 50.4058L114.057 59.0692Z" stroke="#FFFEFE" stroke-width="0.51494" stroke-miterlimit="10"/>
<path d="M84.9876 86.2767L76.6821 77.5416L77.6129 76.6108C77.9709 77.0404 78.6869 77.3984 79.3313 77.47L80.6917 78.902C80.4053 78.9736 80.1189 78.9736 79.8325 78.9736C79.8325 79.0452 85.9184 85.3459 85.9184 85.3459C86.5628 86.0619 87.9232 86.5631 88.854 86.3483C89.4984 86.4915 90.286 86.5631 90.7871 86.4915C89.4984 88.4963 86.5628 87.9951 84.9876 86.2767Z" stroke="#FFFEFE" stroke-width="0.51494" stroke-miterlimit="10"/>
<path d="M131.097 106.969L141.694 94.5106C141.694 94.5106 139.26 91.7898 135.465 88.6395C131.312 85.1311 128.234 83.2695 128.234 83.2695C128.234 83.2695 118.138 95.155 117.637 95.7278C115.203 98.5201 114.2 104.105 118.782 107.9C123.365 111.694 128.735 109.761 131.097 106.969ZM127.16 98.0905C125.083 96.3722 122.864 94.2958 121.145 92.3626L122.362 90.9306C124.152 92.8638 126.3 94.9402 128.377 96.6585C130.596 98.5201 132.887 100.167 135.035 101.599L133.818 103.031C131.67 101.599 129.379 99.8805 127.16 98.0905Z" stroke="#FFFEFE" stroke-width="0.719212" stroke-miterlimit="10"/>
<path d="M109.904 95.7994C111.837 97.3746 114.63 97.0166 116.133 95.2982L127.016 82.482C125.942 81.8376 124.868 81.2648 123.794 80.7636C122.291 80.0476 120.143 78.902 118.496 79.26C118.281 79.3316 118.067 79.4748 117.923 79.618L109.331 89.7135C107.899 91.4319 108.043 94.2242 109.904 95.7994ZM119.57 90.5727C117.637 88.2099 116.205 86.2767 114.916 83.914L116.205 82.3388C117.422 84.9879 118.711 86.7063 120.716 89.1407L119.57 90.5727Z" stroke="#FFFEFE" stroke-width="0.719212" stroke-miterlimit="10"/>
<path d="M21.3362 30.2147C21.1214 30.2147 20.835 30.2147 20.2622 30.3579C20.119 30.2863 19.9042 30.1431 19.6894 30.0715C18.4006 27.5656 14.8207 27.136 12.9591 29.2839C12.2431 26.9928 10.3099 25.4176 7.94714 25.2028V24.5584H9.09273C9.45072 24.5584 9.80872 24.5584 10.1667 24.4152C11.0259 24.0572 11.3839 23.2696 11.3839 22.5536C11.3839 21.4796 10.5963 20.4773 9.23593 20.5489C9.30753 19.4033 8.37674 18.4009 7.23115 18.4009C6.08557 18.4009 5.15478 19.4033 5.22638 20.5489C4.0808 20.4773 3.07841 21.4796 3.07841 22.5536C3.07841 23.6992 4.0808 24.63 5.22638 24.5584V25.346C3.3648 25.9188 2.14762 27.494 1.57483 29.2839C-1.07434 26.5632 -4.36789 28.2815 -5.01228 30.0715C-5.22708 30.1431 -5.44188 30.2863 -5.65667 30.3579C-6.22947 30.2147 -6.73066 30.2147 -6.73066 30.2147C-8.66383 30.1431 -10.239 32.0763 -10.239 34.2959C-10.239 34.9403 -10.239 45.1073 -10.239 45.1073H-8.52064C-7.08866 48.6873 3.9376 49.1169 7.30275 49.1169C10.7395 49.1169 21.6226 48.6873 23.1261 45.1073H24.7729V34.3675C24.8445 31.9331 23.1977 30.2147 21.3362 30.2147ZM22.267 43.9617C22.267 45.6801 19.1882 46.6825 17.613 47.0405C12.1715 48.4009 3.22161 48.4725 -3.00751 47.0405C-4.43949 46.6825 -7.58985 45.7517 -7.66145 43.9617V41.0262C-7.66145 40.883 -7.66145 34.5823 -7.66145 34.2959C-7.66145 33.6515 -7.51825 33.0071 -7.23185 32.4343C-5.37028 28.9975 -1.14594 29.7135 0.286045 32.1479C0.930437 30.5727 2.14762 29.2123 3.6512 28.3531C5.15478 27.4224 7.87554 27.2792 9.59392 27.7804C11.6703 28.4963 13.3887 30.1431 14.1763 32.1479C15.0354 30.6443 16.8254 29.7851 18.5438 30.0715C19.6178 30.2147 20.6202 30.7875 21.2646 31.6467C21.8374 32.3627 22.1238 33.2935 22.1238 34.2243V43.9617H22.267Z" stroke="#FFFEFE" stroke-width="0.719212" stroke-miterlimit="10"/>
<path d="M22.2671 3.57987V16.1097H20.9068C20.9068 15.5369 20.6204 14.7493 20.1908 14.2481V12.1718C20.4056 12.3866 20.692 12.5297 20.9068 12.7445C20.9068 12.6729 20.9068 3.57987 20.9068 3.50827C20.9068 2.50588 20.2624 1.1455 19.3316 0.644308C18.9736 0.0715152 18.4008 -0.501277 17.9712 -0.859272C20.4772 -1.36047 22.3387 1.1455 22.2671 3.57987Z" stroke="#FFFEFE" stroke-width="0.539427" stroke-miterlimit="10"/>
<path d="M-3.36548 122.864C-3.36548 121.79 -2.64949 121.074 -1.7187 120.859C-1.5755 120.859 -1.5039 120.787 -1.36071 120.787H-0.716314V120.215C-0.716314 120.071 -0.716314 119.928 -0.644715 119.857C-0.143522 117.637 3.07844 117.637 3.43643 120C3.43643 120.071 3.43643 120.215 3.43643 120.286C3.43643 120.501 3.43643 120.644 3.43643 120.859H4.00922C4.15242 120.859 4.29562 120.859 4.43882 120.931C5.5128 121.217 6.08559 122.076 6.08559 122.935C6.08559 123.723 5.656 124.511 4.65361 124.869C4.36722 124.94 4.00922 125.012 3.65123 125.012H2.21925V123.866C2.79204 123.866 3.65123 123.866 3.93762 123.866C4.58202 123.866 4.94001 123.365 4.94001 122.935C4.94001 122.434 4.58202 122.005 3.93762 122.005C3.57963 122.005 2.64884 122.005 2.29085 122.005C2.29085 121.36 2.29085 120.644 2.29085 120.286C2.29085 119.785 1.86125 119.355 1.36006 119.355C0.858865 119.355 0.429271 119.785 0.429271 120.286C0.429271 120.501 0.429271 121.718 0.429271 122.005C0.142874 122.005 -1.00271 122.005 -1.28911 122.005C-1.8619 122.005 -2.21989 122.506 -2.21989 122.935C-2.21989 123.365 -1.8619 123.866 -1.28911 123.866C-1.00271 123.866 0.0712753 123.866 0.429271 123.866V128.735C-0.000323744 128.807 -0.358319 128.807 -0.716314 128.878V124.94H-1.36071C-1.4323 124.94 -1.5039 124.94 -1.5755 124.94C-2.57789 124.654 -3.36548 123.938 -3.36548 122.864Z" stroke="#FFFEFE" stroke-width="0.539427" stroke-miterlimit="10"/>
<path d="M2.29077 126.516C4.93994 126.802 7.01631 128.449 7.9471 131.098C7.15951 130.31 6.15712 129.666 5.15473 129.236C4.36714 128.449 3.36476 127.948 2.29077 127.876C2.29077 127.733 2.29077 126.516 2.29077 126.516Z" stroke="#FFFEFE" stroke-width="0.539427" stroke-miterlimit="10"/>
<path d="M16.1095 131.885C15.4651 131.742 14.7491 131.599 14.1047 131.671C12.6011 130.668 10.3099 131.098 9.45074 132.673C9.16434 132.315 8.94955 131.957 8.59155 131.599C11.0259 128.664 14.7491 129.881 16.1095 131.885Z" stroke="#FFFEFE" stroke-width="0.539427" stroke-miterlimit="10"/>
<path d="M22.2671 137.255V149.785H20.9068C20.9068 149.212 20.6204 148.425 20.1908 147.923V145.847C20.4056 146.062 20.692 146.205 20.9068 146.42C20.9068 146.348 20.9068 137.255 20.9068 137.184C20.9068 136.181 20.2624 134.821 19.3316 134.32C18.9736 133.747 18.4008 133.174 17.9712 132.816C20.4772 132.315 22.3387 134.821 22.2671 137.255Z" stroke="#FFFEFE" stroke-width="0.539427" stroke-miterlimit="10"/>
<path d="M11.169 106.969L21.7657 94.5106C21.7657 94.5106 19.3313 91.7898 15.5366 88.6395C11.3838 85.1311 8.30506 83.2695 8.30506 83.2695C8.30506 83.2695 -1.7904 95.155 -2.29159 95.7278C-4.72596 98.5201 -5.72835 104.105 -1.14601 107.9C3.43633 111.694 8.80626 109.761 11.169 106.969ZM7.23108 98.0905C5.15471 96.3722 2.93514 94.2958 1.21676 92.3626L2.43394 90.9306C4.22392 92.8638 6.37189 94.9402 8.44826 96.6585C10.6678 98.5201 12.959 100.167 15.107 101.599L13.8898 103.031C11.7418 101.599 9.45065 99.8805 7.23108 98.0905Z" stroke="#FFFEFE" stroke-width="0.719212" stroke-miterlimit="10"/>
<path d="M18.6154 113.985L27.2073 103.89C27.3505 103.747 27.4221 103.532 27.4221 103.246C27.4221 101.599 25.9185 99.7372 24.9877 98.3768C24.3433 97.446 23.5558 96.5153 22.6966 95.5845L11.8135 108.401C10.3099 110.191 10.3815 112.911 12.3147 114.558C14.3195 116.133 17.0402 115.847 18.6154 113.985ZM17.1834 102.816C19.9758 104.32 21.8374 105.322 24.7013 106.11L23.4126 107.685C20.835 106.897 18.6154 105.823 16.0379 104.248L17.1834 102.816Z" stroke="#FFFEFE" stroke-width="0.719212" stroke-miterlimit="10"/>
<path d="M-10.0242 95.7994C-8.09103 97.3746 -5.29867 97.0166 -3.79509 95.2982L7.08796 82.482C6.01398 81.8376 4.93999 81.2648 3.86601 80.7636C2.36243 80.0476 0.214455 78.902 -1.43232 79.26C-1.64712 79.3316 -1.86192 79.4748 -2.00511 79.618L-10.597 89.7135C-12.029 91.4319 -11.8858 94.2242 -10.0242 95.7994ZM-0.358337 90.5727C-2.29151 88.2099 -3.72349 86.2767 -5.01227 83.914L-3.72349 82.3388C-2.50631 84.9879 -1.21753 86.7063 0.787248 89.1407L-0.358337 90.5727Z" stroke="#FFFEFE" stroke-width="0.719212" stroke-miterlimit="10"/>
<path d="M72.2434 32.5775L71.0978 16.2529C71.0978 16.2529 67.5178 16.0381 62.5059 16.3961C57.136 16.8257 53.6992 17.6133 53.6992 17.6133C53.6992 17.6133 54.7732 33.1502 54.8448 33.9378C55.1312 37.661 58.2816 42.3149 64.2243 41.8853C70.0238 41.3841 72.5298 36.229 72.2434 32.5775ZM63.2935 28.9975C60.6443 29.2123 57.5656 29.2839 54.988 29.1407L54.8448 27.2791C57.4224 27.4223 60.4295 27.3507 63.1503 27.1359C66.0143 26.9211 68.8066 26.4915 71.3842 25.9903L71.5274 27.8519C68.9498 28.3531 66.0859 28.7827 63.2935 28.9975Z" stroke="#FFFEFE" stroke-width="0.719212" stroke-miterlimit="10"/>
<path d="M82.482 32.4342L81.6228 19.1884C81.6228 18.9736 81.5512 18.7588 81.3364 18.6156C80.1908 17.3984 77.828 17.112 76.1813 16.8256C75.0357 16.6108 73.8185 16.4676 72.6013 16.396L73.7469 33.1502C73.8901 35.4413 75.8949 37.3745 78.4008 37.1597C80.9068 36.9449 82.6968 34.7969 82.482 32.4342ZM73.6753 25.4175C76.7541 24.5583 78.7588 23.9855 81.3364 22.4819L81.4796 24.4867C79.0452 25.7039 76.7541 26.4915 73.8185 27.2075L73.6753 25.4175Z" stroke="#FFFEFE" stroke-width="0.719212" stroke-miterlimit="10"/>
<path d="M49.3316 39.3796C51.8375 39.1648 53.5559 37.0168 53.4127 34.6541L52.2671 17.8999C51.0499 18.1863 49.8328 18.5443 48.7588 18.9023C47.1836 19.4751 44.8924 20.1195 43.89 21.4799C43.7468 21.6947 43.6752 21.9094 43.7468 22.1242L44.6776 35.3701C44.8208 37.7328 46.8972 39.5944 49.3316 39.3796ZM52.5535 28.9262C49.5464 28.6398 47.112 28.2102 44.606 27.4226L44.3912 25.3462C47.112 26.3486 49.26 26.7066 52.4103 27.0646L52.5535 28.9262Z" stroke="#FFFEFE" stroke-width="0.719212" stroke-miterlimit="10"/>
</g>
</svg>
