<svg width="56" height="56" viewBox="0 0 56 56" fill="none" xmlns="http://www.w3.org/2000/svg">
<rect width="56" height="56" rx="12" fill="#2962FF"/>
<rect width="56" height="56" rx="12" fill="#2962FF"/>
<path fill-rule="evenodd" clip-rule="evenodd" d="M27.9993 15.6667C21.1916 15.6667 15.666 21.1923 15.666 28C15.666 34.8077 21.1916 40.3333 27.9993 40.3333C34.8071 40.3333 40.3327 34.8077 40.3327 28C40.3327 27.4477 40.7804 27 41.3327 27C41.885 27 42.3327 27.4477 42.3327 28C42.3327 35.9123 35.9116 42.3333 27.9993 42.3333C20.0871 42.3333 13.666 35.9123 13.666 28C13.666 20.0877 20.0871 13.6667 27.9993 13.6667C28.5516 13.6667 28.9993 14.1144 28.9993 14.6667C28.9993 15.219 28.5516 15.6667 27.9993 15.6667Z" fill="white"/>
<path fill-rule="evenodd" clip-rule="evenodd" d="M25.7871 28C25.7871 26.7775 26.7782 25.7867 28.0004 25.7867C29.2229 25.7867 30.2138 26.7776 30.2138 28C30.2138 29.2224 29.2229 30.2133 28.0004 30.2133C26.7782 30.2133 25.7871 29.2225 25.7871 28ZM28.0004 27.7867C27.8827 27.7867 27.7871 27.8822 27.7871 28C27.7871 28.1178 27.8827 28.2133 28.0004 28.2133C28.1183 28.2133 28.2138 28.1178 28.2138 28C28.2138 27.8822 28.1183 27.7867 28.0004 27.7867Z" fill="white"/>
<path fill-rule="evenodd" clip-rule="evenodd" d="M41.2532 14.7462C41.6437 15.1368 41.6437 15.7699 41.2532 16.1604L28.7598 28.6538C28.3693 29.0443 27.7362 29.0443 27.3456 28.6538C26.9551 28.2632 26.9551 27.6301 27.3456 27.2396L39.839 14.7462C40.2295 14.3557 40.8627 14.3557 41.2532 14.7462Z" fill="white"/>
<path fill-rule="evenodd" clip-rule="evenodd" d="M33.8008 16.3467C34.3531 16.3467 34.8008 16.7944 34.8008 17.3467V21.2H38.6541C39.2064 21.2 39.6541 21.6477 39.6541 22.2C39.6541 22.7523 39.2064 23.2 38.6541 23.2H32.8008V17.3467C32.8008 16.7944 33.2485 16.3467 33.8008 16.3467Z" fill="white"/>
<path fill-rule="evenodd" clip-rule="evenodd" d="M36.4805 13.68C37.0328 13.68 37.4805 14.1277 37.4805 14.68V18.5333H41.3338C41.8861 18.5333 42.3338 18.981 42.3338 19.5333C42.3338 20.0856 41.8861 20.5333 41.3338 20.5333H35.4805V14.68C35.4805 14.1277 35.9282 13.68 36.4805 13.68Z" fill="white"/>
<path fill-rule="evenodd" clip-rule="evenodd" d="M28.2791 24.1467C26.1514 24.1467 24.4258 25.8723 24.4258 28C24.4258 30.1277 26.1514 31.8533 28.2791 31.8533C30.4068 31.8533 32.1324 30.1277 32.1324 28C32.1324 27.4477 32.5801 27 33.1324 27C33.6847 27 34.1324 27.4477 34.1324 28C34.1324 31.2323 31.5114 33.8533 28.2791 33.8533C25.0468 33.8533 22.4258 31.2323 22.4258 28C22.4258 24.7677 25.0468 22.1467 28.2791 22.1467C28.8314 22.1467 29.2791 22.5944 29.2791 23.1467C29.2791 23.699 28.8314 24.1467 28.2791 24.1467Z" fill="white"/>
</svg>
