<svg width="56" height="56" viewBox="0 0 56 56" fill="none" xmlns="http://www.w3.org/2000/svg">
<rect width="56" height="56" rx="12" fill="white"/>
<rect x="0.7" y="0.7" width="54.6" height="54.6" rx="11.3" fill="white" stroke="#2962FF" stroke-width="1.4"/>
<path fill-rule="evenodd" clip-rule="evenodd" d="M28.496 28.9888L28.8336 30.8272C28.8771 31.0575 28.9954 31.2874 29.1709 31.4629L37.6612 39.9532C38.1675 40.4494 38.9745 40.4421 39.4606 39.9589C39.9575 39.4518 39.9491 38.6428 39.4634 38.1571L30.97 29.6638C30.7892 29.483 30.5718 29.3697 30.3383 29.3272L28.496 28.9888ZM26.3841 28.5611C26.218 27.5643 27.0714 26.7108 28.0682 26.8769L28.0845 26.8797L30.696 27.3595C30.6957 27.3594 30.6964 27.3595 30.696 27.3595C31.3421 27.4772 31.9253 27.7906 32.3842 28.2496L40.8776 36.7429C42.151 38.0163 42.1434 40.0855 40.8829 41.3651L40.8776 41.3705C39.6042 42.6439 37.535 42.6363 36.2554 41.3757L36.25 41.3705L27.7567 32.8771C27.2926 32.413 26.9843 31.8168 26.8676 31.1943L26.8669 31.1907L26.3841 28.5611Z" fill="#2962FF"/>
<path fill-rule="evenodd" clip-rule="evenodd" d="M34.4746 38.1844L37.6746 34.971L39.0918 36.3823L35.8918 39.5956L34.4746 38.1844Z" fill="#2962FF"/>
<path fill-rule="evenodd" clip-rule="evenodd" d="M17.8366 15.6767C16.9222 15.6767 16.1699 16.429 16.1699 17.3433V37.37C16.1699 38.2844 16.9222 39.0367 17.8366 39.0367H27.8499C28.4022 39.0367 28.8499 39.4844 28.8499 40.0367C28.8499 40.589 28.4022 41.0367 27.8499 41.0367H17.8366C15.8176 41.0367 14.1699 39.389 14.1699 37.37V17.3433C14.1699 15.3244 15.8176 13.6767 17.8366 13.6767H32.8233C34.8422 13.6767 36.4899 15.3244 36.4899 17.3433V26.0633C36.4899 26.6156 36.0422 27.0633 35.4899 27.0633C34.9376 27.0633 34.4899 26.6156 34.4899 26.0633V17.3433C34.4899 16.429 33.7376 15.6767 32.8233 15.6767H17.8366Z" fill="#2962FF"/>
<path fill-rule="evenodd" clip-rule="evenodd" d="M22.3965 21.3433C22.3965 20.7911 22.8442 20.3433 23.3965 20.3433H27.2498C27.8021 20.3433 28.2498 20.7911 28.2498 21.3433C28.2498 21.8956 27.8021 22.3433 27.2498 22.3433H23.3965C22.8442 22.3433 22.3965 21.8956 22.3965 21.3433Z" fill="#2962FF"/>
</svg>
