<svg width="56" height="56" viewBox="0 0 56 56" fill="none" xmlns="http://www.w3.org/2000/svg">
<rect width="56" height="56" rx="12" fill="#E1F3FF"/>
<rect x="0.7" y="0.7" width="54.6" height="54.6" rx="11.3" fill="white" stroke="#2962FF" stroke-width="1.4"/>
<path fill-rule="evenodd" clip-rule="evenodd" d="M40.24 27.9933C40.24 21.2383 34.7671 15.7533 28 15.7533V13.7533C35.8729 13.7533 42.24 20.135 42.24 27.9933C42.24 35.8523 35.859 42.2333 28 42.2333V40.2333C34.7544 40.2333 40.24 34.7477 40.24 27.9933Z" fill="#2962FF"/>
<path fill-rule="evenodd" clip-rule="evenodd" d="M23.0974 40.3519C23.2603 39.8241 23.8201 39.5283 24.3478 39.6911C25.5103 40.0498 26.731 40.2467 27.9996 40.2467C28.5519 40.2467 28.9996 40.6944 28.9996 41.2467C28.9996 41.7989 28.5519 42.2467 27.9996 42.2467C26.5215 42.2467 25.1023 42.0169 23.7582 41.6022C23.2305 41.4394 22.9346 40.8796 23.0974 40.3519Z" fill="#2962FF"/>
<path fill-rule="evenodd" clip-rule="evenodd" d="M22.0839 16.0922C22.3681 16.5658 22.2145 17.18 21.7409 17.4642C20.8323 18.0094 19.999 18.6685 19.2615 19.422C18.8752 19.8167 18.2421 19.8235 17.8474 19.4372C17.4527 19.0509 17.4459 18.4178 17.8322 18.0231C18.6885 17.1482 19.6562 16.3827 20.7119 15.7492C21.1855 15.465 21.7998 15.6186 22.0839 16.0922ZM15.4526 23.6403C15.9865 23.7814 16.3051 24.3285 16.1641 24.8625C15.9005 25.8606 15.7598 26.9096 15.7598 27.9933C15.7598 28.8261 15.8427 29.6392 16.0006 30.4247C16.1093 30.9662 15.7586 31.4933 15.2171 31.6021C14.6756 31.7109 14.1485 31.3601 14.0397 30.8187C13.856 29.9043 13.7598 28.9593 13.7598 27.9933C13.7598 26.7357 13.9232 25.5151 14.2304 24.3519C14.3714 23.8179 14.9186 23.4993 15.4526 23.6403ZM16.4967 34.639C16.9529 34.3276 17.5751 34.445 17.8864 34.9012C18.3475 35.5766 18.8742 36.2027 19.4571 36.7699C19.853 37.1551 19.8616 37.7882 19.4765 38.184C19.0914 38.5799 18.4582 38.5885 18.0624 38.2034C17.3838 37.5431 16.7709 36.8144 16.2346 36.0287C15.9232 35.5726 16.0406 34.9504 16.4967 34.639Z" fill="#2962FF"/>
<path fill-rule="evenodd" clip-rule="evenodd" d="M27.9996 15.7533C26.7295 15.7533 25.4965 15.9507 24.3507 16.308C23.8234 16.4724 23.2627 16.1783 23.0983 15.651C22.9339 15.1238 23.2281 14.5631 23.7553 14.3987C25.0895 13.9826 26.523 13.7533 27.9996 13.7533C28.5519 13.7533 28.9996 14.201 28.9996 14.7533C28.9996 15.3056 28.5519 15.7533 27.9996 15.7533Z" fill="#2962FF"/>
<path fill-rule="evenodd" clip-rule="evenodd" d="M34.1063 24.1529C34.4968 24.5434 34.4968 25.1766 34.1063 25.5671L28.2263 31.4471C27.3158 32.3576 25.8426 32.3576 24.9321 31.4471L24.9321 31.4471L21.8788 28.3938C21.4883 28.0032 21.4883 27.3701 21.8788 26.9796C22.2694 26.589 22.9025 26.589 23.2931 26.9796L26.3463 30.0329C26.3463 30.0329 26.3463 30.0329 26.3463 30.0329C26.4758 30.1624 26.6826 30.1624 26.8121 30.0329L32.6921 24.1529C33.0826 23.7624 33.7158 23.7624 34.1063 24.1529Z" fill="#2962FF"/>
</svg>
