<svg width="94" height="94" viewBox="0 0 94 94" fill="none" xmlns="http://www.w3.org/2000/svg">
<rect width="94" height="94" rx="47" fill="#E1F5FE"/>
<path d="M42.7499 30.7067C45.4735 29.4298 48.5257 29.4298 51.2493 30.7067L64.0741 36.7192C66.8638 38.0271 66.8637 42.5544 64.0741 43.8622L51.2495 49.8747C48.5259 51.1516 45.4736 51.1516 42.7501 49.8747L29.9252 43.8621C27.1356 42.5543 27.1356 38.027 29.9252 36.7192L35.4997 34.1057" stroke="#2962FF" stroke-width="2.875" stroke-linecap="round"/>
<path d="M27.833 40.2915V50.8332" stroke="#2962FF" stroke-width="2.875" stroke-linecap="round"/>
<path d="M46.9997 64.2498C43.5573 64.2498 39.0526 62.1008 36.2382 60.5422C34.5481 59.6062 33.583 57.7973 33.583 55.8652V46.0415M60.4163 46.0415V55.8652C60.4163 57.7973 59.4513 59.6062 57.7611 60.5422C56.7445 61.1052 55.5074 61.7452 54.1794 62.3332" stroke="#2962FF" stroke-width="2.875" stroke-linecap="round"/>
</svg>
