<svg width="94" height="94" viewBox="0 0 94 94" fill="none" xmlns="http://www.w3.org/2000/svg">
<rect width="94" height="94" rx="47" fill="#FFF3E0"/>
<path d="M64.2489 44.5656C64.25 44.6449 64.25 44.734 64.25 44.9123V55.3849C64.25 59.4443 61.4306 62.9591 57.4678 63.8397C50.5734 65.3718 43.4266 65.3718 36.5322 63.8397C32.5694 62.9591 29.75 59.4443 29.75 55.3849V44.9123C29.75 44.734 29.75 44.6449 29.7511 44.5656C29.8238 39.2946 33.471 34.7479 38.6007 33.5335C38.6779 33.5152 38.7649 33.4959 38.939 33.4572C39.0993 33.4216 39.1794 33.4038 39.2588 33.3865C44.3599 32.2768 49.6401 32.2768 54.7412 33.3865C54.8206 33.4038 54.9007 33.4216 55.061 33.4572C55.2351 33.4959 55.3221 33.5152 55.3993 33.5335C57.9146 34.129 60.0735 35.5256 61.6293 37.4161" stroke="#FF6D00" stroke-width="2.875" stroke-linecap="round"/>
<path d="M57.5391 53.708V56.583" stroke="#FF6D00" stroke-width="2.875" stroke-linecap="round"/>
<path d="M54.5884 32.6247C54.1322 29.9052 51.767 27.833 48.9179 27.833H45.0846C42.2354 27.833 39.8703 29.9052 39.4141 32.6247" stroke="#FF6D00" stroke-width="2.875" stroke-linecap="round"/>
<path d="M29.75 50.833C32.8443 52.2082 36.0619 53.196 39.3333 53.7963M64.25 50.833C58.759 53.2735 52.8795 54.4937 47 54.4937" stroke="#FF6D00" stroke-width="2.875" stroke-linecap="round"/>
<path d="M43.1641 48.9165H50.8307" stroke="#FF6D00" stroke-width="2.875" stroke-linecap="round"/>
</svg>
