<svg width="94" height="94" viewBox="0 0 94 94" fill="none" xmlns="http://www.w3.org/2000/svg">
<rect width="94" height="94" rx="47" fill="#E8F5E9"/>
<path d="M41.5732 31.6663C42.3626 29.4331 44.4925 27.833 46.9961 27.833C49.4996 27.833 51.6295 29.4331 52.4189 31.6663" stroke="#00C853" stroke-width="2.875" stroke-linecap="round"/>
<path d="M47 66.6457C46.2061 66.6457 45.5625 67.2893 45.5625 68.0832C45.5625 68.8771 46.2061 69.5207 47 69.5207V66.6457ZM32.2762 65.8377L33.2312 64.7633L32.2762 65.8377ZM61.7238 65.8377L60.7688 64.7633L61.7238 65.8377ZM39.2466 69.3937C40.0391 69.4416 40.7203 68.838 40.7682 68.0455C40.8161 67.253 40.2125 66.5718 39.42 66.5239L39.2466 69.3937ZM28.3125 48.9165C28.3125 52.5086 28.3109 56.2586 28.6359 59.3938C28.7987 60.964 29.0485 62.4381 29.4448 63.6951C29.8345 64.9315 30.4101 66.1022 31.3212 66.9121L33.2312 64.7633C32.8792 64.4503 32.5074 63.848 32.1867 62.8307C31.8725 61.8338 31.6486 60.5733 31.4956 59.0974C31.1891 56.1404 31.1875 52.5526 31.1875 48.9165H28.3125ZM47 69.5207C51.0296 69.5207 54.1806 69.5231 56.6345 69.2298C59.1142 68.9335 61.1006 68.3149 62.6788 66.9121L60.7688 64.7633C59.8208 65.6059 58.5112 66.1101 56.2934 66.3751C54.0499 66.6432 51.1021 66.6457 47 66.6457V69.5207ZM39.42 66.5239C36.1344 66.3254 34.4104 65.8114 33.2312 64.7633L31.3212 66.9121C33.2685 68.643 35.8502 69.1884 39.2466 69.3937L39.42 66.5239ZM62.8124 49.6588C62.811 53.1687 62.7878 56.5894 62.4722 59.3955C62.3146 60.7964 62.0896 61.9884 61.7812 62.9306C61.4669 63.8907 61.1076 64.4621 60.7688 64.7633L62.6788 66.9121C63.5599 66.1289 64.1258 65.0095 64.5135 63.8249C64.9071 62.6225 65.1605 61.2159 65.3292 59.7169C65.6659 56.7234 65.686 53.1393 65.6874 49.66L62.8124 49.6588Z" fill="#00C853"/>
<path d="M52.0957 52.7498L57.8527 51.2483M41.8978 52.7498L30.3839 49.7468C29.2425 49.4491 28.6718 49.3003 28.3097 48.9435C28.2391 48.874 28.1754 48.7995 28.1191 48.7208C27.8301 48.3168 27.8301 47.7988 27.8301 46.7628C27.8301 42.68 27.8301 40.6387 29.12 39.2604C29.3679 38.9956 29.6464 38.7534 29.9511 38.5379C31.5363 37.4165 33.8844 37.4165 38.5805 37.4165H55.413C60.1091 37.4165 62.4572 37.4165 64.0424 38.5379C64.3471 38.7534 64.6256 38.9956 64.8735 39.2604C66.1634 40.6387 66.1634 42.68 66.1634 46.7628C66.1634 47.7988 66.1634 48.3168 65.8744 48.7208C65.8181 48.7995 65.7544 48.874 65.6838 48.9435C65.3965 49.2266 64.9778 49.3788 64.2467 49.5783" stroke="#00C853" stroke-width="2.875" stroke-linecap="round"/>
<path d="M50.8301 49.874H43.1634C42.6341 49.874 42.2051 50.3031 42.2051 50.8324V54.9752C42.2051 55.3671 42.4437 55.7195 42.8075 55.865L44.1494 56.4018C45.9772 57.1329 48.0163 57.1329 49.8441 56.4018L51.186 55.865C51.5498 55.7195 51.7884 55.3671 51.7884 54.9752V50.8324C51.7884 50.3031 51.3594 49.874 50.8301 49.874Z" stroke="#00C853" stroke-width="2.875" stroke-linecap="round"/>
</svg>
