<svg width="22" height="22" viewBox="0 0 22 22" fill="none" xmlns="http://www.w3.org/2000/svg">
<path opacity="0.5" d="M10.9999 20.1667C16.0625 20.1667 20.1666 16.0627 20.1666 11C20.1666 5.93743 16.0625 1.83337 10.9999 1.83337C5.93731 1.83337 1.83325 5.93743 1.83325 11C1.83325 12.4664 2.17757 13.8524 2.78976 15.0815C2.95244 15.4081 3.00659 15.7814 2.91228 16.1339L2.3663 18.1745C2.12929 19.0603 2.93968 19.8707 3.82549 19.6337L5.86602 19.0877C6.21852 18.9934 6.59186 19.0475 6.91849 19.2102C8.14759 19.8224 9.53354 20.1667 10.9999 20.1667Z" fill="#032570"/>
<path fill-rule="evenodd" clip-rule="evenodd" d="M11 6.21082C10.5824 6.21082 10.2438 6.5494 10.2438 6.96707V15.0337C10.2438 15.4514 10.5824 15.79 11 15.79C11.4177 15.79 11.7563 15.4514 11.7563 15.0337V6.96707C11.7563 6.5494 11.4177 6.21082 11 6.21082Z" fill="#032570"/>
<path fill-rule="evenodd" clip-rule="evenodd" d="M6.9667 8.22748C6.54903 8.22748 6.21045 8.56607 6.21045 8.98373V13.0171C6.21045 13.4347 6.54903 13.7733 6.9667 13.7733C7.38436 13.7733 7.72295 13.4347 7.72295 13.0171V8.98373C7.72295 8.56607 7.38436 8.22748 6.9667 8.22748Z" fill="#032570"/>
<path d="M14.2771 8.98373C14.2771 8.56607 14.6157 8.22748 15.0334 8.22748C15.451 8.22748 15.7896 8.56607 15.7896 8.98373V13.0171C15.7896 13.4347 15.451 13.7733 15.0334 13.7733C14.6157 13.7733 14.2771 13.4347 14.2771 13.0171V8.98373Z" fill="#032570"/>
</svg>
