<svg xmlns="http://www.w3.org/2000/svg" width="40" height="41" viewBox="0 0 40 41" fill="none">
<path opacity="0.5" d="M3.33325 13.8333V20.4999C3.33325 25.214 3.33325 27.571 4.79772 29.0354C5.59163 29.8294 6.64787 30.1929 8.19975 30.3593C8.32308 30.1928 8.43983 30.0617 8.52311 29.9701C8.71673 29.7572 8.96223 29.5151 9.20024 29.2805L11.6884 26.8269L12.6073 25.896C13.2113 22.3585 16.2909 19.6666 20 19.6666C23.7091 19.6666 26.7888 22.3585 27.3927 25.896L28.3116 26.8269L30.7999 29.2806C31.0379 29.5152 31.2834 29.7572 31.4769 29.9701C31.5602 30.0617 31.677 30.1928 31.8003 30.3593C33.3521 30.1929 34.4082 29.8293 35.2021 29.0355C36.6666 27.571 36.6666 25.214 36.6666 20.4999V13.8333C36.6666 9.11921 36.6666 6.76218 35.2021 5.29772C33.7377 3.83325 31.3806 3.83325 26.6666 3.83325H13.3333C8.61921 3.83325 6.26218 3.83325 4.79772 5.29772C3.33325 6.76219 3.33325 9.11921 3.33325 13.8333Z" fill="#ED6C02"/>
<path d="M11.6667 15.0833C10.9764 15.0833 10.4167 15.643 10.4167 16.3333C10.4167 17.0237 10.9764 17.5833 11.6667 17.5833H28.3334C29.0238 17.5833 29.5834 17.0237 29.5834 16.3333C29.5834 15.643 29.0238 15.0833 28.3334 15.0833H11.6667Z" fill="#ED6C02"/>
<path d="M13.7501 10.5C13.7501 9.80964 14.3097 9.25 15.0001 9.25H25.0001C25.6904 9.25 26.2501 9.80964 26.2501 10.5C26.2501 11.1904 25.6904 11.75 25.0001 11.75H15.0001C14.3097 11.75 13.7501 11.1904 13.7501 10.5Z" fill="#ED6C02"/>
<path d="M15.0019 27.0291C15.0006 27.0748 15 27.1207 15 27.1667C15 29.9282 17.2386 32.1667 20 32.1667C22.7614 32.1667 25 29.9282 25 27.1667C25 27.1207 24.9994 27.0748 24.9981 27.0291C24.9252 24.3313 22.7154 22.1667 20 22.1667C17.4112 22.1667 15.2819 24.1342 15.0258 26.6555C15.0133 26.7788 15.0053 26.9034 15.0019 27.0291Z" fill="#ED6C02"/>
<path d="M12.7928 29.249L10.9921 31.0248C10.4519 31.5574 10.1819 31.8237 10.0884 32.0492C9.87548 32.5631 10.0577 33.1332 10.5214 33.4035C10.7249 33.5221 11.0919 33.5591 11.8259 33.633C12.2403 33.6748 12.4475 33.6957 12.6211 33.759C13.0097 33.9009 13.3119 34.1989 13.4558 34.5821C13.52 34.7532 13.5412 34.9576 13.5835 35.3662C13.6585 36.0901 13.696 36.452 13.8163 36.6526C14.0904 37.1098 14.6685 37.2895 15.1897 37.0795C15.4184 36.9874 15.6884 36.7211 16.2285 36.1885L18.0292 34.4051C15.5084 33.7204 13.5153 31.7541 12.7928 29.249Z" fill="#ED6C02"/>
<path d="M21.9708 34.4051L23.7715 36.1885C24.3116 36.7211 24.5816 36.9874 24.8103 37.0795C25.3315 37.2895 25.9096 37.1098 26.1837 36.6526C26.304 36.452 26.3415 36.0901 26.4165 35.3662C26.4588 34.9576 26.48 34.7532 26.5442 34.5821C26.6881 34.1989 26.9903 33.9009 27.3789 33.759C27.5525 33.6957 27.7597 33.6748 28.1741 33.633C28.9081 33.5591 29.2751 33.5221 29.4786 33.4035C29.9423 33.1332 30.1245 32.5631 29.9116 32.0492C29.8181 31.8237 29.5481 31.5574 29.0079 31.0248L27.2072 29.249C26.4847 31.7541 24.4916 33.7204 21.9708 34.4051Z" fill="#ED6C02"/>
</svg>