<svg width="36" height="36" viewBox="0 0 36 36" fill="none" xmlns="http://www.w3.org/2000/svg">
<path opacity="0.5" d="M4.50098 14.999C4.50098 9.34217 4.50098 6.51374 6.25834 4.75638C8.0157 2.99902 10.8441 2.99902 16.501 2.99902H19.501C25.1578 2.99902 27.9863 2.99902 29.7436 4.75638C31.501 6.51374 31.501 9.34217 31.501 14.999V20.999C31.501 26.6559 31.501 29.4843 29.7436 31.2417C27.9863 32.999 25.1578 32.999 19.501 32.999H16.501C10.8441 32.999 8.0157 32.999 6.25834 31.2417C4.50098 29.4843 4.50098 26.6559 4.50098 20.999V14.999Z" fill="#DD9F01"/>
<path d="M24.7793 24.7515C25.0418 24.5467 25.2799 24.3086 25.7561 23.8325L31.6922 17.8964C31.8357 17.7529 31.77 17.5057 31.5782 17.4392C30.8776 17.1961 29.9661 16.7397 29.1135 15.887C28.2608 15.0344 27.8044 14.1229 27.5613 13.4222C27.4948 13.2305 27.2476 13.1648 27.1041 13.3083L21.168 19.2444C20.6918 19.7206 20.4538 19.9587 20.249 20.2212C20.0075 20.5308 19.8004 20.8659 19.6315 21.2204C19.4882 21.5209 19.3818 21.8404 19.1688 22.4792L18.8937 23.3047L18.4561 24.6172L18.0459 25.8479C17.9411 26.1623 18.0229 26.5089 18.2572 26.7432C18.4916 26.9776 18.8382 27.0594 19.1525 26.9546L20.3833 26.5443L21.6958 26.1068L22.5213 25.8317L22.5213 25.8317C23.1601 25.6187 23.4796 25.5123 23.7801 25.369C24.1346 25.2001 24.4697 24.993 24.7793 24.7515Z" fill="#DD9F01"/>
<path d="M33.5508 16.0378C34.8177 14.7708 34.8177 12.7167 33.5508 11.4497C32.2838 10.1828 30.2297 10.1828 28.9627 11.4497L28.7719 11.6406C28.5877 11.8247 28.5043 12.082 28.5503 12.3383C28.5792 12.4996 28.6329 12.7353 28.7305 13.0166C28.9257 13.5792 29.2943 14.3177 29.9885 15.012C30.6827 15.7062 31.4213 16.0748 31.9839 16.27C32.2652 16.3676 32.5009 16.4213 32.6622 16.4502C32.9185 16.4962 33.1758 16.4128 33.3599 16.2286L33.5508 16.0378Z" fill="#DD9F01"/>
<path fill-rule="evenodd" clip-rule="evenodd" d="M10.876 13.4995C10.876 12.8782 11.3797 12.3745 12.001 12.3745H21.751C22.3723 12.3745 22.876 12.8782 22.876 13.4995C22.876 14.1208 22.3723 14.6245 21.751 14.6245H12.001C11.3797 14.6245 10.876 14.1208 10.876 13.4995ZM10.876 19.4995C10.876 18.8782 11.3797 18.3745 12.001 18.3745H16.501C17.1223 18.3745 17.626 18.8782 17.626 19.4995C17.626 20.1208 17.1223 20.6245 16.501 20.6245H12.001C11.3797 20.6245 10.876 20.1208 10.876 19.4995ZM10.876 25.4995C10.876 24.8782 11.3797 24.3745 12.001 24.3745H14.251C14.8723 24.3745 15.376 24.8782 15.376 25.4995C15.376 26.1208 14.8723 26.6245 14.251 26.6245H12.001C11.3797 26.6245 10.876 26.1208 10.876 25.4995Z" fill="#DD9F01"/>
</svg>
