<svg width="18" height="18" viewBox="0 0 18 18" fill="none" xmlns="http://www.w3.org/2000/svg">
<path opacity="0.5" d="M9.62429 16.3507C11.9687 15.8808 15 14.1943 15 9.83314C15 5.86445 12.095 3.2217 10.0061 2.00739C9.54263 1.73794 9 2.0923 9 2.62844V3.9998C9 5.0812 8.54533 7.05509 7.28199 7.87611C6.63699 8.29528 5.94039 7.6679 5.862 6.90266L5.79763 6.27429C5.7228 5.54378 4.97881 5.10032 4.39497 5.54571C3.3461 6.34583 2.25 7.74695 2.25 9.83314C2.25 15.1665 6.21667 16.4998 8.2 16.4998C8.31536 16.4998 8.43659 16.4963 8.5628 16.4891C8.89724 16.4469 8.5628 16.5635 9.62429 16.3507Z" fill="#1B5E20"/>
<path d="M6.00098 13.8333C6.00098 15.7982 7.58446 16.4057 8.56378 16.4895C8.89821 16.4473 8.56378 16.5639 9.62526 16.3511C10.4042 16.0759 11.251 15.3693 11.251 13.8333C11.251 12.86 10.637 12.2595 10.156 11.9784C10.0089 11.8924 9.83802 12.0007 9.82486 12.1706C9.78316 12.7092 9.26601 13.1382 8.9137 12.7287C8.60236 12.3668 8.47157 11.8382 8.47157 11.5V11.0581C8.47157 10.7916 8.20338 10.6151 7.97424 10.7511C7.12228 11.2565 6.00098 12.2963 6.00098 13.8333Z" fill="#1B5E20"/>
</svg>
