<svg width="23" height="22" viewBox="0 0 23 22" fill="none" xmlns="http://www.w3.org/2000/svg">
<path d="M5.9375 0.916626C6.3172 0.916626 6.625 1.22443 6.625 1.60413V3.29996L8.20228 2.9845C9.71527 2.68191 11.2836 2.8259 12.7162 3.39893L13.095 3.55047C14.4012 4.07292 15.8387 4.17049 17.2035 3.8293C17.7819 3.6847 18.2464 4.3116 17.9396 4.82283L16.7676 6.77615C16.4546 7.29788 16.2981 7.55875 16.261 7.84249C16.2455 7.96086 16.2455 8.08073 16.261 8.19909C16.2981 8.48284 16.4546 8.7437 16.7676 9.26543L18.1982 11.6498C18.4831 12.1246 18.2283 12.7398 17.6911 12.8741L17.5993 12.897C15.9772 13.3025 14.2686 13.1866 12.7162 12.5656C11.2836 11.9926 9.71527 11.8486 8.20228 12.1512L6.625 12.4666V19.9375C6.625 20.3172 6.3172 20.625 5.9375 20.625C5.5578 20.625 5.25 20.3172 5.25 19.9375V1.60413C5.25 1.22443 5.5578 0.916626 5.9375 0.916626Z" fill="#032570"/>
</svg>
