<svg width="36" height="36" viewBox="0 0 36 36" fill="none" xmlns="http://www.w3.org/2000/svg">
<path opacity="0.5" d="M9.3899 32.0821H9C7.58579 32.0821 6.87868 32.0821 6.43934 31.6427C6 31.2034 6 30.4963 6 29.0821V27.4142C6 26.6364 6 26.2475 6.19977 25.9002C6.39954 25.553 6.70091 25.3777 7.30365 25.0271C11.2719 22.7192 16.9073 21.42 20.6686 23.6634C20.9213 23.8141 21.1486 23.996 21.3428 24.2142C22.18 25.1545 22.1189 26.5737 21.1541 27.4158C20.9504 27.5936 20.7332 27.7284 20.5145 27.7753C20.6943 27.7545 20.8665 27.7306 21.0309 27.7044C22.398 27.4863 23.5456 26.7558 24.5961 25.9622L27.3069 23.9144C28.2626 23.1925 29.681 23.1924 30.6368 23.9141C31.4973 24.5638 31.7604 25.6336 31.2164 26.5056C30.582 27.5225 29.6882 28.8235 28.8299 29.6184C27.9704 30.4144 26.6908 31.1251 25.6462 31.6293C24.4891 32.1878 23.2107 32.5097 21.9104 32.7201C19.2733 33.147 16.5248 33.0819 13.9145 32.5441C12.4388 32.2401 10.9062 32.0821 9.3899 32.0821Z" fill="white"/>
<path d="M16.2929 5.04405C17.0529 3.6807 17.4329 2.99902 18.001 2.99902C18.5691 2.99902 18.9491 3.6807 19.7091 5.04405L19.9057 5.39676C20.1217 5.78418 20.2296 5.9779 20.398 6.10571C20.5664 6.23352 20.7761 6.28096 21.1954 6.37585L21.5773 6.46224C23.0531 6.79616 23.791 6.96311 23.9665 7.52766C24.1421 8.09221 23.639 8.68047 22.6329 9.85698L22.3726 10.1614C22.0867 10.4957 21.9438 10.6628 21.8795 10.8697C21.8151 11.0765 21.8368 11.2995 21.88 11.7456L21.9193 12.1517C22.0714 13.7214 22.1475 14.5062 21.6879 14.8552C21.2283 15.2041 20.5374 14.886 19.1556 14.2497L18.7981 14.0851C18.4054 13.9043 18.2091 13.8139 18.001 13.8139C17.7929 13.8139 17.5965 13.9043 17.2039 14.0851L16.8464 14.2497C15.4646 14.886 14.7737 15.2041 14.3141 14.8552C13.8544 14.5062 13.9305 13.7214 14.0826 12.1517L14.122 11.7456C14.1652 11.2995 14.1868 11.0765 14.1225 10.8697C14.0582 10.6628 13.9152 10.4957 13.6293 10.1614L13.369 9.85698C12.3629 8.68047 11.8599 8.09221 12.0354 7.52766C12.211 6.96311 12.9489 6.79616 14.4247 6.46224L14.8065 6.37585C15.2259 6.28096 15.4356 6.23352 15.6039 6.10571C15.7723 5.9779 15.8803 5.78418 16.0963 5.39676L16.2929 5.04405Z" fill="white"/>
<path d="M29.1469 11.5215C29.5269 10.8399 29.7169 10.499 30.001 10.499C30.285 10.499 30.475 10.8399 30.855 11.5215L30.9533 11.6979C31.0613 11.8916 31.1153 11.9885 31.1995 12.0524C31.2837 12.1163 31.3885 12.14 31.5982 12.1874L31.7891 12.2306C32.527 12.3976 32.896 12.4811 32.9837 12.7633C33.0715 13.0456 32.82 13.3397 32.3169 13.928L32.1868 14.0802C32.0438 14.2474 31.9724 14.3309 31.9402 14.4343C31.9081 14.5377 31.9189 14.6493 31.9405 14.8723L31.9602 15.0753C32.0362 15.8602 32.0742 16.2526 31.8444 16.4271C31.6146 16.6015 31.2692 16.4425 30.5783 16.1244L30.3995 16.0421C30.2032 15.9517 30.105 15.9065 30.001 15.9065C29.8969 15.9065 29.7988 15.9517 29.6024 16.0421L29.4237 16.1244C28.7328 16.4425 28.3873 16.6015 28.1575 16.4271C27.9277 16.2526 27.9657 15.8602 28.0418 15.0753L28.0615 14.8723C28.0831 14.6493 28.0939 14.5377 28.0617 14.4343C28.0296 14.3309 27.9581 14.2474 27.8151 14.0802L27.685 13.928C27.182 13.3397 26.9304 13.0456 27.0182 12.7633C27.106 12.4811 27.4749 12.3976 28.2128 12.2306L28.4037 12.1874C28.6134 12.14 28.7183 12.1163 28.8025 12.0524C28.8866 11.9885 28.9406 11.8916 29.0486 11.6979L29.1469 11.5215Z" fill="white"/>
<path d="M5.14693 11.5215C5.52692 10.8399 5.71692 10.499 6.00098 10.499C6.28503 10.499 6.47503 10.8399 6.85503 11.5215L6.95334 11.6979C7.06132 11.8916 7.11531 11.9885 7.19949 12.0524C7.28368 12.1163 7.38852 12.14 7.59821 12.1874L7.78911 12.2306C8.52702 12.3976 8.89597 12.4811 8.98375 12.7633C9.07153 13.0456 8.82 13.3397 8.31695 13.928L8.1868 14.0802C8.04385 14.2474 7.97237 14.3309 7.94022 14.4343C7.90806 14.5377 7.91887 14.6493 7.94048 14.8723L7.96016 15.0753C8.03621 15.8602 8.07424 16.2526 7.84443 16.4271C7.61462 16.6015 7.26917 16.4425 6.57827 16.1244L6.39953 16.0421C6.2032 15.9517 6.10503 15.9065 6.00098 15.9065C5.89692 15.9065 5.79875 15.9517 5.60242 16.0421L5.42368 16.1244C4.73278 16.4425 4.38733 16.6015 4.15752 16.4271C3.92771 16.2526 3.96574 15.8602 4.0418 15.0753L4.06147 14.8723C4.08308 14.6493 4.09389 14.5377 4.06174 14.4343C4.02958 14.3309 3.9581 14.2474 3.81515 14.0802L3.68501 13.928C3.18195 13.3397 2.93042 13.0456 3.0182 12.7633C3.10598 12.4811 3.47493 12.3976 4.21284 12.2306L4.40374 12.1874C4.61343 12.14 4.71828 12.1163 4.80246 12.0524C4.88664 11.9885 4.94063 11.8916 5.04862 11.6979L5.14693 11.5215Z" fill="white"/>
</svg>
