<svg width="36" height="36" viewBox="0 0 36 36" fill="none" xmlns="http://www.w3.org/2000/svg">
<path d="M26.7216 31.8534L26.315 32.5403C25.9526 33.1526 25.0474 33.1526 24.685 32.5403L24.2784 31.8534C23.963 31.3207 23.8054 31.0543 23.5521 30.9069C23.2988 30.7596 22.9799 30.7541 22.3422 30.7432C21.4007 30.7269 20.8102 30.6692 20.3149 30.4641C19.3961 30.0835 18.6661 29.3535 18.2855 28.4346C18 27.7455 18 26.8718 18 25.1245V24.3745C18 21.9195 18 20.6919 18.5526 19.7902C18.8618 19.2856 19.286 18.8613 19.7906 18.5521C20.6924 17.9995 21.9199 17.9995 24.375 17.9995H26.625C29.0801 17.9995 30.3076 17.9995 31.2094 18.5521C31.714 18.8613 32.1382 19.2856 32.4474 19.7902C33 20.6919 33 21.9195 33 24.3745V25.1245C33 26.8718 33 27.7455 32.7145 28.4346C32.3339 29.3535 31.6039 30.0835 30.6851 30.4641C30.1898 30.6692 29.5993 30.7269 28.6578 30.7432C28.02 30.7541 27.7011 30.7596 27.4479 30.9069C27.1946 31.0543 27.0369 31.3207 26.7216 31.8534Z" fill="#DD9F01"/>
<g opacity="0.5">
<path d="M15.3021 3.41584C15.9007 3.58213 16.2512 4.20224 16.0849 4.8009L13.9811 12.3748H25.1459L27.417 4.1987C27.5833 3.60004 28.2034 3.24955 28.8021 3.41584C29.4007 3.58213 29.7512 4.20224 29.5849 4.8009L27.4811 12.3748H33.001C33.6223 12.3748 34.126 12.8785 34.126 13.4998C34.126 14.1211 33.6223 14.6248 33.001 14.6248H26.8561L25.9186 17.9998H24.376C24.0962 17.9998 23.8324 17.9998 23.5832 18.0006L24.5209 14.6248H13.3561L11.0644 22.8748H18.0075C18.001 23.318 18.001 23.8144 18.001 24.3748V25.1248H10.4394L8.58493 31.8009C8.41864 32.3995 7.79853 32.75 7.19988 32.5838C6.60122 32.4175 6.25073 31.7974 6.41702 31.1987L8.10421 25.1248H3.00098C2.37966 25.1248 1.87598 24.6211 1.87598 23.9998C1.87598 23.3785 2.37966 22.8748 3.00098 22.8748H8.72921L11.0209 14.6248H6.00098C5.37966 14.6248 4.87598 14.1211 4.87598 13.4998C4.87598 12.8785 5.37966 12.3748 6.00098 12.3748H11.6459L13.917 4.1987C14.0833 3.60004 14.7034 3.24955 15.3021 3.41584Z" fill="#DD9F01"/>
<path d="M20.1424 30.3873L19.917 31.1987C19.7507 31.7974 20.1012 32.4175 20.6999 32.5838C21.2985 32.75 21.9186 32.3995 22.0849 31.8009L22.3785 30.744C22.3668 30.7438 22.355 30.7436 22.3432 30.7434C21.4016 30.7272 20.8111 30.6695 20.3159 30.4644C20.2573 30.4401 20.1994 30.4144 20.1424 30.3873Z" fill="#DD9F01"/>
</g>
</svg>
