<svg width="36" height="36" viewBox="0 0 36 36" fill="none" xmlns="http://www.w3.org/2000/svg">
<path d="M11.4376 6.67286C14.2528 5.54645 15.9321 4.87451 18.001 4.87451C20.0698 4.87451 21.7492 5.54645 24.5643 6.67286L29.0186 8.45456C30.4504 9.02728 31.6102 9.49116 32.4063 9.90853C32.8092 10.1198 33.1995 10.3592 33.5005 10.6479C33.8097 10.9445 34.126 11.3944 34.126 11.9995C34.126 12.6046 33.8097 13.0545 33.5005 13.3511C33.1995 13.6398 32.8092 13.8793 32.4063 14.0905C31.6102 14.5079 30.4504 14.9717 29.0186 15.5445L24.5643 17.3262C21.7492 18.4526 20.0698 19.1245 18.001 19.1245C15.9321 19.1245 14.2528 18.4526 11.4376 17.3262L6.9834 15.5445C5.55153 14.9717 4.39178 14.5079 3.59567 14.0905C3.19277 13.8793 2.80246 13.6398 2.50149 13.3511C2.19225 13.0545 1.87598 12.6046 1.87598 11.9995C1.87598 11.3944 2.19225 10.9445 2.50149 10.6479C2.80246 10.3592 3.19277 10.1198 3.59567 9.90853C4.39179 9.49116 5.55153 9.02728 6.98342 8.45455L11.4376 6.67286Z" fill="#DD9F01"/>
<path opacity="0.7" d="M3.7547 17.1644L3.74947 17.1598C3.2869 16.7476 2.5774 16.7867 2.16335 17.2483C1.74846 17.7108 1.78752 18.4225 2.25002 18.8374C2.25002 18.8374 2.24956 18.837 3.00078 17.9995L2.25002 18.8374L2.25164 18.8388L2.25427 18.8412L2.26121 18.8473L2.28176 18.8653C2.29843 18.8797 2.32104 18.899 2.34958 18.9228C2.40665 18.9705 2.4875 19.0362 2.59213 19.1171C2.80136 19.2788 3.10586 19.5011 3.5057 19.7604C4.30535 20.279 5.48716 20.9461 7.05121 21.5717L11.2639 23.2568L11.4374 23.3262C14.2526 24.4526 15.9319 25.1245 18.0008 25.1245C20.0696 25.1245 21.749 24.4526 24.5641 23.3262L24.7376 23.2568L28.9503 21.5717C30.5144 20.9461 31.6962 20.279 32.4959 19.7604C32.8957 19.5011 33.2002 19.2788 33.4094 19.1171C33.5141 19.0362 33.5949 18.9705 33.652 18.9228C33.6805 18.899 33.7031 18.8797 33.7198 18.8653L33.7403 18.8473L33.7473 18.8412L33.7499 18.8388L33.752 18.837C34.2145 18.4221 34.2531 17.7108 33.8382 17.2483C33.4242 16.7868 32.715 16.7474 32.2524 17.1595L32.25 17.1617L32.2469 17.1644C32.2403 17.1701 32.2279 17.1807 32.2099 17.1957C32.1739 17.2258 32.1151 17.2737 32.0336 17.3367C31.8705 17.4628 31.6164 17.649 31.2716 17.8726C30.5818 18.32 29.5295 18.9167 28.1147 19.4826L23.902 21.1677C20.8648 22.3826 19.5914 22.8745 18.0008 22.8745C16.4102 22.8745 15.1368 22.3826 12.0995 21.1677L7.88684 19.4826C6.47206 18.9167 5.41975 18.32 4.72997 17.8726C4.38511 17.649 4.13108 17.4628 3.96796 17.3367C3.88641 17.2737 3.82762 17.2258 3.79161 17.1957C3.77361 17.1807 3.7613 17.1701 3.7547 17.1644Z" fill="#DD9F01"/>
<path opacity="0.4" d="M3.74922 23.2485C3.28665 22.8362 2.5774 22.8756 2.16335 23.3372C1.74846 23.7997 1.78752 24.5114 2.25002 24.9262L2.25164 24.9277L2.25427 24.93L2.26121 24.9362L2.28176 24.9541C2.29843 24.9686 2.32104 24.9879 2.34958 25.0117C2.40665 25.0594 2.4875 25.1251 2.59213 25.2059C2.80136 25.3676 3.10586 25.5899 3.5057 25.8493C4.30535 26.3678 5.48716 27.0349 7.05121 27.6605L11.2639 29.3456L11.4374 29.415C14.2526 30.5415 15.9319 31.2134 18.0008 31.2134C20.0696 31.2134 21.749 30.5415 24.5641 29.415L24.7376 29.3456L28.9503 27.6605C30.5144 27.0349 31.6962 26.3678 32.4959 25.8493C32.8957 25.5899 33.2002 25.3676 33.4094 25.2059C33.5141 25.1251 33.5949 25.0594 33.652 25.0117C33.6805 24.9879 33.7031 24.9686 33.7198 24.9541L33.7403 24.9362L33.7473 24.93L33.7499 24.9277L33.752 24.9258C34.2145 24.5109 34.2531 23.7997 33.8382 23.3372C33.4242 22.8756 32.715 22.8362 32.2524 23.2484L32.25 23.2506L32.2469 23.2533C32.2403 23.259 32.2279 23.2695 32.2099 23.2846C32.1739 23.3146 32.1151 23.3626 32.0336 23.4256C31.8705 23.5517 31.6164 23.7378 31.2716 23.9615C30.5818 24.4088 29.5295 25.0056 28.1147 25.5715L23.902 27.2566C20.8648 28.4715 19.5914 28.9634 18.0008 28.9634C16.4102 28.9634 15.1368 28.4715 12.0995 27.2566L7.88684 25.5715C6.47206 25.0056 5.41975 24.4088 4.72997 23.9615C4.38511 23.7378 4.13108 23.5517 3.96796 23.4256C3.88641 23.3626 3.82762 23.3146 3.79161 23.2846C3.77361 23.2695 3.7613 23.259 3.7547 23.2533L3.74922 23.2485Z" fill="#DD9F01"/>
</svg>
