<svg width="40" height="40" viewBox="0 0 40 40" fill="none" xmlns="http://www.w3.org/2000/svg">
<path d="M33.7829 27.1083L34.9588 20.3087C35.2525 18.6104 33.9465 17.057 32.2249 17.057H23.5897C22.7339 17.057 22.0822 16.2888 22.2207 15.4433L23.3251 8.70241C23.5046 7.60729 23.4533 6.48671 23.1747 5.41258C22.9439 4.52277 22.2574 3.80829 21.3545 3.51825L21.1129 3.44063C20.5672 3.26534 19.9717 3.30613 19.4572 3.55403C18.891 3.82689 18.4767 4.3246 18.3232 4.91652L17.5303 7.97295C17.2781 8.94543 16.9106 9.88413 16.4368 10.7711C15.7446 12.067 14.6743 13.1041 13.5617 14.0629L11.1638 16.1292C10.4877 16.7118 10.1326 17.5843 10.2096 18.474L11.5632 34.1285C11.6873 35.5644 12.8878 36.6667 14.3275 36.6667H22.0752C27.8773 36.6667 32.8291 32.624 33.7829 27.1083Z" fill="#ED6C02"/>
<path opacity="0.5" fill-rule="evenodd" clip-rule="evenodd" d="M4.94611 15.8084C5.61488 15.7796 6.18769 16.2827 6.24535 16.9496L7.86468 35.6771C7.9687 36.8801 7.02114 37.9169 5.81118 37.9169C4.67148 37.9169 3.75 36.9924 3.75 35.8548V17.0573C3.75 16.3879 4.27733 15.8373 4.94611 15.8084Z" fill="#ED6C02"/>
</svg>
