<svg width="36" height="36" viewBox="0 0 36 36" fill="none" xmlns="http://www.w3.org/2000/svg">
<path fill-rule="evenodd" clip-rule="evenodd" d="M21.376 6.71882L21.3759 11.3053C21.3757 11.4721 21.3753 11.71 21.4073 11.9142C21.4463 12.1638 21.5746 12.6457 22.0736 12.9387C22.5542 13.2208 23.0242 13.1161 23.2476 13.0466C23.4424 12.9861 23.656 12.8843 23.8152 12.8085L25.501 12.0077L27.1867 12.8085C27.3459 12.8843 27.5595 12.9861 27.7543 13.0466C27.9777 13.1161 28.4477 13.2208 28.9283 12.9387C29.4273 12.6457 29.5557 12.1638 29.5947 11.9142C29.6266 11.71 29.6263 11.4722 29.626 11.3054L29.626 4.54647C29.7951 4.53851 29.9613 4.53179 30.1237 4.52613C31.7314 4.47013 33.0007 5.79063 33.0007 7.3993V24.2149C33.0007 25.8814 31.6416 27.2297 29.9784 27.3337C28.5243 27.4247 26.8158 27.6025 25.5007 27.9496C23.8785 28.3776 22.5169 29.5508 20.4421 30.1034C19.5029 30.3535 18.4553 30.4881 18.001 30.5883V7.76031C18.4821 7.64247 20.0743 7.45663 20.5115 7.20364C20.7879 7.04366 21.0778 6.88049 21.376 6.71882ZM29.5924 19.2267C29.7431 19.8294 29.3766 20.4402 28.7738 20.5909L22.7738 22.0909C22.1711 22.2416 21.5603 21.8751 21.4096 21.2724C21.2589 20.6696 21.6254 20.0588 22.2281 19.9081L28.2281 18.4081C28.8309 18.2574 29.4417 18.6239 29.5924 19.2267Z" fill="#DD9F01"/>
<path d="M27.376 4.72602C26.4459 4.83598 25.5316 4.99689 24.7507 5.23068C24.3884 5.33914 24.0103 5.47663 23.626 5.63411V5.92454V10.4074L24.75 9.8735L24.7632 9.86684C24.8367 9.82926 25.1464 9.67086 25.501 9.67086C25.5723 9.67086 25.6418 9.67727 25.7079 9.68781C25.9706 9.72969 26.1801 9.83681 26.2388 9.86684L26.252 9.87349L27.376 10.4074V5.46949V4.72602Z" fill="#DD9F01"/>
<path opacity="0.5" d="M18.001 7.82044C17.4996 7.72521 16.4149 7.57847 15.4244 7.31267C13.4081 6.77164 12.0748 5.64595 10.501 5.23065C9.17121 4.87975 7.43914 4.70183 5.97458 4.61182C4.33043 4.51077 3.00098 5.84893 3.00098 7.49619V24.2149C3.00098 25.8813 4.36004 27.2297 6.02326 27.3337C7.4774 27.4247 9.18591 27.6025 10.501 27.9495C11.2299 28.1419 12.3252 28.5963 13.3104 29.0384C14.8172 29.7145 16.3881 30.2329 18.001 30.5884V7.82044Z" fill="#DD9F01"/>
<path d="M6.40983 19.2269C6.56052 18.6242 7.17133 18.2577 7.7741 18.4084L13.7741 19.9084C14.3769 20.0591 14.7433 20.6699 14.5927 21.2726C14.442 21.8754 13.8312 22.2419 13.2284 22.0912L7.22839 20.5912C6.62562 20.4405 6.25914 19.8297 6.40983 19.2269Z" fill="#DD9F01"/>
<path d="M7.7741 12.4084C7.17133 12.2577 6.56052 12.6242 6.40983 13.2269C6.25914 13.8297 6.62562 14.4405 7.22839 14.5912L13.2284 16.0912C13.8312 16.2419 14.442 15.8754 14.5927 15.2726C14.7433 14.6699 14.3769 14.0591 13.7741 13.9084L7.7741 12.4084Z" fill="#DD9F01"/>
</svg>
