<svg xmlns="http://www.w3.org/2000/svg" width="40" height="41" viewBox="0 0 40 41" fill="none">
<path d="M5 20.4855C5 29.8823 12.0649 34.4424 16.4976 36.3787C17.7 36.904 18.3012 37.1666 20 37.1666V13.8333L5 18.8333V20.4855Z" fill="#ED6C02"/>
<path opacity="0.5" d="M23.5024 36.3787C27.9351 34.4424 35 29.8823 35 20.4855V18.8333L20 13.8333V37.1666C21.6988 37.1666 22.3 36.904 23.5024 36.3787Z" fill="#ED6C02"/>
<path opacity="0.5" d="M14.7295 5.17445L13.7749 5.50124C8.76387 7.21651 6.25839 8.07415 5.62919 8.9706C5 9.86705 5 12.5317 5 17.861V18.8333L20 13.8333V3.83325C18.6477 3.83325 17.3416 4.28032 14.7295 5.17445Z" fill="#ED6C02"/>
<path d="M26.2252 5.50124L25.2705 5.17445C22.6584 4.28032 21.3523 3.83325 20 3.83325V13.8333L35 18.8333V17.861C35 12.5317 35 9.86705 34.3708 8.9706C33.7416 8.07415 31.2361 7.21651 26.2252 5.50124Z" fill="#ED6C02"/>
</svg>