<svg width="23" height="22" viewBox="0 0 23 22" fill="none" xmlns="http://www.w3.org/2000/svg">
<path opacity="0.5" d="M3.41675 9.54864C3.41675 6.61752 3.41675 5.15196 3.7628 4.65892C4.10886 4.16587 5.48688 3.69417 8.24292 2.75077L8.76799 2.57103C10.2046 2.07926 10.923 1.83337 11.6667 1.83337C12.4105 1.83337 13.1288 2.07926 14.5655 2.57103L15.0906 2.75077C17.8466 3.69417 19.2246 4.16587 19.5707 4.65892C19.9167 5.15196 19.9167 6.61752 19.9167 9.54864V10.9921C19.9167 16.1604 16.031 18.6684 13.5931 19.7334C12.9317 20.0223 12.6011 20.1667 11.6667 20.1667C10.7324 20.1667 10.4018 20.0223 9.74043 19.7334C7.30246 18.6684 3.41675 16.1604 3.41675 10.9921V9.54864Z" fill="#032570"/>
<path d="M9.86114 8.22224C9.59265 7.95375 9.15735 7.95375 8.88886 8.22224C8.62038 8.49072 8.62038 8.92602 8.88886 9.19451L10.6944 11.0001L8.88888 12.8056C8.6204 13.0741 8.6204 13.5094 8.88888 13.7778C9.15737 14.0463 9.59267 14.0463 9.86116 13.7778L11.6667 11.9723L13.4722 13.7778C13.7407 14.0463 14.176 14.0463 14.4445 13.7778C14.7129 13.5093 14.7129 13.074 14.4445 12.8056L12.6389 11.0001L14.4445 9.19453C14.713 8.92604 14.713 8.49074 14.4445 8.22226C14.176 7.95377 13.7407 7.95377 13.4722 8.22226L11.6667 10.0278L9.86114 8.22224Z" fill="#032570"/>
</svg>
