<svg width="22" height="22" viewBox="0 0 22 22" fill="none" xmlns="http://www.w3.org/2000/svg">
<path d="M13.0323 3.20801C11.7298 2.59733 10.27 2.59733 8.96741 3.20801L2.83389 6.08354C1.84755 6.54596 1.5904 7.84989 2.06242 8.75111L2.06242 13.2917C2.06242 13.6714 2.37022 13.9792 2.74992 13.9792C3.12961 13.9792 3.43742 13.6714 3.43742 13.2917V9.7827L8.96749 12.3753C10.2701 12.986 11.7298 12.986 13.0324 12.3753L19.1659 9.49979C20.5001 8.8743 20.5001 6.70908 19.166 6.08358L13.0323 3.20801Z" fill="#032570"/>
<path opacity="0.5" d="M4.58325 10.3198L8.96749 12.3753C10.2701 12.9859 11.7298 12.9859 13.0324 12.3753L17.4166 10.3199V15.2397C17.4166 16.1638 16.955 17.0289 16.1467 17.4765C14.8007 18.222 12.6463 19.2498 10.9999 19.2498C9.35358 19.2498 7.19915 18.222 5.85314 17.4765C5.0448 17.0289 4.58325 16.1638 4.58325 15.2397V10.3198Z" fill="#032570"/>
</svg>
