<svg width="23" height="22" viewBox="0 0 23 22" fill="none" xmlns="http://www.w3.org/2000/svg">
<path d="M12.1687 3.15282C11.7731 2.29992 11.5752 1.87346 11.2261 1.83744C10.877 1.80141 10.6078 2.17966 10.0694 2.93617L9.93009 3.13189C9.77709 3.34686 9.70059 3.45435 9.59044 3.51911C9.48028 3.58388 9.34894 3.59858 9.08625 3.62799L8.8471 3.65477C7.92269 3.75827 7.46048 3.81002 7.32305 4.1321C7.18561 4.45419 7.46397 4.8333 8.02067 5.59153L8.1647 5.7877C8.3229 6.00316 8.40199 6.11089 8.43069 6.23704C8.45939 6.36318 8.43443 6.49345 8.38452 6.754L8.33908 6.9912C8.16344 7.90807 8.07562 8.3665 8.33981 8.60159C8.604 8.83668 9.04523 8.69273 9.92768 8.40483L10.156 8.33035C10.4068 8.24854 10.5321 8.20763 10.66 8.22083C10.7879 8.23403 10.9038 8.29984 11.1357 8.43145L11.3468 8.55128C12.1626 9.01443 12.5705 9.24601 12.8713 9.06922C13.172 8.89243 13.1663 8.42435 13.155 7.48819L13.1521 7.24599C13.1488 6.97996 13.1472 6.84695 13.1976 6.72896C13.2479 6.61098 13.3445 6.52138 13.5377 6.34217L13.7136 6.17902C14.3935 5.5484 14.7334 5.23309 14.6551 4.88874C14.5767 4.54439 14.132 4.39905 13.2426 4.10836L13.0125 4.03316C12.7597 3.95056 12.6333 3.90926 12.5365 3.82314C12.4398 3.73702 12.3835 3.61584 12.2711 3.37347L12.1687 3.15282Z" fill="#032570"/>
<g opacity="0.5">
<path fill-rule="evenodd" clip-rule="evenodd" d="M10.9386 10.339C11.3036 10.4433 11.515 10.8238 11.4107 11.1889C11.0748 12.3647 10.9942 14.0706 11.0473 15.7797C11.0998 17.4717 11.2802 19.0938 11.4292 20.0622C11.4869 20.4374 11.2295 20.7885 10.8542 20.8462C10.4789 20.9039 10.1279 20.6465 10.0702 20.2712C9.9136 19.2535 9.72735 17.5756 9.67293 15.8224C9.61904 14.0864 9.69123 12.2021 10.0886 10.8112C10.1929 10.4461 10.5735 10.2347 10.9386 10.339Z" fill="#032570"/>
<path fill-rule="evenodd" clip-rule="evenodd" d="M21.427 8.36195C21.6183 8.68993 21.5076 9.11089 21.1796 9.30221C15.9438 12.3564 14.6457 17.2873 14.6457 20.1667C14.6457 20.5464 14.3379 20.8542 13.9582 20.8542C13.5785 20.8542 13.2707 20.5464 13.2707 20.1667C13.2707 16.9349 14.7225 11.477 20.4868 8.11452C20.8147 7.9232 21.2357 8.03398 21.427 8.36195Z" fill="#032570"/>
</g>
<path d="M5.37333 12.6183C5.3525 12.5197 5.5097 12.4289 5.58468 12.4963C5.80262 12.692 6.09678 12.9149 6.37169 12.9886C6.64659 13.0622 7.0128 13.0163 7.29941 12.9557C7.39802 12.9349 7.48878 13.0921 7.42143 13.1671C7.22569 13.385 7.00278 13.6792 6.92912 13.9541C6.85546 14.229 6.90143 14.5952 6.96197 14.8818C6.98281 14.9804 6.82561 15.0712 6.75062 15.0038C6.53268 14.8081 6.23852 14.5852 5.96362 14.5115C5.68871 14.4379 5.32251 14.4838 5.0359 14.5444C4.93728 14.5652 4.84652 14.408 4.91387 14.333C5.10961 14.1151 5.33252 13.8209 5.40618 13.546C5.47984 13.2711 5.43387 12.9049 5.37333 12.6183Z" fill="#032570"/>
</svg>
