<svg width="22" height="22" viewBox="0 0 22 22" fill="none" xmlns="http://www.w3.org/2000/svg">
<path opacity="0.5" d="M1.83325 12.8333C1.83325 9.37637 1.83325 7.64788 2.90719 6.57394C3.98114 5.5 5.70962 5.5 9.16659 5.5H12.8333C16.2902 5.5 18.0187 5.5 19.0926 6.57394C20.1666 7.64788 20.1666 9.37637 20.1666 12.8333C20.1666 16.2903 20.1666 18.0188 19.0926 19.0927C18.0187 20.1667 16.2902 20.1667 12.8333 20.1667H9.16658C5.70962 20.1667 3.98114 20.1667 2.90719 19.0927C1.83325 18.0188 1.83325 16.2903 1.83325 12.8333Z" fill="#032570"/>
<path d="M10.9523 1.14588C10.1287 1.14585 9.44186 1.14583 8.89665 1.21913C8.32117 1.2965 7.8016 1.4667 7.38409 1.88421C6.96658 2.30173 6.79638 2.82129 6.71901 3.39677C6.64571 3.94198 6.64573 4.62876 6.64575 5.45235L6.64575 5.50004H8.02075C8.02075 4.61637 8.02222 4.02277 8.08175 3.57999C8.13862 3.15698 8.2369 2.97594 8.35636 2.85648C8.47582 2.73703 8.65686 2.63874 9.07986 2.58187C9.52265 2.52234 10.1162 2.52088 10.9999 2.52088C11.8836 2.52088 12.4772 2.52234 12.92 2.58187C13.343 2.63874 13.524 2.73703 13.6435 2.85648C13.7629 2.97594 13.8612 3.15698 13.9181 3.57999C13.9776 4.02277 13.9791 4.61637 13.9791 5.50004H15.3541L15.3541 5.45238C15.3541 4.62879 15.3541 3.94198 15.2808 3.39677C15.2035 2.82129 15.0333 2.30173 14.6158 1.88421C14.1982 1.4667 13.6787 1.2965 13.1032 1.21913C12.558 1.14583 11.8712 1.14585 11.0476 1.14588H10.9523Z" fill="#032570"/>
<path d="M9.16659 13.75H5.49992C5.0678 13.75 4.85174 13.75 4.71749 13.8842C4.58325 14.0185 4.58325 14.2345 4.58325 14.6667V15.5833C4.58325 16.0155 4.58325 16.2315 4.71749 16.3658C4.85174 16.5 5.0678 16.5 5.49992 16.5H9.16659C9.59871 16.5 9.81477 16.5 9.94901 16.3658C10.0833 16.2315 10.0833 16.0155 10.0833 15.5833V14.6667C10.0833 14.2345 10.0833 14.0185 9.94901 13.8842C9.81477 13.75 9.59871 13.75 9.16659 13.75Z" fill="#032570"/>
<path d="M4.8125 19.9809C5.21465 20.0528 5.66939 20.0969 6.1875 20.1239V16.5H5.5C5.1572 16.5 4.95038 16.5 4.8125 16.433V19.9809Z" fill="#032570"/>
<path d="M4.8125 13.817V5.6857C5.21465 5.6138 5.66939 5.56973 6.1875 5.54272V13.75H5.5C5.1572 13.75 4.95038 13.75 4.8125 13.817Z" fill="#032570"/>
<path d="M15.8125 20.1239C16.3306 20.0969 16.7853 20.0528 17.1875 19.9809V5.6857C16.7853 5.6138 16.3306 5.56973 15.8125 5.54272V20.1239Z" fill="#032570"/>
</svg>
