<svg width="36" height="36" viewBox="0 0 36 36" fill="none" xmlns="http://www.w3.org/2000/svg">
<circle cx="16.5" cy="8.99902" r="6" fill="#DD9F01"/>
<path fill-rule="evenodd" clip-rule="evenodd" d="M21.7698 32.2307C22.5387 32.9995 23.7761 32.9995 26.251 32.9995C28.7259 32.9995 29.9633 32.9995 30.7321 32.2307C31.501 31.4618 31.501 30.2244 31.501 27.7495C31.501 25.2746 31.501 24.0372 30.7321 23.2684C29.9633 22.4995 28.7259 22.4995 26.251 22.4995C23.7761 22.4995 22.5387 22.4995 21.7698 23.2684C21.001 24.0372 21.001 25.2746 21.001 27.7495C21.001 30.2244 21.001 31.4618 21.7698 32.2307ZM24.7908 29.9642C23.7378 29.2102 22.501 28.3245 22.501 26.7892C22.501 25.0943 24.5635 23.8923 26.251 25.5218C27.9384 23.8923 30.001 25.0943 30.001 26.7892C30.001 28.3245 28.7642 29.2102 27.7111 29.9642C27.6017 30.0426 27.4942 30.1195 27.3903 30.1957C27.001 30.4809 26.626 30.7495 26.251 30.7495C25.876 30.7495 25.501 30.4809 25.1116 30.1957C25.0077 30.1195 24.9003 30.0426 24.7908 29.9642Z" fill="#DD9F01"/>
<path opacity="0.5" d="M21.8923 32.3433C21.8502 32.3077 21.8094 32.2702 21.7698 32.2307C21.001 31.4618 21.001 30.2244 21.001 27.7495C21.001 25.2746 21.001 24.0372 21.7698 23.2684C22.5387 22.4995 23.7761 22.4995 26.251 22.4995C26.4761 22.4995 26.691 22.4995 26.8962 22.5001C24.8215 20.4822 20.9431 19.1245 16.501 19.1245C9.87356 19.1245 4.50098 22.1466 4.50098 25.8745C4.50098 29.6024 4.50098 32.6245 16.501 32.6245C18.6648 32.6245 20.4385 32.5262 21.8923 32.3433Z" fill="#DD9F01"/>
</svg>
