<svg width="18" height="18" viewBox="0 0 18 18" fill="none" xmlns="http://www.w3.org/2000/svg">
<path fill-rule="evenodd" clip-rule="evenodd" d="M1.36175 3.95443C1.66314 3.87908 1.96854 4.06232 2.04389 4.36371L2.33036 5.50961C2.78772 7.33906 4.22898 8.75746 6.06157 9.18763H11.9982C13.5665 9.18763 14.8865 10.3615 15.0697 11.919L15.5568 16.0594C15.5931 16.3679 15.3724 16.6475 15.0639 16.6838C14.7554 16.7201 14.4758 16.4994 14.4395 16.1909L13.9524 12.0504C13.8358 11.0595 12.996 10.3126 11.9982 10.3126H5.93643L5.87616 10.2992C3.59975 9.79337 1.80453 8.04477 1.23895 5.78246L0.952475 4.63656C0.877129 4.33517 1.06037 4.02977 1.36175 3.95443Z" fill="#0D47A1"/>
<path opacity="0.5" d="M5.99805 10.312V13.4995C5.99805 14.9137 5.99805 15.6208 6.43739 16.0602C6.87673 16.4995 7.58383 16.4995 8.99805 16.4995C10.4123 16.4995 11.1194 16.4995 11.5587 16.0602C11.998 15.6208 11.998 14.9137 11.998 13.4995V10.312H5.99805Z" fill="#0D47A1"/>
<circle cx="8.99805" cy="4.5" r="3" fill="#0D47A1"/>
</svg>
