<svg width="36" height="36" viewBox="0 0 36 36" fill="none" xmlns="http://www.w3.org/2000/svg">
<path d="M27.5353 2.04587C27.855 1.5131 28.546 1.34034 29.0788 1.66L28.5 2.62468C29.0788 1.66 29.0788 1.66 29.0788 1.66L29.0809 1.66125L29.0832 1.66268L29.0888 1.66606L29.1032 1.67494C29.1142 1.6818 29.1281 1.69056 29.1446 1.70124C29.1776 1.72258 29.2213 1.75164 29.2741 1.78859C29.3795 1.86242 29.522 1.96818 29.689 2.10731C30.0221 2.38494 30.4578 2.79968 30.8917 3.36376C31.766 4.50036 32.625 6.2357 32.625 8.62468C32.625 11.0137 31.766 12.749 30.8917 13.8856C30.4578 14.4497 30.0221 14.8644 29.689 15.1421C29.522 15.2812 29.3795 15.3869 29.2741 15.4608C29.2213 15.4977 29.1776 15.5268 29.1446 15.5481C29.1364 15.5535 29.1288 15.5583 29.1219 15.5627C29.115 15.5671 29.1087 15.571 29.1032 15.5744L29.0888 15.5833L29.0832 15.5867L29.0809 15.5881C29.0809 15.5881 29.0788 15.5894 28.5 14.6247L29.0788 15.5894C28.546 15.909 27.855 15.7363 27.5353 15.2035C27.217 14.673 27.387 13.9855 27.9145 13.6641L27.9228 13.6588C27.9337 13.6517 27.9545 13.638 27.9838 13.6175C28.0424 13.5765 28.1343 13.5088 28.2485 13.4136C28.4779 13.2224 28.7922 12.9247 29.1083 12.5138C29.734 11.7004 30.375 10.4357 30.375 8.62468C30.375 6.81366 29.734 5.549 29.1083 4.73561C28.7922 4.32468 28.4779 4.02692 28.2485 3.83581C28.1343 3.74056 28.0424 3.67288 27.9838 3.63186C27.9545 3.61139 27.9337 3.59768 27.9228 3.59061L27.9145 3.58531C27.387 3.26389 27.217 2.57641 27.5353 2.04587Z" fill="#DD9F01"/>
<path d="M15 14.6247C18.3137 14.6247 21 11.9384 21 8.62468C21 5.31097 18.3137 2.62468 15 2.62468C11.6863 2.62468 9 5.31097 9 8.62468C9 11.9384 11.6863 14.6247 15 14.6247Z" fill="#DD9F01"/>
<path d="M26.0788 4.66C25.546 4.34034 24.855 4.5131 24.5353 5.04587L24.9077 6.58111L24.9193 6.58909C24.9369 6.60139 24.9702 6.62572 25.0142 6.66237C25.1029 6.7363 25.2297 6.85593 25.3583 7.02311C25.609 7.349 25.875 7.86366 25.875 8.62468C25.875 9.3857 25.609 9.90036 25.3583 10.2263C25.2297 10.3934 25.1029 10.5131 25.0142 10.587C24.9702 10.6236 24.9369 10.648 24.9193 10.6603L24.9077 10.6682C24.3855 10.9914 24.2184 11.6752 24.5353 12.2035C24.855 12.7363 25.546 12.909 26.0788 12.5894L25.5 11.6247C26.0788 12.5894 26.0788 12.5894 26.0788 12.5894L26.0808 12.5882L26.083 12.5868L26.0877 12.584L26.0989 12.5771L26.1277 12.5587C26.1498 12.5445 26.1773 12.5261 26.2096 12.5035C26.2741 12.4584 26.3579 12.396 26.4546 12.3155C26.6471 12.155 26.8953 11.9184 27.1417 11.5981C27.641 10.949 28.125 9.96366 28.125 8.62468C28.125 7.2857 27.641 6.30036 27.1417 5.65126C26.8953 5.33093 26.6471 5.09431 26.4546 4.93387C26.3579 4.85333 26.2741 4.79094 26.2096 4.74582C26.1773 4.72323 26.1498 4.70486 26.1277 4.69062L26.0989 4.67229L26.0877 4.6654L26.083 4.66251L26.0808 4.66121C26.0808 4.66121 26.0788 4.66 25.5 5.62468L26.0788 4.66Z" fill="#DD9F01"/>
<path opacity="0.5" d="M3.00098 25.8745C3.00098 29.6024 3.00098 32.6245 15.001 32.6245C27.001 32.6245 27.001 29.6024 27.001 25.8745C27.001 22.1466 21.6284 19.1245 15.001 19.1245C8.37356 19.1245 3.00098 22.1466 3.00098 25.8745Z" fill="#DD9F01"/>
</svg>
