<svg width="36" height="36" viewBox="0 0 36 36" fill="none" xmlns="http://www.w3.org/2000/svg">
<path d="M23.25 11.2495C23.25 14.149 20.8995 16.4995 18 16.4995C15.1005 16.4995 12.75 14.149 12.75 11.2495C12.75 8.35002 15.1005 5.99951 18 5.99951C20.8995 5.99951 23.25 8.35002 23.25 11.2495Z" fill="#DD9F01"/>
<path opacity="0.4" d="M29.25 11.249C29.25 13.3201 27.5711 14.999 25.5 14.999C23.4289 14.999 21.75 13.3201 21.75 11.249C21.75 9.17796 23.4289 7.49902 25.5 7.49902C27.5711 7.49902 29.25 9.17796 29.25 11.249Z" fill="#DD9F01"/>
<path opacity="0.4" d="M6.75098 11.249C6.75098 13.3201 8.42991 14.999 10.501 14.999C12.572 14.999 14.251 13.3201 14.251 11.249C14.251 9.17796 12.572 7.49902 10.501 7.49902C8.42991 7.49902 6.75098 9.17796 6.75098 11.249Z" fill="#DD9F01"/>
<path d="M27.001 24.7495C27.001 27.649 22.9715 29.9995 18.001 29.9995C13.0304 29.9995 9.00098 27.649 9.00098 24.7495C9.00098 21.85 13.0304 19.4995 18.001 19.4995C22.9715 19.4995 27.001 21.85 27.001 24.7495Z" fill="#DD9F01"/>
<path opacity="0.4" d="M33.001 24.749C33.001 26.8201 30.3147 28.499 27.001 28.499C23.6873 28.499 21.001 26.8201 21.001 24.749C21.001 22.678 23.6873 20.999 27.001 20.999C30.3147 20.999 33.001 22.678 33.001 24.749Z" fill="#DD9F01"/>
<path opacity="0.4" d="M3 24.749C3 26.8201 5.68629 28.499 9 28.499C12.3137 28.499 15 26.8201 15 24.749C15 22.678 12.3137 20.999 9 20.999C5.68629 20.999 3 22.678 3 24.749Z" fill="#DD9F01"/>
</svg>
