<svg xmlns="http://www.w3.org/2000/svg" width="40" height="41" viewBox="0 0 40 41" fill="none">
<path opacity="0.5" d="M15.9872 5.83374C15.5814 6.1796 15.3784 6.35255 15.1617 6.49782C14.6648 6.83082 14.1069 7.06194 13.5201 7.17779C13.2641 7.22833 12.9983 7.24954 12.4667 7.29196L12.4667 7.29196C11.1311 7.39855 10.4633 7.45184 9.9061 7.64863C8.61743 8.1038 7.6038 9.11743 7.14863 10.4061C6.95184 10.9633 6.89855 11.6311 6.79196 12.9667L6.79196 12.9667C6.74954 13.4983 6.72833 13.7641 6.67779 14.0201C6.56194 14.6069 6.33082 15.1648 5.99782 15.6617C5.85255 15.8784 5.67961 16.0814 5.33373 16.4872L5.3337 16.4873C4.46464 17.5071 4.03009 18.017 3.77528 18.5501C3.18591 19.7832 3.18591 21.2167 3.77528 22.4497C4.03009 22.9829 4.46463 23.4928 5.33369 24.5126L5.3337 24.5126L5.33376 24.5126C5.67958 24.9184 5.85256 25.1214 5.99782 25.3382C6.33082 25.835 6.56194 26.393 6.67779 26.9798C6.72833 27.2357 6.74954 27.5015 6.79196 28.0331L6.79196 28.0332C6.89855 29.3688 6.95184 30.0366 7.14863 30.5937C7.6038 31.8824 8.61743 32.896 9.9061 33.3512C10.4632 33.548 11.1311 33.6013 12.4666 33.7079L12.4667 33.7079C12.9983 33.7503 13.2641 33.7715 13.5201 33.8221C14.1069 33.9379 14.6648 34.169 15.1617 34.502C15.3784 34.6473 15.5814 34.8202 15.9873 35.1661C17.0071 36.0352 17.517 36.4697 18.0501 36.7246C19.2832 37.3139 20.7167 37.3139 21.9497 36.7246C22.4829 36.4697 22.9928 36.0352 24.0126 35.1661C24.4185 34.8202 24.6214 34.6473 24.8382 34.502C25.335 34.169 25.893 33.9379 26.4798 33.8221C26.7357 33.7715 27.0015 33.7503 27.5331 33.7079L27.5332 33.7079C28.8688 33.6013 29.5366 33.548 30.0937 33.3512C31.3824 32.896 32.396 31.8824 32.8512 30.5937C33.048 30.0366 33.1013 29.3688 33.2079 28.0332L33.2079 28.0331C33.2503 27.5015 33.2715 27.2357 33.3221 26.9798C33.4379 26.393 33.669 25.835 34.002 25.3382C34.1473 25.1214 34.3202 24.9185 34.6661 24.5126C35.5352 23.4928 35.9697 22.9829 36.2246 22.4497C36.8139 21.2167 36.8139 19.7832 36.2246 18.5501C35.9697 18.017 35.5352 17.5071 34.6661 16.4873L34.6661 16.4872C34.3202 16.0814 34.1473 15.8784 34.002 15.6617C33.669 15.1648 33.4379 14.6069 33.3221 14.0201C33.2715 13.7641 33.2503 13.4983 33.2079 12.9667L33.2079 12.9666C33.1013 11.6311 33.048 10.9632 32.8512 10.4061C32.396 9.11743 31.3824 8.1038 30.0937 7.64863C29.5366 7.45184 28.8688 7.39855 27.5332 7.29196L27.5331 7.29196C27.0015 7.24954 26.7357 7.22833 26.4798 7.17779C25.893 7.06194 25.335 6.83082 24.8382 6.49782C24.6214 6.35255 24.4185 6.1796 24.0126 5.8337L24.0126 5.83369C22.9928 4.96463 22.4829 4.53009 21.9497 4.27528C20.7167 3.68591 19.2832 3.68591 18.0501 4.27528C17.517 4.53009 17.0071 4.96464 15.9873 5.8337L15.9872 5.83374Z" fill="#ED6C02"/>
<path d="M27.2893 16.9384C27.8191 16.4087 27.8191 15.5498 27.2893 15.0201C26.7596 14.4904 25.9008 14.4904 25.3711 15.0201L17.2873 23.1038L14.6293 20.4458C14.0996 19.9161 13.2407 19.9161 12.711 20.4458C12.1813 20.9755 12.1813 21.8344 12.711 22.3641L16.3282 25.9813C16.8579 26.511 17.7167 26.511 18.2465 25.9813L27.2893 16.9384Z" fill="#ED6C02"/>
</svg>