<svg width="23" height="22" viewBox="0 0 23 22" fill="none" xmlns="http://www.w3.org/2000/svg">
<path d="M4.81641 8.81312C4.81641 8.44427 5.11309 8.14526 5.47906 8.14526H9.01319C9.37917 8.14526 9.67584 8.44427 9.67584 8.81312C9.67584 9.18197 9.37917 9.48098 9.01319 9.48098H5.47906C5.11309 9.48098 4.81641 9.18197 4.81641 8.81312Z" fill="#032570"/>
<path fill-rule="evenodd" clip-rule="evenodd" d="M19.7559 9.17008C19.6988 9.16658 19.6367 9.16661 19.5723 9.16663L19.5562 9.16663H17.0302C14.9481 9.16663 13.1665 10.758 13.1665 12.8333C13.1665 14.9086 14.9481 16.5 17.0302 16.5H19.5562L19.5723 16.5C19.6367 16.5 19.6988 16.5 19.7559 16.4965C20.6016 16.4447 21.3496 15.802 21.4124 14.9044C21.4166 14.8456 21.4165 14.7821 21.4165 14.7233L21.4165 14.7074V10.9592L21.4165 10.9433C21.4165 10.8845 21.4166 10.821 21.4124 10.7622C21.3496 9.86457 20.6016 9.22194 19.7559 9.17008ZM16.8062 13.8111C17.3422 13.8111 17.7768 13.3733 17.7768 12.8333C17.7768 12.2933 17.3422 11.8555 16.8062 11.8555C16.2702 11.8555 15.8356 12.2933 15.8356 12.8333C15.8356 13.3733 16.2702 13.8111 16.8062 13.8111Z" fill="#032570"/>
<path opacity="0.5" d="M19.711 9.16811C19.711 8.08587 19.6716 6.92497 18.9798 6.09274C18.913 6.0124 18.8419 5.93439 18.7662 5.85868C18.0802 5.17268 17.2103 4.86824 16.1356 4.72375C15.0913 4.58335 13.757 4.58336 12.0724 4.58337H10.1356C8.45102 4.58336 7.11668 4.58335 6.0724 4.72375C4.99768 4.86824 4.12781 5.17268 3.44181 5.85868C2.75581 6.54468 2.45137 7.41455 2.30688 8.48927C2.16648 9.53355 2.16649 10.8679 2.1665 12.5525V12.6559C2.16649 14.3405 2.16648 15.6749 2.30688 16.7191C2.45137 17.7939 2.75581 18.6637 3.44181 19.3497C4.12781 20.0357 4.99768 20.3402 6.0724 20.4847C7.11667 20.6251 8.45099 20.6251 10.1356 20.625H12.0724C13.757 20.6251 15.0913 20.6251 16.1356 20.4847C17.2103 20.3402 18.0802 20.0357 18.7662 19.3497C18.9537 19.1623 19.1129 18.9607 19.2482 18.7446C19.6611 18.0851 19.711 17.2768 19.711 16.4986C19.6668 16.5001 19.6202 16.5001 19.5723 16.5L17.0302 16.5C14.9481 16.5 13.1665 14.9086 13.1665 12.8334C13.1665 10.7581 14.9481 9.16672 17.0302 9.16672L19.5723 9.16671C19.6201 9.16669 19.6668 9.16668 19.711 9.16811Z" fill="#032570"/>
<path d="M9.5933 2.35781L7.66696 3.65986L6.07812 4.72304C7.12162 4.58335 8.45431 4.58336 10.1361 4.58337H12.0729C13.7575 4.58336 15.0918 4.58335 16.1361 4.72375C16.3461 4.75199 16.5484 4.78634 16.7429 4.82846L15.0003 3.66671L13.0638 2.35781C12.0293 1.65856 10.6278 1.65856 9.5933 2.35781Z" fill="#032570"/>
</svg>
