<svg width="23" height="22" viewBox="0 0 23 22" fill="none" xmlns="http://www.w3.org/2000/svg">
<path fill-rule="evenodd" clip-rule="evenodd" d="M11.3333 1.14587C11.713 1.14587 12.0208 1.45368 12.0208 1.83337V2.75004C12.0208 3.12974 11.713 3.43754 11.3333 3.43754C10.9536 3.43754 10.6458 3.12974 10.6458 2.75004V1.83337C10.6458 1.45368 10.9536 1.14587 11.3333 1.14587ZM1.47916 11C1.47916 10.6203 1.78696 10.3125 2.16666 10.3125H3.08333C3.46302 10.3125 3.77083 10.6203 3.77083 11C3.77083 11.3797 3.46302 11.6875 3.08333 11.6875H2.16666C1.78696 11.6875 1.47916 11.3797 1.47916 11ZM18.8958 11C18.8958 10.6203 19.2036 10.3125 19.5833 10.3125H20.5C20.8797 10.3125 21.1875 10.6203 21.1875 11C21.1875 11.3797 20.8797 11.6875 20.5 11.6875H19.5833C19.2036 11.6875 18.8958 11.3797 18.8958 11Z" fill="#032570"/>
<path d="M20.6577 14.7056C19.4446 14.4197 18.8231 13.7401 18.2501 12.8732C17.8754 12.3063 17.2828 12.0886 16.7133 12.1482C16.7919 11.7779 16.8333 11.3938 16.8333 11C16.8333 7.96247 14.3709 5.50004 11.3333 5.50004C8.29576 5.50004 5.83333 7.96247 5.83333 11C5.83333 11.3321 5.86276 11.6573 5.91916 11.9732C5.3904 11.953 4.8557 12.1892 4.52237 12.7103C3.91527 13.6594 3.29318 14.403 2.00898 14.7056C1.63941 14.7926 1.4104 15.1628 1.49749 15.5324C1.58457 15.902 1.95476 16.131 2.32434 16.0439C4.12752 15.619 5.00282 14.511 5.68069 13.4512C5.72722 13.3784 5.7909 13.3484 5.8605 13.3469C5.9343 13.3453 6.0201 13.3774 6.08585 13.4615C7.1062 14.7676 8.72763 16.2709 11.3333 16.2709C13.8635 16.2709 15.4935 15.107 16.5639 13.6762C16.644 13.5692 16.7619 13.5162 16.8706 13.5142C16.9724 13.5122 17.0508 13.5524 17.103 13.6314C17.7687 14.6385 18.6447 15.6439 20.3423 16.0439C20.7119 16.131 21.0821 15.902 21.1692 15.5324C21.2563 15.1628 21.0272 14.7926 20.6577 14.7056Z" fill="#032570"/>
<g opacity="0.5">
<path d="M4.36445 4.03181C4.63294 3.76332 5.06824 3.76332 5.33672 4.03181L5.69682 4.39191C5.96531 4.66039 5.96531 5.0957 5.69682 5.36418C5.42834 5.63267 4.99304 5.63267 4.72455 5.36418L4.36445 5.00408C4.09596 4.73559 4.09596 4.30029 4.36445 4.03181Z" fill="#032570"/>
<path d="M18.2992 4.03205C18.5677 4.30053 18.5677 4.73583 18.2992 5.00432L17.9391 5.36442C17.6706 5.6329 17.2353 5.6329 16.9668 5.36442C16.6983 5.09593 16.6983 4.66063 16.9668 4.39215L17.3269 4.03205C17.5954 3.76356 18.0307 3.76356 18.2992 4.03205Z" fill="#032570"/>
</g>
<g opacity="0.5">
<path d="M4.52237 17.2938C5.15198 16.3095 6.50004 16.3417 7.1694 17.1986C8.0769 18.3602 9.34368 19.4794 11.3333 19.4794C13.3579 19.4794 14.6056 18.5821 15.4629 17.4361C16.1229 16.5538 17.5581 16.4097 18.2501 17.4567C18.8231 18.3236 19.4446 19.0032 20.6577 19.2891C21.0272 19.3762 21.2563 19.7464 21.1692 20.1159C21.0821 20.4855 20.7119 20.7145 20.3423 20.6274C18.6447 20.2274 17.7687 19.222 17.103 18.2149C17.0508 18.1359 16.9724 18.0958 16.8706 18.0977C16.7619 18.0998 16.644 18.1527 16.5639 18.2597C15.4935 19.6906 13.8635 20.8544 11.3333 20.8544C8.72763 20.8544 7.1062 19.3511 6.08585 18.045C6.0201 17.9609 5.9343 17.9288 5.8605 17.9304C5.7909 17.9319 5.72722 17.9619 5.68069 18.0347C5.00282 19.0945 4.12752 20.2025 2.32434 20.6274C1.95476 20.7145 1.58457 20.4855 1.49749 20.1159C1.4104 19.7464 1.63941 19.3762 2.00898 19.2891C3.29318 18.9865 3.91527 18.2429 4.52237 17.2938Z" fill="#032570"/>
</g>
</svg>
