<svg width="375" height="862" viewBox="0 0 375 862" fill="none" xmlns="http://www.w3.org/2000/svg">
<g clip-path="url(#clip0_6081_50824)">
<path fill-rule="evenodd" clip-rule="evenodd" d="M41.0586 600.727L41.9922 593.292L47.3799 598.5L54.8148 599.433L49.607 604.821L48.6734 612.256L43.2857 607.048L35.8508 606.115L41.0586 600.727Z" fill="#FFE0B2"/>
<path fill-rule="evenodd" clip-rule="evenodd" d="M319.322 134.847L313.337 129.002L321.604 127.721L327.448 121.735L328.73 130.002L334.715 135.847L326.448 137.128L320.604 143.113L319.322 134.847Z" fill="#FFD180"/>
<path d="M533.844 736.152C458.972 804.82 411.258 797.832 365.493 776.876C319.727 755.921 199.281 665.971 149.02 680.6C98.7603 695.229 115.342 783.019 83.43 790.38C51.5177 797.74 0.798066 717.854 -63.9997 725.582" stroke="#FF6D00" stroke-width="15.8527"/>
<path d="M414.576 369.959C317.61 400.27 277.397 373.655 244.887 335.227C212.377 296.799 141.615 164.168 89.9043 156.035C38.194 147.902 15.8695 234.411 -16.1437 227.502C-48.1568 220.593 -60.0904 126.721 -122.024 106.16" stroke="#FF6D00" stroke-width="15.8527"/>
</g>
<defs>
<clipPath id="clip0_6081_50824">
<rect width="375" height="862" fill="white"/>
</clipPath>
</defs>
</svg>
