<svg width="375" height="1578" viewBox="0 0 375 1578" fill="none" xmlns="http://www.w3.org/2000/svg">
<path d="M-30.9982 120.798C68.7829 345.292 274.593 209.499 308.601 374.041C342.608 538.584 -115.213 797.554 48.6603 1089.7C212.534 1381.84 423.065 954.832 521.379 1074.33C619.692 1193.82 303.514 1314.33 434.8 1527.7" stroke="#BBDEFB" stroke-width="32.6741"/>
<path fill-rule="evenodd" clip-rule="evenodd" d="M29.1591 223.62L42.768 226.412L32.3687 235.624L29.5763 249.233L20.3647 238.833L6.7558 236.041L17.1551 226.829L19.9475 213.221L29.1591 223.62Z" fill="#2962FF"/>
<path d="M369 1526.99C362.723 1527.56 359.117 1528.08 356.903 1529.82C354.301 1531.85 353.685 1535.56 353 1543C352.292 1535.29 351.653 1531.6 348.8 1529.61C346.586 1528.06 343.003 1527.56 337 1527.01C343.254 1526.44 346.883 1525.92 349.074 1524.21C351.699 1522.15 352.315 1518.46 353 1511C353.639 1517.87 354.21 1521.54 356.332 1523.66C358.455 1525.78 362.153 1526.37 369 1526.99Z" fill="#00C853"/>
</svg>
