<svg width="56" height="36" viewBox="0 0 56 36" fill="none" xmlns="http://www.w3.org/2000/svg">
<circle cx="27.9182" cy="17.9191" r="13.5293" transform="rotate(15 27.9182 17.9191)" fill="#FFFF00"/>
<path fill-rule="evenodd" clip-rule="evenodd" d="M15.2664 13.1286C14.261 13.1735 13.6528 13.3635 13.5596 13.7115C13.2307 14.939 19.4319 17.6671 27.4103 19.8049C35.3888 21.9427 42.1232 22.6807 42.4521 21.4533C42.5451 21.1061 42.1158 20.6389 41.2717 20.099C41.4504 19.0044 41.4939 17.8909 41.4007 16.7839C47.8 19.4091 51.8062 22.107 51.3431 23.8352C50.6305 26.4947 39.6048 25.8511 26.7166 22.3977C13.8283 18.9443 3.95798 13.9889 4.67059 11.3294C5.13379 9.60067 9.9545 9.26758 16.8118 10.1946C16.1778 11.1063 15.6589 12.0918 15.2664 13.1286Z" fill="#EC407A"/>
</svg>
