<svg width="40" height="40" viewBox="0 0 40 40" fill="none" xmlns="http://www.w3.org/2000/svg">
<g clip-path="url(#clip0_8018_4950)">
<path fill-rule="evenodd" clip-rule="evenodd" d="M23.7493 5.83337C23.7493 5.14302 24.309 4.58337 24.9993 4.58337H29.9993C32.5779 4.58337 34.5827 6.76587 34.5827 9.33337V33.3334C34.5827 35.8571 32.523 37.9167 29.9993 37.9167H9.99935C7.42077 37.9167 5.41602 35.7342 5.41602 33.1667V9.35004C5.41602 6.78255 7.42077 4.60004 9.99935 4.60004H14.9993C15.6897 4.60004 16.2493 5.15968 16.2493 5.85004C16.2493 6.54039 15.6897 7.10004 14.9993 7.10004H9.99935C8.91126 7.10004 7.91602 8.05087 7.91602 9.35004V33.1667C7.91602 34.4659 8.91126 35.4167 9.99935 35.4167H29.9993C31.1423 35.4167 32.0827 34.4764 32.0827 33.3334V9.33337C32.0827 8.0342 31.0874 7.08337 29.9993 7.08337H24.9993C24.309 7.08337 23.7493 6.52373 23.7493 5.83337Z" fill="#FB8C00"/>
<path fill-rule="evenodd" clip-rule="evenodd" d="M16.6667 4.58337C16.4404 4.58337 16.25 4.77373 16.25 5.00004V6.66671C16.25 6.89302 16.4404 7.08337 16.6667 7.08337H23.3333C23.5678 7.08337 23.75 6.90154 23.75 6.66671V5.00004C23.75 4.77373 23.5596 4.58337 23.3333 4.58337H16.6667ZM13.75 5.00004C13.75 3.39302 15.0596 2.08337 16.6667 2.08337H23.3333C24.9404 2.08337 26.25 3.39302 26.25 5.00004V6.66671C26.25 8.29854 24.9322 9.58337 23.3333 9.58337H16.6667C15.0596 9.58337 13.75 8.27373 13.75 6.66671V5.00004Z" fill="#FB8C00"/>
<path fill-rule="evenodd" clip-rule="evenodd" d="M16.6667 17.9167C16.4404 17.9167 16.25 18.1071 16.25 18.3334V24.1667C16.25 24.3931 16.4404 24.5834 16.6667 24.5834H23.3333C23.5678 24.5834 23.75 24.4016 23.75 24.1667V18.3334C23.75 18.1071 23.5596 17.9167 23.3333 17.9167H16.6667ZM13.75 18.3334C13.75 16.7264 15.0596 15.4167 16.6667 15.4167H23.3333C24.9404 15.4167 26.25 16.7264 26.25 18.3334V24.1667C26.25 25.7986 24.9322 27.0834 23.3333 27.0834H16.6667C15.0596 27.0834 13.75 25.7738 13.75 24.1667V18.3334Z" fill="#FB8C00"/>
</g>
<defs>
<clipPath id="clip0_8018_4950">
<rect width="40" height="40" fill="white"/>
</clipPath>
</defs>
</svg>
