<svg width="36" height="36" viewBox="0 0 36 36" fill="none" xmlns="http://www.w3.org/2000/svg">
<circle cx="18" cy="24" r="4.5" stroke="black" stroke-opacity="0.87" stroke-width="2.25"/>
<path d="M18 28.8898L14.6057 32.144C14.1196 32.61 13.8765 32.843 13.6707 32.9237C13.2017 33.1074 12.6814 32.9502 12.4346 32.5501C12.3264 32.3745 12.2926 32.0579 12.2252 31.4245C12.1871 31.0669 12.168 30.8881 12.1102 30.7384C11.9807 30.4031 11.7087 30.1423 11.359 30.0182C11.2028 29.9628 11.0163 29.9445 10.6433 29.908C9.98268 29.8433 9.65237 29.811 9.46924 29.7071C9.05195 29.4706 8.88793 28.9718 9.07959 28.5221C9.16369 28.3248 9.40675 28.0918 9.89285 27.6257L12.1102 25.5L13.6707 23.9395" stroke="black" stroke-opacity="0.87" stroke-width="2.25"/>
<path d="M18 28.8895L21.3943 32.1437C21.8804 32.6097 22.1235 32.8428 22.3293 32.9234C22.7983 33.1071 23.3186 32.9499 23.5654 32.5498C23.6736 32.3743 23.7074 32.0576 23.7748 31.4242C23.8129 31.0666 23.832 30.8879 23.8898 30.7381C24.0193 30.4028 24.2913 30.142 24.641 30.0179C24.7972 29.9625 24.9837 29.9442 25.3567 29.9077C26.0173 29.843 26.3476 29.8107 26.5308 29.7069C26.9481 29.4703 27.1121 28.9715 26.9204 28.5218C26.8363 28.3245 26.5933 28.0915 26.1071 27.6255L23.8898 25.4997L22.5 24.1099" stroke="black" stroke-opacity="0.87" stroke-width="2.25"/>
<path d="M25.9795 26.9936C28.9381 26.9622 30.5872 26.7768 31.682 25.682C33 24.364 33 22.2426 33 18V13.5M10.5 26.9974C7.23746 26.9792 5.4706 26.8346 4.31802 25.682C3 24.364 3 22.2426 3 18L3 12C3 7.75736 3 5.63604 4.31802 4.31802C5.63604 3 7.75736 3 12 3L24 3C28.2426 3 30.364 3 31.682 4.31802C32.4168 5.05285 32.742 6.03737 32.8858 7.5" stroke="black" stroke-opacity="0.87" stroke-width="2.25" stroke-linecap="round"/>
<path d="M13.5 9L22.5 9" stroke="black" stroke-opacity="0.87" stroke-width="2.25" stroke-linecap="round"/>
<path d="M10.5 14.25H13.5M25.5 14.25H18.75" stroke="black" stroke-opacity="0.87" stroke-width="2.25" stroke-linecap="round"/>
</svg>
