<svg width="40" height="40" viewBox="0 0 40 40" fill="none" xmlns="http://www.w3.org/2000/svg">
<g clip-path="url(#clip0_8018_4928)">
<path fill-rule="evenodd" clip-rule="evenodd" d="M2.07812 16.2972C2.07812 15.6069 2.63777 15.0472 3.32812 15.0472H4.72813C5.93749 15.0472 7.11025 15.5253 7.9674 16.402L11.562 19.9968C11.9659 20.4006 12.4832 20.6138 13.0281 20.6138H21.8282C24.0519 20.6138 25.8615 22.4235 25.8615 24.6472C25.8615 26.8707 24.052 28.6807 21.8282 28.6807H16.2781C15.5878 28.6807 15.0281 28.121 15.0281 27.4307C15.0281 26.7403 15.5878 26.1807 16.2781 26.1807H21.8282C22.6711 26.1807 23.3615 25.4902 23.3615 24.6472C23.3615 23.8042 22.6712 23.1138 21.8282 23.1138H13.0281C11.8063 23.1138 10.657 22.6273 9.79424 21.7645L6.18252 18.1526C5.80688 17.7669 5.28249 17.5472 4.72813 17.5472H3.32812C2.63777 17.5472 2.07812 16.9876 2.07812 16.2972Z" fill="white"/>
<path fill-rule="evenodd" clip-rule="evenodd" d="M36.5931 19.1944C38.6292 21.2105 38.2681 24.5712 35.9074 26.1527L35.9036 26.1552L19.4536 37.0885L19.4518 37.0897C17.8182 38.1714 15.6715 38.2062 14.0135 37.123L2.68589 30.3364C2.09368 29.9816 1.90123 29.2139 2.25603 28.6217C2.61083 28.0295 3.37853 27.8371 3.97074 28.1919L15.3449 35.0064L15.3684 35.0219C16.1734 35.5549 17.246 35.5514 18.0706 35.0059C18.0703 35.0061 18.0709 35.0057 18.0706 35.0059L34.516 24.0757C34.5165 24.0753 34.5171 24.0749 34.5176 24.0746C35.5878 23.3562 35.7268 21.8535 34.8329 20.9698L34.8278 20.9647C34.1442 20.2811 33.0702 20.1719 32.2717 20.7042L25.7878 25.0213C25.2132 25.4039 24.4372 25.2482 24.0546 24.6736C23.672 24.099 23.8276 23.323 24.4023 22.9404L30.885 18.6241C30.8848 18.6242 30.8852 18.624 30.885 18.6241C32.6855 17.4242 35.0767 17.6804 36.5931 19.1944Z" fill="white"/>
<path fill-rule="evenodd" clip-rule="evenodd" d="M11.9766 8.33093C11.9766 4.87914 14.7748 2.08093 18.2265 2.08093C21.6784 2.08093 24.4765 4.87915 24.4765 8.33093C24.4765 11.7827 21.6784 14.5809 18.2265 14.5809C14.7748 14.5809 11.9766 11.7827 11.9766 8.33093ZM18.2265 4.58093C16.1555 4.58093 14.4766 6.25986 14.4766 8.33093C14.4766 10.402 16.1555 12.0809 18.2265 12.0809C20.2977 12.0809 21.9765 10.402 21.9765 8.33093C21.9765 6.25984 20.2977 4.58093 18.2265 4.58093Z" fill="white"/>
<path fill-rule="evenodd" clip-rule="evenodd" d="M22.0317 6.68749C22.2306 6.0264 22.9277 5.65169 23.5888 5.85056C26.1539 6.62218 28.0287 9.01562 28.0287 11.8309C28.0287 15.288 25.2357 18.0808 21.7787 18.0808C18.9862 18.0808 16.611 16.2467 15.8186 13.7026C15.6133 13.0435 15.9812 12.3427 16.6403 12.1374C17.2994 11.9321 18.0002 12.3 18.2055 12.9592C18.6797 14.4817 20.1046 15.5808 21.7787 15.5808C23.8551 15.5808 25.5287 13.9072 25.5287 11.8309C25.5287 10.1462 24.4035 8.7063 22.8686 8.24459C22.2075 8.04572 21.8328 7.34859 22.0317 6.68749Z" fill="white"/>
</g>
<defs>
<clipPath id="clip0_8018_4928">
<rect width="40" height="40" fill="white"/>
</clipPath>
</defs>
</svg>
