<svg width="40" height="41" viewBox="0 0 40 41" fill="none" xmlns="http://www.w3.org/2000/svg">
<g clip-path="url(#clip0_8018_4943)">
<path fill-rule="evenodd" clip-rule="evenodd" d="M9.41616 7.20003C9.41616 4.67634 11.4758 2.6167 13.9995 2.6167H32.2828C34.8065 2.6167 36.8662 4.67634 36.8662 7.20003V32.9667C36.8662 33.4632 36.7993 33.9436 36.6743 34.3995C36.0471 36.6899 33.9551 38.3825 31.4787 38.3667H7.71615C5.19246 38.3667 3.13281 36.307 3.13281 33.7833V32.1333C3.13281 29.6096 5.19246 27.55 7.71615 27.55H9.41616V7.20003ZM11.9162 27.55H23.9828C26.5065 27.55 28.5662 29.6096 28.5662 32.1333V33.7833C28.5662 34.9263 29.5065 35.8667 30.6495 35.8667H31.4662C33.025 35.8667 34.3049 34.633 34.364 33.0791C34.3655 33.0418 34.3662 33.0043 34.3662 32.9667V7.20003C34.3662 6.05706 33.4258 5.1167 32.2828 5.1167H13.9995C12.8565 5.1167 11.9162 6.05706 11.9162 7.20003V27.55ZM26.5691 35.8667C26.2477 35.241 26.0662 34.5326 26.0662 33.7833V32.1333C26.0662 30.9904 25.1258 30.05 23.9828 30.05H7.71615C6.57317 30.05 5.63281 30.9904 5.63281 32.1333V33.7833C5.63281 34.9263 6.57317 35.8667 7.71615 35.8667H26.5691Z" fill="#FB8C00"/>
<path fill-rule="evenodd" clip-rule="evenodd" d="M28.7508 12.7328C29.239 13.221 29.239 14.0124 28.7508 14.5006L23.7841 19.4672C22.646 20.6054 20.8045 20.6054 19.6664 19.4672L19.6664 19.4672L17.5497 17.3506C17.0616 16.8624 17.0616 16.0709 17.5497 15.5828C18.0379 15.0946 18.8293 15.0946 19.3175 15.5828L21.4341 17.6995C21.4341 17.6995 21.4341 17.6995 21.4341 17.6995C21.596 17.8613 21.8545 17.8613 22.0164 17.6995L26.983 12.7328C27.4712 12.2447 28.2627 12.2447 28.7508 12.7328Z" fill="#FB8C00"/>
<path fill-rule="evenodd" clip-rule="evenodd" d="M17.084 28.8167V33.8C17.084 34.943 18.0243 35.8833 19.1673 35.8833H24.1507V38.3833H19.1673C16.6436 38.3833 14.584 36.3237 14.584 33.8V28.8167H17.084Z" fill="#FB8C00"/>
</g>
<defs>
<clipPath id="clip0_8018_4943">
<rect width="40" height="40" fill="white" transform="translate(0 0.5)"/>
</clipPath>
</defs>
</svg>
