<svg width="40" height="40" viewBox="0 0 40 40" fill="none" xmlns="http://www.w3.org/2000/svg">
<path fill-rule="evenodd" clip-rule="evenodd" d="M2.08301 20.2751C2.08301 19.5848 2.64265 19.0251 3.33301 19.0251H4.44968C5.49583 19.0251 6.49771 19.4387 7.23357 20.1746L7.23357 20.1746L10.1336 23.0746C10.3977 23.3388 10.7625 23.4918 11.1497 23.4918H18.233C20.1567 23.4918 21.7163 25.0515 21.7163 26.9751C21.7163 28.8988 20.1567 30.4585 18.233 30.4585H13.7663C13.076 30.4585 12.5163 29.8988 12.5163 29.2085C12.5163 28.5181 13.076 27.9585 13.7663 27.9585H18.233C18.776 27.9585 19.2163 27.5181 19.2163 26.9751C19.2163 26.4322 18.776 25.9918 18.233 25.9918H11.1497C10.1035 25.9918 9.10164 25.5782 8.3658 24.8424L9.24968 23.9585L8.36579 24.8424L5.4658 21.9424C5.4658 21.9424 5.4658 21.9424 5.4658 21.9424C5.20165 21.6782 4.83686 21.5251 4.44968 21.5251H3.33301C2.64265 21.5251 2.08301 20.9655 2.08301 20.2751Z" fill="#0B4E83"/>
<path fill-rule="evenodd" clip-rule="evenodd" d="M30.264 22.4216C32.0141 24.151 31.7113 27.0494 29.6747 28.3999C29.6744 28.4001 29.6751 28.3997 29.6747 28.3999L16.4432 37.1987C16.443 37.1988 16.4435 37.1985 16.4432 37.1987C15.0313 38.1396 13.2182 38.1429 11.8064 37.2369L2.69123 31.7811C2.09887 31.4266 1.90609 30.659 2.26064 30.0666C2.61519 29.4743 3.38281 29.2815 3.97517 29.636L13.1284 35.1146L13.1478 35.1272C13.7327 35.5074 14.4756 35.5058 15.0565 35.1185L28.2927 26.3166C29.0206 25.8343 29.1183 24.8028 28.5056 24.1987L28.4993 24.1925C28.0288 23.722 27.292 23.6549 26.7676 24.0102L26.7584 24.0164L21.5417 27.483C20.9667 27.8651 20.1909 27.7087 19.8088 27.1338C19.4267 26.5588 19.5831 25.7829 20.158 25.4008L25.3705 21.937C26.9109 20.897 28.969 21.1296 30.264 22.4216Z" fill="#0B4E83"/>
<path fill-rule="evenodd" clip-rule="evenodd" d="M21.7665 12.0417C21.2236 12.0417 20.7832 12.4821 20.7832 13.0251C20.7832 13.5681 21.2236 14.0084 21.7665 14.0084H28.8499C29.896 14.0084 30.8979 14.422 31.6338 15.1579L34.5338 18.0579C34.7979 18.322 35.1627 18.4751 35.5499 18.4751H36.6665C37.3569 18.4751 37.9165 19.0347 37.9165 19.7251C37.9165 20.4154 37.3569 20.9751 36.6665 20.9751H35.5499C34.5037 20.9751 33.5018 20.5615 32.766 19.8256L29.866 16.9256C29.6018 16.6615 29.237 16.5084 28.8499 16.5084H21.7665C19.8429 16.5084 18.2832 14.9488 18.2832 13.0251C18.2832 11.1014 19.8429 9.54175 21.7665 9.54175H26.2332C26.9236 9.54175 27.4832 10.1014 27.4832 10.7917C27.4832 11.4821 26.9236 12.0417 26.2332 12.0417H21.7665Z" fill="#0B4E83"/>
<path fill-rule="evenodd" clip-rule="evenodd" d="M28.1934 2.76343L37.3086 8.21922C37.901 8.57377 38.0937 9.34139 37.7392 9.93374C37.3846 10.5261 36.617 10.7189 36.0247 10.3643L26.8715 4.88578L26.8521 4.87317C26.2671 4.49295 25.5243 4.49455 24.9433 4.88185L11.7071 13.6838C10.9792 14.1661 10.8816 15.1976 11.4942 15.8017L11.5005 15.8079C11.971 16.2783 12.7078 16.3455 13.2322 15.9902L13.2414 15.984L18.4581 12.5174C19.0331 12.1353 19.809 12.2916 20.1911 12.8666C20.5732 13.4416 20.4168 14.2174 19.8418 14.5995L14.6294 18.0634C13.089 19.1034 11.0309 18.8708 9.7359 17.5788C7.98566 15.8494 8.28851 12.9508 10.3253 11.6003C10.3251 11.6005 10.3256 11.6002 10.3253 11.6003L23.5566 2.80172C23.5564 2.80183 23.5568 2.80161 23.5566 2.80172C24.9685 1.86071 26.7816 1.85739 28.1934 2.76343Z" fill="#0B4E83"/>
</svg>
