<svg width="32" height="32" viewBox="0 0 32 32" fill="none" xmlns="http://www.w3.org/2000/svg">
<path fill-rule="evenodd" clip-rule="evenodd" d="M28.24 15.9933C28.24 9.23829 22.7671 3.75333 16 3.75333V1.75333C23.8729 1.75333 30.24 8.13503 30.24 15.9933C30.24 23.8523 23.859 30.2333 16 30.2333V28.2333C22.7544 28.2333 28.24 22.7477 28.24 15.9933Z" fill="#2962FF"/>
<path fill-rule="evenodd" clip-rule="evenodd" d="M11.0974 28.3519C11.2603 27.8241 11.8201 27.5283 12.3478 27.6911C13.5103 28.0498 14.731 28.2467 15.9996 28.2467C16.5519 28.2467 16.9996 28.6944 16.9996 29.2467C16.9996 29.7989 16.5519 30.2467 15.9996 30.2467C14.5215 30.2467 13.1023 30.0169 11.7582 29.6022C11.2305 29.4394 10.9346 28.8796 11.0974 28.3519Z" fill="#2962FF"/>
<path fill-rule="evenodd" clip-rule="evenodd" d="M10.0839 4.09218C10.3681 4.56576 10.2145 5.18002 9.74094 5.46417C8.8323 6.00935 7.99901 6.66852 7.2615 7.42204C6.87519 7.81674 6.24206 7.82354 5.84737 7.43723C5.45267 7.05092 5.44587 6.41779 5.83218 6.0231C6.68847 5.14822 7.65615 4.38266 8.71195 3.74918C9.18553 3.46503 9.79979 3.6186 10.0839 4.09218ZM3.45256 11.6403C3.98654 11.7814 4.30511 12.3285 4.1641 12.8625C3.90054 13.8606 3.75977 14.9096 3.75977 15.9933C3.75977 16.8261 3.84274 17.6392 4.00055 18.4247C4.10933 18.9662 3.75857 19.4933 3.21711 19.6021C2.67564 19.7109 2.14851 19.3601 2.03973 18.8187C1.85603 17.9043 1.75977 16.9593 1.75977 15.9933C1.75977 14.7357 1.92323 13.5151 2.23039 12.3519C2.37139 11.8179 2.91858 11.4993 3.45256 11.6403ZM4.49673 22.639C4.95288 22.3276 5.57507 22.445 5.88644 22.9012C6.34747 23.5766 6.87416 24.2027 7.45712 24.7699C7.85296 25.1551 7.86163 25.7882 7.47649 26.184C7.09135 26.5799 6.45825 26.5885 6.06241 26.2034C5.38376 25.5431 4.77093 24.8144 4.23458 24.0287C3.92321 23.5726 4.04059 22.9504 4.49673 22.639Z" fill="#2962FF"/>
<path fill-rule="evenodd" clip-rule="evenodd" d="M15.9996 3.75333C14.7295 3.75333 13.4965 3.95069 12.3507 4.30799C11.8234 4.4724 11.2627 4.17826 11.0983 3.65102C10.9339 3.12377 11.2281 2.56307 11.7553 2.39866C13.0895 1.98263 14.523 1.75333 15.9996 1.75333C16.5519 1.75333 16.9996 2.20104 16.9996 2.75333C16.9996 3.30561 16.5519 3.75333 15.9996 3.75333Z" fill="#2962FF"/>
<path fill-rule="evenodd" clip-rule="evenodd" d="M22.1073 12.1529C22.4978 12.5434 22.4978 13.1766 22.1073 13.5671L16.2273 19.4471C15.3168 20.3576 13.8436 20.3576 12.9331 19.4471L12.9331 19.4471L9.8798 16.3938C9.48928 16.0032 9.48929 15.3701 9.87981 14.9796C10.2703 14.589 10.9035 14.589 11.294 14.9796L14.3473 18.0329C14.3473 18.0329 14.3473 18.0329 14.3473 18.0329C14.4768 18.1624 14.6836 18.1624 14.8131 18.0329L20.6931 12.1529C21.0836 11.7624 21.7168 11.7624 22.1073 12.1529Z" fill="#2962FF"/>
</svg>
