<svg width="40" height="40" viewBox="0 0 40 40" fill="none" xmlns="http://www.w3.org/2000/svg">
<g clip-path="url(#clip0_8018_5178)">
<path fill-rule="evenodd" clip-rule="evenodd" d="M35.3 19.9917C35.3 11.5479 28.4588 4.69165 20 4.69165V2.19165C29.8412 2.19165 37.8 10.1688 37.8 19.9917C37.8 29.8153 29.8237 37.7916 20 37.7916V35.2916C28.443 35.2916 35.3 28.4346 35.3 19.9917Z" fill="#FB8C00"/>
<path fill-rule="evenodd" clip-rule="evenodd" d="M13.8723 35.4398C14.0758 34.7801 14.7756 34.4104 15.4352 34.6139C16.8884 35.0622 18.4143 35.3083 20 35.3083C20.6904 35.3083 21.25 35.868 21.25 36.5583C21.25 37.2487 20.6904 37.8083 20 37.8083C18.1524 37.8083 16.3784 37.5211 14.6982 37.0028C14.0386 36.7992 13.6688 36.0995 13.8723 35.4398Z" fill="#FB8C00"/>
<path fill-rule="evenodd" clip-rule="evenodd" d="M12.6044 5.11525C12.9596 5.70722 12.7677 6.47505 12.1757 6.83023C11.0399 7.51172 9.99827 8.33568 9.07638 9.27758C8.5935 9.77095 7.80209 9.77945 7.30872 9.29656C6.81535 8.81368 6.80685 8.02227 7.28974 7.5289C8.3601 6.4353 9.5697 5.47835 10.8895 4.6865C11.4814 4.33132 12.2493 4.52327 12.6044 5.11525ZM4.31521 14.5505C4.98269 14.7267 5.3809 15.4107 5.20464 16.0782C4.87518 17.3258 4.69922 18.637 4.69922 19.9917C4.69922 21.0327 4.80293 22.049 5.0002 23.031C5.13618 23.7078 4.69773 24.3667 4.0209 24.5027C3.34407 24.6387 2.68515 24.2002 2.54918 23.5234C2.31955 22.3804 2.19922 21.1991 2.19922 19.9917C2.19922 18.4196 2.40354 16.8939 2.78749 15.4399C2.96376 14.7724 3.64774 14.3742 4.31521 14.5505ZM5.62043 28.2988C6.19061 27.9096 6.96835 28.0563 7.35756 28.6265C7.93385 29.4707 8.59221 30.2535 9.32091 30.9625C9.81571 31.4439 9.82655 32.2353 9.34513 32.7301C8.8637 33.2249 8.07232 33.2357 7.57753 32.7543C6.72922 31.9289 5.96317 31.0181 5.29274 30.0359C4.90353 29.4657 5.05024 28.688 5.62043 28.2988Z" fill="#FB8C00"/>
<path fill-rule="evenodd" clip-rule="evenodd" d="M20 4.69165C18.4124 4.69165 16.8711 4.93835 15.4389 5.38498C14.7798 5.59049 14.0789 5.22282 13.8734 4.56376C13.6679 3.90471 14.0356 3.20383 14.6946 2.99832C16.3623 2.47829 18.1543 2.19165 20 2.19165C20.6904 2.19165 21.25 2.75129 21.25 3.44165C21.25 4.13201 20.6904 4.69165 20 4.69165Z" fill="#FB8C00"/>
<path fill-rule="evenodd" clip-rule="evenodd" d="M27.6329 15.1911C28.1211 15.6792 28.1211 16.4707 27.6329 16.9588L20.2829 24.3088C19.1448 25.447 17.3033 25.447 16.1651 24.3088L16.1651 24.3088L12.3485 20.4922C11.8604 20.004 11.8604 19.2125 12.3485 18.7244C12.8367 18.2362 13.6282 18.2362 14.1163 18.7244L17.9329 22.5411C17.9329 22.5411 17.9329 22.5411 17.9329 22.5411C18.0948 22.7029 18.3533 22.7029 18.5151 22.5411L25.8651 15.1911C26.3533 14.7029 27.1448 14.7029 27.6329 15.1911Z" fill="#FB8C00"/>
</g>
<defs>
<clipPath id="clip0_8018_5178">
<rect width="40" height="40" fill="white"/>
</clipPath>
</defs>
</svg>
