<svg width="40" height="40" viewBox="0 0 40 40" fill="none" xmlns="http://www.w3.org/2000/svg">
<path fill-rule="evenodd" clip-rule="evenodd" d="M20 3.75C11.0254 3.75 3.75 11.0254 3.75 20C3.75 28.9746 11.0254 36.25 20 36.25C28.9746 36.25 36.25 28.9746 36.25 20C36.25 11.0254 28.9746 3.75 20 3.75ZM1.25 20C1.25 9.64466 9.64466 1.25 20 1.25C30.3553 1.25 38.75 9.64466 38.75 20C38.75 30.3553 30.3553 38.75 20 38.75C9.64466 38.75 1.25 30.3553 1.25 20Z" fill="#0B4E83"/>
<path fill-rule="evenodd" clip-rule="evenodd" d="M16.4537 8.07063C15.3141 11.0623 14.583 15.2796 14.583 20C14.583 24.7204 15.3141 28.9377 16.4537 31.9294C17.0252 33.4296 17.6753 34.5574 18.3335 35.2882C18.992 36.0193 19.5572 36.25 19.9997 36.25C20.4421 36.25 21.0073 36.0193 21.6658 35.2882C22.3241 34.5574 22.9741 33.4296 23.5456 31.9294C24.6853 28.9377 25.4163 24.7204 25.4163 20C25.4163 15.2796 24.6853 11.0623 23.5456 8.07063C22.9741 6.57045 22.3241 5.4426 21.6658 4.71179C21.0073 3.98068 20.4421 3.75 19.9997 3.75C19.5572 3.75 18.992 3.98068 18.3335 4.71179C17.6753 5.4426 17.0252 6.57045 16.4537 8.07063ZM16.4759 3.03869C17.4126 1.9987 18.6012 1.25 19.9997 1.25C21.3982 1.25 22.5868 1.9987 23.5234 3.03869C24.4604 4.07897 25.2469 5.51394 25.8818 7.18064C27.155 10.5227 27.9163 15.0554 27.9163 20C27.9163 24.9446 27.155 29.4773 25.8818 32.8194C25.2469 34.4861 24.4604 35.921 23.5234 36.9613C22.5868 38.0013 21.3982 38.75 19.9997 38.75C18.6012 38.75 17.4126 38.0013 16.4759 36.9613C15.5389 35.921 14.7525 34.4861 14.1175 32.8194C12.8443 29.4773 12.083 24.9446 12.083 20C12.083 15.0554 12.8443 10.5227 14.1175 7.18064C14.7525 5.51394 15.5389 4.07897 16.4759 3.03869Z" fill="#0B4E83"/>
<path fill-rule="evenodd" clip-rule="evenodd" d="M37.5001 21.25H2.9834V18.75H37.5001V21.25Z" fill="#0B4E83"/>
</svg>
