<svg width="40" height="40" viewBox="0 0 40 40" fill="none" xmlns="http://www.w3.org/2000/svg">
<g clip-path="url(#clip0_8018_5453)">
<path fill-rule="evenodd" clip-rule="evenodd" d="M2.08008 19.0084C2.08008 17.4681 3.32305 16.2251 4.86341 16.2251H11.9134C13.4538 16.2251 14.6967 17.4681 14.6967 19.0084V32.7918C14.6967 34.3321 13.4538 35.5751 11.9134 35.5751H4.86341C3.32305 35.5751 2.08008 34.3321 2.08008 32.7918V19.0084ZM4.86341 18.7251C4.70377 18.7251 4.58008 18.8488 4.58008 19.0084V32.7918C4.58008 32.9514 4.70377 33.0751 4.86341 33.0751H11.9134C12.0731 33.0751 12.1967 32.9514 12.1967 32.7918V19.0084C12.1967 18.8488 12.0731 18.7251 11.9134 18.7251H4.86341Z" fill="#FB8C00"/>
<path fill-rule="evenodd" clip-rule="evenodd" d="M22.4884 7.05773C22.4882 7.05805 22.4886 7.05741 22.4884 7.05773L14.7484 19.4251C14.7091 19.4932 14.6973 19.5534 14.6973 19.5917V31.1084C14.6973 31.268 14.821 31.3917 14.9806 31.3917H32.4473C32.5896 31.3917 32.7017 31.2888 32.725 31.1798L32.7269 31.1711L35.4109 19.0683C35.4501 18.8932 35.3239 18.725 35.1306 18.725H26.7806C25.2402 18.725 23.9973 17.4821 23.9973 15.9417V7.20838C23.9973 7.04875 23.8736 6.92505 23.7139 6.92505H22.7306C22.6262 6.92505 22.5424 6.97264 22.4884 7.05773ZM20.3728 5.7257C20.8855 4.9114 21.7687 4.42505 22.7306 4.42505H23.7139C25.2543 4.42505 26.4973 5.66801 26.4973 7.20838V15.9417C26.4973 16.1014 26.621 16.225 26.7806 16.225H35.1306C36.9035 16.225 38.2438 17.8562 37.8506 19.6139C37.8505 19.6143 37.8507 19.6136 37.8506 19.6139L35.1685 31.7085C34.89 32.9969 33.7366 33.8917 32.4473 33.8917H14.9806C13.4402 33.8917 12.1973 32.6487 12.1973 31.1084V19.5917C12.1973 19.0647 12.3513 18.561 12.6087 18.1319L12.6208 18.1118L20.371 5.72858L20.3728 5.7257Z" fill="#FB8C00"/>
</g>
<defs>
<clipPath id="clip0_8018_5453">
<rect width="40" height="40" fill="white"/>
</clipPath>
</defs>
</svg>
