<svg width="23" height="22" viewBox="0 0 23 22" fill="none" xmlns="http://www.w3.org/2000/svg">
<path d="M12.2825 3.34734L11.7572 3.65843C11.1802 4.00013 10.8917 4.17098 10.5739 4.21078C10.2561 4.25058 9.94491 4.15484 9.32261 3.96335L8.75606 3.78901C6.56618 3.11513 5.47124 2.7782 4.81307 3.3806C4.1549 3.983 4.36938 5.12579 4.79834 7.41137L4.90931 8.00268C5.03121 8.65217 5.09216 8.97692 5.01986 9.29416C4.94756 9.61141 4.7502 9.88525 4.35548 10.4329L3.99612 10.9315C2.60708 12.8588 1.91256 13.8225 2.25139 14.6214C2.59021 15.4203 3.738 15.5253 6.03356 15.7354L6.62746 15.7898C7.27978 15.8495 7.60595 15.8793 7.87908 16.0356C8.15221 16.1919 8.34138 16.4569 8.71972 16.9868L9.06417 17.4693C10.3956 19.3343 11.0613 20.2668 11.9289 20.1582C12.7964 20.0495 13.2913 18.9717 14.2811 16.8159L14.5372 16.2582C14.6809 15.9452 14.7879 15.7121 14.8904 15.5295L19.097 19.7362C19.3655 20.0047 19.8008 20.0047 20.0693 19.7362C20.3378 19.4677 20.3378 19.0324 20.0693 18.7639L16.0069 14.7014C16.1187 14.6608 16.2435 14.617 16.3841 14.5678L16.9563 14.3674C19.1682 13.5927 20.2742 13.2054 20.4716 12.3394C20.6689 11.4733 19.827 10.7021 18.1432 9.15969L17.7075 8.76064C17.229 8.32234 16.9898 8.10317 16.8656 7.81053C16.7415 7.51788 16.7466 7.18487 16.7567 6.51887L16.7659 5.91248C16.8015 3.56871 16.8194 2.39683 16.0738 1.97024C15.3282 1.54366 14.3129 2.14489 12.2825 3.34734Z" fill="white"/>
</svg>
