<svg width="36" height="36" viewBox="0 0 36 36" fill="none" xmlns="http://www.w3.org/2000/svg">
<path d="M31.5 19.7434C31.5 18.178 31.5 14.3954 31.0753 13.8061C30.6506 13.2169 29.9081 12.9694 28.423 12.4743L27 12M31.5 25.2435C31.5 27.1798 31.5 28.148 30.9904 28.77C30.8173 28.9812 30.6073 29.1591 30.3705 29.2951C29.6732 29.6955 28.7182 29.5364 26.8082 29.218C24.9236 28.9039 23.9812 28.7469 23.0473 28.825C22.7195 28.8525 22.3939 28.9014 22.0725 28.9716C21.1569 29.1716 20.2949 29.6026 18.5709 30.4645C16.3214 31.5893 15.1966 32.1517 13.9993 32.3251C13.6386 32.3773 13.2747 32.4032 12.9103 32.4025C11.7005 32.4002 10.5178 32.0059 8.15232 31.2174L7.57698 31.0257C6.09193 30.5306 5.34941 30.2831 4.92471 29.6939C4.5 29.1046 4.5 28.322 4.5 26.7566V25.5M4.5 19.362C4.5 16.8737 4.5 15.6295 5.23262 14.9604C5.36082 14.8433 5.50213 14.7414 5.65375 14.6568C6.42639 14.2258 7.44857 14.4919 9.33466 15.1125" stroke="black" stroke-opacity="0.87" stroke-width="2.25" stroke-linecap="round"/>
<path d="M25.875 16.8769C26.6034 15.1403 27 13.2914 27 11.5505C27 6.82817 22.9706 3 18 3C13.0294 3 9 6.82817 9 11.5505C9 16.2357 11.8725 21.703 16.3542 23.6582C17.399 24.1139 18.601 24.1139 19.6458 23.6582C21.0772 23.0337 22.3444 22.051 23.4063 20.85" stroke="black" stroke-opacity="0.87" stroke-width="2.25" stroke-linecap="round"/>
<circle cx="18" cy="12" r="3" stroke="black" stroke-opacity="0.87" stroke-width="2.25"/>
</svg>
