<svg width="12" height="16" viewBox="0 0 12 16" fill="none" xmlns="http://www.w3.org/2000/svg">
<path d="M6.66813 15.16C5.42813 15.16 4.36813 14.8867 3.48813 14.34C2.60813 13.7933 1.93479 13.0067 1.46813 11.98C1.01479 10.94 0.788125 9.67333 0.788125 8.18C0.788125 6.59333 1.06813 5.25333 1.62813 4.16C2.18813 3.06667 2.96813 2.24 3.96813 1.68C4.96813 1.12 6.11479 0.84 7.40813 0.84C8.07479 0.84 8.70813 0.906667 9.30813 1.04C9.92146 1.17333 10.4481 1.38 10.8881 1.66L10.1281 3.22C9.76813 2.96667 9.35479 2.79333 8.88813 2.7C8.43479 2.60667 7.95479 2.56 7.44813 2.56C6.02146 2.56 4.88813 3.00667 4.04813 3.9C3.20813 4.78 2.78813 6.09333 2.78813 7.84C2.78813 8.12 2.80146 8.45333 2.82813 8.84C2.85479 9.22667 2.92146 9.60667 3.02813 9.98L2.34813 9.3C2.54813 8.68667 2.86146 8.17333 3.28813 7.76C3.72813 7.33333 4.24813 7.02 4.84813 6.82C5.46146 6.60667 6.12146 6.5 6.82813 6.5C7.76146 6.5 8.58813 6.67333 9.30813 7.02C10.0281 7.36667 10.5948 7.86 11.0081 8.5C11.4215 9.12667 11.6281 9.87333 11.6281 10.74C11.6281 11.6333 11.4081 12.4133 10.9681 13.08C10.5281 13.7467 9.93479 14.26 9.18813 14.62C8.44146 14.98 7.60146 15.16 6.66813 15.16ZM6.58813 13.54C7.20146 13.54 7.73479 13.4267 8.18813 13.2C8.65479 12.9733 9.02146 12.66 9.28813 12.26C9.55479 11.8467 9.68813 11.3667 9.68813 10.82C9.68813 9.99333 9.40146 9.34 8.82813 8.86C8.25479 8.36667 7.47479 8.12 6.48813 8.12C5.84813 8.12 5.28813 8.24 4.80813 8.48C4.32813 8.72 3.94813 9.04667 3.66813 9.46C3.40146 9.86 3.26813 10.32 3.26813 10.84C3.26813 11.32 3.39479 11.7667 3.64813 12.18C3.90146 12.58 4.27479 12.9067 4.76813 13.16C5.26146 13.4133 5.86813 13.54 6.58813 13.54Z" fill="#2962FF"/>
</svg>
