<svg width="12" height="15" viewBox="0 0 12 15" fill="none" xmlns="http://www.w3.org/2000/svg">
<path d="M0.997813 15V13.64L6.69781 8.14C7.20448 7.66 7.57781 7.24 7.81781 6.88C8.07115 6.50667 8.23781 6.16667 8.31781 5.86C8.41115 5.54 8.45781 5.23333 8.45781 4.94C8.45781 4.22 8.20448 3.65333 7.69781 3.24C7.19115 2.82667 6.45115 2.62 5.47781 2.62C4.73115 2.62 4.05781 2.74667 3.45781 3C2.85781 3.24 2.33781 3.62 1.89781 4.14L0.537813 2.96C1.07115 2.28 1.78448 1.76 2.67781 1.4C3.58448 1.02667 4.57781 0.84 5.65781 0.84C6.63115 0.84 7.47781 1 8.19781 1.32C8.91781 1.62667 9.47115 2.07333 9.85781 2.66C10.2578 3.24667 10.4578 3.94 10.4578 4.74C10.4578 5.19333 10.3978 5.64 10.2778 6.08C10.1578 6.52 9.93115 6.98667 9.59781 7.48C9.26448 7.97333 8.78448 8.52667 8.15781 9.14L3.07781 14.04L2.59781 13.26H11.0578V15H0.997813Z" fill="#2962FF"/>
</svg>
