<svg width="11" height="15" viewBox="0 0 11 15" fill="none" xmlns="http://www.w3.org/2000/svg">
<path d="M5.51734 14.16C4.53068 14.16 3.57068 14.0067 2.63734 13.7C1.71734 13.3933 0.96401 12.98 0.377344 12.46L1.29734 10.88C1.76401 11.32 2.37068 11.68 3.11734 11.96C3.86401 12.24 4.66401 12.38 5.51734 12.38C6.55734 12.38 7.36401 12.16 7.93734 11.72C8.52401 11.2667 8.81734 10.66 8.81734 9.9C8.81734 9.16667 8.53734 8.58 7.97734 8.14C7.43068 7.68667 6.55734 7.46 5.35734 7.46H4.23734V6.06L8.39734 0.939999L8.67734 1.74H1.01734V-9.53674e-07H10.2573V1.36L6.11734 6.46L5.07734 5.84H5.73734C7.43068 5.84 8.69734 6.22 9.53734 6.98C10.3907 7.74 10.8173 8.70667 10.8173 9.88C10.8173 10.6667 10.624 11.3867 10.2373 12.04C9.85068 12.6933 9.26401 13.2133 8.47734 13.6C7.70401 13.9733 6.71734 14.16 5.51734 14.16Z" fill="#2962FF"/>
</svg>
