<svg width="12" height="15" viewBox="0 0 12 15" fill="none" xmlns="http://www.w3.org/2000/svg">
<path d="M5.73781 14.16C4.75115 14.16 3.79115 14.0067 2.85781 13.7C1.93781 13.3933 1.18448 12.98 0.597813 12.46L1.51781 10.88C1.98448 11.32 2.59115 11.68 3.33781 11.96C4.08448 12.24 4.87781 12.38 5.71781 12.38C6.78448 12.38 7.60448 12.1533 8.17781 11.7C8.75115 11.2467 9.03781 10.64 9.03781 9.88C9.03781 9.36 8.91115 8.90667 8.65781 8.52C8.40448 8.13333 7.96448 7.84 7.33781 7.64C6.72448 7.42667 5.87781 7.32 4.79781 7.32H1.61781L2.35781 -9.53674e-07H10.2578V1.74H3.09781L4.13781 0.759999L3.55781 6.54L2.51781 5.58H5.21781C6.61781 5.58 7.74448 5.76 8.59781 6.12C9.45115 6.48 10.0711 6.98 10.4578 7.62C10.8445 8.24667 11.0378 8.97333 11.0378 9.8C11.0378 10.6 10.8445 11.3333 10.4578 12C10.0711 12.6533 9.48448 13.18 8.69781 13.58C7.92448 13.9667 6.93781 14.16 5.73781 14.16Z" fill="#2962FF"/>
</svg>
