<svg width="36" height="36" viewBox="0 0 36 36" fill="none" xmlns="http://www.w3.org/2000/svg">
<circle cx="7.5" cy="7.5" r="4.5" stroke="black" stroke-opacity="0.87" stroke-width="2.25"/>
<path d="M16.5001 6.375C15.8788 6.375 15.3751 6.87868 15.3751 7.5C15.3751 8.12132 15.8788 8.625 16.5001 8.625V6.375ZM18.7498 28.5L19.5453 29.2955C19.9846 28.8562 19.9846 28.1438 19.5453 27.7045L18.7498 28.5ZM25.8085 13.031L26.4125 13.9801L25.8085 13.031ZM10.1916 22.969L10.7956 23.9181H10.7956L10.1916 22.969ZM17.2953 25.4545C16.8559 25.0152 16.1436 25.0152 15.7043 25.4545C15.2649 25.8938 15.2649 26.6062 15.7043 27.0455L17.2953 25.4545ZM15.7043 29.9545C15.2649 30.3938 15.2649 31.1062 15.7043 31.5455C16.1436 31.9848 16.8559 31.9848 17.2953 31.5455L15.7043 29.9545ZM15.6041 20.8582C16.1283 20.5246 16.2828 19.8293 15.9492 19.3051C15.6157 18.7809 14.9203 18.6264 14.3961 18.9599L15.6041 20.8582ZM19.8003 15.5209C19.2762 15.8545 19.1216 16.5498 19.4552 17.074C19.7888 17.5982 20.4841 17.7527 21.0083 17.4191L19.8003 15.5209ZM24.1979 6.375H16.5001V8.625H24.1979V6.375ZM18.7498 27.375H11.8023V29.625H18.7498V27.375ZM19.5453 27.7045L17.2953 25.4545L15.7043 27.0455L17.9543 29.2955L19.5453 27.7045ZM17.9543 27.7045L15.7043 29.9545L17.2953 31.5455L19.5453 29.2955L17.9543 27.7045ZM11.8023 27.375C9.92643 27.375 9.21304 24.9252 10.7956 23.9181L9.58765 22.0199C6.106 24.2355 7.6754 29.625 11.8023 29.625V27.375ZM24.1979 8.625C26.0737 8.625 26.7871 11.0748 25.2045 12.0819L26.4125 13.9801C29.8942 11.7645 28.3248 6.375 24.1979 6.375V8.625ZM14.3961 18.9599L9.58765 22.0199L10.7956 23.9181L15.6041 20.8582L14.3961 18.9599ZM25.2045 12.0819L19.8003 15.5209L21.0083 17.4191L26.4125 13.9801L25.2045 12.0819Z" fill="black" fill-opacity="0.87"/>
<path d="M22.5 25.886C22.5 23.1875 24.8505 21 27.75 21C30.6495 21 33 23.1875 33 25.886C33 28.5633 31.3244 31.6874 28.71 32.8047C28.1006 33.0651 27.3994 33.0651 26.79 32.8047C24.1756 31.6874 22.5 28.5633 22.5 25.886Z" stroke="black" stroke-opacity="0.87" stroke-width="2.25"/>
<path d="M29.25 26.25C29.25 27.0784 28.5784 27.75 27.75 27.75C26.9216 27.75 26.25 27.0784 26.25 26.25C26.25 25.4216 26.9216 24.75 27.75 24.75C28.5784 24.75 29.25 25.4216 29.25 26.25Z" fill="black" fill-opacity="0.87"/>
</svg>
