<svg width="40" height="40" viewBox="0 0 40 40" fill="none" xmlns="http://www.w3.org/2000/svg">
<path fill-rule="evenodd" clip-rule="evenodd" d="M2.07812 16.2899C2.07812 15.5995 2.63777 15.0399 3.32812 15.0399H4.72813C5.93747 15.0399 7.11025 15.5179 7.96742 16.3947L11.562 19.9893C11.966 20.3933 12.4834 20.6065 13.0281 20.6065H21.8282C24.0519 20.6065 25.8615 22.4161 25.8615 24.6398C25.8615 26.8635 24.0519 28.6732 21.8282 28.6732H16.2781C15.5878 28.6732 15.0281 28.1135 15.0281 27.4232C15.0281 26.7328 15.5878 26.1732 16.2781 26.1732H21.8282C22.6712 26.1732 23.3615 25.4828 23.3615 24.6398C23.3615 23.7969 22.6712 23.1065 21.8282 23.1065H13.0281C11.8062 23.1065 10.6569 22.6197 9.79424 21.7571L6.18248 18.1453C5.80686 17.7595 5.2825 17.5399 4.72813 17.5399H3.32812C2.63777 17.5399 2.07812 16.9802 2.07812 16.2899Z" fill="#ED6C02"/>
<path fill-rule="evenodd" clip-rule="evenodd" d="M36.5931 19.1871C38.6292 21.2031 38.2681 24.5639 35.9074 26.1453L35.9036 26.1479L19.4536 37.0812L19.4518 37.0824C17.8182 38.1641 15.6715 38.1989 14.0135 37.1157L2.68589 30.3291C2.09368 29.9743 1.90123 29.2066 2.25603 28.6144C2.61083 28.0222 3.37853 27.8297 3.97074 28.1845L15.3449 34.999L15.3684 35.0146C16.1734 35.5476 17.246 35.5441 18.0706 34.9986C18.0703 34.9988 18.0709 34.9984 18.0706 34.9986L34.516 24.0683C34.5166 24.0679 34.5171 24.0676 34.5177 24.0672C35.5878 23.3488 35.7268 21.8462 34.8329 20.9624L34.8278 20.9574C34.1442 20.2738 33.0702 20.1646 32.2717 20.6969L25.7878 25.014C25.2132 25.3966 24.4372 25.2409 24.0546 24.6663C23.672 24.0916 23.8276 23.3156 24.4023 22.933L30.885 18.6168C30.8848 18.6169 30.8852 18.6166 30.885 18.6168C32.6855 17.4169 35.0767 17.6731 36.5931 19.1871Z" fill="#ED6C02"/>
<path fill-rule="evenodd" clip-rule="evenodd" d="M19.9951 2.08984C20.6855 2.08984 21.2451 2.64949 21.2451 3.33984V14.1732C21.2451 14.8635 20.6855 15.4232 19.9951 15.4232C19.3048 15.4232 18.7451 14.8635 18.7451 14.1732V3.33984C18.7451 2.64949 19.3048 2.08984 19.9951 2.08984Z" fill="#ED6C02"/>
<path fill-rule="evenodd" clip-rule="evenodd" d="M13.3281 8.75652C13.3281 8.06616 13.8878 7.50652 14.5781 7.50652H25.4115C26.1019 7.50652 26.6615 8.06616 26.6615 8.75652C26.6615 9.44687 26.1019 10.0065 25.4115 10.0065H14.5781C13.8878 10.0065 13.3281 9.44687 13.3281 8.75652Z" fill="#ED6C02"/>
</svg>
