<svg width="40" height="40" viewBox="0 0 40 40" fill="none" xmlns="http://www.w3.org/2000/svg">
<path fill-rule="evenodd" clip-rule="evenodd" d="M19.9997 4.58325C11.4853 4.58325 4.58301 11.4855 4.58301 19.9999C4.58301 28.5143 11.4853 35.4166 19.9997 35.4166C28.5141 35.4166 35.4163 28.5143 35.4163 19.9999C35.4163 11.4855 28.5141 4.58325 19.9997 4.58325ZM2.08301 19.9999C2.08301 10.1048 10.1046 2.08325 19.9997 2.08325C29.8948 2.08325 37.9163 10.1048 37.9163 19.9999C37.9163 29.895 29.8948 37.9166 19.9997 37.9166C10.1046 37.9166 2.08301 29.895 2.08301 19.9999Z" fill="#0B4E83"/>
<path fill-rule="evenodd" clip-rule="evenodd" d="M11.666 18.8833C12.3564 18.8833 12.916 19.4429 12.916 20.1333C12.916 24.0429 16.0897 27.2166 19.9993 27.2166C23.909 27.2166 27.0827 24.0429 27.0827 20.1333C27.0827 19.4429 27.6423 18.8833 28.3327 18.8833C29.023 18.8833 29.5827 19.4429 29.5827 20.1333C29.5827 25.4237 25.2897 29.7166 19.9993 29.7166C14.709 29.7166 10.416 25.4237 10.416 20.1333C10.416 19.4429 10.9757 18.8833 11.666 18.8833Z" fill="#0B4E83"/>
<path fill-rule="evenodd" clip-rule="evenodd" d="M26.666 13.8499C26.9513 13.8499 27.1826 13.6185 27.1826 13.3332C27.1826 13.0478 26.9513 12.8165 26.666 12.8165C26.3806 12.8165 26.1493 13.0478 26.1493 13.3332C26.1493 13.6185 26.3806 13.8499 26.666 13.8499ZM24.6826 13.3332C24.6826 12.2378 25.5706 11.3499 26.666 11.3499C27.7613 11.3499 28.6493 12.2378 28.6493 13.3332C28.6493 14.4285 27.7613 15.3165 26.666 15.3165C25.5706 15.3165 24.6826 14.4285 24.6826 13.3332Z" fill="#0B4E83"/>
<path fill-rule="evenodd" clip-rule="evenodd" d="M13.3329 13.8499C13.6183 13.8499 13.8496 13.6185 13.8496 13.3332C13.8496 13.0478 13.6183 12.8165 13.3329 12.8165C13.0476 12.8165 12.8163 13.0478 12.8163 13.3332C12.8163 13.6185 13.0476 13.8499 13.3329 13.8499ZM11.3496 13.3332C11.3496 12.2378 12.2376 11.3499 13.3329 11.3499C14.4283 11.3499 15.3163 12.2378 15.3163 13.3332C15.3163 14.4285 14.4283 15.3165 13.3329 15.3165C12.2376 15.3165 11.3496 14.4285 11.3496 13.3332Z" fill="#0B4E83"/>
</svg>
