<svg width="32" height="32" viewBox="0 0 32 32" fill="none" xmlns="http://www.w3.org/2000/svg">
<path fill-rule="evenodd" clip-rule="evenodd" d="M16.0003 3.66667C9.19261 3.66667 3.66699 9.19229 3.66699 16C3.66699 22.8077 9.19261 28.3333 16.0003 28.3333C22.808 28.3333 28.3337 22.8077 28.3337 16C28.3337 15.4477 28.7814 15 29.3337 15C29.8859 15 30.3337 15.4477 30.3337 16C30.3337 23.9123 23.9126 30.3333 16.0003 30.3333C8.08804 30.3333 1.66699 23.9123 1.66699 16C1.66699 8.08772 8.08804 1.66667 16.0003 1.66667C16.5526 1.66667 17.0003 2.11438 17.0003 2.66667C17.0003 3.21895 16.5526 3.66667 16.0003 3.66667Z" fill="white"/>
<path fill-rule="evenodd" clip-rule="evenodd" d="M13.7861 16C13.7861 14.7775 14.7773 13.7867 15.9995 13.7867C17.2219 13.7867 18.2128 14.7776 18.2128 16C18.2128 17.2224 17.2219 18.2133 15.9995 18.2133C14.7773 18.2133 13.7861 17.2225 13.7861 16ZM15.9995 15.7867C15.8817 15.7867 15.7861 15.8822 15.7861 16C15.7861 16.1178 15.8817 16.2133 15.9995 16.2133C16.1173 16.2133 16.2128 16.1178 16.2128 16C16.2128 15.8822 16.1173 15.7867 15.9995 15.7867Z" fill="white"/>
<path fill-rule="evenodd" clip-rule="evenodd" d="M29.2542 2.74623C29.6447 3.13675 29.6447 3.76992 29.2542 4.16044L16.7608 16.6538C16.3703 17.0443 15.7371 17.0443 15.3466 16.6538C14.9561 16.2632 14.9561 15.6301 15.3466 15.2396L27.8399 2.74623C28.2305 2.3557 28.8636 2.3557 29.2542 2.74623Z" fill="white"/>
<path fill-rule="evenodd" clip-rule="evenodd" d="M21.7998 4.34665C22.3521 4.34665 22.7998 4.79437 22.7998 5.34665V9.19999H26.6531C27.2054 9.19999 27.6531 9.6477 27.6531 10.2C27.6531 10.7523 27.2054 11.2 26.6531 11.2H20.7998V5.34665C20.7998 4.79437 21.2475 4.34665 21.7998 4.34665Z" fill="white"/>
<path fill-rule="evenodd" clip-rule="evenodd" d="M24.4795 1.67999C25.0318 1.67999 25.4795 2.1277 25.4795 2.67999V6.53332H29.3328C29.8851 6.53332 30.3328 6.98104 30.3328 7.53332C30.3328 8.08561 29.8851 8.53332 29.3328 8.53332H23.4795V2.67999C23.4795 2.1277 23.9272 1.67999 24.4795 1.67999Z" fill="white"/>
<path fill-rule="evenodd" clip-rule="evenodd" d="M16.2801 12.1467C14.1524 12.1467 12.4268 13.8723 12.4268 16C12.4268 18.1277 14.1524 19.8533 16.2801 19.8533C18.4078 19.8533 20.1334 18.1277 20.1334 16C20.1334 15.4477 20.5811 15 21.1334 15C21.6857 15 22.1334 15.4477 22.1334 16C22.1334 19.2323 19.5123 21.8533 16.2801 21.8533C13.0478 21.8533 10.4268 19.2323 10.4268 16C10.4268 12.7677 13.0478 10.1467 16.2801 10.1467C16.8323 10.1467 17.2801 10.5944 17.2801 11.1467C17.2801 11.699 16.8323 12.1467 16.2801 12.1467Z" fill="white"/>
</svg>
