<svg width="32" height="32" viewBox="0 0 32 32" fill="none" xmlns="http://www.w3.org/2000/svg">
<path fill-rule="evenodd" clip-rule="evenodd" d="M16.495 16.9888L16.8327 18.8272C16.8762 19.0575 16.9944 19.2874 17.1699 19.4629L25.6603 27.9532C26.1665 28.4494 26.9735 28.4421 27.4597 27.9589C27.9565 27.4518 27.9481 26.6428 27.4624 26.1571L18.9691 17.6638C18.7882 17.483 18.5708 17.3697 18.3373 17.3272L16.495 16.9888ZM14.3831 16.5611C14.217 15.5643 15.0704 14.7108 16.0672 14.8769L16.0835 14.8797L18.6951 15.3595C18.6947 15.3594 18.6954 15.3595 18.6951 15.3595C19.3412 15.4772 19.9243 15.7906 20.3833 16.2496L28.8766 24.7429C30.15 26.0163 30.1424 28.0855 28.8819 29.3651L28.8766 29.3705C27.6032 30.6439 25.5341 30.6363 24.2544 29.3757L24.249 29.3705L15.7557 20.8771C15.2916 20.413 14.9834 19.8168 14.8666 19.1943L14.8659 19.1907L14.3831 16.5611Z" fill="#2962FF"/>
<path fill-rule="evenodd" clip-rule="evenodd" d="M22.4746 26.1844L25.6746 22.971L27.0918 24.3823L23.8918 27.5956L22.4746 26.1844Z" fill="#2962FF"/>
<path fill-rule="evenodd" clip-rule="evenodd" d="M5.83659 3.67667C4.92221 3.67667 4.16992 4.42896 4.16992 5.34334V25.37C4.16992 26.2844 4.92221 27.0367 5.83659 27.0367H15.8499C16.4022 27.0367 16.8499 27.4844 16.8499 28.0367C16.8499 28.589 16.4022 29.0367 15.8499 29.0367H5.83659C3.81764 29.0367 2.16992 27.389 2.16992 25.37V5.34334C2.16992 3.32439 3.81764 1.67667 5.83659 1.67667H20.8233C22.8422 1.67667 24.4899 3.32439 24.4899 5.34334V14.0633C24.4899 14.6156 24.0422 15.0633 23.4899 15.0633C22.9376 15.0633 22.4899 14.6156 22.4899 14.0633V5.34334C22.4899 4.42896 21.7376 3.67667 20.8233 3.67667H5.83659Z" fill="#2962FF"/>
<path fill-rule="evenodd" clip-rule="evenodd" d="M10.3965 9.34334C10.3965 8.79105 10.8442 8.34334 11.3965 8.34334H15.2498C15.8021 8.34334 16.2498 8.79105 16.2498 9.34334C16.2498 9.89562 15.8021 10.3433 15.2498 10.3433H11.3965C10.8442 10.3433 10.3965 9.89562 10.3965 9.34334Z" fill="#2962FF"/>
</svg>
